<svg xmlns="http://www.w3.org/2000/svg" xmlns:xlink="http://www.w3.org/1999/xlink" viewBox="0 0 600 480" width="600" height="480"><defs><clipPath id="cc"><rect x="0" y="0" width="600" height="480" rx="24"/></clipPath></defs><g clip-path="url(#cc)"><rect width="600" height="480" fill="#14524a"/><g transform="translate(300.0,240.0) scale(0.8757,-0.8757) translate(-277.5,-35.0)"><path d="M33.8,0.0 Q32.6,0.0 32.5,1.1 L31.2,9.8 Q31.2,10.3 30.6,10.3 L19.8,10.3 Q19.2,10.3 19.2,9.8 L18.0,1.1 Q17.9,0.0 16.7,0.0 L2.5,0.0 Q1.2,0.0 1.5,1.3 L16.0,68.9 Q16.2,70.0 17.3,70.0 L33.6,70.0 Q34.7,70.0 34.9,68.9 L49.3,1.3 L49.4,0.9 Q49.4,0.0 48.3,0.0 L33.8,0.0 Z M21.4,23.6 Q21.4,23.1 21.8,23.1 L28.5,23.1 Q28.9,23.1 28.9,23.6 L25.3,46.4 Q25.2,46.8 25.0,46.8 Q24.8,46.8 24.7,46.4 L21.4,23.6 Z M81.6,0.0 Q80.5,0.0 80.2,1.0 L73.4,27.5 Q73.3,27.9 72.9,27.9 L71.4,27.9 Q70.9,27.9 70.9,27.4 L70.9,1.2 Q70.9,0.7 70.5,0.3 Q70.2,0.0 69.7,0.0 L55.5,0.0 Q55.0,0.0 54.6,0.3 Q54.3,0.7 54.3,1.2 L54.3,68.8 Q54.3,69.3 54.6,69.6 Q55.0,70.0 55.5,70.0 L77.0,70.0 Q82.8,70.0 87.3,67.2 Q91.8,64.5 94.3,59.5 Q96.7,54.6 96.7,48.3 Q96.7,42.7 94.6,38.2 Q92.6,33.8 88.9,31.1 Q88.7,31.0 88.6,30.8 Q88.5,30.7 88.6,30.5 L97.2,1.4 L97.3,1.0 Q97.3,0.0 96.2,0.0 L81.6,0.0 Z M71.4,55.8 Q70.9,55.8 70.9,55.3 L70.9,41.1 Q70.9,40.6 71.4,40.6 L74.2,40.6 Q76.9,40.6 78.5,42.6 Q80.1,44.6 80.1,48.1 Q80.1,51.8 78.5,53.8 Q76.9,55.8 74.2,55.8 L71.4,55.8 Z M103.6,0.0 Q103.1,0.0 102.7,0.3 Q102.4,0.7 102.4,1.2 L102.4,68.8 Q102.4,69.3 102.7,69.6 Q103.1,70.0 103.6,70.0 L117.8,70.0 Q118.3,70.0 118.6,69.6 Q119.0,69.3 119.0,68.8 L119.0,46.2 Q119.0,45.8 119.2,45.8 Q119.4,45.8 119.6,46.1 L130.1,69.1 Q130.5,70.0 131.5,70.0 L146.5,70.0 Q147.2,70.0 147.4,69.6 Q147.7,69.3 147.4,68.6 L132.9,39.2 Q132.8,38.8 132.8,38.6 L148.0,1.4 Q148.1,1.2 148.1,0.8 Q148.1,0.0 147.1,0.0 L132.0,0.0 Q130.9,0.0 130.6,0.9 L121.6,24.3 Q121.5,24.6 121.3,24.6 Q121.1,24.6 120.9,24.3 L119.1,20.7 Q119.0,20.5 119.0,20.1 L119.0,1.2 Q119.0,0.7 118.6,0.3 Q118.3,0.0 117.8,0.0 L103.6,0.0 Z M201.7,68.8 Q201.7,69.3 202.0,69.6 Q202.4,70.0 202.9,70.0 L216.9,70.0 Q217.4,70.0 217.7,69.6 Q218.1,69.3 218.1,68.8 L218.1,1.2 Q218.1,0.7 217.7,0.3 Q217.4,0.0 216.9,0.0 L201.0,0.0 Q199.9,0.0 199.6,1.0 L189.7,35.8 Q189.6,36.1 189.4,36.1 Q189.1,36.2 189.1,35.8 L189.3,1.2 Q189.3,0.7 188.9,0.3 Q188.6,0.0 188.1,0.0 L174.1,0.0 Q173.6,0.0 173.2,0.3 Q172.9,0.7 172.9,1.2 L172.9,68.8 Q172.9,69.3 173.2,69.6 Q173.6,70.0 174.1,70.0 L189.8,70.0 Q190.9,70.0 191.2,69.0 L201.2,34.0 Q201.3,33.7 201.6,33.7 Q201.8,33.7 201.8,34.1 L201.7,68.8 Z M255.4,0.0 Q254.2,0.0 254.1,1.1 L252.8,9.8 Q252.8,10.3 252.2,10.3 L241.4,10.3 Q240.8,10.3 240.8,9.8 L239.6,1.1 Q239.5,0.0 238.3,0.0 L224.1,0.0 Q222.8,0.0 223.1,1.3 L237.6,68.9 Q237.8,70.0 238.9,70.0 L255.2,70.0 Q256.3,70.0 256.5,68.9 L270.9,1.3 L271.0,0.9 Q271.0,0.0 269.9,0.0 L255.4,0.0 Z M243.0,23.6 Q243.0,23.1 243.4,23.1 L250.1,23.1 Q250.5,23.1 250.5,23.6 L246.9,46.4 Q246.8,46.8 246.6,46.8 Q246.4,46.8 246.3,46.4 L243.0,23.6 Z M317.6,70.0 Q318.1,70.0 318.4,69.6 Q318.8,69.3 318.8,68.8 L318.8,57.0 Q318.8,56.5 318.4,56.1 Q318.1,55.8 317.6,55.8 L305.2,55.8 Q304.7,55.8 304.7,55.3 L304.7,1.2 Q304.7,0.7 304.3,0.3 Q304.0,0.0 303.5,0.0 L289.3,0.0 Q288.8,0.0 288.4,0.3 Q288.1,0.7 288.1,1.2 L288.1,55.3 Q288.1,55.8 287.6,55.8 L275.7,55.8 Q275.2,55.8 274.8,56.1 Q274.5,56.5 274.5,57.0 L274.5,68.8 Q274.5,69.3 274.8,69.6 Q275.2,70.0 275.7,70.0 L317.6,70.0 Z M344.9,-0.8 Q338.7,-0.8 334.0,1.8 Q329.3,4.5 326.7,9.3 Q324.1,14.1 324.1,20.4 L324.1,68.8 Q324.1,69.3 324.4,69.6 Q324.8,70.0 325.3,70.0 L339.5,70.0 Q340.0,70.0 340.3,69.6 Q340.7,69.3 340.7,68.8 L340.7,18.8 Q340.7,16.4 341.8,14.9 Q343.0,13.4 344.9,13.4 Q346.8,13.4 347.9,14.9 Q349.1,16.4 349.1,18.8 L349.1,68.8 Q349.1,69.3 349.4,69.6 Q349.8,70.0 350.3,70.0 L364.5,70.0 Q365.0,70.0 365.3,69.6 Q365.7,69.3 365.7,68.8 L365.7,20.4 Q365.7,14.1 363.1,9.3 Q360.5,4.5 355.8,1.8 Q351.1,-0.8 344.9,-0.8 Z M399.7,0.0 Q398.6,0.0 398.3,1.0 L391.5,27.5 Q391.4,27.9 391.0,27.9 L389.5,27.9 Q389.0,27.9 389.0,27.4 L389.0,1.2 Q389.0,0.7 388.6,0.3 Q388.3,0.0 387.8,0.0 L373.6,0.0 Q373.1,0.0 372.7,0.3 Q372.4,0.7 372.4,1.2 L372.4,68.8 Q372.4,69.3 372.7,69.6 Q373.1,70.0 373.6,70.0 L395.1,70.0 Q400.9,70.0 405.4,67.2 Q409.9,64.5 412.4,59.5 Q414.8,54.6 414.8,48.3 Q414.8,42.7 412.7,38.2 Q410.7,33.8 407.0,31.1 Q406.8,31.0 406.7,30.8 Q406.6,30.7 406.7,30.5 L415.3,1.4 L415.4,1.0 Q415.4,0.0 414.3,0.0 L399.7,0.0 Z M389.5,55.8 Q389.0,55.8 389.0,55.3 L389.0,41.1 Q389.0,40.6 389.5,40.6 L392.3,40.6 Q395.0,40.6 396.6,42.6 Q398.2,44.6 398.2,48.1 Q398.2,51.8 396.6,53.8 Q395.0,55.8 392.3,55.8 L389.5,55.8 Z M450.8,0.0 Q449.6,0.0 449.5,1.1 L448.2,9.8 Q448.2,10.3 447.6,10.3 L436.8,10.3 Q436.2,10.3 436.2,9.8 L435.0,1.1 Q434.9,0.0 433.7,0.0 L419.5,0.0 Q418.2,0.0 418.5,1.3 L433.0,68.9 Q433.2,70.0 434.3,70.0 L450.6,70.0 Q451.7,70.0 451.9,68.9 L466.3,1.3 L466.4,0.9 Q466.4,0.0 465.3,0.0 L450.8,0.0 Z M438.4,23.6 Q438.4,23.1 438.8,23.1 L445.5,23.1 Q445.9,23.1 445.9,23.6 L442.3,46.4 Q442.2,46.8 442.0,46.8 Q441.8,46.8 441.7,46.4 L438.4,23.6 Z M472.5,0.0 Q472.0,0.0 471.6,0.3 Q471.3,0.7 471.3,1.2 L471.3,68.8 Q471.3,69.3 471.6,69.6 Q472.0,70.0 472.5,70.0 L486.7,70.0 Q487.2,70.0 487.5,69.6 Q487.9,69.3 487.9,68.8 L487.9,14.7 Q487.9,14.2 488.4,14.2 L508.8,14.2 Q509.3,14.2 509.6,13.8 Q510.0,13.5 510.0,13.0 L510.0,1.2 Q510.0,0.7 509.6,0.3 Q509.3,0.0 508.8,0.0 L472.5,0.0 Z M534.5,-0.8 Q528.4,-0.8 523.8,1.5 Q519.2,3.9 516.6,8.2 Q514.1,12.4 514.1,17.8 L514.1,20.9 Q514.1,21.4 514.4,21.8 Q514.8,22.1 515.3,22.1 L529.3,22.1 Q529.8,22.1 530.1,21.8 Q530.5,21.4 530.5,20.9 L530.5,18.6 Q530.5,16.2 531.6,14.8 Q532.8,13.4 534.6,13.4 Q536.4,13.4 537.5,14.8 Q538.7,16.1 538.7,18.2 Q538.7,20.5 536.9,22.3 Q535.1,24.2 529.7,28.1 Q524.7,31.7 521.5,34.5 Q518.3,37.4 516.0,41.7 Q513.7,45.9 513.7,51.5 Q513.7,57.2 516.2,61.6 Q518.8,66.0 523.4,68.4 Q528.1,70.8 534.1,70.8 Q540.2,70.8 544.8,68.3 Q549.5,65.9 552.0,61.5 Q554.6,57.0 554.6,51.2 L554.6,48.8 Q554.6,48.3 554.2,47.9 Q553.9,47.6 553.4,47.6 L539.5,47.6 Q539.0,47.6 538.6,47.9 Q538.3,48.3 538.3,48.8 L538.3,51.6 Q538.3,53.8 537.1,55.2 Q535.9,56.6 534.1,56.6 Q532.3,56.6 531.2,55.2 Q530.1,53.8 530.1,51.5 Q530.1,49.0 531.8,47.0 Q533.5,45.0 538.7,41.2 Q545.0,36.5 548.2,33.6 Q551.4,30.7 553.2,27.1 Q555.0,23.6 555.0,18.8 Q555.0,9.8 549.3,4.5 Q543.7,-0.8 534.5,-0.8 Z" fill="#ffffff"/></g></g></svg>