<svg xmlns="http://www.w3.org/2000/svg" xmlns:xlink="http://www.w3.org/1999/xlink" viewBox="0 0 600 480" width="600" height="480"><defs><clipPath id="cc"><rect x="0" y="0" width="600" height="480" rx="24"/></clipPath></defs><g clip-path="url(#cc)"><rect width="600" height="480" fill="#1c3a63"/><svg x="120" y="86" width="360" height="210" viewBox="0 0 158 89" preserveAspectRatio="xMidYMid meet" overflow="visible">
<style type="text/css">
	.st0{fill:#FFFFFF;}
</style>
<g>
	<g>
		<path class="st0" d="M103.4,31.2c0.7,0,0.8-0.4,0.3-0.8L81.9,8.6c-0.5-0.5-1.2-0.5-1.7,0L58.5,30.3c-0.5,0.5-0.3,0.8,0.3,0.8h5
			c0.7,0,1.6-0.4,2-0.8L80.3,16c0.5-0.5,1.2-0.5,1.7,0l14.4,14.4c0.5,0.5,1.4,0.8,2,0.8C98.4,31.2,103.4,31.2,103.4,31.2z"/>
		<path class="st0" d="M82,21.6c-0.5-0.5-1.2-0.5-1.7,0l-8,8c-0.5,0.5-0.3,0.8,0.3,0.8h17c0.7,0,0.8-0.4,0.3-0.8L82,21.6z"/>
		<path class="st0" d="M58.8,57.9c-0.7,0-0.8,0.4-0.3,0.8l21.8,21.8c0.5,0.5,1.2,0.5,1.7,0l21.8-21.8c0.5-0.5,0.3-0.8-0.3-0.8h-5
			c-0.7,0-1.6,0.4-2,0.8L81.9,73.2c-0.5,0.5-1.2,0.5-1.7,0L65.9,58.8c-0.5-0.5-1.4-0.8-2-0.8L58.8,57.9L58.8,57.9z"/>
		<path class="st0" d="M80.2,67.5c0.5,0.5,1.2,0.5,1.7,0l8-8c0.5-0.5,0.3-0.8-0.3-0.8h-17c-0.7,0-0.8,0.4-0.3,0.8L80.2,67.5z"/>
		<g>
			<g>
				<path class="st0" d="M55,54.5c0,0.3,0.2,0.5,0.5,0.5h2.9c0.3,0,0.5-0.2,0.5-0.5V38.6c0-0.3-0.2-0.4-0.4-0.2l-3.1,3.1
					c-0.2,0.2-0.4,0.6-0.4,0.9V54.5z"/>
			</g>
			<g>
				<path class="st0" d="M58.9,35.1c0-0.3-0.2-0.5-0.5-0.5h-2.9c-0.3,0-0.5,0.2-0.5,0.5v3.7c0,0.3,0.2,0.4,0.4,0.2l3.1-3.1
					C58.9,35.5,58.9,35.4,58.9,35.1L58.9,35.1z"/>
			</g>
			<path class="st0" d="M53.8,32.3c0-0.3-0.2-0.7-0.5-0.8l-4.1-4.3c-0.2-0.2-0.7-0.1-0.9,0l-8,8.2c-0.2,0.2-0.4,0.5-0.4,0.8V40
				c0,0.3,0.2,0.4,0.4,0.2l3.2-3.2c0.2-0.2,0.4-0.1,0.4,0.2v17.1c0,0.3,0.2,0.5,0.5,0.5h5.2c0.3,0,0.7-0.2,0.9-0.4l2.8-2.8
				c0.2-0.2,0.4-0.6,0.4-0.9L53.8,32.3L53.8,32.3z M47.6,47.9v-14c2.5,0.2,2.6,1.9,2.6,2.1v14C47.7,49.8,47.6,48.1,47.6,47.9z"/>
			<path class="st0" d="M68.8,37.8l-3.2-3.2c-0.3-0.1-0.7-0.1-0.9,0L60.4,39c-0.2,0.2-0.4,0.5-0.4,0.8l0.1,4c0,0.3,0.2,0.4,0.5,0.3
				l2.8-2.8c0.2-0.2,0.5-0.5,0.5-0.8v-0.3c0,0,0,0,0-0.1v-0.7c1,0.3,1.4,1.6,1.5,1.9v0.5l-5,5c-0.2,0.2-0.5,0.5-0.5,0.7V50
				c0,0.3,0.3,0.7,0.4,0.8l3.9,3.9c0.2,0.2,0.6,0.2,0.9,0l3.7-3.7c0.2-0.2,0.5-0.5,0.5-0.8V38.3C69.3,38.3,69,38.1,68.8,37.8z
				 M63.8,48.1V47l1.4-1.4V50C64.3,49.7,63.9,48.4,63.8,48.1z"/>
			<path class="st0" d="M85.1,37.3l-2.6-2.7c-0.3-0.1-0.7-0.1-0.9,0.1l-1.9,2c-0.2,0.2-0.6,0.2-0.9,0.1l-1.9-1.9
				c-0.3-0.1-0.7-0.1-0.9,0.1l-1.4,1.6c-0.2,0.2-0.6,0.1-0.8-0.1l-0.2-0.2c-0.2-0.2-0.6-0.2-0.8-0.1l-1.7,1.2
				c-0.2,0.2-0.4,0.5-0.4,0.8v16.3c0,0.3,0.2,0.5,0.5,0.5h2.9c0.3,0,0.5-0.2,0.5-0.5V41.4l0,0v-1.8c1,0.3,1.4,1.6,1.5,1.9v13.2
				c0,0.2,0.3,0.4,0.5,0.4h3c0.3,0,0.5-0.3,0.5-0.5V39.7c1,0.3,1.4,1.6,1.5,1.9v13.2c0,0.2,0.3,0.4,0.5,0.4h3c0.3,0,0.5-0.3,0.5-0.5
				V38.3C85.6,37.8,85.3,37.6,85.1,37.3z"/>
			<path class="st0" d="M106.8,36.9l-2.3-2.3c-0.3-0.1-0.7-0.1-0.9,0.1l-1.9,1.9c-0.3,0.3-1,0.3-1.2,0.1l-0.6-0.6
				c-0.2-0.2-0.6-0.2-0.8-0.1l-1,1c-0.2,0.2-0.4,0.5-0.4,0.8v16.6c0,0.3,0.2,0.5,0.5,0.5h3c0.3,0,0.5-0.2,0.5-0.5v-15
				c1,0.3,1.4,1.6,1.5,1.9v13.3c0.1,0.2,0.3,0.3,0.5,0.3h3c0.3,0,0.5-0.2,0.5-0.5V37.6C107.3,37.4,107,37.1,106.8,36.9z"/>
			<path class="st0" d="M95.9,38l-3.3-3.4c-0.3-0.1-0.7-0.1-0.9,0l-4.5,4.6c-0.2,0.2-0.5,0.5-0.5,0.8v10.2c0,0.3,0.2,0.7,0.4,0.9
				l3.7,3.8c0.2,0.2,0.6,0.2,0.9,0.1l4.1-4.1c0.2-0.2,0.5-0.5,0.5-0.9V38.8C96.4,38.5,96.1,38.2,95.9,38z M92.4,50
				c-1.6-0.2-1.7-2.1-1.7-2.2v-8.2c1.6,0.2,1.7,2.1,1.7,2.2V50z"/>
			<path class="st0" d="M117.7,34.2l-7-7c-0.2-0.2-0.6-0.1-0.7,0.2l-2.2,2.1c-0.2,0.2-0.1,0.6,0.1,0.8c0,0,4.4,4.4,4.6,4.5
				c0.8,0.6,0.3,1,0.1,1.3l-3.5,3.6c-0.2,0.2-0.5,0.5-0.5,0.8v10.2c0,0.3,0.2,0.7,0.4,0.9l3.5,3.5c0.2,0.2,0.6,0.2,0.9,0.1l4.3-4.3
				c0.2-0.2,0.5-0.5,0.5-0.8V35.2C118.2,34.7,117.9,34.5,117.7,34.2z M114.3,50c-1.6-0.2-1.7-2.1-1.7-2.2v-8.3
				c1.6,0.2,1.7,2.1,1.7,2.2V50z"/>
		</g>
	</g>
	<g>
		<path class="st0" d="M106.4,25.1c0,0.6-0.5,1.1-1.1,1.1s-1.2-0.5-1.2-1.1s0.5-1.1,1.2-1.1C105.9,24,106.4,24.5,106.4,25.1z
			 M104.4,25.1c0,0.5,0.4,0.9,0.9,0.9s0.9-0.4,0.9-0.9s-0.4-0.9-0.9-0.9C104.7,24.2,104.4,24.6,104.4,25.1z M105,25.7h-0.3v-1.1
			c0.1,0,0.2,0,0.4,0c0.2,0,0.3,0,0.4,0.1c0.1,0,0.1,0.1,0.1,0.2s-0.1,0.2-0.2,0.3l0,0c0.1,0,0.2,0.1,0.2,0.3c0,0.2,0.1,0.2,0.1,0.3
			h-0.3c0,0-0.1-0.1-0.1-0.3c0-0.1-0.1-0.2-0.2-0.2H105V25.7z M105,25.1L105,25.1c0.2,0,0.4,0,0.4-0.2c0-0.1-0.1-0.2-0.2-0.2
			s-0.1,0-0.1,0v0.4H105z"/>
	</g>
</g>
</svg><g transform="translate(300.0,406.0) scale(0.4330,-0.4330) translate(-357.0,-35.0)"><path d="M5.6,0.0 Q5.1,0.0 4.8,0.3 Q4.4,0.7 4.4,1.2 L4.4,68.8 Q4.4,69.3 4.8,69.6 Q5.1,70.0 5.6,70.0 L23.7,70.0 Q32.8,70.0 38.3,64.7 Q43.8,59.4 43.8,50.6 L43.8,19.4 Q43.8,10.6 38.3,5.3 Q32.8,0.0 23.7,0.0 L5.6,0.0 Z M18.5,12.6 Q18.5,12.1 19.0,12.1 L23.5,12.2 Q26.2,12.3 27.9,14.5 Q29.6,16.7 29.7,20.3 L29.7,49.7 Q29.7,53.5 28.0,55.7 Q26.3,57.9 23.4,57.9 L19.0,57.9 Q18.5,57.9 18.5,57.4 L18.5,12.6 Z M53.2,0.0 Q52.7,0.0 52.3,0.3 Q52.0,0.7 52.0,1.2 L52.0,68.8 Q52.0,69.3 52.3,69.6 Q52.7,70.0 53.2,70.0 L64.9,70.0 Q65.4,70.0 65.7,69.6 Q66.1,69.3 66.1,68.8 L66.1,1.2 Q66.1,0.7 65.7,0.3 Q65.4,0.0 64.9,0.0 L53.2,0.0 Z M104.4,0.0 Q103.2,0.0 103.1,1.1 L101.5,10.7 Q101.5,11.2 100.9,11.2 L88.2,11.2 Q87.6,11.2 87.6,10.7 L86.0,1.1 Q85.9,0.0 84.7,0.0 L73.0,0.0 Q71.7,0.0 72.0,1.3 L86.7,68.9 Q86.9,70.0 88.0,70.0 L101.5,70.0 Q102.6,70.0 102.8,68.9 L117.4,1.3 L117.5,0.9 Q117.5,0.0 116.4,0.0 L104.4,0.0 Z M89.6,22.6 Q89.6,22.1 90.0,22.1 L99.0,22.1 Q99.5,22.1 99.4,22.6 L94.7,49.9 Q94.6,50.2 94.4,50.2 Q94.2,50.2 94.1,49.9 L89.6,22.6 Z M155.2,69.2 Q155.6,70.0 156.7,70.0 L168.3,70.0 Q168.8,70.0 169.1,69.6 Q169.5,69.3 169.5,68.8 L169.5,1.2 Q169.5,0.7 169.1,0.3 Q168.8,0.0 168.3,0.0 L156.6,0.0 Q156.1,0.0 155.7,0.3 Q155.4,0.7 155.4,1.2 L155.4,46.1 Q155.4,46.5 155.2,46.5 Q155.0,46.5 154.8,46.2 L147.0,32.4 Q146.5,31.6 146.2,31.6 Q145.9,31.6 145.4,32.4 L137.6,46.2 Q137.4,46.5 137.2,46.5 Q137.0,46.5 137.0,46.1 L137.0,1.2 Q137.0,0.7 136.6,0.3 Q136.3,0.0 135.8,0.0 L124.1,0.0 Q123.6,0.0 123.2,0.3 Q122.9,0.7 122.9,1.2 L122.9,68.8 Q122.9,69.3 123.2,69.6 Q123.6,70.0 124.1,70.0 L135.6,70.0 Q136.6,70.0 137.1,69.2 L146.0,53.3 Q146.3,52.9 146.6,53.3 L155.2,69.2 Z M197.2,-0.8 Q188.0,-0.8 182.5,4.6 Q177.0,10.0 177.0,19.0 L177.0,51.0 Q177.0,60.0 182.5,65.4 Q188.0,70.8 197.2,70.8 Q206.4,70.8 211.9,65.4 Q217.5,60.0 217.5,51.0 L217.5,19.0 Q217.5,10.0 211.9,4.6 Q206.4,-0.8 197.2,-0.8 Z M197.2,11.3 Q200.0,11.3 201.7,13.2 Q203.4,15.2 203.4,18.4 L203.4,51.6 Q203.4,54.8 201.7,56.8 Q200.0,58.7 197.2,58.7 Q194.4,58.7 192.7,56.8 Q191.1,54.8 191.1,51.6 L191.1,18.4 Q191.1,15.2 192.7,13.2 Q194.4,11.3 197.2,11.3 Z M253.9,68.8 Q253.9,69.3 254.2,69.6 Q254.6,70.0 255.1,70.0 L266.7,70.0 Q267.2,70.0 267.5,69.6 Q267.9,69.3 267.9,68.8 L267.9,1.2 Q267.9,0.7 267.5,0.3 Q267.2,0.0 266.7,0.0 L253.5,0.0 Q252.5,0.0 252.2,1.0 L239.8,39.7 Q239.7,40.0 239.4,40.0 Q239.2,39.9 239.2,39.6 L239.3,1.2 Q239.3,0.7 238.9,0.3 Q238.6,0.0 238.1,0.0 L226.5,0.0 Q226.0,0.0 225.6,0.3 Q225.3,0.7 225.3,1.2 L225.3,68.8 Q225.3,69.3 225.6,69.6 Q226.0,70.0 226.5,70.0 L239.6,70.0 Q240.6,70.0 240.9,69.0 L253.4,30.3 Q253.5,30.0 253.7,30.0 Q254.0,30.1 254.0,30.4 L253.9,68.8 Z M277.9,0.0 Q277.4,0.0 277.0,0.3 Q276.7,0.7 276.7,1.2 L276.7,68.8 Q276.7,69.3 277.0,69.6 Q277.4,70.0 277.9,70.0 L296.0,70.0 Q305.1,70.0 310.6,64.7 Q316.1,59.4 316.1,50.6 L316.1,19.4 Q316.1,10.6 310.6,5.3 Q305.1,0.0 296.0,0.0 L277.9,0.0 Z M290.8,12.6 Q290.8,12.1 291.3,12.1 L295.8,12.2 Q298.5,12.3 300.2,14.5 Q301.9,16.7 302.0,20.3 L302.0,49.7 Q302.0,53.5 300.3,55.7 Q298.6,57.9 295.7,57.9 L291.3,57.9 Q290.8,57.9 290.8,57.4 L290.8,12.6 Z M372.9,68.8 Q372.9,69.3 373.2,69.6 Q373.6,70.0 374.1,70.0 L385.7,70.0 Q386.2,70.0 386.5,69.6 Q386.9,69.3 386.9,68.8 L386.9,1.2 Q386.9,0.7 386.5,0.3 Q386.2,0.0 385.7,0.0 L372.5,0.0 Q371.5,0.0 371.2,1.0 L358.8,39.7 Q358.7,40.0 358.4,40.0 Q358.2,39.9 358.2,39.6 L358.3,1.2 Q358.3,0.7 357.9,0.3 Q357.6,0.0 357.1,0.0 L345.5,0.0 Q345.0,0.0 344.6,0.3 Q344.3,0.7 344.3,1.2 L344.3,68.8 Q344.3,69.3 344.6,69.6 Q345.0,70.0 345.5,70.0 L358.6,70.0 Q359.6,70.0 359.9,69.0 L372.4,30.3 Q372.5,30.0 372.7,30.0 Q373.0,30.1 373.0,30.4 L372.9,68.8 Z M425.1,0.0 Q423.9,0.0 423.8,1.1 L422.2,10.7 Q422.2,11.2 421.6,11.2 L408.9,11.2 Q408.3,11.2 408.3,10.7 L406.7,1.1 Q406.6,0.0 405.4,0.0 L393.7,0.0 Q392.4,0.0 392.7,1.3 L407.4,68.9 Q407.6,70.0 408.7,70.0 L422.2,70.0 Q423.3,70.0 423.5,68.9 L438.1,1.3 L438.2,0.9 Q438.2,0.0 437.1,0.0 L425.1,0.0 Z M410.3,22.6 Q410.3,22.1 410.7,22.1 L419.7,22.1 Q420.2,22.1 420.1,22.6 L415.4,49.9 Q415.3,50.2 415.1,50.2 Q414.9,50.2 414.8,49.9 L410.3,22.6 Z M482.7,70.0 Q483.2,70.0 483.5,69.6 Q483.9,69.3 483.9,68.8 L483.9,59.1 Q483.9,58.6 483.5,58.2 Q483.2,57.9 482.7,57.9 L470.2,57.9 Q469.7,57.9 469.7,57.4 L469.7,1.2 Q469.7,0.7 469.3,0.3 Q469.0,0.0 468.5,0.0 L456.8,0.0 Q456.3,0.0 455.9,0.3 Q455.6,0.7 455.6,1.2 L455.6,57.4 Q455.6,57.9 455.1,57.9 L443.1,57.9 Q442.6,57.9 442.2,58.2 Q441.9,58.6 441.9,59.1 L441.9,68.8 Q441.9,69.3 442.2,69.6 Q442.6,70.0 443.1,70.0 L482.7,70.0 Z M510.3,-0.8 Q501.3,-0.8 495.8,4.8 Q490.4,10.5 490.4,19.9 L490.4,68.8 Q490.4,69.3 490.7,69.6 Q491.1,70.0 491.6,70.0 L503.3,70.0 Q503.8,70.0 504.1,69.6 Q504.5,69.3 504.5,68.8 L504.5,18.5 Q504.5,15.3 506.1,13.3 Q507.7,11.3 510.3,11.3 Q512.9,11.3 514.4,13.3 Q516.0,15.3 516.0,18.5 L516.0,68.8 Q516.0,69.3 516.3,69.6 Q516.7,70.0 517.2,70.0 L528.9,70.0 Q529.4,70.0 529.7,69.6 Q530.1,69.3 530.1,68.8 L530.1,19.9 Q530.1,10.5 524.6,4.8 Q519.2,-0.8 510.3,-0.8 Z M566.2,0.0 Q565.1,0.0 564.8,1.0 L557.1,28.6 Q556.9,29.0 556.6,29.0 L553.2,29.0 Q552.7,29.0 552.7,28.5 L552.7,1.2 Q552.7,0.7 552.3,0.3 Q552.0,0.0 551.5,0.0 L539.8,0.0 Q539.3,0.0 538.9,0.3 Q538.6,0.7 538.6,1.2 L538.6,68.8 Q538.6,69.3 538.9,69.6 Q539.3,70.0 539.8,70.0 L560.0,70.0 Q565.5,70.0 569.8,67.3 Q574.1,64.7 576.4,59.9 Q578.8,55.1 578.8,48.9 Q578.8,43.0 576.5,38.5 Q574.3,34.0 570.3,31.5 Q570.1,31.4 570.0,31.2 Q569.9,31.1 570.0,30.9 L579.2,1.4 L579.3,1.0 Q579.3,0.0 578.2,0.0 L566.2,0.0 Z M553.2,57.9 Q552.7,57.9 552.7,57.4 L552.7,40.3 Q552.7,39.8 553.2,39.8 L557.7,39.8 Q560.8,39.8 562.7,42.2 Q564.7,44.7 564.7,48.8 Q564.7,53.0 562.7,55.5 Q560.8,57.9 557.7,57.9 L553.2,57.9 Z M615.1,0.0 Q613.9,0.0 613.8,1.1 L612.2,10.7 Q612.2,11.2 611.6,11.2 L598.9,11.2 Q598.3,11.2 598.3,10.7 L596.7,1.1 Q596.6,0.0 595.4,0.0 L583.7,0.0 Q582.4,0.0 582.7,1.3 L597.4,68.9 Q597.6,70.0 598.7,70.0 L612.2,70.0 Q613.3,70.0 613.5,68.9 L628.1,1.3 L628.2,0.9 Q628.2,0.0 627.1,0.0 L615.1,0.0 Z M600.3,22.6 Q600.3,22.1 600.7,22.1 L609.7,22.1 Q610.2,22.1 610.1,22.6 L605.4,49.9 Q605.3,50.2 605.1,50.2 Q604.9,50.2 604.8,49.9 L600.3,22.6 Z M635.1,0.0 Q634.6,0.0 634.2,0.3 Q633.9,0.7 633.9,1.2 L633.9,68.8 Q633.9,69.3 634.2,69.6 Q634.6,70.0 635.1,70.0 L646.8,70.0 Q647.3,70.0 647.6,69.6 Q648.0,69.3 648.0,68.8 L648.0,12.6 Q648.0,12.1 648.5,12.1 L669.5,12.1 Q670.0,12.1 670.3,11.8 Q670.7,11.4 670.7,10.9 L670.7,1.2 Q670.7,0.7 670.3,0.3 Q670.0,0.0 669.5,0.0 L635.1,0.0 Z M694.5,-0.8 Q688.7,-0.8 684.3,1.5 Q679.9,3.8 677.5,7.9 Q675.1,12.1 675.1,17.5 L675.1,20.4 Q675.1,20.9 675.4,21.2 Q675.8,21.6 676.3,21.6 L687.8,21.6 Q688.3,21.6 688.6,21.2 Q689.0,20.9 689.0,20.4 L689.0,18.2 Q689.0,15.1 690.6,13.2 Q692.2,11.3 694.6,11.3 Q697.0,11.3 698.6,13.1 Q700.2,14.9 700.2,17.8 Q700.2,20.8 698.2,22.9 Q696.2,25.1 690.4,29.3 Q685.4,32.9 682.3,35.7 Q679.2,38.5 677.0,42.6 Q674.8,46.7 674.8,52.1 Q674.8,60.6 680.1,65.7 Q685.4,70.8 694.1,70.8 Q702.9,70.8 708.2,65.5 Q713.6,60.2 713.6,51.6 L713.6,49.2 Q713.6,48.7 713.2,48.3 Q712.9,48.0 712.4,48.0 L700.9,48.0 Q700.4,48.0 700.0,48.3 Q699.7,48.7 699.7,49.2 L699.7,51.9 Q699.7,55.0 698.1,56.8 Q696.6,58.7 694.1,58.7 Q691.7,58.7 690.2,57.0 Q688.7,55.2 688.7,52.1 Q688.7,49.1 690.6,46.8 Q692.5,44.5 698.1,40.4 Q704.3,35.8 707.4,32.9 Q710.6,30.1 712.3,26.6 Q714.1,23.2 714.1,18.4 Q714.1,9.6 708.7,4.4 Q703.3,-0.8 694.5,-0.8 Z" fill="#ffffff"/></g></g></svg>