<svg xmlns="http://www.w3.org/2000/svg" xmlns:xlink="http://www.w3.org/1999/xlink" viewBox="0 0 600 480" width="600" height="480"><defs><clipPath id="cc"><rect x="0" y="0" width="600" height="480" rx="24"/></clipPath></defs><g clip-path="url(#cc)"><rect width="600" height="480" fill="#18a574"/><g transform="translate(300.0,240.0) scale(1.2458,-1.2458) translate(-195.0,-34.6)"><path d="M4.7,0.0 Q4.2,0.0 3.8,0.3 Q3.5,0.7 3.5,1.2 L3.5,68.8 Q3.5,69.3 3.8,69.6 Q4.2,70.0 4.7,70.0 L23.8,70.0 Q33.4,70.0 39.2,64.6 Q45.0,59.2 45.0,50.3 L45.0,19.7 Q45.0,10.8 39.2,5.4 Q33.4,0.0 23.8,0.0 L4.7,0.0 Z M20.1,14.7 Q20.1,14.2 20.6,14.2 L23.4,14.3 Q25.5,14.4 26.9,16.2 Q28.3,17.9 28.4,20.8 L28.4,49.2 Q28.4,52.2 27.0,54.0 Q25.6,55.8 23.3,55.8 L20.6,55.8 Q20.1,55.8 20.1,55.3 L20.1,14.7 Z M78.8,0.0 Q77.7,0.0 77.4,1.0 L70.6,27.5 Q70.5,27.9 70.1,27.9 L68.6,27.9 Q68.1,27.9 68.1,27.4 L68.1,1.2 Q68.1,0.7 67.7,0.3 Q67.4,0.0 66.9,0.0 L52.7,0.0 Q52.2,0.0 51.8,0.3 Q51.5,0.7 51.5,1.2 L51.5,68.8 Q51.5,69.3 51.8,69.6 Q52.2,70.0 52.7,70.0 L74.2,70.0 Q80.0,70.0 84.5,67.2 Q89.0,64.5 91.5,59.5 Q93.9,54.6 93.9,48.3 Q93.9,42.7 91.8,38.2 Q89.8,33.8 86.1,31.1 Q85.9,31.0 85.8,30.8 Q85.7,30.7 85.8,30.5 L94.4,1.4 L94.5,1.0 Q94.5,0.0 93.4,0.0 L78.8,0.0 Z M68.6,55.8 Q68.1,55.8 68.1,55.3 L68.1,41.1 Q68.1,40.6 68.6,40.6 L71.4,40.6 Q74.1,40.6 75.7,42.6 Q77.3,44.6 77.3,48.1 Q77.3,51.8 75.7,53.8 Q74.1,55.8 71.4,55.8 L68.6,55.8 Z M107.9,-0.7 Q104.1,-0.7 101.6,1.8 Q99.2,4.2 99.2,8.0 Q99.2,11.9 101.6,14.3 Q104.1,16.7 107.9,16.7 Q111.7,16.7 114.1,14.3 Q116.5,11.9 116.5,8.0 Q116.5,4.2 114.0,1.8 Q111.6,-0.7 107.9,-0.7 Z M175.7,69.2 Q176.1,70.0 177.2,70.0 L191.1,70.0 Q191.6,70.0 191.9,69.6 Q192.3,69.3 192.3,68.8 L192.3,1.2 Q192.3,0.7 191.9,0.3 Q191.6,0.0 191.1,0.0 L176.9,0.0 Q176.4,0.0 176.0,0.3 Q175.7,0.7 175.7,1.2 L175.7,44.1 Q175.7,44.5 175.5,44.5 Q175.3,44.6 175.1,44.3 L168.1,32.1 Q167.7,31.3 167.5,31.3 Q167.3,31.3 166.8,32.1 L159.8,44.3 Q159.6,44.6 159.4,44.6 Q159.2,44.6 159.2,44.2 L159.2,1.2 Q159.2,0.7 158.8,0.3 Q158.5,0.0 158.0,0.0 L143.8,0.0 Q143.3,0.0 142.9,0.3 Q142.6,0.7 142.6,1.2 L142.6,68.8 Q142.6,69.3 142.9,69.6 Q143.3,70.0 143.8,70.0 L157.8,70.0 Q158.8,70.0 159.3,69.2 L167.3,54.7 Q167.6,54.3 167.9,54.7 L175.7,69.2 Z M229.2,0.0 Q228.0,0.0 227.9,1.1 L226.6,9.8 Q226.6,10.3 226.0,10.3 L215.2,10.3 Q214.6,10.3 214.6,9.8 L213.4,1.1 Q213.3,0.0 212.1,0.0 L197.9,0.0 Q196.6,0.0 196.9,1.3 L211.4,68.9 Q211.6,70.0 212.7,70.0 L229.0,70.0 Q230.1,70.0 230.3,68.9 L244.7,1.3 L244.8,0.9 Q244.8,0.0 243.7,0.0 L229.2,0.0 Z M216.8,23.6 Q216.8,23.1 217.2,23.1 L223.9,23.1 Q224.3,23.1 224.3,23.6 L220.7,46.4 Q220.6,46.8 220.4,46.8 Q220.2,46.8 220.1,46.4 L216.8,23.6 Z M277.0,0.0 Q275.9,0.0 275.6,1.0 L268.8,27.5 Q268.7,27.9 268.3,27.9 L266.8,27.9 Q266.3,27.9 266.3,27.4 L266.3,1.2 Q266.3,0.7 265.9,0.3 Q265.6,0.0 265.1,0.0 L250.9,0.0 Q250.4,0.0 250.0,0.3 Q249.7,0.7 249.7,1.2 L249.7,68.8 Q249.7,69.3 250.0,69.6 Q250.4,70.0 250.9,70.0 L272.4,70.0 Q278.2,70.0 282.7,67.2 Q287.2,64.5 289.7,59.5 Q292.1,54.6 292.1,48.3 Q292.1,42.7 290.0,38.2 Q288.0,33.8 284.3,31.1 Q284.1,31.0 284.0,30.8 Q283.9,30.7 284.0,30.5 L292.6,1.4 L292.7,1.0 Q292.7,0.0 291.6,0.0 L277.0,0.0 Z M266.8,55.8 Q266.3,55.8 266.3,55.3 L266.3,41.1 Q266.3,40.6 266.8,40.6 L269.6,40.6 Q272.3,40.6 273.9,42.6 Q275.5,44.6 275.5,48.1 Q275.5,51.8 273.9,53.8 Q272.3,55.8 269.6,55.8 L266.8,55.8 Z M339.5,70.0 Q340.0,70.0 340.3,69.6 Q340.7,69.3 340.7,68.8 L340.7,57.0 Q340.7,56.5 340.3,56.1 Q340.0,55.8 339.5,55.8 L327.1,55.8 Q326.6,55.8 326.6,55.3 L326.6,1.2 Q326.6,0.7 326.2,0.3 Q325.9,0.0 325.4,0.0 L311.2,0.0 Q310.7,0.0 310.3,0.3 Q310.0,0.7 310.0,1.2 L310.0,55.3 Q310.0,55.8 309.5,55.8 L297.6,55.8 Q297.1,55.8 296.7,56.1 Q296.4,56.5 296.4,57.0 L296.4,68.8 Q296.4,69.3 296.7,69.6 Q297.1,70.0 297.6,70.0 L339.5,70.0 Z M360.2,0.2 Q359.7,0.2 359.3,0.5 Q359.0,0.9 359.0,1.4 L359.0,26.0 L358.9,26.6 L344.9,68.6 Q344.8,68.8 344.8,69.1 Q344.8,70.0 345.8,70.0 L360.8,70.0 Q361.8,70.0 362.1,68.9 L367.1,46.9 Q367.2,46.5 367.4,46.5 Q367.6,46.5 367.7,46.9 L372.7,68.9 Q373.0,70.0 374.0,70.0 L389.0,70.0 Q389.6,70.0 389.8,69.6 Q390.1,69.3 389.9,68.6 L375.7,26.6 L375.6,26.0 L375.6,1.4 Q375.6,0.9 375.2,0.5 Q374.9,0.2 374.4,0.2 L360.2,0.2 Z" fill="#ffffff"/></g></g></svg>