<svg xmlns="http://www.w3.org/2000/svg" xmlns:xlink="http://www.w3.org/1999/xlink" viewBox="0 0 600 480" width="600" height="480"><defs><clipPath id="cc"><rect x="0" y="0" width="600" height="480" rx="24"/></clipPath></defs><g clip-path="url(#cc)"><rect width="600" height="480" fill="#5a9c00"/><rect x="60" y="56" width="480" height="262" rx="18" fill="#ffffff"/><svg x="96" y="86" width="408" height="202" viewBox="0 0 224 50" preserveAspectRatio="xMidYMid meet" overflow="visible"><path clip-rule="evenodd" d="m52.202 14.951-.03-.03c.012.018.018.03.03.03Z" fill="#ECE9D7" fill-rule="evenodd"></path><path d="M19.333 46.24c-.243-.183-.48-.378-.712-.579l.152.45c.189.05.378.086.566.128h-.006ZM7.845 38.293l.882.614a2.5 2.5 0 0 0 .45.25l.95.401 1.673.773a5.356 5.356 0 0 1 1.564 1.114l1.028 1.07c.316.33.724.566 1.174.676l.883.219c-2.793-3.572-4.132-8.3-3.554-12.857a14.37 14.37 0 0 1 .95-3.663c.705-1.722 1.758-3.286 2.993-4.673 1.223-1.369 2.78-2.391 3.985-3.748 2.227-2.5 3.517-5.622 3.554-8.981a18.19 18.19 0 0 0-.67-4.99c-1.49.055-2.944.256-4.338.597.505.882.36 1.764.542 2.671.06.316.681 1.485.182 1.612-.359.092-.56-.596-.991-.584-.03.56 0 1.114-.122 1.674-.17-.073-.45-.055-.609-.159 0 .122-.042.274-.03.396-.596.018-.645-.639-.882-1.016-.22-.353-1.138-.931-.828-1.242.317-.316.517.104.767.226.395-.207.474-.658 1.034-.664.432-1.113-.51-1.642-.864-2.397a21.16 21.16 0 0 0-1.85.718c.116.14.17.243.098.243.261-.006-.73.968-1.765 1.108a7.54 7.54 0 0 0-1.472.359 22.342 22.342 0 0 0-2.233 1.685c-.03.73.261 1.43.626 2.087.426.755.785.84.603 1.686-.104.462-.64 2.166.359 1.101.34-.359.14-.937.663-1.247.243-.146.712-.037 1.01-.189.742-.371.499-.858.748-1.497.14-.347.712-1.144 1.053-1.393.615-.438 1.016-.122 1.278.627.182.523-.14 1.588.207 2.002.407.486.821 0 1.186-.402a.222.222 0 0 1 .377.097c.183.773-.006 1.661.287 2.404.206.517 1.655 1.886.876 2.519-.201.164-.743-.043-.992.03-.189.055-.304.274-.475.323-.614.158-.657.133-1.308-.086-1.053-.359-2.05-.407-2.927.25-.121.091-.079.292.067.322.724.146 1.57.609 1.18.572.098.578 1.254 1.108 1.802 1.32.152.062.188.274.049.366-.274.188-.73.292-1.132.316-.487.024-.998.694-1.448.5-.372-.165.097-.366.23-.555.123-.164-.024-.383-.218-.352-.426.06-.864.073-1.29.182-.195.049-.907.785-1.095.931-.554.438-.962.012-1.607.292-.45.2-1.46.353-1.8.694-.116.115-.28.998-.366 1.18-.517 1.108-.834.95-2.008 1.205-1.302.286-1.229.633-1.278 1.752-.012.353 0 1.15-.207 1.68-.127.334-.602.304-.7-.043-.084-.304-.188-.596-.194-.961-.006-.487.243-.98-.018-1.43-.085-.14-.505-.682-.998-1.144a21.103 21.103 0 0 0 .335 5.008c1.369.657 3.297 2.567 3.14 3.206-.926.17-1.607-1.326-2.094-1.85-.335-.359-.614-.815-.998-1.12A20.101 20.101 0 0 0 6.5 37.752a.046.046 0 0 0 .03-.012s.25-.274.354-.237c.115.042.133.474.133.474s-.067.116-.152.268c.183.25.371.493.566.73.049-.2-.188-.401-.164-.547.042-.232.572-.11.572-.11l.006-.024ZM6.25 34.192c.28-.067.213-.426.918.06.128-.219-.17-.669.074-.584.924.31 2.75 1.516 1.819 1.516.14 0-2.836.079-2.811-.992Z" fill="#71C200"></path><path d="M18.433 7.997c-.56.012-.64.456-1.035.663-.25-.121-.45-.541-.766-.225-.31.31.608.889.827 1.241.238.378.286 1.035.883 1.017-.013-.122.03-.274.03-.396.152.103.438.08.608.158.122-.56.092-1.113.122-1.673.438-.012.639.675.992.584.499-.128-.122-1.296-.183-1.612-.182-.907-.036-1.79-.541-2.671-.609.146-1.211.322-1.801.517.353.754 1.296 1.284.864 2.397ZM4.273 31.198c.48.523 1.168 2.02 2.093 1.85.158-.639-1.77-2.55-3.14-3.207.013.08.031.159.05.238.383.304.662.76.997 1.12ZM9.062 35.177c.931 0-.894-1.205-1.82-1.515-.242-.079.056.365-.072.584-.706-.486-.639-.128-.919-.06-.024 1.07 2.951.991 2.811.991ZM6.89 37.477c-.097-.036-.353.238-.353.238-.012 0-.018.006-.03.012.115.17.243.335.365.499.085-.158.152-.268.152-.268s-.018-.432-.134-.474v-.007ZM18.767 46.111l-.152-.45a15.607 15.607 0 0 1-2.166-2.27l-.882-.218c-.45-.11-.858-.341-1.175-.676l-1.028-1.07c-.45-.463-.98-.84-1.564-1.114l-1.673-.773-.95-.402a2.498 2.498 0 0 1-.45-.25l-.882-.614s-.53-.115-.572.11c-.024.146.213.347.165.547 2.823 3.469 6.766 6 11.33 7.168v.012ZM15.81 6.561c.073 0 .025-.103-.097-.243a22.027 22.027 0 0 0-3.14 1.71 7.13 7.13 0 0 1 1.473-.36c1.028-.14 2.026-1.113 1.764-1.107ZM3.89 25.977c.262.45.012.944.018 1.43.006.36.116.657.195.962.091.34.572.37.7.042.2-.523.188-1.32.207-1.68.048-1.119-.025-1.466 1.277-1.752 1.175-.261 1.491-.097 2.008-1.204.085-.183.25-1.065.365-1.18.341-.341 1.351-.5 1.801-.694.64-.28 1.047.146 1.607-.292.188-.146.9-.883 1.095-.931.426-.11.864-.122 1.29-.183.2-.03.34.195.219.353-.14.189-.608.39-.231.554.45.2.961-.475 1.448-.5.402-.018.852-.12 1.132-.316.14-.09.103-.304-.049-.365-.548-.219-1.71-.742-1.801-1.32.396.036-.456-.42-1.18-.572-.153-.03-.19-.231-.067-.323.876-.65 1.874-.602 2.926-.249.651.225.694.25 1.308.085.165-.048.287-.261.475-.322.25-.073.791.134.992-.03.779-.633-.675-2.003-.876-2.52-.292-.742-.104-1.63-.286-2.403a.222.222 0 0 0-.378-.098c-.365.402-.778.895-1.186.402-.353-.42-.024-1.479-.207-2.002-.262-.748-.663-1.07-1.278-.627-.34.244-.918 1.047-1.052 1.394-.25.633-.012 1.126-.749 1.497-.292.152-.766.042-1.01.188-.523.31-.322.889-.663 1.248-.998 1.064-.462-.64-.359-1.102.183-.846-.176-.937-.602-1.685-.371-.657-.664-1.35-.627-2.087-4.308 3.711-7.131 9.084-7.448 15.12.487.463.913.998.998 1.144l-.012.018Z" fill="#ECE9D7"></path><path d="M23.67 2.74c.25.596.475 1.199.682 1.807.463 1.381.81 2.805.992 4.253.396 3.116-.043 6.347-1.564 9.121-1.649 3.012-4.618 4.874-6.571 7.66a12.248 12.248 0 0 0-2.178 7.966c.207 2.64 1.18 5.196 2.628 7.41 1.333 2.04 3.14 3.834 5.294 4.93C34.045 31.94 33.79 22.082 33.79 20.111c0-1.424-.627-5.653-.414-5.044.176.51 4.722 15.51-8.074 31.61.103.006.213.012.346 0 .852-.061 1.74-.007 4.296-.512 4.874-.961 10.35-4.886 12.845-8.883 2.981-4.783 4.411-11.58 2.13-18.419-3.62-10.83-16.466-16.033-21.917-17.596.213.06.578 1.26.669 1.472Z" fill="#ECE9D7"></path><path d="M45.941 35.877c.03-.067.055-.134.086-.195a22.343 22.343 0 0 0 1.959-6.699 21.054 21.054 0 0 0 .097-.834c.323-3.176 0-6.614-1.314-10.118C42.516 6.756 26.726 1.608 24.456 1.073c-.973-.225-2.829-.9-2.518-.469.407.56.754 1.187 1.052 1.856a23.646 23.646 0 0 0-8.762 2.276C6.805 8.296 1.536 15.596.885 24.188c-.043.59-.073 1.187-.073 1.795 0 4.68 1.375 8.945 3.73 12.492 4.216 6.352 11.59 10.411 19.957 10.411a25.206 25.206 0 0 0 5.665-.657c.353-.061.73-.134 1.144-.237 6.322-1.534 11.75-6.408 14.384-11.634.018-.043.043-.08.06-.122.062-.122.129-.243.183-.365l.006.006ZM6.871 38.22a35.457 35.457 0 0 1-.364-.5 20.294 20.294 0 0 1-3.231-7.642c-.018-.079-.03-.158-.049-.237a21.103 21.103 0 0 1-.335-5.008c.317-6.036 3.14-11.408 7.448-15.12a20.826 20.826 0 0 1 2.233-1.685 22.026 22.026 0 0 1 3.14-1.71 21.94 21.94 0 0 1 1.85-.718c.59-.201 1.192-.371 1.8-.517 1.4-.341 2.848-.548 4.339-.597a18.19 18.19 0 0 1 .67 4.99c-.037 3.358-1.327 6.48-3.554 8.98-1.205 1.358-2.763 2.374-3.986 3.749-1.235 1.387-2.287 2.95-2.993 4.673a14.436 14.436 0 0 0-.95 3.663c-.577 4.557.761 9.291 3.554 12.857a15.924 15.924 0 0 0 2.878 2.847c-.189-.042-.377-.079-.566-.127-4.557-1.169-8.506-3.7-11.33-7.168-.194-.238-.383-.48-.565-.73h.012ZM23.003 1.267C28.454 2.831 41.3 8.04 44.913 18.87c2.282 6.833.852 13.636-2.13 18.419-2.494 3.997-7.97 7.928-12.844 8.883-2.55.505-3.438.45-4.296.511-.134.013-.243 0-.347 0 12.796-16.1 8.251-31.092 8.075-31.61-.207-.608.413 3.62.413 5.045 0 1.977.25 11.828-10.836 25.774-2.148-1.095-3.962-2.896-5.294-4.928-1.454-2.215-2.428-4.77-2.629-7.411a12.248 12.248 0 0 1 2.179-7.965c1.953-2.787 4.922-4.649 6.571-7.66 1.521-2.775 1.96-6.006 1.564-9.122a22.153 22.153 0 0 0-.992-4.253 28.17 28.17 0 0 0-.681-1.807c-.092-.213-.457-1.412-.67-1.472l.006-.007ZM55.975 33.516c0-.036.024-.067.054-.073 1.053-.34 1.406-1.205 1.406-4.143V13.022c0-2.939-.353-3.803-1.406-4.144-.03-.012-.054-.042-.054-.073v-.334a.08.08 0 0 1 .079-.08h16.818c.042 0 .073.031.079.074l.39 4.606a.092.092 0 0 1-.062.085l-.267.073c-.037.012-.08-.012-.092-.049-1.277-3.164-3.431-4.24-7.125-4.24h-5.287a.08.08 0 0 0-.08.078v10.898c0 .042.037.079.08.079h4.594c4.113 0 5.196-.821 5.64-2.422.012-.036.043-.06.073-.06h.298a.08.08 0 0 1 .08.079v5.354a.08.08 0 0 1-.08.08h-.298a.072.072 0 0 1-.073-.062c-.45-1.606-1.527-2.421-5.64-2.421h-4.594a.08.08 0 0 0-.08.079v11.043c0 .95.773 1.722 1.723 1.722h4.666c3.48 0 5.702-.973 7.022-4.32a.074.074 0 0 1 .085-.048l.268.048c.043.006.067.043.067.085l-.286 4.71c0 .043-.037.073-.08.073h-17.84a.08.08 0 0 1-.078-.08v-.34ZM89.94 32.835v-6.079c0-.073-.11-.09-.128-.018-1.223 4.26-4.199 7.557-7.685 7.557-2.702 0-5.111-1.643-5.111-4.782 0-3.797 3.833-5.22 8.171-6.426l4.692-1.265s.048-.037.048-.067c-.2-3.505-2.02-5.13-5.105-5.13-2.172 0-4.271 1.004-6.09 3.195a.061.061 0 0 1-.092.006l-.231-.207s-.03-.067-.006-.091c2.075-2.562 4.728-4.113 7.88-4.113 4.417 0 6.462 2.446 6.462 6.571v7.302c0 2.95.316 3.809 1.411 4.143.03.006.049.037.049.061v.36c0 .036-.03.066-.067.066h-3.11c-.73 0-1.095-.402-1.095-1.095m-6.462-.694c3.907 0 6.426-4.928 6.462-8.756v-1.095l-4.6 1.241c-2.701.767-5.622 1.972-5.585 4.965 0 2.373 1.642 3.651 3.724 3.651M96.121 33.498s.018-.043.043-.055c1.101-.334 1.417-1.192 1.417-4.15v-8.396c0-2.526-.462-2.909-1.423-3.34-.019-.007-.03-.031-.03-.05v-.328s.011-.043.03-.049l3.912-1.722s.043 0 .055.006l.28.22s.024.024.024.042v4.265c0 .061.085.08.11.025.596-1.32 1.527-2.465 2.555-3.22 1.132-.839 2.41-1.313 4.162-1.313 1.46 0 2.373.365 2.373.985 0 .803-.803 2.081-2.117 2.081-.98 0-2.398-.395-4.533-1.016-.019 0-.037 0-.049.006-1.053.779-2.385 2.805-2.495 4.545V29.3c0 2.958.323 3.81 1.418 4.15.024.006.042.03.042.055v.377c0 .03-.024.055-.054.055h-5.653a.054.054 0 0 1-.055-.055v-.377l-.012-.006ZM113.493 29.075V16.271a.08.08 0 0 0-.079-.079h-2.179a.08.08 0 0 1-.079-.079v-.395s.012-.043.025-.055l4.624-4.442s.036-.024.055-.024h.401a.08.08 0 0 1 .079.079v4.332c0 .043.037.08.079.08h5.355c.055 0 .091.054.073.103l-.128.353c-.012.03-.042.054-.073.054h-5.233a.08.08 0 0 0-.079.08V29.08c0 2.482 1.023 3.431 2.592 3.431 1.004 0 2.258-.462 3.45-1.831a.075.075 0 0 1 .116 0l.213.213s.03.079 0 .11c-1.558 1.764-3.401 3.303-5.537 3.303-2.3 0-3.687-1.424-3.687-5.22M123.818 33.516c0-.036.025-.067.055-.073 1.089-.34 1.406-1.198 1.406-4.143V9.433c-.061-.541.073-2.312-1.418-2.744-.055-.018-.055-.432-.037-.438 1.71-.755 2.933-1.333 3.901-1.722.036-.012.079-.012.109.012.091.061.183.134.244.177.03.024.042.06.042.097v13.806c0 .067.073.104.128.06 2.099-1.678 4.855-3.254 7.612-3.254 3.578 0 5.768 2.08 5.768 6.352v7.52c0 2.946.317 3.804 1.406 4.144.03.013.054.043.054.073v.335a.08.08 0 0 1-.079.08h-5.604a.08.08 0 0 1-.079-.08v-.335c0-.036.025-.067.055-.073 1.083-.34 1.406-1.198 1.406-4.143v-6.79c0-3.798-1.607-5.879-4.819-5.879-1.996 0-3.956 1.193-5.811 2.714a.073.073 0 0 0-.031.061v9.888c0 2.945.317 3.802 1.406 4.143a.077.077 0 0 1 .055.073v.335c0 .043-.037.079-.08.079h-5.604a.08.08 0 0 1-.079-.08v-.334l-.006.006ZM148.054 31.63l-1.15 2.27s-.03.03-.049.03h-.274c-.03 0-.054-.024-.054-.06V11.258c.109-4.053-.323-4.09-1.394-4.564-.048-.018-.067-.17-.067-.219v-.182c0-.073.049-.14.122-.159.846-.2 1.868-.827 3.882-1.588.067-.024.183.11.256.189.03.036.048.08.048.128v12.93c0 .048.049.073.092.048 1.916-1.29 4.253-2.421 6.735-2.421 4.637 0 7.959 3.76 7.959 8.908 0 5.147-3.395 9.893-9.492 9.93-2.702 0-5.184-1.242-6.517-2.641-.024-.03-.073-.024-.091.012m7.776 1.899c3.797 0 5.622-2.848 5.622-7.083s-1.825-9.82-6.973-9.82c-1.886 0-3.596.796-5.086 1.806a.054.054 0 0 0-.025.05v9.272c0 2.629 3.104 5.768 6.462 5.768M166.667 25.065c0-5.695 4.563-9.638 9.559-9.638 4.527 0 9.522 2.774 9.522 9.273 0 6.498-5.22 9.595-9.522 9.595-4.637 0-9.559-2.884-9.559-9.23Zm10.654 8.464c3.907 0 5.659-3.14 5.659-6.681 0-4.71-3.322-10.983-8.105-10.728-3.724.146-5.403 3.213-5.403 6.864 0 4.636 2.994 10.545 7.849 10.545ZM188.493 33.498s.018-.043.036-.055c1.101-.334 1.418-1.192 1.418-4.15v-8.396c0-2.526-.463-2.909-1.43-3.34-.018-.007-.03-.031-.03-.05v-.328s.012-.043.03-.049l3.912-1.722s.043 0 .055.006l.28.22s.018.024.018.042v4.265c0 .061.079.08.104.025.59-1.32 1.527-2.465 2.561-3.225 1.132-.84 2.41-1.314 4.162-1.314 1.461 0 2.373.364 2.373.985 0 .803-.803 2.081-2.117 2.081-.98 0-2.397-.395-4.533-1.016a.12.12 0 0 0-.049.006c-1.053.779-2.385 2.805-2.495 4.545v7.265c0 2.958.323 3.81 1.418 4.15a.06.06 0 0 1 .043.055v.377c0 .03-.025.055-.055.055h-5.659s-.055-.024-.055-.055v-.377h.013ZM203.819 33.498s.019-.048.043-.055c1.095-.334 1.418-1.192 1.418-4.15v-8.39c0-2.525-.426-2.915-1.424-3.34-.018-.007-.037-.031-.037-.055v-.329s.013-.042.037-.055l3.949-1.722s.042 0 .061.013l.243.213s.018.024.018.042v2.994c0 .048.055.073.092.042 2.105-1.685 4.873-3.285 7.648-3.285 3.578 0 5.768 2.08 5.768 6.352v7.52c0 2.958.323 3.81 1.418 4.15a.06.06 0 0 1 .043.055v.377c0 .03-.025.055-.055.055h-5.653a.055.055 0 0 1-.055-.055v-.377s.019-.048.043-.055c1.095-.334 1.418-1.192 1.418-4.15v-6.79c0-3.797-1.607-5.878-4.819-5.878-2.002 0-3.961 1.193-5.817 2.72a.068.068 0 0 0-.019.043v9.9c0 2.957.359 3.808 1.418 4.15.025.005.043.03.043.054v.377c0 .03-.025.055-.055.055h-5.653a.054.054 0 0 1-.054-.055v-.377l-.019.006ZM112.951 49.16c0-.036.025-.067.055-.079.444-.158.59-.554.59-1.832v-7.234c0-1.278-.152-1.673-.59-1.832a.088.088 0 0 1-.055-.079v-.073a.08.08 0 0 1 .079-.079h2.465a.08.08 0 0 1 .079.08v.072a.088.088 0 0 1-.055.08c-.456.158-.59.553-.59 1.83v3.067c0 .043.036.08.079.08h6.018a.08.08 0 0 0 .079-.08v-3.066c0-1.278-.153-1.673-.591-1.832a.087.087 0 0 1-.054-.079v-.073a.08.08 0 0 1 .079-.079h2.464a.08.08 0 0 1 .079.08v.072a.086.086 0 0 1-.055.08c-.456.158-.59.553-.59 1.83v7.235c0 1.278.134 1.674.59 1.832a.086.086 0 0 1 .055.08v.072a.08.08 0 0 1-.079.08h-2.464a.08.08 0 0 1-.079-.08v-.073c0-.036.024-.067.054-.079.445-.158.591-.554.591-1.832v-3.748a.08.08 0 0 0-.079-.079h-6.018a.08.08 0 0 0-.079.08v3.747c0 1.278.134 1.674.59 1.832.03.012.055.043.055.08v.072a.08.08 0 0 1-.079.08h-2.465a.08.08 0 0 1-.079-.08v-.073Z" fill="#004822"></path><path d="M112.951 49.16c0-.036.025-.067.055-.079.444-.158.59-.554.59-1.832v-7.234c0-1.278-.152-1.673-.59-1.832a.088.088 0 0 1-.055-.079v-.073a.08.08 0 0 1 .079-.079h2.465a.08.08 0 0 1 .079.08v.072a.088.088 0 0 1-.055.08c-.456.158-.59.553-.59 1.83v3.067c0 .043.036.08.079.08h6.018a.08.08 0 0 0 .079-.08v-3.066c0-1.278-.153-1.673-.591-1.832a.087.087 0 0 1-.054-.079v-.073a.08.08 0 0 1 .079-.079h2.464a.08.08 0 0 1 .079.08v.072a.086.086 0 0 1-.055.08c-.456.158-.59.553-.59 1.83v7.235c0 1.278.134 1.674.59 1.832a.086.086 0 0 1 .055.08v.072a.08.08 0 0 1-.079.08h-2.464a.08.08 0 0 1-.079-.08v-.073c0-.036.024-.067.054-.079.445-.158.591-.554.591-1.832v-3.748a.08.08 0 0 0-.079-.079h-6.018a.08.08 0 0 0-.079.08v3.747c0 1.278.134 1.674.59 1.832.03.012.055.043.055.08v.072a.08.08 0 0 1-.079.08h-2.465a.08.08 0 0 1-.079-.08v-.073Z" stroke="#004822" stroke-miterlimit="10" stroke-width=".274"></path><path d="M124.427 45.37c0-2.532 2.026-4.285 4.247-4.285 2.008 0 4.235 1.236 4.235 4.12 0 2.884-2.318 4.265-4.235 4.265-2.057 0-4.247-1.284-4.247-4.1Zm4.734 3.76c1.734 0 2.513-1.394 2.513-2.97 0-2.093-1.473-4.88-3.603-4.764-1.655.067-2.397 1.43-2.397 3.048 0 2.063 1.327 4.685 3.487 4.685Z" fill="#004822"></path><path d="M124.427 45.37c0-2.532 2.026-4.285 4.247-4.285 2.008 0 4.235 1.236 4.235 4.12 0 2.884-2.318 4.265-4.235 4.265-2.057 0-4.247-1.284-4.247-4.1Zm4.734 3.76c1.734 0 2.513-1.394 2.513-2.97 0-2.093-1.473-4.88-3.603-4.764-1.655.067-2.397 1.43-2.397 3.048 0 2.063 1.327 4.685 3.487 4.685Z" stroke="#004822" stroke-miterlimit="10" stroke-width=".274"></path><path d="M134.065 49.184c0-.048.03-.097.073-.11.426-.163.572-.565.572-1.825v-8.591c0-1.071-.189-1.278-.578-1.46a.12.12 0 0 1-.073-.11v-.018a.12.12 0 0 1 .073-.11l1.624-.718a.123.123 0 0 1 .128.019l.043.03s.048.06.048.097v10.867c0 1.26.128 1.662.572 1.826.049.018.073.067.073.115a.122.122 0 0 1-.121.122h-2.319a.121.121 0 0 1-.121-.122l.006-.012Z" fill="#004822"></path><path d="M134.065 49.184c0-.048.03-.097.073-.11.426-.163.572-.565.572-1.825v-8.591c0-1.071-.189-1.278-.578-1.46a.12.12 0 0 1-.073-.11v-.018a.12.12 0 0 1 .073-.11l1.624-.718a.123.123 0 0 1 .128.019l.043.03s.048.06.048.097v10.867c0 1.26.128 1.662.572 1.826.049.018.073.067.073.115a.122.122 0 0 1-.121.122h-2.319a.121.121 0 0 1-.121-.122l.006-.012Z" stroke="#004822" stroke-miterlimit="10" stroke-width=".274"></path><path d="M137.807 49.19c0-.048.03-.097.079-.115.444-.165.572-.566.572-1.826v-3.73c0-1.07-.177-1.277-.578-1.46a.12.12 0 0 1-.073-.11v-.018a.12.12 0 0 1 .073-.11l1.637-.717a.121.121 0 0 1 .127.018l.031.024s.042.055.042.092v6.011c0 1.26.146 1.661.572 1.826a.128.128 0 0 1 .073.115.121.121 0 0 1-.121.122h-2.319a.122.122 0 0 1-.121-.122m1.125-10.904a.91.91 0 0 1 .931.718.892.892 0 1 1-1.764.195c0-.48.359-.876.833-.906" fill="#004822"></path><path d="M137.807 49.19c0-.048.03-.097.079-.115.444-.165.572-.566.572-1.826v-3.73c0-1.07-.177-1.277-.578-1.46a.12.12 0 0 1-.073-.11v-.018a.12.12 0 0 1 .073-.11l1.637-.717a.121.121 0 0 1 .127.018l.031.024s.042.055.042.092v6.011c0 1.26.146 1.661.572 1.826a.128.128 0 0 1 .073.115.121.121 0 0 1-.121.122h-2.319a.122.122 0 0 1-.121-.122h.006Zm1.126-10.904a.91.91 0 0 1 .93.718.892.892 0 1 1-1.764.195c0-.48.359-.876.834-.906v-.007Z" stroke="#004822" stroke-miterlimit="10" stroke-width=".274"></path><path d="M141.708 48.746a.124.124 0 0 1-.061-.103l-.14-1.892.146-.03c.681 1.539 1.831 2.463 3.31 2.482 1.004 0 1.752-.603 1.752-1.51 0-1.168-1.138-1.539-2.385-1.946-1.539-.487-2.641-.907-2.641-2.386 0-1.283 1.071-2.27 2.951-2.27.998 0 1.911.208 2.434.408a.132.132 0 0 1 .085.122l.061 1.564-.164.03c-.517-1.168-1.558-1.916-2.708-1.916-1.15 0-1.819.535-1.819 1.363 0 1.022 1.041 1.442 2.318 1.862 1.236.407 2.726.778 2.726 2.403 0 1.363-1.022 2.513-2.969 2.531-1.254 0-2.337-.365-2.896-.712Z" fill="#004822"></path><path d="M141.708 48.746a.124.124 0 0 1-.061-.103l-.14-1.892.146-.03c.681 1.539 1.831 2.463 3.31 2.482 1.004 0 1.752-.603 1.752-1.51 0-1.168-1.138-1.539-2.385-1.946-1.539-.487-2.641-.907-2.641-2.386 0-1.283 1.071-2.27 2.951-2.27.998 0 1.911.208 2.434.408a.132.132 0 0 1 .085.122l.061 1.564-.164.03c-.517-1.168-1.558-1.916-2.708-1.916-1.15 0-1.819.535-1.819 1.363 0 1.022 1.041 1.442 2.318 1.862 1.236.407 2.726.778 2.726 2.403 0 1.363-1.022 2.513-2.969 2.531-1.254 0-2.337-.365-2.896-.712Z" stroke="#004822" stroke-miterlimit="10" stroke-width=".274"></path><path d="M149.581 47.152v-5.67s-.024-.056-.054-.056h-.931s-.055-.024-.055-.054v-.152s.006-.03.018-.037l2.045-1.965s.024-.012.036-.012h.152s.055.024.055.054v1.887s.024.054.055.054h2.336c.037 0 .061.037.049.073l-.043.122s-.03.037-.048.037h-2.294s-.055.024-.055.054v5.671c0 1.102.456 1.527 1.15 1.527.444 0 .998-.2 1.521-.797.019-.024.055-.024.079 0l.067.067s.025.055 0 .073c-.687.78-1.509 1.455-2.446 1.455-1.022 0-1.637-.633-1.637-2.319" fill="#004822"></path><path d="M149.581 47.152v-5.67s-.024-.056-.054-.056h-.931s-.055-.024-.055-.054v-.152s.006-.03.018-.037l2.045-1.965s.024-.012.036-.012h.152s.055.024.055.054v1.887s.024.054.055.054h2.336c.037 0 .061.037.049.073l-.043.122s-.03.037-.048.037h-2.294s-.055.024-.055.054v5.671c0 1.102.456 1.527 1.15 1.527.444 0 .998-.2 1.521-.797.019-.024.055-.024.079 0l.067.067s.025.055 0 .073c-.687.78-1.509 1.455-2.446 1.455-1.022 0-1.637-.633-1.637-2.319v-.012Z" stroke="#004822" stroke-miterlimit="10" stroke-width=".274"></path><path d="M154.248 49.142s.018-.049.043-.055c.468-.152.608-.542.608-1.838v-3.73c0-1.107-.182-1.29-.614-1.478-.019-.012-.037-.03-.037-.055v-.103s.012-.043.037-.055L156 41.08s.043 0 .061.006l.085.073s.019.024.019.042v6.042c0 1.29.152 1.68.608 1.838.025.006.037.03.037.055v.115c0 .03-.025.055-.055.055h-2.446a.054.054 0 0 1-.055-.055v-.11h-.006Zm1.187-10.855c.517 0 .894.389.894.906a.887.887 0 0 1-.894.889.891.891 0 0 1-.895-.889c0-.517.39-.906.895-.906Z" fill="#004822"></path><path d="M154.248 49.142s.018-.049.043-.055c.468-.152.608-.542.608-1.838v-3.73c0-1.107-.182-1.29-.614-1.478-.019-.012-.037-.03-.037-.055v-.103s.012-.043.037-.055L156 41.08s.043 0 .061.006l.085.073s.019.024.019.042v6.042c0 1.29.152 1.68.608 1.838.025.006.037.03.037.055v.115c0 .03-.025.055-.055.055h-2.446a.054.054 0 0 1-.055-.055v-.11h-.006Zm1.187-10.855c.517 0 .894.389.894.906a.887.887 0 0 1-.894.889.891.891 0 0 1-.895-.889c0-.517.39-.906.895-.906Z" stroke="#004822" stroke-miterlimit="10" stroke-width=".274"></path><path d="M157.966 45.497c0-2.562 2.044-4.412 4.411-4.412 1.558 0 2.757.438 2.757.877 0 .37-.505.876-1.022.876-.402 0-1.15-.463-2.428-1.46a.124.124 0 0 0-.091-.025c-1.479.28-2.483 1.613-2.483 3.347 0 2.22 1.375 3.748 3.486 3.748 1.205 0 2.081-.53 2.812-1.327a.108.108 0 0 1 .158 0 .112.112 0 0 1 .012.14c-.828 1.108-2.075 2.21-3.773 2.21-1.88 0-3.845-1.364-3.845-3.974" fill="#004822"></path><path d="M157.966 45.497c0-2.562 2.044-4.412 4.411-4.412 1.558 0 2.757.438 2.757.877 0 .37-.505.876-1.022.876-.402 0-1.15-.463-2.428-1.46a.124.124 0 0 0-.091-.025c-1.479.28-2.483 1.613-2.483 3.347 0 2.22 1.375 3.748 3.486 3.748 1.205 0 2.081-.53 2.812-1.327a.108.108 0 0 1 .158 0 .112.112 0 0 1 .012.14c-.828 1.108-2.075 2.21-3.773 2.21-1.88 0-3.845-1.364-3.845-3.974h.006Z" stroke="#004822" stroke-miterlimit="10" stroke-width=".274"></path><path d="M165.614 49.34v-.413h.209c.017 0 .035.005.055.014.02.01.037.024.051.044.014.02.021.044.021.074a.13.13 0 0 1-.022.077.149.149 0 0 1-.111.064h-.151v-.067h.123c.012 0 .025-.007.039-.019.015-.012.022-.03.022-.055 0-.026-.007-.043-.022-.052a.07.07 0 0 0-.037-.013h-.086v.346h-.091Zm.25-.195.103.194h-.1l-.101-.194h.098Zm-.093.44a.438.438 0 0 1-.317-.13.448.448 0 1 1 .317.13Zm0-.107c.062 0 .12-.015.171-.046a.334.334 0 0 0 .169-.294.334.334 0 0 0-.169-.294.328.328 0 0 0-.171-.046.338.338 0 0 0-.34.34.339.339 0 0 0 .34.34Z" fill="#004822"></path><path d="M165.809 48.868v-.159h.146c.049 0 .079.03.079.08 0 .042-.03.079-.079.079h-.146Zm-.116.286s.012.03.031.03h.06s.031-.012.031-.03v-.183h.097l.079.189s.019.024.031.024h.073s.036-.024.024-.042c-.024-.061-.055-.116-.085-.177a.174.174 0 0 0 .122-.176c0-.122-.098-.19-.195-.19h-.237s-.031.013-.031.031v.53-.006Zm-.255-.262c0-.256.207-.462.468-.462.262 0 .463.206.463.462a.468.468 0 0 1-.463.468.469.469 0 0 1-.468-.468Zm-.11 0a.578.578 0 1 0 1.156 0 .578.578 0 0 0-1.156 0Z" stroke="#004822" stroke-miterlimit="10" stroke-width=".024"></path><path d="M56.34 43.635h52.675M168.583 43.635h54.208" stroke="#71C200" stroke-linecap="round" stroke-miterlimit="10" stroke-width=".912"></path></svg><g transform="translate(300.0,406.0) scale(0.4330,-0.4330) translate(-382.5,-35.0)"><path d="M41.1,59.1 Q41.1,58.6 40.8,58.2 Q40.4,57.9 39.9,57.9 L19.0,57.9 Q18.5,57.9 18.5,57.4 L18.5,41.6 Q18.5,41.1 19.0,41.1 L31.0,41.1 Q31.5,41.1 31.8,40.8 Q32.2,40.4 32.2,39.9 L32.2,30.2 Q32.2,29.7 31.8,29.3 Q31.5,29.0 31.0,29.0 L19.0,29.0 Q18.5,29.0 18.5,28.5 L18.5,12.6 Q18.5,12.1 19.0,12.1 L39.9,12.1 Q40.4,12.1 40.8,11.8 Q41.1,11.4 41.1,10.9 L41.1,1.2 Q41.1,0.7 40.8,0.3 Q40.4,0.0 39.9,0.0 L5.6,0.0 Q5.1,0.0 4.8,0.3 Q4.4,0.7 4.4,1.2 L4.4,68.8 Q4.4,69.3 4.8,69.6 Q5.1,70.0 5.6,70.0 L39.9,70.0 Q40.4,70.0 40.8,69.6 Q41.1,69.3 41.1,68.8 L41.1,59.1 Z M77.6,0.0 Q76.4,0.0 76.3,1.1 L74.7,10.7 Q74.7,11.2 74.1,11.2 L61.4,11.2 Q60.8,11.2 60.8,10.7 L59.2,1.1 Q59.1,0.0 57.9,0.0 L46.2,0.0 Q44.9,0.0 45.2,1.3 L59.9,68.9 Q60.1,70.0 61.2,70.0 L74.7,70.0 Q75.8,70.0 76.0,68.9 L90.6,1.3 L90.7,0.9 Q90.7,0.0 89.6,0.0 L77.6,0.0 Z M62.8,22.6 Q62.8,22.1 63.2,22.1 L72.2,22.1 Q72.7,22.1 72.6,22.6 L67.9,49.9 Q67.8,50.2 67.6,50.2 Q67.4,50.2 67.3,49.9 L62.8,22.6 Z M124.0,0.0 Q122.9,0.0 122.6,1.0 L114.9,28.6 Q114.7,29.0 114.4,29.0 L111.0,29.0 Q110.5,29.0 110.5,28.5 L110.5,1.2 Q110.5,0.7 110.1,0.3 Q109.8,0.0 109.3,0.0 L97.6,0.0 Q97.1,0.0 96.7,0.3 Q96.4,0.7 96.4,1.2 L96.4,68.8 Q96.4,69.3 96.7,69.6 Q97.1,70.0 97.6,70.0 L117.8,70.0 Q123.3,70.0 127.6,67.3 Q131.9,64.7 134.2,59.9 Q136.6,55.1 136.6,48.9 Q136.6,43.0 134.3,38.5 Q132.1,34.0 128.1,31.5 Q127.9,31.4 127.8,31.2 Q127.7,31.1 127.8,30.9 L137.0,1.4 L137.1,1.0 Q137.1,0.0 136.0,0.0 L124.0,0.0 Z M111.0,57.9 Q110.5,57.9 110.5,57.4 L110.5,40.3 Q110.5,39.8 111.0,39.8 L115.5,39.8 Q118.6,39.8 120.5,42.2 Q122.5,44.7 122.5,48.8 Q122.5,53.0 120.5,55.5 Q118.6,57.9 115.5,57.9 L111.0,57.9 Z M182.3,70.0 Q182.8,70.0 183.1,69.6 Q183.5,69.3 183.5,68.8 L183.5,59.1 Q183.5,58.6 183.1,58.2 Q182.8,57.9 182.3,57.9 L169.8,57.9 Q169.3,57.9 169.3,57.4 L169.3,1.2 Q169.3,0.7 168.9,0.3 Q168.6,0.0 168.1,0.0 L156.4,0.0 Q155.9,0.0 155.5,0.3 Q155.2,0.7 155.2,1.2 L155.2,57.4 Q155.2,57.9 154.7,57.9 L142.7,57.9 Q142.2,57.9 141.8,58.2 Q141.5,58.6 141.5,59.1 L141.5,68.8 Q141.5,69.3 141.8,69.6 Q142.2,70.0 142.7,70.0 L182.3,70.0 Z M215.4,68.8 Q215.4,69.3 215.7,69.6 Q216.1,70.0 216.6,70.0 L228.3,70.0 Q228.8,70.0 229.1,69.6 Q229.5,69.3 229.5,68.8 L229.5,1.2 Q229.5,0.7 229.1,0.3 Q228.8,0.0 228.3,0.0 L216.6,0.0 Q216.1,0.0 215.7,0.3 Q215.4,0.7 215.4,1.2 L215.4,28.5 Q215.4,29.0 214.9,29.0 L204.9,29.0 Q204.4,29.0 204.4,28.5 L204.4,1.2 Q204.4,0.7 204.0,0.3 Q203.7,0.0 203.2,0.0 L191.5,0.0 Q191.0,0.0 190.6,0.3 Q190.3,0.7 190.3,1.2 L190.3,68.8 Q190.3,69.3 190.6,69.6 Q191.0,70.0 191.5,70.0 L203.2,70.0 Q203.7,70.0 204.0,69.6 Q204.4,69.3 204.4,68.8 L204.4,41.6 Q204.4,41.1 204.9,41.1 L214.9,41.1 Q215.4,41.1 215.4,41.6 L215.4,68.8 Z M278.5,19.3 Q278.5,10.0 272.9,5.0 Q267.3,0.0 258.4,0.0 L239.5,0.0 Q239.0,0.0 238.6,0.3 Q238.3,0.7 238.3,1.2 L238.3,68.8 Q238.3,69.3 238.6,69.6 Q239.0,70.0 239.5,70.0 L256.2,70.0 Q266.2,70.0 271.8,65.2 Q277.5,60.4 277.5,50.9 Q277.5,41.0 270.7,36.5 Q270.3,36.2 270.6,35.9 Q278.5,30.3 278.5,19.3 Z M252.9,57.9 Q252.4,57.9 252.4,57.4 L252.4,41.7 Q252.4,41.2 252.9,41.2 L256.5,41.2 Q259.9,41.2 261.8,43.3 Q263.7,45.5 263.7,49.4 Q263.7,53.5 261.8,55.7 Q260.0,57.9 256.5,57.9 L252.9,57.9 Z M257.3,12.2 Q260.6,12.2 262.5,14.6 Q264.4,17.0 264.4,21.4 Q264.4,25.8 262.5,28.4 Q260.6,31.0 257.4,31.0 L252.9,31.0 Q252.4,31.0 252.4,30.5 L252.4,12.7 Q252.4,12.2 252.9,12.2 L257.3,12.2 Z M304.5,-0.8 Q295.3,-0.8 289.8,4.6 Q284.3,10.0 284.3,19.0 L284.3,51.0 Q284.3,60.0 289.8,65.4 Q295.3,70.8 304.5,70.8 Q313.7,70.8 319.2,65.4 Q324.8,60.0 324.8,51.0 L324.8,19.0 Q324.8,10.0 319.2,4.6 Q313.7,-0.8 304.5,-0.8 Z M304.5,11.3 Q307.3,11.3 309.0,13.2 Q310.7,15.2 310.7,18.4 L310.7,51.6 Q310.7,54.8 309.0,56.8 Q307.3,58.7 304.5,58.7 Q301.7,58.7 300.0,56.8 Q298.4,54.8 298.4,51.6 L298.4,18.4 Q298.4,15.2 300.0,13.2 Q301.7,11.3 304.5,11.3 Z M360.2,0.0 Q359.1,0.0 358.8,1.0 L351.1,28.6 Q350.9,29.0 350.6,29.0 L347.2,29.0 Q346.7,29.0 346.7,28.5 L346.7,1.2 Q346.7,0.7 346.3,0.3 Q346.0,0.0 345.5,0.0 L333.8,0.0 Q333.3,0.0 332.9,0.3 Q332.6,0.7 332.6,1.2 L332.6,68.8 Q332.6,69.3 332.9,69.6 Q333.3,70.0 333.8,70.0 L354.0,70.0 Q359.5,70.0 363.8,67.3 Q368.1,64.7 370.4,59.9 Q372.8,55.1 372.8,48.9 Q372.8,43.0 370.5,38.5 Q368.3,34.0 364.3,31.5 Q364.1,31.4 364.0,31.2 Q363.9,31.1 364.0,30.9 L373.2,1.4 L373.3,1.0 Q373.3,0.0 372.2,0.0 L360.2,0.0 Z M347.2,57.9 Q346.7,57.9 346.7,57.4 L346.7,40.3 Q346.7,39.8 347.2,39.8 L351.7,39.8 Q354.8,39.8 356.7,42.2 Q358.7,44.7 358.7,48.8 Q358.7,53.0 356.7,55.5 Q354.8,57.9 351.7,57.9 L347.2,57.9 Z M408.3,68.8 Q408.3,69.3 408.6,69.6 Q409.0,70.0 409.5,70.0 L421.1,70.0 Q421.6,70.0 421.9,69.6 Q422.3,69.3 422.3,68.8 L422.3,1.2 Q422.3,0.7 421.9,0.3 Q421.6,0.0 421.1,0.0 L407.9,0.0 Q406.9,0.0 406.6,1.0 L394.2,39.7 Q394.1,40.0 393.8,40.0 Q393.6,39.9 393.6,39.6 L393.7,1.2 Q393.7,0.7 393.3,0.3 Q393.0,0.0 392.5,0.0 L380.9,0.0 Q380.4,0.0 380.0,0.3 Q379.7,0.7 379.7,1.2 L379.7,68.8 Q379.7,69.3 380.0,69.6 Q380.4,70.0 380.9,70.0 L394.0,70.0 Q395.0,70.0 395.3,69.0 L407.8,30.3 Q407.9,30.0 408.1,30.0 Q408.4,30.1 408.4,30.4 L408.3,68.8 Z M476.2,68.8 Q476.2,69.3 476.5,69.6 Q476.9,70.0 477.4,70.0 L489.1,70.0 Q489.6,70.0 489.9,69.6 Q490.3,69.3 490.3,68.8 L490.3,1.2 Q490.3,0.7 489.9,0.3 Q489.6,0.0 489.1,0.0 L477.4,0.0 Q476.9,0.0 476.5,0.3 Q476.2,0.7 476.2,1.2 L476.2,28.5 Q476.2,29.0 475.7,29.0 L465.7,29.0 Q465.2,29.0 465.2,28.5 L465.2,1.2 Q465.2,0.7 464.8,0.3 Q464.5,0.0 464.0,0.0 L452.3,0.0 Q451.8,0.0 451.4,0.3 Q451.1,0.7 451.1,1.2 L451.1,68.8 Q451.1,69.3 451.4,69.6 Q451.8,70.0 452.3,70.0 L464.0,70.0 Q464.5,70.0 464.8,69.6 Q465.2,69.3 465.2,68.8 L465.2,41.6 Q465.2,41.1 465.7,41.1 L475.7,41.1 Q476.2,41.1 476.2,41.6 L476.2,68.8 Z M518.3,-0.8 Q509.1,-0.8 503.6,4.6 Q498.1,10.0 498.1,19.0 L498.1,51.0 Q498.1,60.0 503.6,65.4 Q509.1,70.8 518.3,70.8 Q527.5,70.8 533.0,65.4 Q538.6,60.0 538.6,51.0 L538.6,19.0 Q538.6,10.0 533.0,4.6 Q527.5,-0.8 518.3,-0.8 Z M518.3,11.3 Q521.1,11.3 522.8,13.2 Q524.5,15.2 524.5,18.4 L524.5,51.6 Q524.5,54.8 522.8,56.8 Q521.1,58.7 518.3,58.7 Q515.5,58.7 513.8,56.8 Q512.2,54.8 512.2,51.6 L512.2,18.4 Q512.2,15.2 513.8,13.2 Q515.5,11.3 518.3,11.3 Z M547.6,0.0 Q547.1,0.0 546.7,0.3 Q546.4,0.7 546.4,1.2 L546.4,68.8 Q546.4,69.3 546.7,69.6 Q547.1,70.0 547.6,70.0 L559.3,70.0 Q559.8,70.0 560.1,69.6 Q560.5,69.3 560.5,68.8 L560.5,12.6 Q560.5,12.1 561.0,12.1 L582.0,12.1 Q582.5,12.1 582.8,11.8 Q583.2,11.4 583.2,10.9 L583.2,1.2 Q583.2,0.7 582.8,0.3 Q582.5,0.0 582.0,0.0 L547.6,0.0 Z M590.2,0.0 Q589.7,0.0 589.3,0.3 Q589.0,0.7 589.0,1.2 L589.0,68.8 Q589.0,69.3 589.3,69.6 Q589.7,70.0 590.2,70.0 L601.9,70.0 Q602.4,70.0 602.7,69.6 Q603.1,69.3 603.1,68.8 L603.1,1.2 Q603.1,0.7 602.7,0.3 Q602.4,0.0 601.9,0.0 L590.2,0.0 Z M630.0,-0.8 Q624.2,-0.8 619.8,1.5 Q615.4,3.8 613.0,7.9 Q610.6,12.1 610.6,17.5 L610.6,20.4 Q610.6,20.9 610.9,21.2 Q611.3,21.6 611.8,21.6 L623.3,21.6 Q623.8,21.6 624.1,21.2 Q624.5,20.9 624.5,20.4 L624.5,18.2 Q624.5,15.1 626.1,13.2 Q627.7,11.3 630.1,11.3 Q632.5,11.3 634.1,13.1 Q635.7,14.9 635.7,17.8 Q635.7,20.8 633.7,22.9 Q631.7,25.1 625.9,29.3 Q620.9,32.9 617.8,35.7 Q614.7,38.5 612.5,42.6 Q610.3,46.7 610.3,52.1 Q610.3,60.6 615.6,65.7 Q620.9,70.8 629.6,70.8 Q638.4,70.8 643.7,65.5 Q649.1,60.2 649.1,51.6 L649.1,49.2 Q649.1,48.7 648.7,48.3 Q648.4,48.0 647.9,48.0 L636.4,48.0 Q635.9,48.0 635.5,48.3 Q635.2,48.7 635.2,49.2 L635.2,51.9 Q635.2,55.0 633.6,56.8 Q632.1,58.7 629.6,58.7 Q627.2,58.7 625.7,57.0 Q624.2,55.2 624.2,52.1 Q624.2,49.1 626.1,46.8 Q628.0,44.5 633.6,40.4 Q639.8,35.8 642.9,32.9 Q646.1,30.1 647.8,26.6 Q649.6,23.2 649.6,18.4 Q649.6,9.6 644.2,4.4 Q638.8,-0.8 630.0,-0.8 Z M695.2,70.0 Q695.7,70.0 696.0,69.6 Q696.4,69.3 696.4,68.8 L696.4,59.1 Q696.4,58.6 696.0,58.2 Q695.7,57.9 695.2,57.9 L682.7,57.9 Q682.2,57.9 682.2,57.4 L682.2,1.2 Q682.2,0.7 681.8,0.3 Q681.5,0.0 681.0,0.0 L669.3,0.0 Q668.8,0.0 668.4,0.3 Q668.1,0.7 668.1,1.2 L668.1,57.4 Q668.1,57.9 667.6,57.9 L655.6,57.9 Q655.1,57.9 654.7,58.2 Q654.4,58.6 654.4,59.1 L654.4,68.8 Q654.4,69.3 654.7,69.6 Q655.1,70.0 655.6,70.0 L695.2,70.0 Z M704.4,0.0 Q703.9,0.0 703.5,0.3 Q703.2,0.7 703.2,1.2 L703.2,68.8 Q703.2,69.3 703.5,69.6 Q703.9,70.0 704.4,70.0 L716.1,70.0 Q716.6,70.0 716.9,69.6 Q717.3,69.3 717.3,68.8 L717.3,1.2 Q717.3,0.7 716.9,0.3 Q716.6,0.0 716.1,0.0 L704.4,0.0 Z M745.1,-0.8 Q736.1,-0.8 730.6,4.5 Q725.2,9.9 725.2,18.9 L725.2,51.3 Q725.2,60.2 730.6,65.5 Q736.1,70.8 745.1,70.8 Q754.2,70.8 759.6,65.5 Q765.1,60.2 765.1,51.3 L765.1,50.2 Q765.1,49.7 764.7,49.3 Q764.4,49.0 763.9,49.0 L752.2,48.5 Q751.0,48.5 751.0,49.6 L751.0,52.2 Q751.0,55.1 749.4,56.9 Q747.8,58.7 745.1,58.7 Q742.5,58.7 740.9,56.9 Q739.3,55.1 739.3,52.2 L739.3,17.7 Q739.3,14.8 740.9,13.0 Q742.5,11.3 745.1,11.3 Q747.8,11.3 749.4,13.0 Q751.0,14.8 751.0,17.7 L751.0,20.4 Q751.0,20.9 751.3,21.2 Q751.7,21.6 752.2,21.6 L763.9,21.1 Q764.4,21.1 764.7,20.8 Q765.1,20.4 765.1,19.9 L765.1,18.9 Q765.1,9.9 759.6,4.5 Q754.1,-0.8 745.1,-0.8 Z" fill="#ffffff"/></g></g></svg>