<svg xmlns="http://www.w3.org/2000/svg" xmlns:xlink="http://www.w3.org/1999/xlink" viewBox="0 0 600 480" width="600" height="480"><defs><clipPath id="cc"><rect x="0" y="0" width="600" height="480" rx="24"/></clipPath></defs><g clip-path="url(#cc)"><rect width="600" height="480" fill="#6b8a03"/><rect x="60" y="56" width="480" height="262" rx="18" fill="#ffffff"/><svg x="96" y="86" width="408" height="202" viewBox="0 0 182.5 36" preserveAspectRatio="xMidYMid meet" overflow="visible">
<style type="text/css">
	.st0{fill-rule:evenodd;clip-rule:evenodd;fill:#779803;}
	.st1{fill-rule:evenodd;clip-rule:evenodd;fill:#503529;}
</style>
<path id="Green-florishes" class="st0" d="M28.8,22.5c-0.2-0.1-0.3-0.2-0.1,0.1c-0.3,0-0.1,0.1-0.2,0.3c-0.3,0.4-0.6,0.8-0.9,1.1
	c-0.4,0.2-1.6,1.4-1.8,1.5c-0.7,0.3-1.2,1-1.3,1.7c-0.1,0.4-0.2,0.7-0.2,1.1c0,0.5,0,1.1-0.1,1.6c-0.1,0.3-0.2,0.9-0.2,0.9
	c0.1,0.2,0.4,1.2,0.7,1.2c0.7,0.1,1.2,0,1.1,0.9c0,0.4-0.7,0.2-0.9,0.3c-0.1,0.1,0,0.3-0.2,0.4c-0.3,0.2-1.5,0.2-1.8,0.1
	c-0.5-0.1-0.2-0.6-0.6-0.8c0.1-0.2-0.1,0,0-0.2c-0.3,0.1-0.3,0.2-0.1,0c-0.3,0.1,0.1-0.1-0.2-0.1c0-0.2,0-0.4,0-0.7
	c0-0.2-0.2,0-0.4,0.1S21.1,32,21.1,32s0.2-0.1,0.3-0.1c-0.7,0,0.4-0.4-0.3-0.3l0.2-0.2c-0.4,0.1-0.6,0.1-0.6-0.4
	c0.2-0.1,0.3-0.2,0.4-0.4c0.1-0.3-0.1-0.2-0.3,0s-0.2,0.3-0.2,0c-0.1-0.2,0-0.2,0.2-0.5c0.2-0.4,0-0.5,0-0.5c-0.3-0.1-0.5,0-0.5,0.3
	c0-0.2,0-0.3,0-0.5c0.2-0.4-0.1-0.1-0.2,0.2s0.6-2.7-0.2-2.5c-0.1,0-0.3,0-0.4,0c0.2,0.3-0.4-0.2-0.3,0.1c-0.3-0.2-0.5-0.3-0.8-0.4
	c-0.6-0.1-1.2-0.3-1.8-0.5c0.3,0.4-0.1,0-0.3-0.1c0.3,0.6-0.2-0.3-0.3,0c-0.4-0.3-0.9-0.5-1.5-0.6c-0.5,0-1,0.2-1.4,0.5
	c-0.2,0.3-0.2,0.4-0.3,0.4c-0.2,0.1-0.3,0.3-0.4,0.5c-0.3-0.2-0.1,0,0,0.2c-0.3-0.2-0.2-0.2-0.1,0.1L12,27.3c0,0-0.7,0.4-1.3,0.7
	c-0.7,0.4-1.2,1-1.6,1.7C9,30.3,9.1,31,9.3,31.6c0,0.1,0.5,0,0.8,0.2c0.2,0.2,0.7,0.6,0.2,0.7c-0.2,0.1-0.4,0.1-0.6,0.1
	c-0.8-0.1-1.2,0.3-1.4-0.9C8,31,7.9,30.2,7.9,29.5c0.1-0.8-1.1,0.3-0.8,1.9c0.1,0.4,0.1,0.7,0,1.1c0.3,0,0.6,0.2,0.9,0.4
	c0.2,0.4,0.4,0.5-0.1,0.6c-0.5,0.1-1,0.1-1.5,0c-0.5-0.1-0.5-0.9-0.5-1.6c0-0.6,0-1.1,0-1.3c0-0.2,0-1,0-1.5c0-0.6,0.1-0.6,0.5-0.9
	l0.6-0.4c0-0.6,0-1.2,0-1.7c0.1-0.3,0.2-0.6,0.3-0.9c-0.2,0-0.2,0-0.1-0.2c-0.3,0.2,0.1-0.1-0.2-0.3c0.2-0.5-0.3-1.1-0.1-1.6
	c0.2-0.8,0.4-1.6,0.7-2.3c0,0-0.9,0-1.2,0.6c-0.2,0.6-0.7,1.1-1.4,1.4c0.1,0,0.2-0.1,0.2-0.2c0-0.2-0.3,0.1-0.5,0.2s-0.3,0-0.3,0
	s0.4,0,0.5-0.2s-0.3-0.1-0.5,0c-0.2,0-0.7,0-0.5-0.2c-0.2,0-0.4,0.2-0.4-0.1c-0.3-0.1-0.5-0.2-0.8-0.3c-0.2-0.2-0.4-0.4-0.6-0.6
	c0,0,0,0.1-0.1,0.1c-0.1-0.2-0.3-0.7-0.3-0.2c0,0-0.1-0.2-0.1-0.4c0-0.2-0.2,0.2-0.2-0.1c-0.2-0.3-0.3-0.6-0.4-0.9
	c-0.1-0.4-0.1-0.5-0.1-0.5c-0.4,0.1-0.4-0.6-0.6-0.2c0,0-0.4,0.2-0.2-0.3c0.5-1.4,2.5-1.2,3.6-0.8c0.9,0.4,0.9,0.1,1.3,0.2
	c0.4,0.2,0.9,0.4,1.4,0.4c0.3,0,1.2,0.2,1.7,0.1c0.5-0.1,2.2-0.7,2.8-0.8c1.1-0.1,2.3-0.1,3.4,0c1.1,0.1,1,0.3,1.2,0.1
	c0.4-0.2,0.8-0.2,1.3-0.2c0.5,0.1,1.1,0,1.6-0.1c0.7-0.2,1.4-0.3,2.1-0.4c0.6,0.1,1.3-0.7,1.9-0.9c0.2,0,0.3-0.2,0.4-0.3
	c0.7-0.3,1.2-0.9,1.5-1.6c0.2-0.4,0.4-0.7,0.7-1c0.8-0.6,0.7-1.8,1.5-2.4c0.3-0.2,0.6-0.4,0.9-0.6c0.4-0.2,0.9-0.3,1.4-0.3
	c0.6,0,1.2,0.4,1.8,0.3c0.3,0,2-0.5,2,0c0,0.3,0.3,0.6,0.3,1c0,0.2,0.1,0.6,0,0.6c-0.9,0.9-2.6,1.7-2.9,3.1
	c-0.3,1.2-1.1,2.2-1.3,3.4c-0.1,0.7,0,1.1-0.1,1.5s-0.3,1.3-0.2,1.5c0.1,0.2,0.3,0.2,0.1,0.2c0.3,0.2-0.2-0.1,0.1,0.3
	C28.5,22.3,28.7,22.4,28.8,22.5z M140.3,7.2c-0.1-0.2,0.4-0.9,0.5-1c0.4-0.4,1-0.5,1.5-0.4c0.5,0,1.3,0,1.3,0
	c-0.4,0.4-0.5,0.8-1,1.2c-0.1,0.1-0.2,0.2-0.4,0.3C141.7,7.6,140.5,7.6,140.3,7.2z M140.5,6.1c-0.3,0.7-0.8,0.8-0.8,0.8
	c-0.2-0.2-0.3-0.3-0.5-0.5c-0.3-0.5-0.3-1.1,0-1.6c0.2-0.4,0.5-0.7,0.9-1c0.1,0.1,0.1,0.2,0.2,0.3c0.1,0.1,0.2,0.3,0.2,0.5
	C140.7,5,140.7,5.6,140.5,6.1L140.5,6.1z M137.6,5.7c0.8,0.2,1.5,0.8,1.6,1.6c0,0-0.5,0.2-0.5,0.2c-0.2,0.1-0.5,0.1-0.7,0
	c-0.8-0.2-1.4-0.8-1.6-1.6C136.5,5.7,137.5,5.7,137.6,5.7L137.6,5.7z M139.5,7.7c0.2,0.1,0.3,0.8,0.3,1c0,0.5-0.2,0.9-0.6,1.2
	c-0.4,0.2-0.8,0.6-1.1,1c0.1-0.1,0-0.5,0-0.7c0-0.2,0-0.4,0-0.6c0-0.4,0.1-0.8,0.3-1.2C138.6,8,139.1,7.7,139.5,7.7L139.5,7.7z
	 M141,7.7c0.4,0.1,0.8,0.8,1,1.3c0.1,0.5,0.2,0.9,0.1,1.4c0-0.1-0.4-0.3-0.4-0.3c-0.2-0.1-0.4-0.2-0.6-0.3c-0.4-0.2-0.7-0.4-0.9-0.7
	c-0.1-0.2-0.4-0.9-0.2-1.1c0.1-0.1,0.1-0.1,0.1-0.1C140.4,7.7,140.8,7.7,141,7.7L141,7.7z M139.5,7.6c-0.1-0.1-0.1-0.4,0-0.5
	c0.1-0.1,0.4-0.1,0.5,0c0.1,0.1,0.1,0.4,0,0.5C139.9,7.7,139.7,7.7,139.5,7.6L139.5,7.6z M43.2,18c1.6-3.8,4.4-7,9.6-6
	c-1.8,1-2.2,3.3-3.7,5c-1.1,1.3-2.7,2.1-5.5,1.4c-1.3,1.1-2.4,2.5-3.3,4c-0.4,0.7-0.7,1.5-1,2.3c-0.7,2.2-0.5,4.4-1,6.6
	c-0.1,0.7-0.5,1.4-0.9,2c-0.8,0.9-2.1,1.3-3.2,0.9c-0.8-0.2-1.5-0.9-1.7-1.7c-0.3-1.1,0.3-2.3,1.4-2.6c0.4-0.1,0.8-0.1,1.2,0
	c0.7,0.2,1.2,0.9,1.2,1.6c0,0.5-0.3,0.9-0.7,1.2c-0.5,0.2-1,0.1-1.4-0.2c-0.1-0.1-0.1-0.2-0.1-0.3c-0.1-0.3,0.1-0.3,0.1,0
	c0,0.1,0.1,0.2,0.1,0.2c0.3,0.2,0.7,0.2,1,0c0.3-0.2,0.5-0.5,0.6-0.9c0.1-0.5-0.2-1.1-0.7-1.3c-0.1,0-0.1,0-0.2,0
	c-0.3,0-0.6,0-0.9,0.1c-0.8,0.3-1.3,1.2-1.1,2.1c0.1,0.8,0.7,1.4,1.4,1.6c0.9,0.3,1.9-0.2,2.4-1c0.3-0.6,0.5-1.2,0.5-1.9
	c0.3-2.4,0.3-4.3,1.4-6.6c0.4-0.8,0.8-1.5,1.2-2.2c0.9-1.5,2.2-2.8,3.6-3.8c1.1-1.2,4.2-2.7,5.2-4.2C47.4,15.4,44.3,16.9,43.2,18z
	 M38.3,22.5c-2.4-0.1-3.4-1.2-3.9-2.4c-0.7-1.6-0.4-3.4-1.5-4.6c4.1,0.5,5.4,3.6,5.6,6.7c-0.5-1.1-2.4-2.9-3.1-4.1
	C35.8,19.5,37.7,21.4,38.3,22.5z M32.4,22.1c3.5,0.9,4.2,3.7,4.1,6.5c-0.3-1-1.7-2.8-2.1-4c0.2,1.2,1.6,3.1,1.9,4.2
	c-2-0.4-2.8-1.4-3.1-2.6C32.8,24.7,33.2,23.2,32.4,22.1L32.4,22.1z M41.2,14.2c-0.5,1.1-0.2,3.5-0.5,4.6c-1.5-1.4-1.7-2.6-1.4-3.8
	c0.4-1.5,1.6-2.6,1.5-4c2.5,2.6,1.7,5.4,0.2,7.7C41.3,17.7,41,15.4,41.2,14.2z M39.1,29.4c1.3-2.9,3.5-5.4,7.6-4.5
	c-1.4,0.7-1.8,2.6-2.9,3.8c-0.9,1-2.2,1.6-4.5,1c0.9-0.9,3.3-2.1,4.1-3.2C42.3,27.5,40,28.6,39.1,29.4L39.1,29.4z M41,22.8
	c1.3-2.1,3.2-3.8,6.2-2.8c-1.1,0.4-1.6,1.8-2.6,2.7c-1,0.9-2.4,1-3.5,0.4c0.7-0.6,2.7-1.3,3.4-2.1C43.6,21.6,41.7,22.2,41,22.8z
	 M155.8,22.7c0-0.3,0.2-0.3,0.1-0.5l0-0.2c0.2-0.8,0.4-1.7,0.6-2.5c-0.4,0.1-0.9,0-1.3-0.3c-0.3-0.3-0.6-0.6-0.9-1
	c-0.4-0.6-0.7-1.2-1-1.8c-0.1-0.2-0.3-0.4-0.3-0.7c0.5,0.1,0.8,0.5,1.3,0.6c0.3,0.2,0.7,0.4,1,0.6c0.4,0.3,0.8,0.7,1.1,1.1
	c0.1,0.1,0.2,0.2,0.2,0.4c0.3-0.5,0.5-1,0.5-1.6c-1.2,0.1-2.4-0.5-2.9-1.7c-0.2-0.5-0.4-1-0.6-1.5c-0.1-0.3-0.5-0.5-0.5-0.8
	c1.5,0.4,3.1,0.7,4,2.1c0,0,0.1,0.1,0.1,0.1c0,0.2,0.2,0.3,0.1,0.4c0.1,0,0.1-0.1,0.1,0.1c0.2-0.2,0.2-0.5,0.3-0.7
	c-0.1-0.1-0.2-0.1-0.3-0.2c-0.1-0.2-0.3-0.3-0.4-0.4c-0.6-0.6-1.1-1.4-1.4-2.2c-0.1-0.4-0.2-0.7-0.3-1.1c-0.1-0.6-0.1-1.3,0-1.9
	c0-0.1-0.1-0.2,0-0.3c0.1,0,0.2,0,0.2,0.2c0.9,0.8,2.3,1.2,2.7,2.6c0.1,0.6,0.2,1.3,0.1,2c0.2-0.3,0.3-0.6,0.4-0.9
	c0-0.6,0.2-1.1,0.1-1.6c0.2-0.2,0.3-0.4,0.3-0.6c0.2-0.3,0.3-0.6,0.5-1c0.2-0.1,0.3-0.3,0.4-0.5c0.4-0.3,0.8-0.7,1.3-1
	c0.1-0.1,0.1-0.1,0.2-0.2c0.1,0.1,0.3,0,0.3-0.1c0.3,0.1,0.7-0.4,1-0.4c-0.1,0.4-0.2,0.9-0.2,1.3c-0.2,0.4-0.3,0.8-0.4,1.2
	c0,0.1-0.1,0.2-0.1,0.3c-0.1,0.2-0.2,0.3-0.2,0.5c-0.2,0.1-0.2,0.4-0.4,0.5c-0.1,0.1-0.2,0.2-0.3,0.3s-0.2,0.2-0.3,0.3
	c-0.4,0.2-0.7,0.4-1.1,0.6c-0.2,0.1-0.3,0.3-0.5,0.4c-0.2,0.3-0.3,0.5-0.4,0.8c0.1,0,0.1-0.1,0.1-0.2c0.1,0,0.2-0.1,0.2-0.2
	c0.2,0,0.3-0.1,0.3-0.3c0.2,0,0.4-0.2,0.7-0.3c0.4-0.2,0.9-0.2,1.3-0.4c0.1,0,0,0,0-0.1c0,0,0,0.1,0.1,0c0.6-0.3,1.4-0.6,1.7-1.1
	c0,0.4-0.1,0.7-0.3,1.1c-0.3,0.6-0.7,1.1-1.1,1.6c-0.2,0.2-0.4,0.4-0.5,0.5c-0.3,0.2-0.6,0.4-0.9,0.6c-0.2,0-0.4,0.2-0.5,0.3
	c-0.7,0.3-1.4,0.4-2.1,0.3c-0.2,0.4-0.4,0.8-0.4,1.2c0.3-0.2,0.7-0.3,1-0.4c0.1,0,0.1-0.1,0.1-0.1c0.1,0,0.1,0.1,0.2,0.1
	c0.6-0.1,1.2-0.1,1.7-0.2c0.1,0,0.2,0,0.2-0.1c1-0.1,2-0.6,2.7-1.3c0.3,0.6-0.2,1.1-0.5,1.6c-0.7,0.9-1.6,1.5-2.6,1.9
	c-0.6,0.1-1.2,0.2-1.8,0.1c-0.1-0.1-0.3-0.1-0.5-0.1c-0.3-0.2-0.6-0.4-0.9-0.5c-0.1,0.3-0.2,0.7-0.3,1c0.3,0,0.5-0.1,0.8-0.2
	c0.1,0,0-0.1,0-0.1c0.2,0,0.4,0,0.6,0c0.1,0.2,0.3,0,0.5,0.1c0.2,0.1,0.4,0.2,0.5,0.2c0.4,0.2,0.8,0.6,1.2,0.8
	c0.6,0.4,1.2,0.5,1.9,0.5c0.1,0,0.2-0.1,0.3-0.1c0.1,0.2-0.2,0.3-0.4,0.4c-0.6,0.3-1.2,0.5-1.9,0.6c-0.9,0.1-1.8-0.1-2.6-0.7
	c-0.4-0.3-0.7-0.7-1.1-0.9c-0.1,0.3-0.2,0.6-0.3,1c-0.1,0.2-0.3,0.7-0.3,0.9l-0.1,0.6C156.1,23,155.9,22.9,155.8,22.7z M179.6,13.5
	c0.7-0.7,1.8-0.7,2.7-0.2c0.5,0.6,0.2,0.8-0.4,0.8c-2.1,0-1.9,1.2-1.9,2.8c0.1,1.5-0.2,3.1-0.7,4.5c-0.3,0.8-0.3,1.7,0,2.4
	c0.3,0.6,0.3,1.3,0.2,2c0.1,1.2,0.7,2.4,1.6,3.2c0.5,0.3,0.7,0.9,0.7,1.4c0.1,0.9,0.2,1.7,0.3,2.6c0,0.7-0.3,0.9-0.7,0.9
	c-0.3,0.1-0.6,0-0.9-0.1c-0.3-0.1-0.4-0.4-0.3-0.7c0-0.1,0.1-0.1,0.1-0.2c0.1-0.1,0.3-0.2,0.2-0.3v-0.9c0.1-0.5-0.1-1-0.5-1.2
	c-1-0.5-2-1.1-3-1.7c0.2,0.3,0.4,0.6,0.5,0.8c0.3,0.5,0.3,1.1,0,1.6c-0.3,0.4-0.6,0.9-0.9,1.3c-0.4,0.6-0.8,1.2-1.6,1.1
	c-0.7,0.2-1,0-1.2-0.3c0.1-0.6,0.2-1,1-0.7c0.2,0,0.4-0.1,0.5-0.3c0.2-0.2,0.3-0.4,0.5-0.6c0.2-0.4,0.2-0.9,0-1.3
	c-0.5-0.3-1-0.6-1.4-1c-0.9,0.2-1.8,0.2-2.8,0.1c-0.3,1.4-0.6,2.9-0.8,4.3c-0.1,0.7-0.7,1.2-1.5,1.1c0,0-0.1,0-0.1,0
	c-0.3,0.1-0.7,0-1-0.2c-0.2-0.7-0.1-1.1,0.9-1c0.3,0,0.4-0.2,0.4-0.6c-0.1-1-0.1-2-0.2-3c0-1-0.5-1.3-1.1-1
	c-0.2,0.2-0.4,0.4-0.5,0.7c-0.6,1.3-1.2,2.7-1.7,4c-0.4,0.7-1.3,1.1-2.1,0.8c-0.6,0.1-0.6-0.5-0.3-0.9c0.1-0.1,0.3-0.2,0.7-0.3
	c0.4,0.2,0.6-0.2,0.7-0.8c0.1-0.9,0.3-1.8,0.4-2.7c0.2-1,0.1-2-0.3-2.9c-0.4-1.1-0.4-2.3-0.1-3.5c0-0.6,0.1-1.1,0.1-1.7
	c-0.2-0.7-0.2-1.4,0-2.2c-0.1-0.7-0.1-1.4,0-2.1c0.1-1,0.5-1,1.2-0.3c0.3,0.4,0.5,0.8,0.7,1.3c0.6-0.1,1.1,0,1.6,0.2
	c0.2-0.4,0.6-0.8,0.9-1.1c0.5-0.5,0.8-0.4,0.8,0.3c0,0.8-0.2,1.5-0.6,2.2c0.2,0.5,0.2,1.1-0.1,1.6c0.2,0.4,0.2,0.9,0.9,0.8
	c1.1,0,2.3-0.2,3.3-0.7c1-0.4,2-0.6,3-0.7c0.8,0,1.1-1.3,1.3-3.3C178.7,16.4,178.3,14.6,179.6,13.5z M54.8,4.7
	c-0.1,0.1-0.1,0.1-0.2,0.2c-0.3,0.2-0.6,0.3-0.9,0.5c-0.1,0.1-0.1,0.1-0.2,0.1c-0.1,0.1-0.1,0.3-0.2,0.3c-0.1,0-0.1,0.1-0.2,0.1
	C53,6.1,53,6.2,52.9,6.3s-0.1,0-0.1,0.1l0,0c-0.2,0.2-0.5-0.1-0.7-0.3c0.1,0.1,0.1,0.3,0.2,0.5c0,0,0,0.1,0,0.1c0,0.3-0.5,0.7-1,1
	c-0.1,0.1-0.2,0.2-0.2,0.2s-0.2,0-0.3,0c-0.1,0-0.2,0.1-0.3,0.2c-0.1,0-0.2,0-0.3,0S50,8,49.9,8c-0.1,0-0.2-0.4-0.2-0.5l0,0
	c0-0.2,0-0.6,0-1c0-0.1,0-0.3-0.1-0.4c0,0,0,0,0,0c0-0.2,0.1-0.4,0.1-0.5c0,0.1-0.1,0.1-0.2,0.2c0,0-0.3,0.3-0.3,0.2
	c-0.1-0.1,0.1-0.5,0.2-0.5c0.1-0.1,0.1-0.2,0.2-0.2l0,0c-0.1,0-0.5,0.3-0.6,0.4c0,0,0,0,0,0c-0.1,0-0.3,0-0.4,0
	c-0.3,0.1-0.7,0.2-0.9,0.3h0h0c-0.2,0-0.3,0-0.5,0c0-0.1,0-0.2-0.1-0.2c-0.1-0.1-0.1-0.2-0.1-0.2c0-0.1,0-0.2,0-0.3
	c0-0.1-0.1-0.2-0.1-0.3s0.1-0.2,0.1-0.3C47,4,47.2,3.4,47.5,3.3l0,0c0.2,0,0.4-0.1,0.6,0c-0.2-0.1-0.6-0.3-0.5-0.5l0,0
	c0-0.1,0-0.1,0-0.2s0.1-0.1,0.2-0.2c0-0.1,0-0.2,0-0.2c0-0.1,0.2-0.2,0.2-0.3c0-0.1,0-0.2,0.1-0.2c0.1-0.3,0.2-0.7,0.2-1
	c0-0.1,0.1-0.2,0.1-0.3C48.5,0.1,48.6,0,48.7,0c0.4,0.1,1,1.1,1.1,1.3c0.1,0.3,0.2,0.7,0.2,1.1C50,2.9,50,3.4,50,3.8
	c0,0.2,0,0.5,0,0.7c0,0,0.1-0.1,0.1-0.1c0,0,0,0,0,0s0,0,0-0.1c0-0.1,0.1-0.1,0.1-0.1c0-0.1,0-0.2,0-0.2c0-0.1,0-0.1,0-0.2
	c0-0.2,0-0.4,0-0.5c0,0,0,0-0.1-0.1c0,0,0.1,0.1,0.1,0.1c0,0.1,0,0.1,0,0.2c0,0.2,0,0.4,0,0.6c0,0,0,0,0,0c0,0,0,0,0,0
	c0.2-0.1,0.3-0.2,0.5-0.3C50.9,4,51,3.9,51,3.9c0,0,0.2,0,0.2,0c0,0-0.1,0-0.1,0c-0.2,0-0.4,0.1-0.5,0.2c-0.1,0-0.1,0.1-0.2,0.1
	l-0.1,0c0,0,0,0.1,0,0.2c0,0,0,0,0,0c0,0,0,0-0.1,0c0,0.1,0,0.1-0.1,0.2c0.2-0.1,0.4-0.2,0.7-0.2c0.4-0.1,0.9-0.3,1.3-0.4
	c0.4-0.1,0.7-0.1,1.1-0.2c0.6,0,1.1,0.2,1.6,0.5C55,4.4,54.9,4.6,54.8,4.7z M42.7,7.7c0,0.1-0.1,0.1-0.1,0.2c-0.1,0.1-0.3,0.1-0.5,0
	l-0.3-0.1c-0.2-0.1-0.3-0.4-0.2-0.6c0.1-0.2,0.4-0.3,0.6-0.2c0,0,0,0,0,0l0.3,0.1C42.8,7.2,42.8,7.5,42.7,7.7
	C42.7,7.7,42.7,7.7,42.7,7.7z M37.5,8.3c0,0.1-0.1,0.2-0.1,0.2c-0.1,0.2-0.4,0.3-0.6,0.2c-0.2-0.1-0.3-0.3-0.2-0.6
	c0-0.1,0.1-0.2,0.1-0.3c0.1-0.2,0.4-0.3,0.6-0.2C37.5,7.8,37.6,8.1,37.5,8.3L37.5,8.3z M36.8,10.2c0,0.1-0.1,0.2-0.1,0.3
	c0,0.1-0.1,0.2-0.2,0.2c-0.2,0.1-0.5,0.1-0.6-0.1c-0.1-0.1-0.1-0.3,0-0.4c0-0.1,0.1-0.2,0.1-0.3c0.1-0.2,0.3-0.4,0.6-0.3
	C36.7,9.7,36.9,9.9,36.8,10.2C36.8,10.2,36.8,10.2,36.8,10.2L36.8,10.2z M35.6,12.1c-0.1,0.1-0.2,0.2-0.2,0.2c0,0,0,0-0.1,0
	c-0.2,0.1-0.5,0.1-0.6-0.1c-0.1-0.2-0.1-0.4,0.1-0.6c0.1-0.1,0.1-0.1,0.2-0.2c0.2-0.2,0.5-0.2,0.6,0S35.8,11.9,35.6,12.1L35.6,12.1z
	 M38.7,7L38.7,7L38.7,7c-0.1,0.1-0.2,0.1-0.3,0.1c-0.2,0.1-0.5,0-0.6-0.2c-0.1-0.2,0-0.4,0.1-0.6h0c0.1-0.1,0.2-0.1,0.3-0.1l0,0
	c0.2-0.1,0.5,0,0.6,0.2C39,6.7,38.9,6.9,38.7,7L38.7,7z M44.5,8.7c-0.1,0.1-0.2,0.1-0.3,0.1c-0.1,0-0.2-0.1-0.3-0.1
	c-0.2-0.1-0.4-0.3-0.3-0.6c0.1-0.2,0.3-0.4,0.6-0.3c0.1,0,0.2,0.1,0.3,0.1c0.2,0.1,0.4,0.3,0.3,0.5c0,0,0,0,0,0
	C44.6,8.5,44.6,8.6,44.5,8.7L44.5,8.7z M48.3,6.9c0.2,0.2,0.1,0.5-0.1,0.6c-0.1,0.1-0.2,0.1-0.2,0.2c0,0,0,0,0,0
	c-0.2,0.1-0.5,0.1-0.6-0.2c-0.1-0.2-0.1-0.4,0.1-0.6c0.1-0.1,0.1-0.1,0.2-0.2C47.9,6.6,48.2,6.7,48.3,6.9L48.3,6.9z M40.1,6.9
	c-0.2,0-0.4-0.3-0.4-0.5C39.8,6.1,40,6,40.3,6c0,0,0,0,0,0c0.1,0,0.2,0.1,0.3,0.1c0.2,0.1,0.4,0.3,0.3,0.6c0,0,0,0,0,0
	c0,0.1-0.1,0.2-0.2,0.2C40.6,7,40.5,7,40.4,7C40.3,6.9,40.2,6.9,40.1,6.9L40.1,6.9z M46.5,8.6C46.5,8.6,46.4,8.6,46.5,8.6
	c-0.2,0.1-0.3,0.1-0.4,0.1c-0.2,0.1-0.5-0.1-0.5-0.3s0.1-0.5,0.3-0.5c0.1,0,0.2,0,0.2-0.1c0.2-0.1,0.5,0,0.6,0.3
	C46.7,8.2,46.7,8.5,46.5,8.6L46.5,8.6z M146.8,16.9c0.1,1.1-0.4,2.2-1.3,3c-0.8,0.5-1.6,0.8-2.5,1.1c0-0.2-0.1-0.5-0.1-0.7
	c0-0.3-0.1-0.7,0-1c0.1-1.1,0.6-2.1,1.4-2.9c0.5-0.6,1.3-0.9,2.1-0.8C146.6,16,146.8,16.4,146.8,16.9L146.8,16.9z M145.5,14.5
	c0,0.5-1.5,1.2-1.8,1.4c-1.1,0.5-2.1-0.1-3.1-0.5c-0.9-0.4-2.3-1-2.3-1c1.1-0.5,1.6-0.9,2.8-1.4c0.3-0.1,0.6-0.2,0.9-0.2
	C143.3,12.6,145.5,13.6,145.5,14.5L145.5,14.5z M149.7,15.6c1.3,0.9,1.9,2.7,1.4,4.2c-0.1,0.2-2-0.6-2.2-0.6
	c-1.4-0.6-1.8-2.8-1.6-4.2c0,0,1,0.1,1.1,0.1C148.8,15.2,149.3,15.4,149.7,15.6L149.7,15.6z M150,14c-0.8,0.5-1.7,0.6-2.6,0.2
	c-0.3-0.3,0.1-1.7,0.3-2c0.4-0.8,1.1-1.4,2-1.6c1-0.1,1.9-0.4,2.7-0.8c-0.3,0.2-0.5,0.9-0.6,1.2c-0.1,0.4-0.3,0.8-0.4,1.1
	C151.1,12.8,150.6,13.5,150,14L150,14z M144.7,12.9c-0.7-0.6-0.9-2.1-0.7-3.1c0.2-0.9,0.5-1.8,0.9-2.6c-0.1,0.1,0.4,0.8,0.5,1
	c0.2,0.4,0.6,0.7,0.8,1c0.5,0.6,0.8,1.3,1,2.1c0.1,0.5-0.1,1.9-0.7,2.2c-0.1,0-0.2,0.1-0.3,0C145.7,13.5,145.2,13.3,144.7,12.9
	L144.7,12.9z M146.3,13.9c0.4-0.1,0.7,0.1,0.8,0.4c0.1,0.3-0.1,0.7-0.4,0.8c-0.3,0.1-0.7,0-0.9-0.4C145.7,14.4,145.9,14,146.3,13.9
	C146.3,13.9,146.3,13.9,146.3,13.9z M155.9,24.2c2.6,0.4,4.4,2.7,4,5.3c-0.1,0.4-0.2,0.8-0.3,1.1c-0.8,1.9-2.5,3.3-4.5,3.7
	c-2.6,0.4-5.2-0.9-6.3-3.3c-0.6-1.5-0.8-3.2-0.8-4.8c0-0.9-0.4-1.7-1.1-2.2c-0.7-0.5-1.7-0.3-2.2,0.3c-0.4,0.6-0.4,1.4,0.1,2
	c0.4,0.5,1,0.6,1.6,0.3c0.1-0.1,0.3-0.2,0.3-0.4c0.2-0.5,0-1-0.5-1.2c0,0-0.1,0-0.1,0c-0.2,0-0.4,0-0.5,0.1
	c-0.1,0.1-0.1,0.1-0.1,0.2c0,0.1,0.1,0.1,0.1,0.2c0.1,0.1-0.2,0.2-0.2,0.1c0-0.1,0-0.1,0-0.2c0-0.1,0.1-0.2,0.1-0.3
	c0.1-0.2,0.4-0.3,0.6-0.3c0.6,0,1,0.4,1,1c0,0.2-0.1,0.4-0.2,0.6c-0.5,0.7-1.4,1-2.2,0.5c-0.1-0.1-0.2-0.1-0.2-0.2
	c-0.6-0.7-0.6-1.7,0-2.4c0.6-0.8,1.7-1.1,2.6-0.7c0.3,0.2,0.6,0.4,0.8,0.7c-0.1-1.9-0.4-3.8-0.9-5.6c3.3,4.7,0.1,8.9,3.5,13.1
	c1.4,1.6,3.7,2.2,5.7,1.4c2.2-1,3.2-3.6,2.2-5.9c-0.5-1.2-1.5-2-2.7-2.4c-1.4-0.4-2.9,0.3-3.4,1.6c-0.4,1.3,0.4,2.7,1.7,3.1
	c0.1,0,0.3,0.1,0.4,0.1c0.5,0,1-0.1,1.3-0.5c0.2-0.2,0.3-0.3,0.1-0.5c-0.1-0.1-0.2-0.3-0.3-0.4c-0.2-0.3,0.4-0.6,0.6-0.3
	c0.1,0.2,0.1,0.3,0.1,0.5c0,0.3-0.1,0.5-0.3,0.7c-0.3,0.6-0.9,1-1.6,1.1c-2.2,0.3-3.5-2.1-2.7-3.9C152.4,24.8,154.1,23.9,155.9,24.2
	z M22.6,13.5c-0.6,1.3-3.1,2.2-4.6,2.5c0.8-1.1,0.2-2.2,0.1-3.8c-0.2-1.8,2.5-2.7,2.8-0.5C22.1,10.8,23.2,12.3,22.6,13.5z
	 M17.7,31.3c0.9,0,1.8,0.4,1.4,1.7c-0.2,0.5-1.1,0.5-1.4,0.4c-0.6-0.3-1.2-0.7-1.7-1.2C15.7,31.9,16.7,31.3,17.7,31.3L17.7,31.3z
	 M15.3,33.1c0.2-0.6,1.2-0.2,1.7,0.5c0.5,0.7,0.5,1.7-0.9,2.3c-0.6,0.3-1-0.4-1.1-0.8C15,34.4,15.1,33.7,15.3,33.1z M14.5,32.3
	c0.6,0.2,0.4,1.2-0.3,1.8c-0.6,0.5-1.5,0.7-2.2-0.7c-0.3-0.5,0.3-1,0.6-1.2C13.2,32.1,13.9,32.1,14.5,32.3L14.5,32.3z M15,31.3
	c0.1,0.6-0.9,0.8-1.7,0.5c-0.7-0.3-1.2-1.1-0.4-2.3c0.3-0.5,1-0.2,1.3,0C14.6,30.1,14.9,30.7,15,31.3L15,31.3z M16.1,31.5
	c-0.6,0.3-1.1-0.7-1-1.5c0.1-0.8,0.7-1.5,2.1-1c0.6,0.2,0.5,0.9,0.3,1.2C17.2,30.7,16.6,31.2,16.1,31.5L16.1,31.5z M144.1,33
	c-0.1,0-0.1,0-0.2,0h-0.1v0.3h0.1c0.1,0,0.1,0,0.2,0c0,0,0.1-0.1,0.1-0.1C144.1,33.1,144.1,33.1,144.1,33L144.1,33z M143.5,33.9
	v-1.1h0.5c0.1,0,0.1,0,0.2,0.1c0.1,0,0.1,0.1,0.1,0.3c0,0.1,0,0.1-0.1,0.2c-0.1,0-0.1,0.1-0.2,0.1c0.1,0,0.1,0,0.2,0.1
	c0.1,0.1,0.1,0.1,0.1,0.2v0.1c0,0,0,0,0,0c0,0,0,0,0,0l0,0h-0.3c0,0,0-0.1,0-0.1c0,0,0-0.1,0-0.1c0,0,0-0.1-0.1-0.1c0,0-0.1,0-0.1,0
	h-0.1v0.4L143.5,33.9z M143.4,32.8c-0.3,0.3-0.3,0.8,0,1.1c0.3,0.3,0.8,0.3,1.1,0c0,0,0,0,0,0c0.2-0.1,0.2-0.4,0.2-0.6
	c0-0.2-0.1-0.4-0.2-0.6c-0.1-0.2-0.3-0.2-0.6-0.2C143.8,32.6,143.5,32.7,143.4,32.8L143.4,32.8z M144.6,34c-0.4,0.4-1,0.4-1.3,0
	c-0.2-0.2-0.3-0.4-0.3-0.7c0-0.3,0.1-0.5,0.3-0.7c0.4-0.4,1-0.4,1.4,0C145,33.1,145,33.7,144.6,34L144.6,34z M166.8,11.6V9.8h1.9
	v0.4h-1.2v0.3h1.2v0.4h-1.2v0.3h1.3v0.4L166.8,11.6z M169.8,11.1c0,0.2,0.3,0.2,0.4,0.2c0.2,0,0.3-0.1,0.3-0.2
	c0-0.1-0.1-0.1-0.2-0.2l-0.4-0.1c-0.4-0.1-0.6-0.2-0.6-0.5c0-0.1,0-0.2,0.1-0.3c0.2-0.2,0.5-0.3,0.8-0.3c0.2,0,0.4,0,0.6,0.1
	c0.2,0.1,0.4,0.2,0.4,0.4l-0.6,0c0-0.2-0.2-0.2-0.3-0.2c-0.1,0-0.3,0-0.3,0.1c0,0.1,0.1,0.1,0.4,0.2l0.2,0c0.2,0,0.7,0.1,0.7,0.5
	c0,0.1,0,0.2-0.1,0.3c-0.2,0.2-0.6,0.3-0.9,0.3c-0.3,0-0.9,0-0.9-0.6C169.2,11.1,169.8,11.1,169.8,11.1L169.8,11.1z M172.8,10.2v1.4
	h-0.6v-1.4h-0.6V9.8h1.9v0.4L172.8,10.2z M173.5,11.6v-0.5h0.6v0.5H173.5z M167.3,14.6v-1.3c-0.1,0.1-0.3,0.1-0.5,0.1v-0.4
	c0.1,0,0.2,0,0.3-0.1c0.1,0,0.2-0.1,0.3-0.2h0.5v1.9L167.3,14.6z M169.8,13.1c-0.1,0-0.4,0-0.4,0.2s0.2,0.2,0.4,0.2
	c0.1,0,0.4,0,0.4-0.2S170,13.1,169.8,13.1L169.8,13.1z M169.6,13.9c-0.3,0-0.8-0.1-0.8-0.6c0-0.3,0.2-0.7,1.1-0.7
	c0.8,0,1.1,0.4,1.1,0.9c0,0.6-0.3,1-1.2,1c-0.4,0-0.9-0.1-1-0.5c0.1,0,0.7,0,0.7,0c0.1,0.1,0.2,0.1,0.3,0.1c0.2,0,0.5-0.2,0.5-0.4
	c0,0,0,0,0-0.1v0C170.1,13.9,169.9,14,169.6,13.9L169.6,13.9z M173.6,12.7l0,0.2c0,0.1-0.1,0.3-0.2,0.4c-0.1,0.1-0.2,0.2-0.3,0.3
	c-0.2,0.1-0.3,0.3-0.5,0.5c-0.1,0.2-0.2,0.3-0.2,0.5h-0.7c0-0.1,0-0.2,0.1-0.3c0.1-0.2,0.2-0.4,0.3-0.5c0.1-0.1,0.2-0.2,0.3-0.3
	c0,0,0.1-0.1,0.3-0.2c0.1,0,0.1-0.1,0.1-0.2h-1.3v-0.4L173.6,12.7z M175,13.1c-0.1,0-0.4,0-0.4,0.2s0.2,0.2,0.4,0.2
	c0.1,0,0.4,0,0.4-0.2S175.2,13.1,175,13.1L175,13.1z M174.8,13.9c-0.3,0-0.8-0.1-0.8-0.6c0-0.3,0.2-0.7,1.1-0.7
	c0.8,0,1.1,0.4,1.1,0.9c0,0.6-0.3,1-1.2,1c-0.4,0-0.9-0.1-1-0.5c0.1,0,0.7,0,0.7,0c0.1,0.1,0.2,0.1,0.3,0.1c0.2,0,0.5-0.2,0.5-0.4
	c0,0,0,0,0-0.1v0C175.3,13.9,175.1,14,174.8,13.9L174.8,13.9z M176.4,18.9c-0.4,0.9-2.3,1.6-3.5,1.9c0.6-0.8,0.2-1.6,0.1-2.8
	c-0.1-1.4,1.9-2,2.1-0.4C176.1,16.8,176.9,17.9,176.4,18.9L176.4,18.9z"/>
<path id="Earth-Animal-Brown" class="st1" d="M130.3,34.1h-7.5v-0.4c0.5-0.1,0.9-0.2,1.3-0.4c0.2-0.1,0.4-0.4,0.4-0.7
	c0-0.4-0.1-0.8-0.3-1.1l-0.9-2.2h-5.5l-0.8,1.9c-0.2,0.4-0.3,0.8-0.3,1.2c0,0.6,0.5,1.1,1.5,1.4v0.4h-5v-0.4h0h0v0.4h-7.6v-0.4
	c0.5-0.1,1-0.3,1.4-0.7c0.3-0.4,0.4-0.9,0.4-1.4c0-0.4,0-0.7-0.1-1.1l-1.3-8.3l-5.1,12h-0.5l-5-12l-1.3,8.6c0,0.3-0.1,0.6-0.1,0.9
	c-0.1,1,0.6,1.9,1.6,2c0.1,0,0.2,0,0.3,0v0.4h-5.6v-0.4c0.7,0,1.4-0.3,1.8-0.8c0.5-0.7,0.8-1.6,0.9-2.4l1.5-9.5
	c-0.6-0.6-1.4-1-2.2-1v-0.4h5.6l4,9.6l4.1-9.6h5.2v0.4c-0.5,0.1-1,0.2-1.4,0.6c-0.3,0.3-0.5,0.7-0.4,1.2c0,0.2,0,0.4,0,0.6l1.4,9.1
	c0.1,0.6,0.3,1.1,0.7,1.5c0.5,0.4,1,0.7,1.6,0.7c0.6-0.1,1.1-0.4,1.5-0.9c0.6-0.7,1-1.6,1.3-2.4l4.4-11.3h2.1l4.7,11.7
	c0.3,0.8,0.7,1.5,1.3,2.2c0.4,0.4,1,0.7,1.6,0.7c0.6-0.1,1.1-0.3,1.6-0.7c0.3-0.5,0.4-1.1,0.4-1.7v-9.3c0.1-0.5-0.1-1-0.4-1.4
	c-0.4-0.4-1-0.6-1.5-0.7v-0.4h7.3v0.4c-0.6,0.1-1.1,0.3-1.6,0.7c-0.3,0.4-0.4,0.8-0.4,1.3v9.9c-0.1,0.5,0.1,0.9,0.5,1.2
	c0.6,0.3,1.3,0.4,1.9,0.3c0.8,0.1,1.6-0.2,2.3-0.6c0.7-0.7,1.3-1.5,1.7-2.3h0.4l-0.4,3.8L130.3,34.1L130.3,34.1z M86.2,15.7
	c1.3-0.1,1.9-0.7,1.9-1.9V3.9c0.1-0.5-0.1-1-0.4-1.4c-0.5-0.3-1-0.5-1.5-0.6V1.5h7.3c1.5-0.1,3.1,0.2,4.4,1c1,0.5,1.6,1.6,1.5,2.7
	c0,0.8-0.3,1.6-0.8,2.2c-0.6,0.7-1.4,1.1-2.3,1.3v0c0.5,0.2,0.9,0.5,1.2,0.9c0.9,1,1.9,3.1,3.2,4.6c1.4,1.7,1.8,2.5,3.2,3.3
	c0.4,0.3,0.9,0.6,1.5,0.7v0.4c-3.9,0-5.5-0.9-6.7-2.6c-1.6-2.3-3.9-5.4-4.2-5.7c-0.2-0.3-0.6-0.6-0.9-0.8c-0.6-0.2-1.3-0.3-2-0.2
	v4.5c0,0.5,0.1,1,0.4,1.4c0.4,0.4,1,0.6,1.5,0.6v0.4H78.6v-0.4c0.5-0.1,0.9-0.2,1.3-0.4c0.2-0.1,0.4-0.4,0.4-0.7
	c0-0.4-0.1-0.8-0.3-1.1l-0.9-2.2h-5.5l-0.8,1.9c-0.2,0.4-0.3,0.8-0.3,1.2c0,0.6,0.5,1.1,1.5,1.4v0.4h-5v-0.4
	c0.6-0.1,1.2-0.4,1.6-0.9c0.6-0.7,1-1.6,1.3-2.4l4.4-11.3h2.1l4.7,11.7c0.3,0.8,0.7,1.5,1.3,2.2C85,15.4,85.6,15.6,86.2,15.7
	L86.2,15.7z M66.5,6.5H67V11h-0.5c0-1.1-0.9-1.9-2-1.9c0,0-0.1,0-0.1,0h-2.7v4.3c-0.1,0.5,0.1,1,0.5,1.4c0.5,0.3,1.1,0.5,1.6,0.4
	h0.9c1.5,0,2.6-0.9,3.2-2.7h0.4l-0.3,3.6H56.4v-0.4c0.6-0.1,1.1-0.3,1.5-0.7c0.3-0.5,0.4-1.1,0.4-1.7V3.9c0.1-0.5-0.1-1-0.4-1.4
	c-0.4-0.3-1-0.5-1.5-0.6V1.5h11.5v3.2h-0.4c-0.1-0.7-0.5-1.4-1-1.9c-0.5-0.4-1.2-0.6-1.8-0.5h-3v6h2.7c0.5,0,1-0.1,1.4-0.4
	C66.2,7.5,66.5,7,66.5,6.5z M74.2,10.1h4.6l-2.3-5.9L74.2,10.1z M92.5,2.3h-1v6c0.3,0,0.5,0,0.7,0c1,0.1,1.9-0.2,2.7-0.8
	c0.6-0.6,0.9-1.5,0.8-2.4C95.7,3.3,94.7,2.3,92.5,2.3L92.5,2.3z M111.8,15.7v0.4h-7.2v-0.4c0.6-0.1,1.1-0.3,1.5-0.6
	c0.3-0.5,0.5-1,0.4-1.6V2.3H105c-0.8,0-1.5,0.2-2.2,0.6c-0.6,0.5-1,1.1-1.2,1.8h-0.4l0.2-3.5h0.5c0.5,0.2,1,0.3,1.5,0.3h9.9
	c0.5,0,1-0.1,1.5-0.3h0.5l0.2,3.5h-0.4c-0.2-0.7-0.6-1.4-1.2-1.8c-0.7-0.4-1.4-0.6-2.2-0.6h-1.5v11.2c-0.1,0.5,0.1,1.1,0.4,1.5
	C110.7,15.4,111.3,15.6,111.8,15.7L111.8,15.7z M129.2,13.3V9h-7.4v4.6c-0.1,0.5,0.1,1,0.4,1.4c0.4,0.4,1,0.6,1.5,0.7v0.4h-7.2v-0.4
	c0.4-0.1,0.8-0.2,1.2-0.4c0.2-0.1,0.4-0.3,0.6-0.6c0.1-0.4,0.2-0.9,0.2-1.4V3.9c0.1-0.5-0.1-1-0.4-1.4c-0.5-0.4-1-0.6-1.6-0.7V1.5
	h7.2v0.4c-0.6,0.1-1.1,0.3-1.5,0.7c-0.3,0.4-0.4,0.8-0.4,1.3v4.1h7.4v-4c0.1-0.5-0.1-1-0.4-1.4c-0.4-0.4-1-0.6-1.5-0.7V1.5h7.3v0.4
	c-0.6,0.1-1.1,0.3-1.6,0.7c-0.3,0.5-0.4,1.1-0.4,1.7v9.4c0,0.5,0.1,1,0.4,1.4c0.5,0.4,1,0.6,1.6,0.7v0.4h-7.3v-0.4
	c0.6-0.1,1.1-0.3,1.5-0.7C129.1,14.5,129.3,13.9,129.2,13.3L129.2,13.3z M51.8,28.1h4.6l-2.3-5.9L51.8,28.1z M56.3,34.1v-0.4
	c0.5-0.1,0.9-0.2,1.3-0.4c0.2-0.1,0.4-0.4,0.4-0.7c0-0.4-0.1-0.8-0.3-1.1l-0.9-2.2h-5.5l-0.8,1.9c-0.2,0.4-0.3,0.8-0.3,1.2
	c0,0.6,0.5,1.1,1.5,1.4v0.4h-5v-0.4c0.6-0.1,1.2-0.4,1.6-0.9c0.6-0.7,1-1.6,1.3-2.4l4.4-11.3h2.1l4.7,11.7c0.3,0.8,0.7,1.5,1.3,2.2
	c0.4,0.4,1,0.7,1.6,0.7v0.4L56.3,34.1z M75.4,19.9v-0.4h5.2v0.4c-1.2-0.1-2.2,0.8-2.2,2c0,0.1,0,0.3,0,0.4v12h-0.5l-11-11.9v8.9
	c-0.1,0.6,0.1,1.2,0.4,1.6c0.5,0.4,1.2,0.6,1.8,0.7v0.4h-5.3v-0.4c0.6,0,1.1-0.3,1.5-0.7c0.4-0.5,0.5-1.1,0.5-1.7v-9.9
	c-0.4-0.4-0.8-0.8-1.2-1.1c-0.2-0.2-0.5-0.3-0.8-0.3v-0.4h4.6l9,9.8v-6.6c0.1-0.7-0.1-1.4-0.4-2C76.6,20.2,76,20,75.4,19.9
	L75.4,19.9z M89.4,19.5v0.4c-0.6,0.1-1.1,0.3-1.5,0.7c-0.3,0.5-0.5,1.1-0.4,1.7v9.4c-0.1,0.5,0.1,1,0.4,1.4c0.4,0.4,1,0.6,1.6,0.7
	v0.4h-7.3v-0.4c0.4-0.1,0.8-0.2,1.2-0.4c0.2-0.1,0.4-0.3,0.6-0.6c0.1-0.4,0.2-0.9,0.2-1.4v-9.3c0.1-0.5-0.1-1-0.4-1.4
	c-0.5-0.4-1-0.6-1.6-0.7v-0.4L89.4,19.5z M118.3,28.1h4.6l-2.3-5.9L118.3,28.1z"/>
</svg><g transform="translate(300.0,406.0) scale(0.4429,-0.4429) translate(-260.4,-35.0)"><path d="M41.1,59.1 Q41.1,58.6 40.8,58.2 Q40.4,57.9 39.9,57.9 L19.0,57.9 Q18.5,57.9 18.5,57.4 L18.5,41.6 Q18.5,41.1 19.0,41.1 L31.0,41.1 Q31.5,41.1 31.8,40.8 Q32.2,40.4 32.2,39.9 L32.2,30.2 Q32.2,29.7 31.8,29.3 Q31.5,29.0 31.0,29.0 L19.0,29.0 Q18.5,29.0 18.5,28.5 L18.5,12.6 Q18.5,12.1 19.0,12.1 L39.9,12.1 Q40.4,12.1 40.8,11.8 Q41.1,11.4 41.1,10.9 L41.1,1.2 Q41.1,0.7 40.8,0.3 Q40.4,0.0 39.9,0.0 L5.6,0.0 Q5.1,0.0 4.8,0.3 Q4.4,0.7 4.4,1.2 L4.4,68.8 Q4.4,69.3 4.8,69.6 Q5.1,70.0 5.6,70.0 L39.9,70.0 Q40.4,70.0 40.8,69.6 Q41.1,69.3 41.1,68.8 L41.1,59.1 Z M77.6,0.0 Q76.4,0.0 76.3,1.1 L74.7,10.7 Q74.7,11.2 74.1,11.2 L61.4,11.2 Q60.8,11.2 60.8,10.7 L59.2,1.1 Q59.1,0.0 57.9,0.0 L46.2,0.0 Q44.9,0.0 45.2,1.3 L59.9,68.9 Q60.1,70.0 61.2,70.0 L74.7,70.0 Q75.8,70.0 76.0,68.9 L90.6,1.3 L90.7,0.9 Q90.7,0.0 89.6,0.0 L77.6,0.0 Z M62.8,22.6 Q62.8,22.1 63.2,22.1 L72.2,22.1 Q72.7,22.1 72.6,22.6 L67.9,49.9 Q67.8,50.2 67.6,50.2 Q67.4,50.2 67.3,49.9 L62.8,22.6 Z M124.0,0.0 Q122.9,0.0 122.6,1.0 L114.9,28.6 Q114.7,29.0 114.4,29.0 L111.0,29.0 Q110.5,29.0 110.5,28.5 L110.5,1.2 Q110.5,0.7 110.1,0.3 Q109.8,0.0 109.3,0.0 L97.6,0.0 Q97.1,0.0 96.7,0.3 Q96.4,0.7 96.4,1.2 L96.4,68.8 Q96.4,69.3 96.7,69.6 Q97.1,70.0 97.6,70.0 L117.8,70.0 Q123.3,70.0 127.6,67.3 Q131.9,64.7 134.2,59.9 Q136.6,55.1 136.6,48.9 Q136.6,43.0 134.3,38.5 Q132.1,34.0 128.1,31.5 Q127.9,31.4 127.8,31.2 Q127.7,31.1 127.8,30.9 L137.0,1.4 L137.1,1.0 Q137.1,0.0 136.0,0.0 L124.0,0.0 Z M111.0,57.9 Q110.5,57.9 110.5,57.4 L110.5,40.3 Q110.5,39.8 111.0,39.8 L115.5,39.8 Q118.6,39.8 120.5,42.2 Q122.5,44.7 122.5,48.8 Q122.5,53.0 120.5,55.5 Q118.6,57.9 115.5,57.9 L111.0,57.9 Z M182.3,70.0 Q182.8,70.0 183.1,69.6 Q183.5,69.3 183.5,68.8 L183.5,59.1 Q183.5,58.6 183.1,58.2 Q182.8,57.9 182.3,57.9 L169.8,57.9 Q169.3,57.9 169.3,57.4 L169.3,1.2 Q169.3,0.7 168.9,0.3 Q168.6,0.0 168.1,0.0 L156.4,0.0 Q155.9,0.0 155.5,0.3 Q155.2,0.7 155.2,1.2 L155.2,57.4 Q155.2,57.9 154.7,57.9 L142.7,57.9 Q142.2,57.9 141.8,58.2 Q141.5,58.6 141.5,59.1 L141.5,68.8 Q141.5,69.3 141.8,69.6 Q142.2,70.0 142.7,70.0 L182.3,70.0 Z M215.4,68.8 Q215.4,69.3 215.7,69.6 Q216.1,70.0 216.6,70.0 L228.3,70.0 Q228.8,70.0 229.1,69.6 Q229.5,69.3 229.5,68.8 L229.5,1.2 Q229.5,0.7 229.1,0.3 Q228.8,0.0 228.3,0.0 L216.6,0.0 Q216.1,0.0 215.7,0.3 Q215.4,0.7 215.4,1.2 L215.4,28.5 Q215.4,29.0 214.9,29.0 L204.9,29.0 Q204.4,29.0 204.4,28.5 L204.4,1.2 Q204.4,0.7 204.0,0.3 Q203.7,0.0 203.2,0.0 L191.5,0.0 Q191.0,0.0 190.6,0.3 Q190.3,0.7 190.3,1.2 L190.3,68.8 Q190.3,69.3 190.6,69.6 Q191.0,70.0 191.5,70.0 L203.2,70.0 Q203.7,70.0 204.0,69.6 Q204.4,69.3 204.4,68.8 L204.4,41.6 Q204.4,41.1 204.9,41.1 L214.9,41.1 Q215.4,41.1 215.4,41.6 L215.4,68.8 Z M287.7,0.0 Q286.5,0.0 286.4,1.1 L284.8,10.7 Q284.8,11.2 284.2,11.2 L271.5,11.2 Q270.9,11.2 270.9,10.7 L269.3,1.1 Q269.2,0.0 268.0,0.0 L256.3,0.0 Q255.0,0.0 255.3,1.3 L270.0,68.9 Q270.2,70.0 271.3,70.0 L284.8,70.0 Q285.9,70.0 286.1,68.9 L300.7,1.3 L300.8,0.9 Q300.8,0.0 299.7,0.0 L287.7,0.0 Z M272.9,22.6 Q272.9,22.1 273.3,22.1 L282.3,22.1 Q282.8,22.1 282.7,22.6 L278.0,49.9 Q277.9,50.2 277.7,50.2 Q277.5,50.2 277.4,49.9 L272.9,22.6 Z M335.1,68.8 Q335.1,69.3 335.4,69.6 Q335.8,70.0 336.3,70.0 L347.9,70.0 Q348.4,70.0 348.7,69.6 Q349.1,69.3 349.1,68.8 L349.1,1.2 Q349.1,0.7 348.7,0.3 Q348.4,0.0 347.9,0.0 L334.7,0.0 Q333.7,0.0 333.4,1.0 L321.0,39.7 Q320.9,40.0 320.6,40.0 Q320.4,39.9 320.4,39.6 L320.5,1.2 Q320.5,0.7 320.1,0.3 Q319.8,0.0 319.3,0.0 L307.7,0.0 Q307.2,0.0 306.8,0.3 Q306.5,0.7 306.5,1.2 L306.5,68.8 Q306.5,69.3 306.8,69.6 Q307.2,70.0 307.7,70.0 L320.8,70.0 Q321.8,70.0 322.1,69.0 L334.6,30.3 Q334.7,30.0 334.9,30.0 Q335.2,30.1 335.2,30.4 L335.1,68.8 Z M359.1,0.0 Q358.6,0.0 358.2,0.3 Q357.9,0.7 357.9,1.2 L357.9,68.8 Q357.9,69.3 358.2,69.6 Q358.6,70.0 359.1,70.0 L370.8,70.0 Q371.3,70.0 371.6,69.6 Q372.0,69.3 372.0,68.8 L372.0,1.2 Q372.0,0.7 371.6,0.3 Q371.3,0.0 370.8,0.0 L359.1,0.0 Z M412.9,69.2 Q413.3,70.0 414.4,70.0 L426.0,70.0 Q426.5,70.0 426.8,69.6 Q427.2,69.3 427.2,68.8 L427.2,1.2 Q427.2,0.7 426.8,0.3 Q426.5,0.0 426.0,0.0 L414.3,0.0 Q413.8,0.0 413.4,0.3 Q413.1,0.7 413.1,1.2 L413.1,46.1 Q413.1,46.5 412.9,46.5 Q412.7,46.5 412.5,46.2 L404.7,32.4 Q404.2,31.6 403.9,31.6 Q403.6,31.6 403.1,32.4 L395.3,46.2 Q395.1,46.5 394.9,46.5 Q394.7,46.5 394.7,46.1 L394.7,1.2 Q394.7,0.7 394.3,0.3 Q394.0,0.0 393.5,0.0 L381.8,0.0 Q381.3,0.0 380.9,0.3 Q380.6,0.7 380.6,1.2 L380.6,68.8 Q380.6,69.3 380.9,69.6 Q381.3,70.0 381.8,70.0 L393.3,70.0 Q394.3,70.0 394.8,69.2 L403.7,53.3 Q404.0,52.9 404.3,53.3 L412.9,69.2 Z M465.1,0.0 Q463.9,0.0 463.8,1.1 L462.2,10.7 Q462.2,11.2 461.6,11.2 L448.9,11.2 Q448.3,11.2 448.3,10.7 L446.7,1.1 Q446.6,0.0 445.4,0.0 L433.7,0.0 Q432.4,0.0 432.7,1.3 L447.4,68.9 Q447.6,70.0 448.7,70.0 L462.2,70.0 Q463.3,70.0 463.5,68.9 L478.1,1.3 L478.2,0.9 Q478.2,0.0 477.1,0.0 L465.1,0.0 Z M450.3,22.6 Q450.3,22.1 450.7,22.1 L459.7,22.1 Q460.2,22.1 460.1,22.6 L455.4,49.9 Q455.3,50.2 455.1,50.2 Q454.9,50.2 454.8,49.9 L450.3,22.6 Z M485.1,0.0 Q484.6,0.0 484.2,0.3 Q483.9,0.7 483.9,1.2 L483.9,68.8 Q483.9,69.3 484.2,69.6 Q484.6,70.0 485.1,70.0 L496.8,70.0 Q497.3,70.0 497.6,69.6 Q498.0,69.3 498.0,68.8 L498.0,12.6 Q498.0,12.1 498.5,12.1 L519.5,12.1 Q520.0,12.1 520.3,11.8 Q520.7,11.4 520.7,10.9 L520.7,1.2 Q520.7,0.7 520.3,0.3 Q520.0,0.0 519.5,0.0 L485.1,0.0 Z" fill="#ffffff"/></g></g></svg>