<svg xmlns="http://www.w3.org/2000/svg" xmlns:xlink="http://www.w3.org/1999/xlink" viewBox="0 0 600 480" width="600" height="480"><defs><clipPath id="cc"><rect x="0" y="0" width="600" height="480" rx="24"/></clipPath></defs><g clip-path="url(#cc)"><rect width="600" height="480" fill="#286140"/><rect x="60" y="56" width="480" height="262" rx="18" fill="#ffffff"/><svg x="96" y="86" width="408" height="202" viewBox="0 0 80 32" preserveAspectRatio="xMidYMid meet" overflow="visible"><path fill="#286140" fill-rule="evenodd" d="M49.36 8.412c-5.583-1.18-9.34-.448-11.931.17-.862.205-.707.716.054.673 1.584-.088 6.395.036 11.25.888 4.613.808 8.382 2.24 10.267 3.14.26.136.459-.146.233-.363-1.476-1.391-4.979-3.475-9.873-4.508m-43.95 1.71c1.223-.258 2.615.04 3.521.931.215.211.415.555.224.788-.108.134-.317.164-.473.11-.248-.084-.476-.213-.705-.34a8 8 0 0 0-.39-.21 2.11 2.11 0 0 0-2.375.382c-.3.292-.501.67-.639 1.063-.348.993-.283 3.71-.283 3.71h1.733c.666 0 1.206.542 1.206 1.21H4.314l.005 9.894h-2.43l.002-9.894H0v-1.224h1.85c.021-.3.039-.694.057-1.099.027-.588.054-1.202.097-1.599.212-1.944 1.408-3.299 3.261-3.702a1 1 0 0 1 .144-.02M32.516 20.55c.524.177 1.056.358 1.512.676.518.36.943.856 1.223 1.411.444.882.536 1.922.087 2.852-.59 1.216-1.89 1.965-3.192 2.22-1.545.301-3.29-.076-4.433-1.184-.273-.265-.529-.697-.286-.99.324-.391.877-.036 1.25.204q.088.058.16.1a4.26 4.26 0 0 0 2.09.586c.64.011 1.402-.09 1.876-.557.726-.715.356-1.84-.376-2.393-.533-.402-1.144-.675-1.753-.949a28 28 0 0 1-.59-.27c-.528-.252-1.047-.555-1.451-.98-.633-.666-.777-1.646-.565-2.511.312-1.278 1.406-2.174 2.682-2.45 1.248-.27 2.677.026 3.605.925.218.211.42.555.228.788-.111.133-.322.163-.48.11a4 4 0 0 1-.684-.329c-.267-.149-.534-.298-.836-.372-.795-.193-2.099-.234-2.515.65-.149.316-.114.708.04 1.019.384.776 1.361 1.098 2.161 1.362l.232.077zm-21.124-1.38v-1.49c0-.722-.535-1.275-1.358-1.275H9l-.005 1.33.005 9.9h2.392l.001-6.363c0-2.023 1.344-3.088 2.777-2.976 1.08.083 2.095.12 2.61-2.043-2.872-.264-4.728 1.043-5.387 2.917m8.265-.56c-.299.459-.478.98-.592 1.516l2.339.003 2.537.002c.059-.697-.15-1.424-.614-1.953s-1.187-.838-1.89-.758c-.735.085-1.378.575-1.78 1.19m-1.223-1.087a5.44 5.44 0 0 1 3.928-1.288c1.153.089 2.298.581 3.044 1.457.848.998 1.102 2.376 1.053 3.68H18.9c-.047.816.032 1.639.346 2.389a4.03 4.03 0 0 0 2.395 2.245c1.073.36 2.314.215 3.254-.412l.09-.06v-.001c.135-.092.27-.186.425-.234.19-.06.424-.036.55.117.212.257-.011.636-.251.87a5.3 5.3 0 0 1-1.899 1.179c-1.336.484-2.94.468-4.242-.12a5.1 5.1 0 0 1-1.84-1.412c-.942-1.151-1.365-2.675-1.286-4.155.087-1.604.772-3.199 1.994-4.255m28.267 2.48.002 7.46h-2.359l.006-7.342a2.437 2.437 0 0 0-2.442-2.472c-1.113 0-2.693.948-2.693 2.793l-.004 7.02H36.85l-.005-16.95h1.025c.813 0 1.34.556 1.34 1.27v5.828c.773-1.042 2.168-1.548 3.435-1.548 2.056 0 4.057 1.444 4.057 3.94" clip-rule="evenodd"></path><path fill="#FFD300" fill-rule="evenodd" d="M26.472 4.77a.57.57 0 0 0-.793.173.583.583 0 0 0 .171.8.57.57 0 0 0 .792-.172.583.583 0 0 0-.17-.8m.203-1.99a.57.57 0 0 0-.793.173.58.58 0 0 0 .171.8c.266.173.62.097.792-.172a.58.58 0 0 0-.17-.8m7.338-.183a.579.579 0 0 0 .242 1.132.58.58 0 0 0 .439-.688.573.573 0 0 0-.68-.444m-1.508 2.165q.339-.048.673-.088.002-.052 0-.104c-.066-1.589-1.4-2.827-2.973-2.76s-2.799 1.415-2.732 3.005c.017.421.126.816.302 1.17a22.2 22.2 0 0 1 4.73-1.223m-4.72-3.604a.57.57 0 0 0-.791.172.583.583 0 0 0 .17.8.57.57 0 0 0 .793-.172.58.58 0 0 0-.171-.8m5.54-.124a.57.57 0 0 0-.792.172.583.583 0 0 0 .17.8.57.57 0 0 0 .793-.172.583.583 0 0 0-.171-.8M29.708.973a.57.57 0 0 1-.792.172.583.583 0 0 1-.17-.8.57.57 0 0 1 .791-.173.583.583 0 0 1 .171.8M31.57.164a.57.57 0 0 0-.792.172.583.583 0 0 0 .171.8.57.57 0 0 0 .792-.172.58.58 0 0 0-.17-.8" clip-rule="evenodd"></path><path fill="#56AA46" fill-rule="evenodd" d="M32.259 4.641c8.536-1.22 14.003 1.455 14.632 1.78.559.277.287.575.078.517 0 0-6.698-1.583-14.022-.52-6.716.974-10.837 3.532-12.757 4.929-.321.218-.7-.111-.295-.509.255-.328 4.557-5.08 12.364-6.197m46.34 20.868c.226-.072.4-.009.502.12.45.569-.453 1.226-.872 1.507-1.185.796-2.93 1.054-4.105.098-.49-.4-.769-.962-.878-1.57-.06-.329-.056-.657-.052-.987l.001-.237.008-6.653h-1.764v-.796c1.81-.384 2.6-1.558 2.919-3.33l.011-.068.008-.047a.78.78 0 0 1 .713-.573h.52v3.652h3.263v1.162H75.61l-.01 7.323c0 .2.02.403.078.596.22.73 1.15.907 1.779.581.175-.09.327-.22.48-.35.202-.173.405-.346.662-.428m-23.503-9.25c-1.614 0-2.821.629-3.616 1.624v-.092c0-.713-.52-1.259-1.334-1.259h-1.018L49.125 32h.802c.86 0 1.558-.695 1.558-1.552l-.005-9.415c0-1.968 1.27-3.142 2.825-3.142 1.561 0 2.826 1.172 2.826 3.983 0 2.806-1.453 4.774-3.344 4.774-.352 0-.992.057-.992.575 0 .526.521.56.588.564h.007c.237.036.475.036.828.036h.013c3.174 0 5.619-2.823 5.619-6.305 0-2.905-2.128-5.259-4.754-5.259m8.598 3.907c.114-.536.293-1.057.592-1.515.401-.616 1.045-1.106 1.78-1.19.702-.081 1.426.229 1.89.757.464.529.672 1.256.614 1.954l-2.188-.003h-.013zm3.297-3.89a5.44 5.44 0 0 0-3.928 1.287c-1.222 1.056-1.907 2.651-1.993 4.255-.08 1.48.344 3.004 1.285 4.155a5.1 5.1 0 0 0 1.84 1.412c1.302.588 2.907.604 4.243.12a5.3 5.3 0 0 0 1.899-1.18c.24-.232.463-.612.25-.869-.126-.153-.36-.176-.55-.117-.153.048-.288.14-.421.233l-.093.063c-.94.626-2.182.772-3.255.412a4.03 4.03 0 0 1-2.394-2.246c-.314-.75-.394-1.573-.346-2.389h7.56c.05-1.304-.205-2.682-1.054-3.68-.745-.876-1.89-1.368-3.043-1.457m11.352-1.734c.28 0 .365-.13.365-.319 0-.188-.086-.342-.365-.342h-.146v.66zm.538.437h-.195l-.226-.312a1 1 0 0 1-.108.011h-.155v.3h-.166v-1.23h.321c.37 0 .529.214.529.476 0 .175-.09.323-.259.4zm.444-.605c0-.551-.388-.926-.92-.926-.528 0-.91.375-.91.926 0 .542.382.922.91.922.532 0 .92-.38.92-.922m-2.002 0c0-.616.489-1.072 1.082-1.072.597 0 1.093.456 1.093 1.072 0 .608-.496 1.066-1.094 1.066a1.065 1.065 0 0 1-1.081-1.066" clip-rule="evenodd"></path></svg><g transform="translate(300.0,406.0) scale(0.4330,-0.4330) translate(-180.1,-35.0)"><path d="M41.0,59.1 Q41.0,58.6 40.6,58.2 Q40.3,57.9 39.8,57.9 L19.0,57.9 Q18.5,57.9 18.5,57.4 L18.5,41.6 Q18.5,41.1 19.0,41.1 L30.9,41.1 Q31.4,41.1 31.8,40.8 Q32.1,40.4 32.1,39.9 L32.1,30.2 Q32.1,29.7 31.8,29.3 Q31.4,29.0 30.9,29.0 L19.0,29.0 Q18.5,29.0 18.5,28.5 L18.5,1.2 Q18.5,0.7 18.1,0.3 Q17.8,0.0 17.3,0.0 L5.6,0.0 Q5.1,0.0 4.8,0.3 Q4.4,0.7 4.4,1.2 L4.4,68.8 Q4.4,69.3 4.8,69.6 Q5.1,70.0 5.6,70.0 L39.8,70.0 Q40.3,70.0 40.6,69.6 Q41.0,69.3 41.0,68.8 L41.0,59.1 Z M74.1,0.0 Q73.0,0.0 72.7,1.0 L65.0,28.6 Q64.8,29.0 64.5,29.0 L61.1,29.0 Q60.6,29.0 60.6,28.5 L60.6,1.2 Q60.6,0.7 60.2,0.3 Q59.9,0.0 59.4,0.0 L47.7,0.0 Q47.2,0.0 46.8,0.3 Q46.5,0.7 46.5,1.2 L46.5,68.8 Q46.5,69.3 46.8,69.6 Q47.2,70.0 47.7,70.0 L67.9,70.0 Q73.4,70.0 77.7,67.3 Q82.0,64.7 84.3,59.9 Q86.7,55.1 86.7,48.9 Q86.7,43.0 84.4,38.5 Q82.2,34.0 78.2,31.5 Q78.0,31.4 77.9,31.2 Q77.8,31.1 77.9,30.9 L87.1,1.4 L87.2,1.0 Q87.2,0.0 86.1,0.0 L74.1,0.0 Z M61.1,57.9 Q60.6,57.9 60.6,57.4 L60.6,40.3 Q60.6,39.8 61.1,39.8 L65.6,39.8 Q68.7,39.8 70.6,42.2 Q72.6,44.7 72.6,48.8 Q72.6,53.0 70.6,55.5 Q68.7,57.9 65.6,57.9 L61.1,57.9 Z M130.3,59.1 Q130.3,58.6 129.9,58.2 Q129.6,57.9 129.1,57.9 L108.2,57.9 Q107.7,57.9 107.7,57.4 L107.7,41.6 Q107.7,41.1 108.2,41.1 L120.2,41.1 Q120.7,41.1 121.0,40.8 Q121.4,40.4 121.4,39.9 L121.4,30.2 Q121.4,29.7 121.0,29.3 Q120.7,29.0 120.2,29.0 L108.2,29.0 Q107.7,29.0 107.7,28.5 L107.7,12.6 Q107.7,12.1 108.2,12.1 L129.1,12.1 Q129.6,12.1 129.9,11.8 Q130.3,11.4 130.3,10.9 L130.3,1.2 Q130.3,0.7 129.9,0.3 Q129.6,0.0 129.1,0.0 L94.8,0.0 Q94.3,0.0 93.9,0.3 Q93.6,0.7 93.6,1.2 L93.6,68.8 Q93.6,69.3 93.9,69.6 Q94.3,70.0 94.8,70.0 L129.1,70.0 Q129.6,70.0 129.9,69.6 Q130.3,69.3 130.3,68.8 L130.3,59.1 Z M155.4,-0.8 Q149.6,-0.8 145.2,1.5 Q140.8,3.8 138.4,7.9 Q136.0,12.1 136.0,17.5 L136.0,20.4 Q136.0,20.9 136.3,21.2 Q136.7,21.6 137.2,21.6 L148.7,21.6 Q149.2,21.6 149.5,21.2 Q149.9,20.9 149.9,20.4 L149.9,18.2 Q149.9,15.1 151.5,13.2 Q153.1,11.3 155.5,11.3 Q157.9,11.3 159.5,13.1 Q161.1,14.9 161.1,17.8 Q161.1,20.8 159.1,22.9 Q157.1,25.1 151.3,29.3 Q146.3,32.9 143.2,35.7 Q140.1,38.5 137.9,42.6 Q135.7,46.7 135.7,52.1 Q135.7,60.6 141.0,65.7 Q146.3,70.8 155.0,70.8 Q163.8,70.8 169.1,65.5 Q174.5,60.2 174.5,51.6 L174.5,49.2 Q174.5,48.7 174.1,48.3 Q173.8,48.0 173.3,48.0 L161.8,48.0 Q161.3,48.0 160.9,48.3 Q160.6,48.7 160.6,49.2 L160.6,51.9 Q160.6,55.0 159.0,56.8 Q157.5,58.7 155.0,58.7 Q152.6,58.7 151.1,57.0 Q149.6,55.2 149.6,52.1 Q149.6,49.1 151.5,46.8 Q153.4,44.5 159.0,40.4 Q165.2,35.8 168.3,32.9 Q171.5,30.1 173.2,26.6 Q175.0,23.2 175.0,18.4 Q175.0,9.6 169.6,4.4 Q164.2,-0.8 155.4,-0.8 Z M206.9,68.8 Q206.9,69.3 207.2,69.6 Q207.6,70.0 208.1,70.0 L219.8,70.0 Q220.3,70.0 220.6,69.6 Q221.0,69.3 221.0,68.8 L221.0,1.2 Q221.0,0.7 220.6,0.3 Q220.3,0.0 219.8,0.0 L208.1,0.0 Q207.6,0.0 207.2,0.3 Q206.9,0.7 206.9,1.2 L206.9,28.5 Q206.9,29.0 206.4,29.0 L196.4,29.0 Q195.9,29.0 195.9,28.5 L195.9,1.2 Q195.9,0.7 195.5,0.3 Q195.2,0.0 194.7,0.0 L183.0,0.0 Q182.5,0.0 182.1,0.3 Q181.8,0.7 181.8,1.2 L181.8,68.8 Q181.8,69.3 182.1,69.6 Q182.5,70.0 183.0,70.0 L194.7,70.0 Q195.2,70.0 195.5,69.6 Q195.9,69.3 195.9,68.8 L195.9,41.6 Q195.9,41.1 196.4,41.1 L206.4,41.1 Q206.9,41.1 206.9,41.6 L206.9,68.8 Z M251.1,70.1 Q256.6,70.1 260.9,67.4 Q265.2,64.7 267.5,59.8 Q269.9,55.0 269.9,48.8 Q269.9,39.5 264.9,33.9 Q259.9,28.3 251.8,28.3 L244.3,28.3 Q243.8,28.3 243.8,27.8 L243.8,1.2 Q243.8,0.7 243.4,0.3 Q243.1,0.0 242.6,0.0 L230.9,0.0 Q230.4,0.0 230.0,0.3 Q229.7,0.7 229.7,1.2 L229.7,68.9 Q229.7,69.4 230.0,69.8 Q230.4,70.1 230.9,70.1 L251.1,70.1 Z M248.7,39.3 Q251.9,39.3 253.9,41.8 Q255.8,44.2 255.8,48.5 Q255.8,52.9 253.9,55.4 Q251.9,57.9 248.7,57.9 L244.3,57.9 Q243.8,57.9 243.8,57.4 L243.8,39.8 Q243.8,39.3 244.3,39.3 L248.7,39.3 Z M313.0,59.1 Q313.0,58.6 312.6,58.2 Q312.3,57.9 311.8,57.9 L290.9,57.9 Q290.4,57.9 290.4,57.4 L290.4,41.6 Q290.4,41.1 290.9,41.1 L302.9,41.1 Q303.4,41.1 303.7,40.8 Q304.1,40.4 304.1,39.9 L304.1,30.2 Q304.1,29.7 303.7,29.3 Q303.4,29.0 302.9,29.0 L290.9,29.0 Q290.4,29.0 290.4,28.5 L290.4,12.6 Q290.4,12.1 290.9,12.1 L311.8,12.1 Q312.3,12.1 312.6,11.8 Q313.0,11.4 313.0,10.9 L313.0,1.2 Q313.0,0.7 312.6,0.3 Q312.3,0.0 311.8,0.0 L277.5,0.0 Q277.0,0.0 276.6,0.3 Q276.3,0.7 276.3,1.2 L276.3,68.8 Q276.3,69.3 276.6,69.6 Q277.0,70.0 277.5,70.0 L311.8,70.0 Q312.3,70.0 312.6,69.6 Q313.0,69.3 313.0,68.8 L313.0,59.1 Z M358.9,70.0 Q359.4,70.0 359.7,69.6 Q360.1,69.3 360.1,68.8 L360.1,59.1 Q360.1,58.6 359.7,58.2 Q359.4,57.9 358.9,57.9 L346.4,57.9 Q345.9,57.9 345.9,57.4 L345.9,1.2 Q345.9,0.7 345.5,0.3 Q345.2,0.0 344.7,0.0 L333.0,0.0 Q332.5,0.0 332.1,0.3 Q331.8,0.7 331.8,1.2 L331.8,57.4 Q331.8,57.9 331.3,57.9 L319.3,57.9 Q318.8,57.9 318.4,58.2 Q318.1,58.6 318.1,59.1 L318.1,68.8 Q318.1,69.3 318.4,69.6 Q318.8,70.0 319.3,70.0 L358.9,70.0 Z" fill="#ffffff"/></g></g></svg>