<svg xmlns="http://www.w3.org/2000/svg" xmlns:xlink="http://www.w3.org/1999/xlink" viewBox="0 0 600 480" width="600" height="480"><defs><clipPath id="cc"><rect x="0" y="0" width="600" height="480" rx="24"/></clipPath></defs><g clip-path="url(#cc)"><rect width="600" height="480" fill="#001689"/><rect x="60" y="56" width="480" height="262" rx="18" fill="#ffffff"/><svg x="96" y="86" width="408" height="202" viewBox="0 0 120.371 160.498" preserveAspectRatio="xMidYMid meet" overflow="visible"><g data-name="Group 374"><path d="M59.038 156.91c-1.12-.5-27.6-12.443-42.675-27.51C3.811 116.858 2.843 98.757 2.808 97.992V22.027l.567-.751c.57-.754 14.433-18.469 56.812-18.469s56.24 17.713 56.81 18.467l.567.751v75.966c-.035.764-1 18.866-13.555 31.408-15.082 15.067-41.559 27.009-42.682 27.511l-1.147.513Z" data-name="Path 19809" fill="#001689"></path><path d="M60.185 5.612c41.471 0 54.573 17.353 54.573 17.353v74.9s-.807 17.634-12.734 29.553c-14.884 14.872-41.839 26.931-41.839 26.931s-26.954-12.059-41.838-26.932C6.42 115.5 5.612 97.865 5.612 97.865v-74.9S18.714 5.612 60.185 5.612m0-5.612c-18.1 0-33.373 3.126-45.4 9.3-9.333 4.782-13.237 9.734-13.652 10.284L0 21.085v76.909l.007.129c.037.809 1.06 19.961 14.373 33.264 15.438 15.428 42.376 27.577 43.514 28.087l2.292 1.025 2.292-1.025c1.139-.51 28.076-12.659 43.512-28.087 13.314-13.3 14.338-32.455 14.374-33.264l.007-.129V21.085l-1.133-1.5c-.415-.55-4.32-5.5-13.652-10.288C93.558 3.126 78.283 0 60.185 0" data-name="Path 19810" fill="#001689"></path><path d="M60.185 5.612c41.471 0 54.573 17.353 54.573 17.353v74.9s-.807 17.634-12.734 29.553c-14.884 14.872-41.839 26.931-41.839 26.931S33.23 142.29 18.346 127.418C6.419 115.502 5.612 98.654 5.612 98.654v-74.9S18.714 5.612 60.185 5.612m0-3.118c-42.534 0-56.489 17.833-57.061 18.592l-.63.834v76.086c.035.771 1.008 18.988 13.645 31.616 6.371 6.366 15.511 12.943 27.167 19.55 8.628 4.892 15.322 7.9 15.6 8.023l1.274.568 1.274-.568c.281-.125 6.973-3.131 15.6-8.023 11.656-6.607 20.8-13.184 27.167-19.55 12.636-12.627 13.61-30.845 13.645-31.616V21.921l-.63-.834c-.573-.759-14.526-18.592-57.061-18.592" data-name="Path 19811" fill="#fff"></path><path d="M21.209 95.145a9.784 9.784 0 0 1-1.62-.164v-5.316h-3.224v5.32a9.971 9.971 0 0 1-1.6.164 9.8 9.8 0 0 1-1.623-.164v-13q.492-.073.893-.11c.267-.025.5-.037.711-.037s.465.012.737.037.567.062.883.11v4.825h3.223v-4.825q.492-.073.883-.11c.261-.025.5-.037.719-.037s.465.012.739.037.567.062.881.11v13a9.953 9.953 0 0 1-1.6.164" data-name="Path 19812" fill="#fff"></path><path d="M26.617 95.145a9.767 9.767 0 0 1-1.62-.164v-13c.328-.048.625-.085.891-.11s.5-.037.711-.037.465.012.737.037.568.062.883.11v13a9.953 9.953 0 0 1-1.6.164" data-name="Path 19813" fill="#fff"></path><path d="M30.786 81.985c.254-.037.532-.07.829-.1a8.261 8.261 0 0 1 .828-.045 7.606 7.606 0 0 1 .792.045c.284.03.55.064.792.1l2.585 6.774 2.677-6.774c.242-.037.49-.07.739-.1a6.1 6.1 0 0 1 .737-.045 7 7 0 0 1 .782.045q.4.045.782.1l.62 13c-.2.035-.411.072-.647.109a6.413 6.413 0 0 1-.938.053 8.4 8.4 0 0 1-1.505-.162l-.254-7.54-2 4.972c-.217.037-.436.067-.655.09a5.26 5.26 0 0 1-.6.037c-.182 0-.369-.008-.565-.027a4.451 4.451 0 0 1-.6-.1l-1.785-4.9-.2 7.466a7 7 0 0 1-1.458.162 7.83 7.83 0 0 1-1.483-.16Z" data-name="Path 19814" fill="#fff"></path><path d="M47.137 95c-.279.048-.535.084-.764.109a6.7 6.7 0 0 1-.674.037 7.275 7.275 0 0 1-.756-.045q-.429-.045-.956-.137l4.079-13c.314-.035.61-.065.883-.09s.548-.037.828-.037c.231 0 .483.012.756.037s.587.055.938.09l4.023 13.021a11.919 11.919 0 0 1-1.818.16c-.242 0-.485-.013-.727-.037s-.5-.06-.784-.109l-.692-2.531a8.15 8.15 0 0 1-.973.219 5.955 5.955 0 0 1-.919.072 5.772 5.772 0 0 1-.856-.064 7.352 7.352 0 0 1-.911-.192Zm2.549-9.615-1.22 4.679c.207.062.4.109.583.145a2.837 2.837 0 0 0 .563.055 4.1 4.1 0 0 0 .61-.045 5.088 5.088 0 0 0 .629-.137Z" data-name="Path 19815" fill="#fff"></path><path d="M56.677 81.985c.328-.048.625-.085.893-.109s.5-.037.709-.037.465.012.739.037.567.06.883.109v10.2h4.206a7.181 7.181 0 0 1 .117.792c.018.224.028.428.028.61 0 .207-.01.421-.028.647a7.78 7.78 0 0 1-.117.809h-7.43Z" data-name="Path 19816" fill="#fff"></path><path d="M67.767 95c-.279.048-.535.084-.764.109a6.7 6.7 0 0 1-.674.037 7.331 7.331 0 0 1-.757-.045c-.284-.03-.6-.075-.955-.137l4.079-13q.471-.053.883-.09a8.322 8.322 0 0 1 1.584 0c.273.025.587.055.938.09l4.025 13.021a11.919 11.919 0 0 1-1.821.164c-.242 0-.485-.013-.727-.037s-.5-.06-.784-.109l-.692-2.531a8.149 8.149 0 0 1-.973.219 5.955 5.955 0 0 1-.92.072 5.771 5.771 0 0 1-.856-.064 7.351 7.351 0 0 1-.911-.192Zm2.55-9.615-1.22 4.679c.206.062.4.109.583.145a2.824 2.824 0 0 0 .563.055 4.1 4.1 0 0 0 .61-.045 5.089 5.089 0 0 0 .629-.137Z" data-name="Path 19817" fill="#fff"></path><path d="M82.462 81.985c.279-.048.57-.085.874-.109s.612-.037.928-.037c.207 0 .475.015.8.045s.607.064.839.1l-4.061 8.357v4.644a9.959 9.959 0 0 1-1.6.162 9.743 9.743 0 0 1-1.62-.162v-4.647q-.474-.983-.993-2.048t-1.037-2.13q-.522-1.066-1.03-2.132t-.984-2.043q.308-.055.838-.1t1-.045q.381 0 .848.045c.309.03.578.064.809.1l2.24 5.062Z" data-name="Path 19818" fill="#fff"></path><path d="M87.415 95c-.279.048-.533.084-.764.109a6.677 6.677 0 0 1-.674.037 7.275 7.275 0 0 1-.756-.045c-.286-.03-.6-.075-.956-.137l4.079-13q.471-.053.883-.09a8.305 8.305 0 0 1 1.584 0c.273.025.587.055.938.09l4.023 13.021a11.919 11.919 0 0 1-1.821.164c-.242 0-.485-.013-.727-.037s-.5-.06-.784-.109l-.692-2.531a8.1 8.1 0 0 1-.975.219 5.917 5.917 0 0 1-.918.072 5.771 5.771 0 0 1-.856-.064 7.352 7.352 0 0 1-.911-.192Zm2.547-9.615-1.22 4.679c.207.062.4.109.583.145a2.837 2.837 0 0 0 .563.055 4.1 4.1 0 0 0 .61-.045 5.088 5.088 0 0 0 .629-.137Z" data-name="Path 19819" fill="#fff"></path><path d="M96.957 81.985c.266-.048.51-.085.729-.109a5.553 5.553 0 0 1 .637-.037 5.408 5.408 0 0 1 .682.045c.237.03.44.064.61.1l4.225 7.139v-7.138c.314-.048.6-.085.856-.109s.485-.037.692-.037a6.078 6.078 0 0 1 .655.037c.231.023.473.06.727.109l-.018 13a4.564 4.564 0 0 1-.527.109 4.761 4.761 0 0 1-.747.053 4.687 4.687 0 0 1-.816-.062 11.827 11.827 0 0 1-.528-.1l-4.246-7.1v7.1a7.339 7.339 0 0 1-1.456.162 7.634 7.634 0 0 1-1.475-.162Z" data-name="Path 19820" fill="#fff"></path><path d="M12.846 98.533q.416-.053 1.277-.154a19.7 19.7 0 0 1 2.163-.1 10.664 10.664 0 0 1 1.938.181 4.967 4.967 0 0 1 1.765.679 3.7 3.7 0 0 1 1.276 1.4 4.927 4.927 0 0 1 .49 2.354 5.157 5.157 0 0 1-.39 2.138 3.583 3.583 0 0 1-1.033 1.363 3.984 3.984 0 0 1-1.465.724 6.59 6.59 0 0 1-1.694.217c-.229 0-.461-.008-.7-.027a3.578 3.578 0 0 1-.5-.064v4.218c-.314.06-.6.1-.851.127s-.488.037-.706.037a9.56 9.56 0 0 1-1.577-.164Zm3.133 6.121a1.13 1.13 0 0 0 .308.054c.145.013.3.018.453.018a1.634 1.634 0 0 0 1.755-1.832 2.4 2.4 0 0 0-.152-.913 1.547 1.547 0 0 0-.426-.6 1.572 1.572 0 0 0-.634-.316 3.139 3.139 0 0 0-.761-.09h-.252a2.4 2.4 0 0 0-.291.017Z" data-name="Path 19821" fill="#fff"></path><path d="M30.302 104.727a6.951 6.951 0 0 1-.162 1.413h-3.5v2.571h4.546a6.62 6.62 0 0 1 .162 1.376 6.827 6.827 0 0 1-.162 1.429h-7.747V98.498h7.642c.048.266.084.513.109.742a6.5 6.5 0 0 1 .037.652 8.494 8.494 0 0 1-.145 1.431h-4.438v1.991h3.5a7.149 7.149 0 0 1 .162 1.413" data-name="Path 19822" fill="#fff"></path><path d="M35.352 101.324h-3.026a6.226 6.226 0 0 1 0-2.824h9.252q.073.4.11.742a6.419 6.419 0 0 1 .035.65 8.494 8.494 0 0 1-.145 1.431h-3.021v10.14a9.879 9.879 0 0 1-1.593.164 9.659 9.659 0 0 1-1.612-.164Z" data-name="Path 19823" fill="#fff"></path><path d="M52.138 103.569c.507.206.963.413 1.368.625a4.139 4.139 0 0 1 1.042.759 3.043 3.043 0 0 1 .669 1.068 4.787 4.787 0 0 1-.1 3.242 3.608 3.608 0 0 1-.986 1.322 4.569 4.569 0 0 1-1.6.851 7.287 7.287 0 0 1-2.182.3 9.72 9.72 0 0 1-1.983-.181 12.293 12.293 0 0 1-1.856-.562 10.427 10.427 0 0 1 .252-1.349 19 19 0 0 1 .436-1.456 7.482 7.482 0 0 0 2.9.724 3.037 3.037 0 0 0 1.439-.281 1.01 1.01 0 0 0 .517-.97 1.067 1.067 0 0 0-.109-.5 1.1 1.1 0 0 0-.289-.353 1.877 1.877 0 0 0-.408-.246c-.15-.065-.3-.129-.461-.189l-1.022-.378a6.526 6.526 0 0 1-1.185-.562 3.768 3.768 0 0 1-.914-.769 3.229 3.229 0 0 1-.588-1.023 4.015 4.015 0 0 1-.209-1.358 4.166 4.166 0 0 1 .328-1.7 3.541 3.541 0 0 1 .913-1.259 3.938 3.938 0 0 1 1.421-.779 6.243 6.243 0 0 1 1.866-.261 8.666 8.666 0 0 1 1.784.181 14.674 14.674 0 0 1 1.837.525 9.233 9.233 0 0 1-.262 1.276 8.131 8.131 0 0 1-.48 1.312q-.471-.2-1.1-.416a4.954 4.954 0 0 0-1.577-.217 2.673 2.673 0 0 0-.552.055 1.6 1.6 0 0 0-.47.172.9.9 0 0 0-.336.326.984.984 0 0 0-.127.515.9.9 0 0 0 .344.779 3.467 3.467 0 0 0 .814.435Z" data-name="Path 19824" fill="#fff"></path><path d="M62.188 111.716a6.477 6.477 0 0 1-2.436-.4 3.54 3.54 0 0 1-1.53-1.15 4.574 4.574 0 0 1-.787-1.819 11.7 11.7 0 0 1-.227-2.409v-7.405c.351-.047.654-.08.906-.1a9.145 9.145 0 0 1 1.403 0c.248.019.547.052.9.1v7.027a13.738 13.738 0 0 0 .074 1.538 3.291 3.291 0 0 0 .262 1.033 1.185 1.185 0 0 0 .533.57 2.054 2.054 0 0 0 .906.172 2.109 2.109 0 0 0 .914-.172 1.173 1.173 0 0 0 .543-.57 3.134 3.134 0 0 0 .252-1.033c.043-.421.064-.935.064-1.538v-7.027q.544-.07.914-.1c.247-.018.475-.027.679-.027s.453.008.707.027.555.052.9.1v7.406a11.711 11.711 0 0 1-.226 2.409 4.622 4.622 0 0 1-.787 1.819 3.535 3.535 0 0 1-1.531 1.15 6.462 6.462 0 0 1-2.434.4" data-name="Path 19825" fill="#fff"></path><path d="M69.267 98.533q.416-.053 1.276-.154a19.717 19.717 0 0 1 2.163-.1 10.65 10.65 0 0 1 1.938.181 4.967 4.967 0 0 1 1.765.679 3.7 3.7 0 0 1 1.276 1.4 4.947 4.947 0 0 1 .49 2.354 5.156 5.156 0 0 1-.39 2.138 3.6 3.6 0 0 1-1.032 1.363 3.991 3.991 0 0 1-1.466.724 6.59 6.59 0 0 1-1.694.217 8.76 8.76 0 0 1-.7-.027 3.579 3.579 0 0 1-.5-.064v4.218c-.314.06-.6.1-.851.127s-.488.037-.707.037a9.525 9.525 0 0 1-1.573-.164Zm3.131 6.121a1.144 1.144 0 0 0 .308.054c.145.013.3.018.453.018a1.634 1.634 0 0 0 1.755-1.832 2.435 2.435 0 0 0-.152-.913 1.547 1.547 0 0 0-.426-.6 1.572 1.572 0 0 0-.634-.316 3.139 3.139 0 0 0-.761-.09h-.254a2.417 2.417 0 0 0-.289.017Z" data-name="Path 19826" fill="#fff"></path><path d="M79.858 98.533q.416-.053 1.276-.154a19.717 19.717 0 0 1 2.163-.1 10.65 10.65 0 0 1 1.938.181 4.967 4.967 0 0 1 1.765.679 3.7 3.7 0 0 1 1.276 1.4 4.947 4.947 0 0 1 .49 2.354 5.156 5.156 0 0 1-.39 2.138 3.6 3.6 0 0 1-1.032 1.363 4 4 0 0 1-1.466.724 6.59 6.59 0 0 1-1.694.217 8.76 8.76 0 0 1-.7-.027 3.542 3.542 0 0 1-.5-.064v4.218c-.314.06-.6.1-.851.127s-.488.037-.707.037a9.525 9.525 0 0 1-1.573-.164Zm3.133 6.121a1.144 1.144 0 0 0 .308.054c.145.013.3.018.453.018a1.634 1.634 0 0 0 1.753-1.832 2.4 2.4 0 0 0-.154-.913 1.526 1.526 0 0 0-.425-.6 1.572 1.572 0 0 0-.634-.316 3.139 3.139 0 0 0-.761-.09h-.254a2.4 2.4 0 0 0-.289.017Z" data-name="Path 19827" fill="#fff"></path><path d="M90.447 98.538c.326-.048.622-.084.888-.109s.5-.037.706-.037.461.012.734.037.563.06.878.109v10.14h4.184a7.051 7.051 0 0 1 .117.787 7.517 7.517 0 0 1 0 1.249 7.666 7.666 0 0 1-.117.806h-7.39Z" data-name="Path 19828" fill="#fff"></path><path d="M104.103 98.538c.278-.048.567-.084.869-.109s.609-.037.923-.037c.206 0 .471.017.8.045s.6.064.833.1l-4.045 8.309v4.618a9.851 9.851 0 0 1-1.593.162 9.637 9.637 0 0 1-1.612-.162v-4.618q-.471-.978-.986-2.036l-1.029-2.118q-.517-1.061-1.023-2.118t-.978-2.036c.206-.037.483-.069.834-.1s.68-.045.995-.045c.254 0 .535.017.843.045s.577.064.806.1l2.227 5.034Z" data-name="Path 19829" fill="#fff"></path><path d="M22.006 116.78h76.357v2.807H22.006z" data-name="Rectangle 195" fill="#fff"></path><path d="m85.274 45.635-6.58 4.633-3.267.008-5.582-1.943-2.722-4.124.436-1.834-.528-3.873-12.654-9.63-3.965 9.812-7.266 9.382-2.732-.2-4.492-2.412L9.984 76.776h99.528Z" data-name="Path 19830" fill="#fff"></path><path d="m36.253 46.874 4.286 2.212 2.9.2 1.629-2.113-.1 3.954.09 1.413 1.245 1.543 2.277 1.6 3.062 2.753 2.988 6.831v5.084l-.662 4.061-8.006-2-2.946.074-2.66.08-1.235-.637 2.666-2.393.562-5.278-2.681-3.05-.117-3.372-1.8-4.716v-2.884Z" data-name="Path 19831" fill="#001689"></path><path d="m80.916 66.634-2.66-3.815-11.1-12.425-.968-1.622.035-4.455.211-1.816-.159-2.889-2.431-1.936.44 3.411-1.752-1.739h-2.2l-.809.809-3.584-1.966-.578.578-.346 2.2v.925l4.164 3.466.809 8.672-.692 1.734 1.155 5.9.232 3.7 2.984 8.887 3.335.042-1.8-6.488 6.895 4.892.849 1.635 8.493.047h3.125l-1.347-4.18Z" data-name="Path 19832" fill="#001689"></path><path d="m50.856 55.627-.2-1.312 2.7 2.262 1.08 2.745 1.764 2.869.171 3.9.777 4.263-1.423 4.023-1.757.033.626-11.783-2.182-4.8-.674-1.349Z" data-name="Path 19833" fill="#001689"></path><path d="m84.734 55.144-.289-7.831 14.162 17.26-7.02-4.021-.542 5.661-3.428-10.6Z" data-name="Path 19834" fill="#001689"></path><path d="M29.956 54.373 14.898 72.19l3.482-1.393.874 2.075 2.961-3.742 4.755-.466-.627-7.59Z" data-name="Path 19835" fill="#001689"></path><path d="m60.128 35.074-5.036-4.333 1.047 2.946-1.03 1.742 3.9 2.529-.394-2.357Z" data-name="Path 19836" fill="#001689"></path></g></svg><g transform="translate(300.0,406.0) scale(0.4330,-0.4330) translate(-430.9,-35.0)"><path d="M29.5,68.8 Q29.5,69.3 29.8,69.6 Q30.2,70.0 30.7,70.0 L42.4,70.0 Q42.9,70.0 43.2,69.6 Q43.6,69.3 43.6,68.8 L43.6,1.2 Q43.6,0.7 43.2,0.3 Q42.9,0.0 42.4,0.0 L30.7,0.0 Q30.2,0.0 29.8,0.3 Q29.5,0.7 29.5,1.2 L29.5,28.5 Q29.5,29.0 29.0,29.0 L19.0,29.0 Q18.5,29.0 18.5,28.5 L18.5,1.2 Q18.5,0.7 18.1,0.3 Q17.8,0.0 17.3,0.0 L5.6,0.0 Q5.1,0.0 4.8,0.3 Q4.4,0.7 4.4,1.2 L4.4,68.8 Q4.4,69.3 4.8,69.6 Q5.1,70.0 5.6,70.0 L17.3,70.0 Q17.8,70.0 18.1,69.6 Q18.5,69.3 18.5,68.8 L18.5,41.6 Q18.5,41.1 19.0,41.1 L29.0,41.1 Q29.5,41.1 29.5,41.6 L29.5,68.8 Z M53.6,0.0 Q53.1,0.0 52.7,0.3 Q52.4,0.7 52.4,1.2 L52.4,68.8 Q52.4,69.3 52.7,69.6 Q53.1,70.0 53.6,70.0 L65.3,70.0 Q65.8,70.0 66.1,69.6 Q66.5,69.3 66.5,68.8 L66.5,1.2 Q66.5,0.7 66.1,0.3 Q65.8,0.0 65.3,0.0 L53.6,0.0 Z M107.4,69.2 Q107.8,70.0 108.9,70.0 L120.5,70.0 Q121.0,70.0 121.3,69.6 Q121.7,69.3 121.7,68.8 L121.7,1.2 Q121.7,0.7 121.3,0.3 Q121.0,0.0 120.5,0.0 L108.8,0.0 Q108.3,0.0 107.9,0.3 Q107.6,0.7 107.6,1.2 L107.6,46.1 Q107.6,46.5 107.4,46.5 Q107.2,46.5 107.0,46.2 L99.2,32.4 Q98.7,31.6 98.4,31.6 Q98.1,31.6 97.6,32.4 L89.8,46.2 Q89.6,46.5 89.4,46.5 Q89.2,46.5 89.2,46.1 L89.2,1.2 Q89.2,0.7 88.8,0.3 Q88.5,0.0 88.0,0.0 L76.3,0.0 Q75.8,0.0 75.4,0.3 Q75.1,0.7 75.1,1.2 L75.1,68.8 Q75.1,69.3 75.4,69.6 Q75.8,70.0 76.3,70.0 L87.8,70.0 Q88.8,70.0 89.3,69.2 L98.2,53.3 Q98.5,52.9 98.8,53.3 L107.4,69.2 Z M159.6,0.0 Q158.4,0.0 158.3,1.1 L156.7,10.7 Q156.7,11.2 156.1,11.2 L143.4,11.2 Q142.8,11.2 142.8,10.7 L141.2,1.1 Q141.1,0.0 139.9,0.0 L128.2,0.0 Q126.9,0.0 127.2,1.3 L141.9,68.9 Q142.1,70.0 143.2,70.0 L156.7,70.0 Q157.8,70.0 158.0,68.9 L172.6,1.3 L172.7,0.9 Q172.7,0.0 171.6,0.0 L159.6,0.0 Z M144.8,22.6 Q144.8,22.1 145.2,22.1 L154.2,22.1 Q154.7,22.1 154.6,22.6 L149.9,49.9 Q149.8,50.2 149.6,50.2 Q149.4,50.2 149.3,49.9 L144.8,22.6 Z M179.6,0.0 Q179.1,0.0 178.7,0.3 Q178.4,0.7 178.4,1.2 L178.4,68.8 Q178.4,69.3 178.7,69.6 Q179.1,70.0 179.6,70.0 L191.3,70.0 Q191.8,70.0 192.1,69.6 Q192.5,69.3 192.5,68.8 L192.5,12.6 Q192.5,12.1 193.0,12.1 L214.0,12.1 Q214.5,12.1 214.8,11.8 Q215.2,11.4 215.2,10.9 L215.2,1.2 Q215.2,0.7 214.8,0.3 Q214.5,0.0 214.0,0.0 L179.6,0.0 Z M250.4,0.0 Q249.2,0.0 249.1,1.1 L247.5,10.7 Q247.5,11.2 246.9,11.2 L234.2,11.2 Q233.6,11.2 233.6,10.7 L232.0,1.1 Q231.9,0.0 230.7,0.0 L219.0,0.0 Q217.7,0.0 218.0,1.3 L232.7,68.9 Q232.9,70.0 234.0,70.0 L247.5,70.0 Q248.6,70.0 248.8,68.9 L263.4,1.3 L263.5,0.9 Q263.5,0.0 262.4,0.0 L250.4,0.0 Z M235.6,22.6 Q235.6,22.1 236.0,22.1 L245.0,22.1 Q245.5,22.1 245.4,22.6 L240.7,49.9 Q240.6,50.2 240.4,50.2 Q240.2,50.2 240.1,49.9 L235.6,22.6 Z M282.6,0.1 Q282.1,0.1 281.7,0.4 Q281.4,0.8 281.4,1.3 L281.4,27.3 L281.3,27.9 L267.3,68.6 Q267.2,68.8 267.2,69.1 Q267.2,70.0 268.3,70.0 L280.6,70.0 Q281.7,70.0 282.0,69.0 L288.2,45.1 Q288.3,44.8 288.5,44.8 Q288.7,44.8 288.8,45.1 L295.0,69.0 Q295.3,70.0 296.4,70.0 L308.7,70.0 Q309.3,70.0 309.6,69.6 Q309.9,69.3 309.7,68.6 L295.6,27.9 L295.5,27.3 L295.5,1.3 Q295.5,0.8 295.1,0.4 Q294.8,0.1 294.3,0.1 L282.6,0.1 Z M346.0,0.0 Q344.8,0.0 344.7,1.1 L343.1,10.7 Q343.1,11.2 342.5,11.2 L329.8,11.2 Q329.2,11.2 329.2,10.7 L327.6,1.1 Q327.5,0.0 326.3,0.0 L314.6,0.0 Q313.3,0.0 313.6,1.3 L328.3,68.9 Q328.5,70.0 329.6,70.0 L343.1,70.0 Q344.2,70.0 344.4,68.9 L359.0,1.3 L359.1,0.9 Q359.1,0.0 358.0,0.0 L346.0,0.0 Z M331.2,22.6 Q331.2,22.1 331.6,22.1 L340.6,22.1 Q341.1,22.1 341.0,22.6 L336.3,49.9 Q336.2,50.2 336.0,50.2 Q335.8,50.2 335.7,49.9 L331.2,22.6 Z M393.4,68.8 Q393.4,69.3 393.7,69.6 Q394.1,70.0 394.6,70.0 L406.2,70.0 Q406.7,70.0 407.0,69.6 Q407.4,69.3 407.4,68.8 L407.4,1.2 Q407.4,0.7 407.0,0.3 Q406.7,0.0 406.2,0.0 L393.0,0.0 Q392.0,0.0 391.7,1.0 L379.3,39.7 Q379.2,40.0 378.9,40.0 Q378.7,39.9 378.7,39.6 L378.8,1.2 Q378.8,0.7 378.4,0.3 Q378.1,0.0 377.6,0.0 L366.0,0.0 Q365.5,0.0 365.1,0.3 Q364.8,0.7 364.8,1.2 L364.8,68.8 Q364.8,69.3 365.1,69.6 Q365.5,70.0 366.0,70.0 L379.1,70.0 Q380.1,70.0 380.4,69.0 L392.9,30.3 Q393.0,30.0 393.2,30.0 Q393.5,30.1 393.5,30.4 L393.4,68.8 Z M457.5,70.1 Q463.0,70.1 467.3,67.4 Q471.6,64.7 473.9,59.8 Q476.3,55.0 476.3,48.8 Q476.3,39.5 471.3,33.9 Q466.3,28.3 458.2,28.3 L450.7,28.3 Q450.2,28.3 450.2,27.8 L450.2,1.2 Q450.2,0.7 449.8,0.3 Q449.5,0.0 449.0,0.0 L437.3,0.0 Q436.8,0.0 436.4,0.3 Q436.1,0.7 436.1,1.2 L436.1,68.9 Q436.1,69.4 436.4,69.8 Q436.8,70.1 437.3,70.1 L457.5,70.1 Z M455.1,39.3 Q458.3,39.3 460.3,41.8 Q462.2,44.2 462.2,48.5 Q462.2,52.9 460.3,55.4 Q458.3,57.9 455.1,57.9 L450.7,57.9 Q450.2,57.9 450.2,57.4 L450.2,39.8 Q450.2,39.3 450.7,39.3 L455.1,39.3 Z M519.4,59.1 Q519.4,58.6 519.0,58.2 Q518.7,57.9 518.2,57.9 L497.3,57.9 Q496.8,57.9 496.8,57.4 L496.8,41.6 Q496.8,41.1 497.3,41.1 L509.3,41.1 Q509.8,41.1 510.1,40.8 Q510.5,40.4 510.5,39.9 L510.5,30.2 Q510.5,29.7 510.1,29.3 Q509.8,29.0 509.3,29.0 L497.3,29.0 Q496.8,29.0 496.8,28.5 L496.8,12.6 Q496.8,12.1 497.3,12.1 L518.2,12.1 Q518.7,12.1 519.0,11.8 Q519.4,11.4 519.4,10.9 L519.4,1.2 Q519.4,0.7 519.0,0.3 Q518.7,0.0 518.2,0.0 L483.9,0.0 Q483.4,0.0 483.0,0.3 Q482.7,0.7 482.7,1.2 L482.7,68.8 Q482.7,69.3 483.0,69.6 Q483.4,70.0 483.9,70.0 L518.2,70.0 Q518.7,70.0 519.0,69.6 Q519.4,69.3 519.4,68.8 L519.4,59.1 Z M565.3,70.0 Q565.8,70.0 566.1,69.6 Q566.5,69.3 566.5,68.8 L566.5,59.1 Q566.5,58.6 566.1,58.2 Q565.8,57.9 565.3,57.9 L552.8,57.9 Q552.3,57.9 552.3,57.4 L552.3,1.2 Q552.3,0.7 551.9,0.3 Q551.6,0.0 551.1,0.0 L539.4,0.0 Q538.9,0.0 538.5,0.3 Q538.2,0.7 538.2,1.2 L538.2,57.4 Q538.2,57.9 537.7,57.9 L525.7,57.9 Q525.2,57.9 524.8,58.2 Q524.5,58.6 524.5,59.1 L524.5,68.8 Q524.5,69.3 524.8,69.6 Q525.2,70.0 525.7,70.0 L565.3,70.0 Z M611.3,-0.8 Q605.5,-0.8 601.1,1.5 Q596.7,3.8 594.3,7.9 Q591.9,12.1 591.9,17.5 L591.9,20.4 Q591.9,20.9 592.2,21.2 Q592.6,21.6 593.1,21.6 L604.6,21.6 Q605.1,21.6 605.4,21.2 Q605.8,20.9 605.8,20.4 L605.8,18.2 Q605.8,15.1 607.4,13.2 Q609.0,11.3 611.4,11.3 Q613.8,11.3 615.4,13.1 Q617.0,14.9 617.0,17.8 Q617.0,20.8 615.0,22.9 Q613.0,25.1 607.2,29.3 Q602.2,32.9 599.1,35.7 Q596.0,38.5 593.8,42.6 Q591.6,46.7 591.6,52.1 Q591.6,60.6 596.9,65.7 Q602.2,70.8 610.9,70.8 Q619.7,70.8 625.0,65.5 Q630.4,60.2 630.4,51.6 L630.4,49.2 Q630.4,48.7 630.0,48.3 Q629.7,48.0 629.2,48.0 L617.7,48.0 Q617.2,48.0 616.8,48.3 Q616.5,48.7 616.5,49.2 L616.5,51.9 Q616.5,55.0 614.9,56.8 Q613.4,58.7 610.9,58.7 Q608.5,58.7 607.0,57.0 Q605.5,55.2 605.5,52.1 Q605.5,49.1 607.4,46.8 Q609.3,44.5 614.9,40.4 Q621.1,35.8 624.2,32.9 Q627.4,30.1 629.1,26.6 Q630.9,23.2 630.9,18.4 Q630.9,9.6 625.5,4.4 Q620.1,-0.8 611.3,-0.8 Z M657.3,-0.8 Q648.3,-0.8 642.8,4.8 Q637.4,10.5 637.4,19.9 L637.4,68.8 Q637.4,69.3 637.7,69.6 Q638.1,70.0 638.6,70.0 L650.3,70.0 Q650.8,70.0 651.1,69.6 Q651.5,69.3 651.5,68.8 L651.5,18.5 Q651.5,15.3 653.1,13.3 Q654.7,11.3 657.3,11.3 Q659.9,11.3 661.4,13.3 Q663.0,15.3 663.0,18.5 L663.0,68.8 Q663.0,69.3 663.3,69.6 Q663.7,70.0 664.2,70.0 L675.9,70.0 Q676.4,70.0 676.7,69.6 Q677.1,69.3 677.1,68.8 L677.1,19.9 Q677.1,10.5 671.6,4.8 Q666.2,-0.8 657.3,-0.8 Z M706.9,70.1 Q712.4,70.1 716.7,67.4 Q721.0,64.7 723.3,59.8 Q725.7,55.0 725.7,48.8 Q725.7,39.5 720.7,33.9 Q715.7,28.3 707.6,28.3 L700.1,28.3 Q699.6,28.3 699.6,27.8 L699.6,1.2 Q699.6,0.7 699.2,0.3 Q698.9,0.0 698.4,0.0 L686.7,0.0 Q686.2,0.0 685.8,0.3 Q685.5,0.7 685.5,1.2 L685.5,68.9 Q685.5,69.4 685.8,69.8 Q686.2,70.1 686.7,70.1 L706.9,70.1 Z M704.5,39.3 Q707.7,39.3 709.7,41.8 Q711.6,44.2 711.6,48.5 Q711.6,52.9 709.7,55.4 Q707.7,57.9 704.5,57.9 L700.1,57.9 Q699.6,57.9 699.6,57.4 L699.6,39.8 Q699.6,39.3 700.1,39.3 L704.5,39.3 Z M753.4,70.1 Q758.9,70.1 763.2,67.4 Q767.5,64.7 769.8,59.8 Q772.2,55.0 772.2,48.8 Q772.2,39.5 767.2,33.9 Q762.2,28.3 754.1,28.3 L746.6,28.3 Q746.1,28.3 746.1,27.8 L746.1,1.2 Q746.1,0.7 745.7,0.3 Q745.4,0.0 744.9,0.0 L733.2,0.0 Q732.7,0.0 732.3,0.3 Q732.0,0.7 732.0,1.2 L732.0,68.9 Q732.0,69.4 732.3,69.8 Q732.7,70.1 733.2,70.1 L753.4,70.1 Z M751.0,39.3 Q754.2,39.3 756.2,41.8 Q758.1,44.2 758.1,48.5 Q758.1,52.9 756.2,55.4 Q754.2,57.9 751.0,57.9 L746.6,57.9 Q746.1,57.9 746.1,57.4 L746.1,39.8 Q746.1,39.3 746.6,39.3 L751.0,39.3 Z M779.8,0.0 Q779.3,0.0 778.9,0.3 Q778.6,0.7 778.6,1.2 L778.6,68.8 Q778.6,69.3 778.9,69.6 Q779.3,70.0 779.8,70.0 L791.5,70.0 Q792.0,70.0 792.3,69.6 Q792.7,69.3 792.7,68.8 L792.7,12.6 Q792.7,12.1 793.2,12.1 L814.2,12.1 Q814.7,12.1 815.0,11.8 Q815.4,11.4 815.4,10.9 L815.4,1.2 Q815.4,0.7 815.0,0.3 Q814.7,0.0 814.2,0.0 L779.8,0.0 Z M834.6,0.1 Q834.1,0.1 833.7,0.4 Q833.4,0.8 833.4,1.3 L833.4,27.3 L833.3,27.9 L819.3,68.6 Q819.2,68.8 819.2,69.1 Q819.2,70.0 820.3,70.0 L832.6,70.0 Q833.7,70.0 834.0,69.0 L840.2,45.1 Q840.3,44.8 840.5,44.8 Q840.7,44.8 840.8,45.1 L847.0,69.0 Q847.3,70.0 848.4,70.0 L860.7,70.0 Q861.3,70.0 861.6,69.6 Q861.9,69.3 861.7,68.6 L847.6,27.9 L847.5,27.3 L847.5,1.3 Q847.5,0.8 847.1,0.4 Q846.8,0.1 846.3,0.1 L834.6,0.1 Z" fill="#ffffff"/></g></g></svg>