<svg xmlns="http://www.w3.org/2000/svg" xmlns:xlink="http://www.w3.org/1999/xlink" viewBox="0 0 600 480" width="600" height="480"><defs><clipPath id="cc"><rect x="0" y="0" width="600" height="480" rx="24"/></clipPath></defs><g clip-path="url(#cc)"><rect width="600" height="480" fill="#4f8f28"/><g transform="translate(300.0,240.0) scale(1.2943,-1.2943) translate(-187.7,-35.0)"><path d="M4.7,0.0 Q4.2,0.0 3.8,0.3 Q3.5,0.7 3.5,1.2 L3.5,68.8 Q3.5,69.3 3.8,69.6 Q4.2,70.0 4.7,70.0 L18.9,70.0 Q19.4,70.0 19.8,69.6 Q20.1,69.3 20.1,68.8 L20.1,1.2 Q20.1,0.7 19.8,0.3 Q19.4,0.0 18.9,0.0 L4.7,0.0 Z M55.8,68.8 Q55.8,69.3 56.1,69.6 Q56.5,70.0 57.0,70.0 L71.0,70.0 Q71.5,70.0 71.8,69.6 Q72.2,69.3 72.2,68.8 L72.2,1.2 Q72.2,0.7 71.8,0.3 Q71.5,0.0 71.0,0.0 L55.1,0.0 Q54.0,0.0 53.7,1.0 L43.8,35.8 Q43.7,36.1 43.5,36.1 Q43.2,36.2 43.2,35.8 L43.4,1.2 Q43.4,0.7 43.0,0.3 Q42.7,0.0 42.2,0.0 L28.2,0.0 Q27.7,0.0 27.3,0.3 Q27.0,0.7 27.0,1.2 L27.0,68.8 Q27.0,69.3 27.3,69.6 Q27.7,70.0 28.2,70.0 L43.9,70.0 Q45.0,70.0 45.3,69.0 L55.3,34.0 Q55.4,33.7 55.7,33.7 Q55.9,33.7 55.9,34.1 L55.8,68.8 Z M119.3,-0.8 Q109.8,-0.8 104.1,4.8 Q98.4,10.4 98.4,19.7 L98.4,50.4 Q98.4,59.8 104.1,65.3 Q109.8,70.8 119.3,70.8 Q128.8,70.8 134.5,65.3 Q140.3,59.8 140.3,50.4 L140.3,49.5 Q140.3,49.0 139.9,48.6 Q139.6,48.3 139.1,48.3 L124.9,47.7 Q123.7,47.7 123.7,48.9 L123.7,51.6 Q123.7,53.9 122.5,55.2 Q121.3,56.6 119.3,56.6 Q117.4,56.6 116.2,55.2 Q115.0,53.9 115.0,51.6 L115.0,18.3 Q115.0,16.1 116.2,14.8 Q117.4,13.4 119.3,13.4 Q121.3,13.4 122.5,14.8 Q123.7,16.1 123.7,18.3 L123.7,21.2 Q123.7,21.7 124.0,22.0 Q124.4,22.4 124.9,22.4 L139.1,21.8 Q139.6,21.8 139.9,21.4 Q140.3,21.1 140.3,20.6 L140.3,19.7 Q140.3,10.4 134.5,4.8 Q128.8,-0.8 119.3,-0.8 Z M147.4,0.0 Q146.9,0.0 146.5,0.3 Q146.2,0.7 146.2,1.2 L146.2,68.8 Q146.2,69.3 146.5,69.6 Q146.9,70.0 147.4,70.0 L161.6,70.0 Q162.1,70.0 162.4,69.6 Q162.8,69.3 162.8,68.8 L162.8,14.7 Q162.8,14.2 163.3,14.2 L183.7,14.2 Q184.2,14.2 184.5,13.8 Q184.9,13.5 184.9,13.0 L184.9,1.2 Q184.9,0.7 184.5,0.3 Q184.2,0.0 183.7,0.0 L147.4,0.0 Z M210.3,-0.8 Q200.6,-0.8 194.9,4.8 Q189.1,10.4 189.1,19.9 L189.1,50.1 Q189.1,59.5 194.9,65.1 Q200.6,70.8 210.3,70.8 Q219.9,70.8 225.7,65.1 Q231.6,59.5 231.6,50.1 L231.6,19.9 Q231.6,10.4 225.7,4.8 Q219.9,-0.8 210.3,-0.8 Z M210.3,13.4 Q212.5,13.4 213.7,15.0 Q215.0,16.5 215.0,19.2 L215.0,50.8 Q215.0,53.5 213.7,55.0 Q212.5,56.6 210.3,56.6 Q208.1,56.6 206.9,55.0 Q205.7,53.5 205.7,50.8 L205.7,19.2 Q205.7,16.5 206.9,15.0 Q208.1,13.4 210.3,13.4 Z M251.7,0.0 Q250.6,0.0 250.4,1.1 L236.2,68.7 L236.1,69.1 Q236.1,70.0 237.2,70.0 L252.7,70.0 Q253.9,70.0 254.0,68.9 L259.7,29.0 Q259.8,28.6 260.0,28.6 Q260.3,28.7 260.3,29.0 L265.6,68.9 Q265.7,70.0 266.9,70.0 L282.0,70.0 Q283.3,70.0 283.0,68.7 L268.7,1.1 Q268.5,0.0 267.4,0.0 L251.7,0.0 Z M326.8,57.0 Q326.8,56.5 326.4,56.1 Q326.1,55.8 325.6,55.8 L305.5,55.8 Q305.0,55.8 305.0,55.3 L305.0,42.7 Q305.0,42.2 305.5,42.2 L316.5,42.2 Q317.0,42.2 317.3,41.8 Q317.7,41.5 317.7,41.0 L317.7,29.1 Q317.7,28.6 317.3,28.2 Q317.0,27.9 316.5,27.9 L305.5,27.9 Q305.0,27.9 305.0,27.4 L305.0,14.7 Q305.0,14.2 305.5,14.2 L325.6,14.2 Q326.1,14.2 326.4,13.8 Q326.8,13.5 326.8,13.0 L326.8,1.2 Q326.8,0.7 326.4,0.3 Q326.1,0.0 325.6,0.0 L289.6,0.0 Q289.1,0.0 288.7,0.3 Q288.4,0.7 288.4,1.2 L288.4,68.8 Q288.4,69.3 288.7,69.6 Q289.1,70.0 289.6,70.0 L325.6,70.0 Q326.1,70.0 326.4,69.6 Q326.8,69.3 326.8,68.8 L326.8,57.0 Z M359.8,0.0 Q358.7,0.0 358.4,1.0 L351.6,27.5 Q351.5,27.9 351.1,27.9 L349.6,27.9 Q349.1,27.9 349.1,27.4 L349.1,1.2 Q349.1,0.7 348.7,0.3 Q348.4,0.0 347.9,0.0 L333.7,0.0 Q333.2,0.0 332.8,0.3 Q332.5,0.7 332.5,1.2 L332.5,68.8 Q332.5,69.3 332.8,69.6 Q333.2,70.0 333.7,70.0 L355.2,70.0 Q361.0,70.0 365.5,67.2 Q370.0,64.5 372.5,59.5 Q374.9,54.6 374.9,48.3 Q374.9,42.7 372.8,38.2 Q370.8,33.8 367.1,31.1 Q366.9,31.0 366.8,30.8 Q366.7,30.7 366.8,30.5 L375.4,1.4 L375.5,1.0 Q375.5,0.0 374.4,0.0 L359.8,0.0 Z M349.6,55.8 Q349.1,55.8 349.1,55.3 L349.1,41.1 Q349.1,40.6 349.6,40.6 L352.4,40.6 Q355.1,40.6 356.7,42.6 Q358.3,44.6 358.3,48.1 Q358.3,51.8 356.7,53.8 Q355.1,55.8 352.4,55.8 L349.6,55.8 Z" fill="#ffffff"/></g></g></svg>