<svg xmlns="http://www.w3.org/2000/svg" xmlns:xlink="http://www.w3.org/1999/xlink" viewBox="0 0 600 480" width="600" height="480"><defs><clipPath id="cc"><rect x="0" y="0" width="600" height="480" rx="24"/></clipPath></defs><g clip-path="url(#cc)"><rect width="600" height="480" fill="#0c5122"/><svg x="120" y="86" width="360" height="210" viewBox="0 0 46 50" preserveAspectRatio="xMidYMid meet" overflow="visible"> <title id="icon-title--logo">Open Farm Pet</title> <path d="M45.931 23.122c.013 8.773.01 26.863.01 26.863H0s-.002-18.09.01-26.863c0-.347.08-.724.227-1.037 2.369-5.002 4.75-9.997 7.146-14.986.107-.223.336-.446.561-.545 4.892-2.149 9.79-4.283 14.694-6.402a.852.852 0 0 1 .333-.06c.12 0 .238.019.333.06 4.904 2.119 9.802 4.253 14.693 6.402.226.1.455.322.562.545 2.395 4.99 4.777 9.984 7.145 14.986.148.313.227.69.227 1.037zm-3.688 14.293a.934.934 0 0 0-.306-1.813.934.934 0 0 0 0 1.866.922.922 0 0 0 .306-.053zm-.073-.42h.173l-.218-.374a.303.303 0 0 0 .1-.498.292.292 0 0 0-.217-.09h-.384v.963h.158v-.351h.186l.202.35zm-.233-1.247c.331 0 .628.212.738.527a.784.784 0 0 1-.739 1.046.788.788 0 1 1 0-1.573zm.07.433c.084 0 .151.071.151.16 0 .09-.067.162-.15.162h-.226v-.322h.226zm-1.735-3.645v-8.664h-1.18V29.1l-4.34-5.228h-1.905v8.651h1.193v-6.525l5.458 6.538h.774zm0 11.747v-8.65h-2.286l-2.311 5.672-2.238-5.673H30.93v8.65h1.192V37.35l2.754 6.945h.676l2.803-6.945v6.933h1.917zm-9.465-11.76v-1.014H26.21v-2.953h3.16v-1.014h-3.16v-2.657h4.376v-1.013h-6.343v8.65h6.564zm-3.82 11.76H29.2a5.163 5.163 0 0 1-.799-1.458l-.405-1.125c-.357-1.001-1.02-1.458-2.09-1.545v-.025c1.389-.037 2.692-.704 2.692-2.162 0-1.68-1.488-2.336-3.258-2.336h-3.97v8.65h1.967v-3.694h1.118c.86 0 1.205.272 1.475 1.05l.48 1.36c.16.444.32.852.578 1.285zm-.454-6.192c0 1.063-.689 1.533-1.893 1.533h-1.303v-3.028h1.303c1.229 0 1.893.52 1.893 1.495zm-8.51 6.192h2.041l-3.884-8.676h-.738l-3.835 8.676h1.143l.934-2.15h3.368l.972 2.15zm-3.958-3.053l1.266-2.916 1.316 2.916h-2.582zm-3.007-.84v-1.013h-3.16v-2.732h4.23v-1.013H5.931v8.65h1.967V40.39h3.159zM9.417 23.748c-2.496 0-4.487 1.879-4.487 4.45 0 2.57 1.991 4.448 4.487 4.448 2.495 0 4.487-1.878 4.487-4.449 0-2.57-1.992-4.449-4.487-4.449zm0 8.008c-1.561 0-2.286-1.297-2.286-3.559 0-2.261.725-3.559 2.286-3.559s2.286 1.298 2.286 3.56c0 2.261-.725 3.558-2.286 3.558zm6.14-7.884v8.65h1.968V29.31h1.696c2.004 0 3.442-.915 3.442-2.72 0-1.803-1.438-2.718-3.442-2.718h-3.663zm5.078 2.719c0 1.223-.615 1.755-2.09 1.755h-1.02v-3.51h1.02c1.475 0 2.09.519 2.09 1.755z" fill="#fff" fill-rule="evenodd"></path> </svg><g transform="translate(300.0,406.0) scale(0.4330,-0.4330) translate(-198.6,-35.0)"><path d="M23.6,-0.8 Q14.4,-0.8 8.9,4.6 Q3.4,10.0 3.4,19.0 L3.4,51.0 Q3.4,60.0 8.9,65.4 Q14.4,70.8 23.6,70.8 Q32.8,70.8 38.3,65.4 Q43.9,60.0 43.9,51.0 L43.9,19.0 Q43.9,10.0 38.3,4.6 Q32.8,-0.8 23.6,-0.8 Z M23.6,11.3 Q26.4,11.3 28.1,13.2 Q29.8,15.2 29.8,18.4 L29.8,51.6 Q29.8,54.8 28.1,56.8 Q26.4,58.7 23.6,58.7 Q20.8,58.7 19.1,56.8 Q17.5,54.8 17.5,51.6 L17.5,18.4 Q17.5,15.2 19.1,13.2 Q20.8,11.3 23.6,11.3 Z M73.0,70.1 Q78.5,70.1 82.8,67.4 Q87.1,64.7 89.4,59.8 Q91.8,55.0 91.8,48.8 Q91.8,39.5 86.8,33.9 Q81.8,28.3 73.7,28.3 L66.2,28.3 Q65.7,28.3 65.7,27.8 L65.7,1.2 Q65.7,0.7 65.3,0.3 Q65.0,0.0 64.5,0.0 L52.8,0.0 Q52.3,0.0 51.9,0.3 Q51.6,0.7 51.6,1.2 L51.6,68.9 Q51.6,69.4 51.9,69.8 Q52.3,70.1 52.8,70.1 L73.0,70.1 Z M70.6,39.3 Q73.8,39.3 75.8,41.8 Q77.7,44.2 77.7,48.5 Q77.7,52.9 75.8,55.4 Q73.8,57.9 70.6,57.9 L66.2,57.9 Q65.7,57.9 65.7,57.4 L65.7,39.8 Q65.7,39.3 66.2,39.3 L70.6,39.3 Z M134.9,59.1 Q134.9,58.6 134.5,58.2 Q134.2,57.9 133.7,57.9 L112.8,57.9 Q112.3,57.9 112.3,57.4 L112.3,41.6 Q112.3,41.1 112.8,41.1 L124.8,41.1 Q125.3,41.1 125.6,40.8 Q126.0,40.4 126.0,39.9 L126.0,30.2 Q126.0,29.7 125.6,29.3 Q125.3,29.0 124.8,29.0 L112.8,29.0 Q112.3,29.0 112.3,28.5 L112.3,12.6 Q112.3,12.1 112.8,12.1 L133.7,12.1 Q134.2,12.1 134.5,11.8 Q134.9,11.4 134.9,10.9 L134.9,1.2 Q134.9,0.7 134.5,0.3 Q134.2,0.0 133.7,0.0 L99.4,0.0 Q98.9,0.0 98.5,0.3 Q98.2,0.7 98.2,1.2 L98.2,68.8 Q98.2,69.3 98.5,69.6 Q98.9,70.0 99.4,70.0 L133.7,70.0 Q134.2,70.0 134.5,69.6 Q134.9,69.3 134.9,68.8 L134.9,59.1 Z M170.6,68.8 Q170.6,69.3 170.9,69.6 Q171.3,70.0 171.8,70.0 L183.4,70.0 Q183.9,70.0 184.2,69.6 Q184.6,69.3 184.6,68.8 L184.6,1.2 Q184.6,0.7 184.2,0.3 Q183.9,0.0 183.4,0.0 L170.2,0.0 Q169.2,0.0 168.9,1.0 L156.5,39.7 Q156.4,40.0 156.1,40.0 Q155.9,39.9 155.9,39.6 L156.0,1.2 Q156.0,0.7 155.6,0.3 Q155.3,0.0 154.8,0.0 L143.2,0.0 Q142.7,0.0 142.3,0.3 Q142.0,0.7 142.0,1.2 L142.0,68.8 Q142.0,69.3 142.3,69.6 Q142.7,70.0 143.2,70.0 L156.3,70.0 Q157.3,70.0 157.6,69.0 L170.1,30.3 Q170.2,30.0 170.4,30.0 Q170.7,30.1 170.7,30.4 L170.6,68.8 Z M250.0,59.1 Q250.0,58.6 249.6,58.2 Q249.3,57.9 248.8,57.9 L228.0,57.9 Q227.5,57.9 227.5,57.4 L227.5,41.6 Q227.5,41.1 228.0,41.1 L239.9,41.1 Q240.4,41.1 240.7,40.8 Q241.1,40.4 241.1,39.9 L241.1,30.2 Q241.1,29.7 240.7,29.3 Q240.4,29.0 239.9,29.0 L228.0,29.0 Q227.5,29.0 227.5,28.5 L227.5,1.2 Q227.5,0.7 227.1,0.3 Q226.8,0.0 226.3,0.0 L214.6,0.0 Q214.1,0.0 213.7,0.3 Q213.4,0.7 213.4,1.2 L213.4,68.8 Q213.4,69.3 213.7,69.6 Q214.1,70.0 214.6,70.0 L248.8,70.0 Q249.3,70.0 249.6,69.6 Q250.0,69.3 250.0,68.8 L250.0,59.1 Z M284.9,0.0 Q283.7,0.0 283.6,1.1 L282.0,10.7 Q282.0,11.2 281.4,11.2 L268.7,11.2 Q268.1,11.2 268.1,10.7 L266.5,1.1 Q266.4,0.0 265.2,0.0 L253.5,0.0 Q252.2,0.0 252.5,1.3 L267.2,68.9 Q267.4,70.0 268.5,70.0 L282.0,70.0 Q283.1,70.0 283.3,68.9 L297.9,1.3 L298.0,0.9 Q298.0,0.0 296.9,0.0 L284.9,0.0 Z M270.1,22.6 Q270.1,22.1 270.5,22.1 L279.5,22.1 Q280.0,22.1 279.9,22.6 L275.2,49.9 Q275.1,50.2 274.9,50.2 Q274.7,50.2 274.6,49.9 L270.1,22.6 Z M331.3,0.0 Q330.2,0.0 329.9,1.0 L322.2,28.6 Q322.0,29.0 321.7,29.0 L318.3,29.0 Q317.8,29.0 317.8,28.5 L317.8,1.2 Q317.8,0.7 317.4,0.3 Q317.1,0.0 316.6,0.0 L304.9,0.0 Q304.4,0.0 304.0,0.3 Q303.7,0.7 303.7,1.2 L303.7,68.8 Q303.7,69.3 304.0,69.6 Q304.4,70.0 304.9,70.0 L325.1,70.0 Q330.6,70.0 334.9,67.3 Q339.2,64.7 341.5,59.9 Q343.9,55.1 343.9,48.9 Q343.9,43.0 341.6,38.5 Q339.4,34.0 335.4,31.5 Q335.2,31.4 335.1,31.2 Q335.0,31.1 335.1,30.9 L344.3,1.4 L344.4,1.0 Q344.4,0.0 343.3,0.0 L331.3,0.0 Z M318.3,57.9 Q317.8,57.9 317.8,57.4 L317.8,40.3 Q317.8,39.8 318.3,39.8 L322.8,39.8 Q325.9,39.8 327.8,42.2 Q329.8,44.7 329.8,48.8 Q329.8,53.0 327.8,55.5 Q325.9,57.9 322.8,57.9 L318.3,57.9 Z M382.8,69.2 Q383.2,70.0 384.3,70.0 L395.9,70.0 Q396.4,70.0 396.7,69.6 Q397.1,69.3 397.1,68.8 L397.1,1.2 Q397.1,0.7 396.7,0.3 Q396.4,0.0 395.9,0.0 L384.2,0.0 Q383.7,0.0 383.3,0.3 Q383.0,0.7 383.0,1.2 L383.0,46.1 Q383.0,46.5 382.8,46.5 Q382.6,46.5 382.4,46.2 L374.6,32.4 Q374.1,31.6 373.8,31.6 Q373.5,31.6 373.0,32.4 L365.2,46.2 Q365.0,46.5 364.8,46.5 Q364.6,46.5 364.6,46.1 L364.6,1.2 Q364.6,0.7 364.2,0.3 Q363.9,0.0 363.4,0.0 L351.7,0.0 Q351.2,0.0 350.8,0.3 Q350.5,0.7 350.5,1.2 L350.5,68.8 Q350.5,69.3 350.8,69.6 Q351.2,70.0 351.7,70.0 L363.2,70.0 Q364.2,70.0 364.7,69.2 L373.6,53.3 Q373.9,52.9 374.2,53.3 L382.8,69.2 Z" fill="#ffffff"/></g></g></svg>