<svg xmlns="http://www.w3.org/2000/svg" xmlns:xlink="http://www.w3.org/1999/xlink" viewBox="0 0 600 480" width="600" height="480"><defs><clipPath id="cc"><rect x="0" y="0" width="600" height="480" rx="24"/></clipPath></defs><g clip-path="url(#cc)"><rect width="600" height="480" fill="#2f97ab"/><rect x="60" y="56" width="480" height="262" rx="18" fill="#ffffff"/><svg x="96" y="86" width="408" height="202" viewBox="0 0 2046.44 493.06" preserveAspectRatio="xMidYMid meet" overflow="visible">
  <defs>
    <style>
      .cls-1 {
        fill: #231f20;
      }
    </style>
  </defs>
  <g id="Layer_1-2" data-name="Layer 1">
    <g>
      <path class="cls-1" d="M253.61,8.77H0v475.52h190.21v-190.21h63.4c78.79,0,142.66-63.87,142.66-142.66h0c0-78.79-63.87-142.66-142.66-142.66ZM206.06,198.98c-26.26,0-47.55-21.29-47.55-47.55s21.29-47.55,47.55-47.55,47.55,21.29,47.55,47.55-21.29,47.55-47.55,47.55Z"/>
      <polygon class="cls-1" points="618.18 8.77 427.97 8.77 427.97 484.29 570.63 484.29 618.18 484.29 713.28 484.29 713.28 357.49 618.18 357.49 618.18 8.77"/>
      <path class="cls-1" d="M903.49,8.77l-23.78,71.33-134.73,404.19h126.81l31.7-95.1h79.25l31.7,95.1h206.05L1062.01,8.77h-158.52ZM935.19,246.53c0-26.26,21.29-47.55,47.55-47.55s47.55,21.29,47.55,47.55-21.29,47.55-47.55,47.55-47.55-21.29-47.55-47.55Z"/>
      <polygon class="cls-1" points="1268.06 8.77 1188.81 8.77 1188.81 135.58 1268.06 135.58 1268.06 484.29 1458.27 484.29 1458.27 135.58 1537.52 135.58 1537.52 8.77 1458.27 8.77 1268.06 8.77"/>
      <path class="cls-1" d="M1799.9,0c-136.16,0-246.53,110.38-246.53,246.53s110.38,246.53,246.53,246.53,246.53-110.38,246.53-246.53S1936.06,0,1799.9,0ZM1799.9,316.72c-38.76,0-70.19-31.42-70.19-70.19s31.42-70.19,70.19-70.19,70.19,31.42,70.19,70.19-31.42,70.19-70.19,70.19Z"/>
    </g>
  </g>
</svg><g transform="translate(300.0,406.0) scale(0.4330,-0.4330) translate(-114.0,-35.0)"><path d="M25.7,70.1 Q31.2,70.1 35.5,67.4 Q39.8,64.7 42.1,59.8 Q44.5,55.0 44.5,48.8 Q44.5,39.5 39.5,33.9 Q34.5,28.3 26.4,28.3 L18.9,28.3 Q18.4,28.3 18.4,27.8 L18.4,1.2 Q18.4,0.7 18.0,0.3 Q17.7,0.0 17.2,0.0 L5.5,0.0 Q5.0,0.0 4.6,0.3 Q4.3,0.7 4.3,1.2 L4.3,68.9 Q4.3,69.4 4.6,69.8 Q5.0,70.1 5.5,70.1 L25.7,70.1 Z M23.3,39.3 Q26.5,39.3 28.5,41.8 Q30.4,44.2 30.4,48.5 Q30.4,52.9 28.5,55.4 Q26.5,57.9 23.3,57.9 L18.9,57.9 Q18.4,57.9 18.4,57.4 L18.4,39.8 Q18.4,39.3 18.9,39.3 L23.3,39.3 Z M52.1,0.0 Q51.6,0.0 51.2,0.3 Q50.9,0.7 50.9,1.2 L50.9,68.8 Q50.9,69.3 51.2,69.6 Q51.6,70.0 52.1,70.0 L63.8,70.0 Q64.3,70.0 64.6,69.6 Q65.0,69.3 65.0,68.8 L65.0,12.6 Q65.0,12.1 65.5,12.1 L86.5,12.1 Q87.0,12.1 87.3,11.8 Q87.7,11.4 87.7,10.9 L87.7,1.2 Q87.7,0.7 87.3,0.3 Q87.0,0.0 86.5,0.0 L52.1,0.0 Z M122.9,0.0 Q121.7,0.0 121.6,1.1 L120.0,10.7 Q120.0,11.2 119.4,11.2 L106.7,11.2 Q106.1,11.2 106.1,10.7 L104.5,1.1 Q104.4,0.0 103.2,0.0 L91.5,0.0 Q90.2,0.0 90.5,1.3 L105.2,68.9 Q105.4,70.0 106.5,70.0 L120.0,70.0 Q121.1,70.0 121.3,68.9 L135.9,1.3 L136.0,0.9 Q136.0,0.0 134.9,0.0 L122.9,0.0 Z M108.1,22.6 Q108.1,22.1 108.5,22.1 L117.5,22.1 Q118.0,22.1 117.9,22.6 L113.2,49.9 Q113.1,50.2 112.9,50.2 Q112.7,50.2 112.6,49.9 L108.1,22.6 Z M180.5,70.0 Q181.0,70.0 181.3,69.6 Q181.7,69.3 181.7,68.8 L181.7,59.1 Q181.7,58.6 181.3,58.2 Q181.0,57.9 180.5,57.9 L168.0,57.9 Q167.5,57.9 167.5,57.4 L167.5,1.2 Q167.5,0.7 167.1,0.3 Q166.8,0.0 166.3,0.0 L154.6,0.0 Q154.1,0.0 153.7,0.3 Q153.4,0.7 153.4,1.2 L153.4,57.4 Q153.4,57.9 152.9,57.9 L140.9,57.9 Q140.4,57.9 140.0,58.2 Q139.7,58.6 139.7,59.1 L139.7,68.8 Q139.7,69.3 140.0,69.6 Q140.4,70.0 140.9,70.0 L180.5,70.0 Z M207.7,-0.8 Q198.5,-0.8 193.0,4.6 Q187.5,10.0 187.5,19.0 L187.5,51.0 Q187.5,60.0 193.0,65.4 Q198.5,70.8 207.7,70.8 Q216.9,70.8 222.4,65.4 Q228.0,60.0 228.0,51.0 L228.0,19.0 Q228.0,10.0 222.4,4.6 Q216.9,-0.8 207.7,-0.8 Z M207.7,11.3 Q210.5,11.3 212.2,13.2 Q213.9,15.2 213.9,18.4 L213.9,51.6 Q213.9,54.8 212.2,56.8 Q210.5,58.7 207.7,58.7 Q204.9,58.7 203.2,56.8 Q201.6,54.8 201.6,51.6 L201.6,18.4 Q201.6,15.2 203.2,13.2 Q204.9,11.3 207.7,11.3 Z" fill="#ffffff"/></g></g></svg>