<svg xmlns="http://www.w3.org/2000/svg" xmlns:xlink="http://www.w3.org/1999/xlink" viewBox="0 0 600 480" width="600" height="480"><defs><clipPath id="cc"><rect x="0" y="0" width="600" height="480" rx="24"/></clipPath></defs><g clip-path="url(#cc)"><rect width="600" height="480" fill="#0e162d"/><g transform="translate(300.0,240.0) scale(1.1663,-1.1663) translate(-208.3,-35.0)"><path d="M45.2,70.0 Q45.7,70.0 46.0,69.6 Q46.4,69.3 46.4,68.8 L46.4,57.0 Q46.4,56.5 46.0,56.1 Q45.7,55.8 45.2,55.8 L32.8,55.8 Q32.3,55.8 32.3,55.3 L32.3,1.2 Q32.3,0.7 31.9,0.3 Q31.6,0.0 31.1,0.0 L16.9,0.0 Q16.4,0.0 16.0,0.3 Q15.7,0.7 15.7,1.2 L15.7,55.3 Q15.7,55.8 15.2,55.8 L3.3,55.8 Q2.8,55.8 2.4,56.1 Q2.1,56.5 2.1,57.0 L2.1,68.8 Q2.1,69.3 2.4,69.6 Q2.8,70.0 3.3,70.0 L45.2,70.0 Z M82.3,0.0 Q81.1,0.0 81.0,1.1 L79.7,9.8 Q79.7,10.3 79.1,10.3 L68.3,10.3 Q67.7,10.3 67.7,9.8 L66.5,1.1 Q66.4,0.0 65.2,0.0 L51.0,0.0 Q49.7,0.0 50.0,1.3 L64.5,68.9 Q64.7,70.0 65.8,70.0 L82.1,70.0 Q83.2,70.0 83.4,68.9 L97.8,1.3 L97.9,0.9 Q97.9,0.0 96.8,0.0 L82.3,0.0 Z M69.9,23.6 Q69.9,23.1 70.3,23.1 L77.0,23.1 Q77.4,23.1 77.4,23.6 L73.8,46.4 Q73.7,46.8 73.5,46.8 Q73.3,46.8 73.2,46.4 L69.9,23.6 Z M104.0,0.0 Q103.5,0.0 103.1,0.3 Q102.8,0.7 102.8,1.2 L102.8,68.8 Q102.8,69.3 103.1,69.6 Q103.5,70.0 104.0,70.0 L118.2,70.0 Q118.7,70.0 119.0,69.6 Q119.4,69.3 119.4,68.8 L119.4,14.7 Q119.4,14.2 119.9,14.2 L140.3,14.2 Q140.8,14.2 141.1,13.8 Q141.5,13.5 141.5,13.0 L141.5,1.2 Q141.5,0.7 141.1,0.3 Q140.8,0.0 140.3,0.0 L104.0,0.0 Z M147.7,0.0 Q147.2,0.0 146.8,0.3 Q146.5,0.7 146.5,1.2 L146.5,68.8 Q146.5,69.3 146.8,69.6 Q147.2,70.0 147.7,70.0 L161.9,70.0 Q162.4,70.0 162.7,69.6 Q163.1,69.3 163.1,68.8 L163.1,14.7 Q163.1,14.2 163.6,14.2 L184.0,14.2 Q184.5,14.2 184.8,13.8 Q185.2,13.5 185.2,13.0 L185.2,1.2 Q185.2,0.7 184.8,0.3 Q184.5,0.0 184.0,0.0 L147.7,0.0 Z M251.9,70.0 Q252.4,70.0 252.7,69.6 Q253.1,69.3 253.1,68.8 L253.1,57.0 Q253.1,56.5 252.7,56.1 Q252.4,55.8 251.9,55.8 L239.5,55.8 Q239.0,55.8 239.0,55.3 L239.0,1.2 Q239.0,0.7 238.6,0.3 Q238.3,0.0 237.8,0.0 L223.6,0.0 Q223.1,0.0 222.7,0.3 Q222.4,0.7 222.4,1.2 L222.4,55.3 Q222.4,55.8 221.9,55.8 L210.0,55.8 Q209.5,55.8 209.1,56.1 Q208.8,56.5 208.8,57.0 L208.8,68.8 Q208.8,69.3 209.1,69.6 Q209.5,70.0 210.0,70.0 L251.9,70.0 Z M289.0,0.0 Q287.8,0.0 287.7,1.1 L286.4,9.8 Q286.4,10.3 285.8,10.3 L275.0,10.3 Q274.4,10.3 274.4,9.8 L273.2,1.1 Q273.1,0.0 271.9,0.0 L257.7,0.0 Q256.4,0.0 256.7,1.3 L271.2,68.9 Q271.4,70.0 272.5,70.0 L288.8,70.0 Q289.9,70.0 290.1,68.9 L304.5,1.3 L304.6,0.9 Q304.6,0.0 303.5,0.0 L289.0,0.0 Z M276.6,23.6 Q276.6,23.1 277.0,23.1 L283.7,23.1 Q284.1,23.1 284.1,23.6 L280.5,46.4 Q280.4,46.8 280.2,46.8 Q280.0,46.8 279.9,46.4 L276.6,23.6 Z M310.7,0.0 Q310.2,0.0 309.8,0.3 Q309.5,0.7 309.5,1.2 L309.5,68.8 Q309.5,69.3 309.8,69.6 Q310.2,70.0 310.7,70.0 L324.9,70.0 Q325.4,70.0 325.7,69.6 Q326.1,69.3 326.1,68.8 L326.1,1.2 Q326.1,0.7 325.7,0.3 Q325.4,0.0 324.9,0.0 L310.7,0.0 Z M334.2,0.0 Q333.7,0.0 333.3,0.3 Q333.0,0.7 333.0,1.2 L333.0,68.8 Q333.0,69.3 333.3,69.6 Q333.7,70.0 334.2,70.0 L348.4,70.0 Q348.9,70.0 349.2,69.6 Q349.6,69.3 349.6,68.8 L349.6,14.7 Q349.6,14.2 350.1,14.2 L370.5,14.2 Q371.0,14.2 371.3,13.8 Q371.7,13.5 371.7,13.0 L371.7,1.2 Q371.7,0.7 371.3,0.3 Q371.0,0.0 370.5,0.0 L334.2,0.0 Z M396.2,-0.8 Q390.1,-0.8 385.5,1.5 Q380.9,3.9 378.3,8.2 Q375.8,12.4 375.8,17.8 L375.8,20.9 Q375.8,21.4 376.1,21.8 Q376.5,22.1 377.0,22.1 L391.0,22.1 Q391.5,22.1 391.8,21.8 Q392.2,21.4 392.2,20.9 L392.2,18.6 Q392.2,16.2 393.3,14.8 Q394.5,13.4 396.3,13.4 Q398.1,13.4 399.2,14.8 Q400.4,16.1 400.4,18.2 Q400.4,20.5 398.6,22.3 Q396.8,24.2 391.4,28.1 Q386.4,31.7 383.2,34.5 Q380.0,37.4 377.7,41.7 Q375.4,45.9 375.4,51.5 Q375.4,57.2 377.9,61.6 Q380.5,66.0 385.1,68.4 Q389.8,70.8 395.8,70.8 Q401.9,70.8 406.5,68.3 Q411.2,65.9 413.7,61.5 Q416.3,57.0 416.3,51.2 L416.3,48.8 Q416.3,48.3 415.9,47.9 Q415.6,47.6 415.1,47.6 L401.2,47.6 Q400.7,47.6 400.3,47.9 Q400.0,48.3 400.0,48.8 L400.0,51.6 Q400.0,53.8 398.8,55.2 Q397.6,56.6 395.8,56.6 Q394.0,56.6 392.9,55.2 Q391.8,53.8 391.8,51.5 Q391.8,49.0 393.5,47.0 Q395.2,45.0 400.4,41.2 Q406.7,36.5 409.9,33.6 Q413.1,30.7 414.9,27.1 Q416.7,23.6 416.7,18.8 Q416.7,9.8 411.0,4.5 Q405.4,-0.8 396.2,-0.8 Z" fill="#ffffff"/></g></g></svg>