<svg xmlns="http://www.w3.org/2000/svg" xmlns:xlink="http://www.w3.org/1999/xlink" viewBox="0 0 600 480" width="600" height="480"><defs><clipPath id="cc"><rect x="0" y="0" width="600" height="480" rx="24"/></clipPath></defs><g clip-path="url(#cc)"><rect width="600" height="480" fill="#121d27"/><svg x="120" y="86" width="360" height="210" viewBox="0 0 245 49" preserveAspectRatio="xMidYMid meet" overflow="visible">
  <g id="Group 106" filter="url(#filter0_d_5232_15236)">
    <g id="Group">
      <path id="Vector" d="M28.669 14.7588C29.1764 14.7588 29.903 14.8122 30.122 15.1915C30.3624 15.5975 30.7737 17.6915 30.7737 18.1776C30.7737 19.1018 30.2662 19.6734 29.5397 19.6734C28.1081 19.6734 28.4232 17.2001 26.1689 17.2001C25.5119 17.2001 25.2982 17.4458 25.2982 18.3646V31.3135C25.2982 32.7771 26.5803 32.1308 26.5803 33.541C26.5803 34.2195 26.2651 34.6255 25.0311 34.6255H19.7479C18.5139 34.6255 18.1988 34.2195 18.1988 33.541C18.1988 32.1308 19.4808 32.7825 19.4808 31.3135V18.3699C19.4808 17.4458 19.2618 17.2054 18.6101 17.2054C16.3558 17.2054 16.671 19.6787 15.2393 19.6787C14.5128 19.6787 14 19.1071 14 18.183C14 17.6915 14.4113 15.6028 14.6571 15.1968C14.8761 14.8176 15.6026 14.7641 16.1101 14.7641H28.669V14.7588Z" fill="white"></path>
      <path id="Vector_2" d="M42.4183 31.1584C42.4183 32.8411 43.6523 32.4084 43.6523 33.6317C43.6523 34.3635 43.2143 34.636 42.4397 34.636H38.8285C37.7388 34.636 37.445 34.4437 37.2527 33.2257C36.4781 34.5558 34.9503 34.9084 33.6415 34.9084C30.5646 34.9084 29.1543 32.6808 29.1543 30.6188C29.1543 27.7983 31.2857 25.95 36.9589 25.95C36.9108 23.8346 36.5208 23.3431 35.5272 23.3431C34.1437 23.3431 34.1437 25.3784 32.1832 25.3784C30.8477 25.3784 30.1479 24.7 30.1479 23.7758C30.1479 22.1999 31.9642 21.1689 36.0881 21.1689C39.4322 21.1689 42.4183 22.0931 42.4183 26.3827V31.1637V31.1584ZM35.5593 32.1894C36.7238 32.1894 37.0871 30.2876 37.0871 27.9532C35.586 27.9532 34.4909 28.9041 34.4909 30.6402C34.4909 31.5911 34.9289 32.1894 35.5593 32.1894Z" fill="white"></path>
      <path id="Vector_3" d="M49.8392 34.9089C46.2013 34.9089 44.166 33.2796 44.166 31.677C44.166 30.8917 44.7002 30.208 45.4267 30.208C46.9064 30.208 46.9545 32.5691 49.0165 32.5691C49.8392 32.5691 50.7633 32.1898 50.7633 31.3458C50.7633 29.1983 44.5079 30.9665 44.5079 26.2122C44.5079 23.1726 47.1735 21.1641 50.8381 21.1641C52.1202 21.1641 53.9418 21.5968 54.9354 22.0615C55.7099 22.4141 55.9023 22.959 55.9023 24.4494C55.9023 25.1545 55.6832 25.8596 54.9354 25.8596C53.5785 25.8596 53.9151 23.3329 51.6875 23.3329C50.6672 23.3329 50.0849 23.7656 50.0849 24.5295C50.0849 26.6769 56.3403 25.0156 56.3403 29.9622C56.3403 32.7881 53.915 34.9035 49.8392 34.9035V34.9089Z" fill="white"></path>
      <path id="Vector_4" d="M63.9961 21.4413H65.0858C66.3465 21.4413 66.8327 21.7939 66.8327 22.7448C66.8327 23.6956 66.3465 24.0482 65.0858 24.0482H64.1403V30.2128C64.1403 31.8154 64.4555 32.0344 65.4224 32.0344C66.8273 32.0344 67.0463 32.6327 67.0463 33.2844C67.0463 34.1498 66.3893 34.6413 64.9363 34.6413H61.2503C59.4554 34.6413 58.8037 33.9361 58.8037 32.0077V24.0535H58.5847C57.324 24.0535 56.8379 23.8078 56.8379 22.8569C56.8379 22.1518 57.2973 21.7725 57.9544 21.6069C61.9768 20.6828 59.1189 17.0449 62.2439 17.0449C63.8198 17.0449 63.9907 17.2105 63.9907 18.5941V21.4467L63.9961 21.4413Z" fill="white"></path>
      <path id="Vector_5" d="M75.3406 21.1689C79.0479 21.1689 80.987 23.2844 80.987 25.1594C80.987 28.3912 77.3011 29.2566 73.3748 30.0205C73.7166 31.324 74.6835 32.355 76.0404 32.355C78.2947 32.355 79.1921 30.1861 80.2124 30.1861C80.6986 30.1861 81.158 30.512 81.158 31.1103C81.158 32.9853 77.643 34.9138 74.7583 34.9138C71.1953 34.9138 67.6055 32.6327 67.6055 28.2363C67.6055 23.6209 71.6547 21.1796 75.3406 21.1796V21.1689ZM75.1697 23.5034C73.957 23.5034 73.1825 25.4051 73.1825 27.6861C74.5874 27.6327 76.0885 26.6551 76.0885 24.919C76.0885 24.294 75.8481 23.5087 75.1697 23.5087V23.5034Z" fill="white"></path>
      <path id="Vector_6" d="M105.577 28.0387C105.55 32.4885 101.672 34.9084 98.1087 34.9084C94.5456 34.9084 90.6673 32.4939 90.6406 28.0387C90.662 23.5835 94.5456 21.1689 98.1087 21.1689C101.672 21.1689 105.55 23.5835 105.577 28.0387ZM98.1087 32.574C99.3693 32.574 99.9997 31.0515 99.9997 28.0387C99.9997 25.0258 99.3693 23.5034 98.1087 23.5034C96.848 23.5034 96.2176 25.0205 96.2176 28.0387C96.2176 31.0569 96.848 32.574 98.1087 32.574Z" fill="white"></path>
      <path id="Vector_7" d="M113.258 31.3239C113.258 32.9532 114.492 32.3549 114.492 33.5782C114.492 34.3955 113.883 34.6359 112.937 34.6359H108.237C107.291 34.6359 106.687 34.3902 106.687 33.5782C106.687 32.3549 107.921 32.9532 107.921 31.3239V24.0482H107.537C106.639 24.0482 106.303 23.5888 106.303 22.7448C106.303 21.9007 106.645 21.4413 107.537 21.4413H107.921V20.4103C107.921 16.281 109.791 14 113.354 14C115.218 14 116.581 14.7586 116.581 16.2543C116.581 17.3387 115.854 18.1293 114.882 18.1293C113.91 18.1293 113.477 17.4509 113.279 17.2052C113.258 17.8569 113.156 18.3697 113.156 19.0535V21.4413H114.439C115.336 21.4413 115.678 21.9007 115.678 22.7448C115.678 23.5888 115.336 24.0482 114.439 24.0482H113.253V31.3239H113.258Z" fill="white"></path>
    </g>
    <path id="Vector_8" d="M131.175 21.8639H132.233C133.456 21.8639 133.921 22.2058 133.921 23.1246C133.921 24.0435 133.451 24.3853 132.233 24.3853H131.314V30.3523C131.314 31.9014 131.618 32.1151 132.559 32.1151C133.921 32.1151 134.135 32.692 134.135 33.3224C134.135 34.1664 133.499 34.6365 132.094 34.6365H128.526C126.789 34.6365 126.154 33.9527 126.154 32.0884V24.3853H125.94C124.722 24.3853 124.252 24.1503 124.252 23.2261C124.252 22.5424 124.695 22.1738 125.331 22.0189C129.231 21.1268 126.458 17.6011 129.487 17.6011C131.015 17.6011 131.175 17.756 131.175 19.0968V21.8586V21.8639Z" fill="white"></path>
    <path id="Vector_9" d="M140.636 22.6546C141.598 22.0242 142.752 21.6022 143.804 21.6022C146.902 21.6022 148.334 23.6535 148.334 26.9388V31.5917C148.334 32.9859 149.226 32.5639 149.226 33.6163C149.226 34.065 148.804 34.6419 148.003 34.6419H143.494C142.698 34.6419 142.271 34.065 142.271 33.6163C142.271 32.5639 143.163 32.9859 143.163 31.5917V26.4367C143.163 25.2294 142.81 24.2785 141.897 24.2785C140.983 24.2785 140.631 25.2241 140.631 26.4367V31.5917C140.631 32.9859 141.523 32.5639 141.523 33.6163C141.523 34.065 141.101 34.6419 140.3 34.6419H135.791C134.99 34.6419 134.568 34.065 134.568 33.6163C134.568 32.5639 135.46 32.9859 135.46 31.5917V18.7657C135.46 17.2913 134.098 17.8736 134.098 16.6609C134.098 15.9772 134.45 15.6086 135.364 15.5017C136.512 15.3682 138.98 14.6577 139.45 14.6577C140.155 14.6577 140.625 15.1866 140.625 17.0776V22.6493L140.636 22.6546Z" fill="white"></path>
    <path id="Vector_10" d="M157.419 21.6025C161.009 21.6025 162.889 23.6538 162.889 25.4701C162.889 28.6004 159.321 29.4391 155.517 30.1763C155.849 31.437 156.783 32.436 158.098 32.436C160.282 32.436 161.148 30.3312 162.136 30.3312C162.606 30.3312 163.049 30.6464 163.049 31.2233C163.049 33.0396 159.647 34.9039 156.853 34.9039C153.402 34.9039 149.93 32.6977 149.93 28.4348C149.93 23.9636 153.851 21.5972 157.419 21.5972V21.6025ZM157.253 23.8621C156.078 23.8621 155.33 25.7051 155.33 27.9113C156.693 27.8579 158.146 26.9124 158.146 25.2297C158.146 24.626 157.911 23.8621 157.253 23.8621Z" fill="white"></path>
    <path id="Vector_11" d="M187.356 15.3999C188.344 15.3999 188.579 15.8219 188.579 16.5057C188.579 17.5313 187.431 17.136 187.431 18.2952C187.431 21.5271 189.381 26.8637 190.225 29.3904C191.282 26.5752 192.57 22.2108 192.57 19.1873C192.57 17.1627 190.973 17.7396 190.973 16.4255C190.973 15.8219 191.443 15.3999 192.239 15.3999H195.385C196.138 15.3999 196.416 15.715 196.416 16.3721C196.416 17.3443 195.385 17.1627 195.054 19.0003C194.279 23.338 192.703 31.2761 191.154 33.4877C190.38 34.5935 190.166 34.6415 188.478 34.6415C185.898 34.6415 185.711 33.8509 183.569 26.3882H183.521C181.619 34.0646 181.384 34.6415 178.707 34.6415C176.736 34.6415 176.688 34.5347 175.844 32.5368C175.139 30.8274 173.777 26.4363 172.58 18.8134C172.324 17.1841 171.453 17.6328 171.453 16.4469C171.453 15.6082 171.993 15.3945 173.024 15.3945H177.858C179.033 15.3945 179.338 15.87 179.338 16.527C179.338 17.526 178.259 17.1574 178.259 18.2899C178.259 22.0506 179.525 25.7045 180.534 29.2248H180.582C181.288 26.7515 182.062 23.8615 182.062 20.7578C182.062 16.6285 180.631 17.6542 180.631 16.3935C180.631 15.7097 180.962 15.3945 182.132 15.3945H187.345L187.356 15.3999Z" fill="white"></path>
    <path id="Vector_12" d="M197.335 25.7045C197.335 24.2301 195.973 24.8124 195.973 23.5998C195.973 22.916 196.678 22.4673 197.591 22.3658C198.74 22.2322 200.855 21.6019 201.325 21.6019C202.03 21.6019 202.501 22.1307 202.501 24.0218V31.5913C202.501 32.9856 203.393 32.5636 203.393 33.6159C203.393 34.0646 202.971 34.6416 202.175 34.6416H197.666C196.87 34.6416 196.443 34.0646 196.443 33.6159C196.443 32.5636 197.335 32.9856 197.335 31.5913V25.7045ZM196.651 17.9213C196.651 16.6072 197.757 15.3999 199.584 15.3999C201.411 15.3999 202.517 16.6072 202.517 17.9213C202.517 19.2354 201.411 20.4427 199.584 20.4427C197.757 20.4427 196.651 19.2354 196.651 17.9213Z" fill="white"></path>
    <path id="Vector_13" d="M205.386 18.7652C205.386 17.2908 204.023 17.8731 204.023 16.6605C204.023 15.9767 204.729 15.528 205.642 15.4265C206.791 15.2929 208.906 14.6626 209.376 14.6626C210.081 14.6626 210.551 15.1914 210.551 17.0825V31.5965C210.551 32.9908 211.769 32.5688 211.769 33.6211C211.769 34.0699 211.347 34.6468 210.551 34.6468H205.386C204.59 34.6468 204.168 34.0699 204.168 33.6211C204.168 32.5688 205.386 32.9908 205.386 31.5965V18.7652Z" fill="white"></path>
    <path id="Vector_14" d="M221.043 19.027C221.043 16.794 219.707 17.8678 219.707 16.6338C219.707 16.0836 220.177 15.7684 221.283 15.3464C221.962 15.0846 223.586 14.6626 224.499 14.6626C225.626 14.6626 226.214 15.3464 226.214 16.137V30.9395C226.214 33.5944 227.458 32.307 227.458 33.6746C227.458 34.3316 227.175 34.6468 225.979 34.6468H222.88C221.775 34.6468 221.684 34.3049 221.401 33.2258C220.605 34.4865 219.333 34.9085 217.971 34.9085C214.638 34.9085 212.148 32.2002 212.148 28.4395C212.148 24.2834 215.247 21.6018 218.863 21.6018C219.755 21.6018 220.247 21.9169 221.048 22.3924V19.027H221.043ZM221.091 26.8315C221.091 24.652 220.364 23.8614 219.494 23.8614C218.58 23.8614 217.544 24.8069 217.544 28.1189C217.544 31.4309 218.575 32.3765 219.494 32.3765C220.364 32.3765 221.091 31.5859 221.091 29.4063V26.8315Z" fill="white"></path>
    <path id="Vector_15" d="M231.001 17.1415C231.001 18.258 230.194 19.1234 229.019 19.1234C227.844 19.1234 227.037 18.258 227.037 17.1415C227.037 16.0251 227.838 15.1597 229.019 15.1597C230.2 15.1597 231.001 16.0251 231.001 17.1415ZM229.019 15.555C228.159 15.5443 227.555 16.2441 227.555 17.1469C227.555 18.0497 228.159 18.7334 229.019 18.7334C229.879 18.7334 230.483 18.0443 230.483 17.1469C230.483 16.2494 229.879 15.5496 229.019 15.555ZM228.084 16.0144H229.227C229.575 16.0144 229.842 16.1907 229.842 16.5913C229.842 16.8317 229.692 17.0721 229.414 17.1576L229.729 17.6223C229.842 17.7879 229.964 17.9428 230.066 18.0764V18.1565H229.516C229.356 18.1565 229.174 17.5956 228.955 17.2323H228.864V17.8306C228.864 17.9962 228.885 18.039 229.083 18.0443V18.1565H228.084V18.0443C228.282 18.0443 228.303 17.9962 228.303 17.8306V16.3723C228.303 16.212 228.282 16.164 228.084 16.1533V16.0197V16.0144ZM228.864 17.0561H228.987C229.163 17.0561 229.281 16.9278 229.281 16.618C229.281 16.3082 229.19 16.212 229.008 16.212H228.864V17.0561Z" fill="white"></path>
  </g>
  <defs>
    <filter id="filter0_d_5232_15236" x="0" y="0" width="245" height="48.9136" filterUnits="userSpaceOnUse" color-interpolation-filters="sRGB">
      <feFlood flood-opacity="0" result="BackgroundImageFix"></feFlood>
      <feColorMatrix in="SourceAlpha" type="matrix" values="0 0 0 0 0 0 0 0 0 0 0 0 0 0 0 0 0 0 127 0" result="hardAlpha"></feColorMatrix>
      <feOffset></feOffset>
      <feGaussianBlur stdDeviation="7"></feGaussianBlur>
      <feComposite in2="hardAlpha" operator="out"></feComposite>
      <feColorMatrix type="matrix" values="0 0 0 0 0 0 0 0 0 0 0 0 0 0 0 0 0 0 0.15 0"></feColorMatrix>
      <feBlend mode="normal" in2="BackgroundImageFix" result="effect1_dropShadow_5232_15236"></feBlend>
      <feBlend mode="normal" in="SourceGraphic" in2="effect1_dropShadow_5232_15236" result="shape"></feBlend>
    </filter>
  </defs>
</svg><g transform="translate(300.0,406.0) scale(0.4330,-0.4330) translate(-348.1,-35.0)"><path d="M43.2,70.0 Q43.7,70.0 44.0,69.6 Q44.4,69.3 44.4,68.8 L44.4,59.1 Q44.4,58.6 44.0,58.2 Q43.7,57.9 43.2,57.9 L30.7,57.9 Q30.2,57.9 30.2,57.4 L30.2,1.2 Q30.2,0.7 29.8,0.3 Q29.5,0.0 29.0,0.0 L17.3,0.0 Q16.8,0.0 16.4,0.3 Q16.1,0.7 16.1,1.2 L16.1,57.4 Q16.1,57.9 15.6,57.9 L3.6,57.9 Q3.1,57.9 2.8,58.2 Q2.4,58.6 2.4,59.1 L2.4,68.8 Q2.4,69.3 2.8,69.6 Q3.1,70.0 3.6,70.0 L43.2,70.0 Z M80.6,0.0 Q79.4,0.0 79.3,1.1 L77.7,10.7 Q77.7,11.2 77.1,11.2 L64.4,11.2 Q63.8,11.2 63.8,10.7 L62.2,1.1 Q62.1,0.0 60.9,0.0 L49.2,0.0 Q47.9,0.0 48.2,1.3 L62.9,68.9 Q63.1,70.0 64.2,70.0 L77.7,70.0 Q78.8,70.0 79.0,68.9 L93.6,1.3 L93.7,0.9 Q93.7,0.0 92.6,0.0 L80.6,0.0 Z M65.8,22.6 Q65.8,22.1 66.2,22.1 L75.2,22.1 Q75.7,22.1 75.6,22.6 L70.9,49.9 Q70.8,50.2 70.6,50.2 Q70.4,50.2 70.3,49.9 L65.8,22.6 Z M117.4,-0.8 Q111.6,-0.8 107.2,1.5 Q102.8,3.8 100.4,7.9 Q98.0,12.1 98.0,17.5 L98.0,20.4 Q98.0,20.9 98.3,21.2 Q98.7,21.6 99.2,21.6 L110.7,21.6 Q111.2,21.6 111.5,21.2 Q111.9,20.9 111.9,20.4 L111.9,18.2 Q111.9,15.1 113.5,13.2 Q115.1,11.3 117.5,11.3 Q119.9,11.3 121.5,13.1 Q123.1,14.9 123.1,17.8 Q123.1,20.8 121.1,22.9 Q119.1,25.1 113.3,29.3 Q108.3,32.9 105.2,35.7 Q102.1,38.5 99.9,42.6 Q97.7,46.7 97.7,52.1 Q97.7,60.6 103.0,65.7 Q108.3,70.8 117.0,70.8 Q125.8,70.8 131.1,65.5 Q136.5,60.2 136.5,51.6 L136.5,49.2 Q136.5,48.7 136.1,48.3 Q135.8,48.0 135.3,48.0 L123.8,48.0 Q123.3,48.0 122.9,48.3 Q122.6,48.7 122.6,49.2 L122.6,51.9 Q122.6,55.0 121.0,56.8 Q119.5,58.7 117.0,58.7 Q114.6,58.7 113.1,57.0 Q111.6,55.2 111.6,52.1 Q111.6,49.1 113.5,46.8 Q115.4,44.5 121.0,40.4 Q127.2,35.8 130.3,32.9 Q133.5,30.1 135.2,26.6 Q137.0,23.2 137.0,18.4 Q137.0,9.6 131.6,4.4 Q126.2,-0.8 117.4,-0.8 Z M182.6,70.0 Q183.1,70.0 183.4,69.6 Q183.8,69.3 183.8,68.8 L183.8,59.1 Q183.8,58.6 183.4,58.2 Q183.1,57.9 182.6,57.9 L170.1,57.9 Q169.6,57.9 169.6,57.4 L169.6,1.2 Q169.6,0.7 169.2,0.3 Q168.9,0.0 168.4,0.0 L156.7,0.0 Q156.2,0.0 155.8,0.3 Q155.5,0.7 155.5,1.2 L155.5,57.4 Q155.5,57.9 155.0,57.9 L143.0,57.9 Q142.5,57.9 142.1,58.2 Q141.8,58.6 141.8,59.1 L141.8,68.8 Q141.8,69.3 142.1,69.6 Q142.5,70.0 143.0,70.0 L182.6,70.0 Z M227.3,59.1 Q227.3,58.6 226.9,58.2 Q226.6,57.9 226.1,57.9 L205.2,57.9 Q204.7,57.9 204.7,57.4 L204.7,41.6 Q204.7,41.1 205.2,41.1 L217.2,41.1 Q217.7,41.1 218.0,40.8 Q218.4,40.4 218.4,39.9 L218.4,30.2 Q218.4,29.7 218.0,29.3 Q217.7,29.0 217.2,29.0 L205.2,29.0 Q204.7,29.0 204.7,28.5 L204.7,12.6 Q204.7,12.1 205.2,12.1 L226.1,12.1 Q226.6,12.1 226.9,11.8 Q227.3,11.4 227.3,10.9 L227.3,1.2 Q227.3,0.7 226.9,0.3 Q226.6,0.0 226.1,0.0 L191.8,0.0 Q191.3,0.0 190.9,0.3 Q190.6,0.7 190.6,1.2 L190.6,68.8 Q190.6,69.3 190.9,69.6 Q191.3,70.0 191.8,70.0 L226.1,70.0 Q226.6,70.0 226.9,69.6 Q227.3,69.3 227.3,68.8 L227.3,59.1 Z M273.6,-0.8 Q264.4,-0.8 258.9,4.6 Q253.4,10.0 253.4,19.0 L253.4,51.0 Q253.4,60.0 258.9,65.4 Q264.4,70.8 273.6,70.8 Q282.8,70.8 288.3,65.4 Q293.9,60.0 293.9,51.0 L293.9,19.0 Q293.9,10.0 288.3,4.6 Q282.8,-0.8 273.6,-0.8 Z M273.6,11.3 Q276.4,11.3 278.1,13.2 Q279.8,15.2 279.8,18.4 L279.8,51.6 Q279.8,54.8 278.1,56.8 Q276.4,58.7 273.6,58.7 Q270.8,58.7 269.1,56.8 Q267.5,54.8 267.5,51.6 L267.5,18.4 Q267.5,15.2 269.1,13.2 Q270.8,11.3 273.6,11.3 Z M338.3,59.1 Q338.3,58.6 337.9,58.2 Q337.6,57.9 337.1,57.9 L316.3,57.9 Q315.8,57.9 315.8,57.4 L315.8,41.6 Q315.8,41.1 316.3,41.1 L328.2,41.1 Q328.7,41.1 329.0,40.8 Q329.4,40.4 329.4,39.9 L329.4,30.2 Q329.4,29.7 329.0,29.3 Q328.7,29.0 328.2,29.0 L316.3,29.0 Q315.8,29.0 315.8,28.5 L315.8,1.2 Q315.8,0.7 315.4,0.3 Q315.1,0.0 314.6,0.0 L302.9,0.0 Q302.4,0.0 302.0,0.3 Q301.7,0.7 301.7,1.2 L301.7,68.8 Q301.7,69.3 302.0,69.6 Q302.4,70.0 302.9,70.0 L337.1,70.0 Q337.6,70.0 337.9,69.6 Q338.3,69.3 338.3,68.8 L338.3,59.1 Z M402.6,70.0 Q403.1,70.0 403.4,69.6 Q403.8,69.3 403.8,68.8 L403.8,59.1 Q403.8,58.6 403.4,58.2 Q403.1,57.9 402.6,57.9 L390.1,57.9 Q389.6,57.9 389.6,57.4 L389.6,1.2 Q389.6,0.7 389.2,0.3 Q388.9,0.0 388.4,0.0 L376.7,0.0 Q376.2,0.0 375.8,0.3 Q375.5,0.7 375.5,1.2 L375.5,57.4 Q375.5,57.9 375.0,57.9 L363.0,57.9 Q362.5,57.9 362.1,58.2 Q361.8,58.6 361.8,59.1 L361.8,68.8 Q361.8,69.3 362.1,69.6 Q362.5,70.0 363.0,70.0 L402.6,70.0 Z M435.7,68.8 Q435.7,69.3 436.0,69.6 Q436.4,70.0 436.9,70.0 L448.6,70.0 Q449.1,70.0 449.4,69.6 Q449.8,69.3 449.8,68.8 L449.8,1.2 Q449.8,0.7 449.4,0.3 Q449.1,0.0 448.6,0.0 L436.9,0.0 Q436.4,0.0 436.0,0.3 Q435.7,0.7 435.7,1.2 L435.7,28.5 Q435.7,29.0 435.2,29.0 L425.2,29.0 Q424.7,29.0 424.7,28.5 L424.7,1.2 Q424.7,0.7 424.3,0.3 Q424.0,0.0 423.5,0.0 L411.8,0.0 Q411.3,0.0 410.9,0.3 Q410.6,0.7 410.6,1.2 L410.6,68.8 Q410.6,69.3 410.9,69.6 Q411.3,70.0 411.8,70.0 L423.5,70.0 Q424.0,70.0 424.3,69.6 Q424.7,69.3 424.7,68.8 L424.7,41.6 Q424.7,41.1 425.2,41.1 L435.2,41.1 Q435.7,41.1 435.7,41.6 L435.7,68.8 Z M495.3,59.1 Q495.3,58.6 494.9,58.2 Q494.6,57.9 494.1,57.9 L473.2,57.9 Q472.7,57.9 472.7,57.4 L472.7,41.6 Q472.7,41.1 473.2,41.1 L485.2,41.1 Q485.7,41.1 486.0,40.8 Q486.4,40.4 486.4,39.9 L486.4,30.2 Q486.4,29.7 486.0,29.3 Q485.7,29.0 485.2,29.0 L473.2,29.0 Q472.7,29.0 472.7,28.5 L472.7,12.6 Q472.7,12.1 473.2,12.1 L494.1,12.1 Q494.6,12.1 494.9,11.8 Q495.3,11.4 495.3,10.9 L495.3,1.2 Q495.3,0.7 494.9,0.3 Q494.6,0.0 494.1,0.0 L459.8,0.0 Q459.3,0.0 458.9,0.3 Q458.6,0.7 458.6,1.2 L458.6,68.8 Q458.6,69.3 458.9,69.6 Q459.3,70.0 459.8,70.0 L494.1,70.0 Q494.6,70.0 494.9,69.6 Q495.3,69.3 495.3,68.8 L495.3,59.1 Z M534.9,0.0 Q533.8,0.0 533.6,1.1 L520.1,68.7 L520.0,69.1 Q520.0,70.0 521.1,70.0 L533.3,70.0 Q534.5,70.0 534.6,68.9 L540.3,32.9 Q540.4,32.5 540.6,32.5 Q540.8,32.5 540.9,32.9 L546.3,68.9 Q546.4,70.0 547.6,70.0 L557.7,70.0 Q558.9,70.0 559.0,68.9 L564.9,32.9 Q565.0,32.5 565.2,32.5 Q565.4,32.5 565.5,32.9 L570.6,68.9 Q570.7,70.0 571.9,70.0 L583.7,70.0 Q585.0,70.0 584.8,68.7 L572.1,1.1 Q572.0,0.0 570.8,0.0 L560.0,0.0 Q558.8,0.0 558.7,1.1 L552.8,38.1 Q552.7,38.5 552.5,38.5 Q552.3,38.5 552.2,38.1 L546.9,1.1 Q546.8,0.0 545.6,0.0 L534.9,0.0 Z M592.5,0.0 Q592.0,0.0 591.6,0.3 Q591.3,0.7 591.3,1.2 L591.3,68.8 Q591.3,69.3 591.6,69.6 Q592.0,70.0 592.5,70.0 L604.2,70.0 Q604.7,70.0 605.0,69.6 Q605.4,69.3 605.4,68.8 L605.4,1.2 Q605.4,0.7 605.0,0.3 Q604.7,0.0 604.2,0.0 L592.5,0.0 Z M615.5,0.0 Q615.0,0.0 614.6,0.3 Q614.3,0.7 614.3,1.2 L614.3,68.8 Q614.3,69.3 614.6,69.6 Q615.0,70.0 615.5,70.0 L627.2,70.0 Q627.7,70.0 628.0,69.6 Q628.4,69.3 628.4,68.8 L628.4,12.6 Q628.4,12.1 628.9,12.1 L649.9,12.1 Q650.4,12.1 650.7,11.8 Q651.1,11.4 651.1,10.9 L651.1,1.2 Q651.1,0.7 650.7,0.3 Q650.4,0.0 649.9,0.0 L615.5,0.0 Z M658.1,0.0 Q657.6,0.0 657.2,0.3 Q656.9,0.7 656.9,1.2 L656.9,68.8 Q656.9,69.3 657.2,69.6 Q657.6,70.0 658.1,70.0 L676.2,70.0 Q685.3,70.0 690.8,64.7 Q696.3,59.4 696.3,50.6 L696.3,19.4 Q696.3,10.6 690.8,5.3 Q685.3,0.0 676.2,0.0 L658.1,0.0 Z M671.0,12.6 Q671.0,12.1 671.5,12.1 L676.0,12.2 Q678.7,12.3 680.4,14.5 Q682.1,16.7 682.2,20.3 L682.2,49.7 Q682.2,53.5 680.5,55.7 Q678.8,57.9 675.9,57.9 L671.5,57.9 Q671.0,57.9 671.0,57.4 L671.0,12.6 Z" fill="#c69a4e"/></g></g></svg>