<svg xmlns="http://www.w3.org/2000/svg" xmlns:xlink="http://www.w3.org/1999/xlink" viewBox="0 0 600 480" width="600" height="480"><defs><clipPath id="cc"><rect x="0" y="0" width="600" height="480" rx="24"/></clipPath></defs><g clip-path="url(#cc)"><rect width="600" height="480" fill="#7a1414"/><rect x="60" y="56" width="480" height="262" rx="18" fill="#ffffff"/><svg x="96" y="86" width="408" height="202" viewBox="0 0 259 49" preserveAspectRatio="xMidYMid meet" overflow="visible"><path d="m35.1 1.7-7.3 13.9c-.8.9-1 1.2-1.9 1.2h-7.2c-1 0-1.2-.3-1.9-1.2L9.4 1.7C8.9.6 7.8 0 6.6 0H0v23.6c0 .9.8 1.7 1.7 1.7 2.7 0 3.7 1.1 4.5 2.2l10.5 19.9c.8.9 1 1.2 1.9 1.2h7.2c1 0 1.2-.3 1.9-1.2l10.5-19.9c.8-1.1 1.7-2.2 4.5-2.2 1 0 1.7-.8 1.7-1.7V0h-6.6c-1 0-2.1.6-2.7 1.7zm213.5 35.5c-.8 0-1.4.5-1.4 1.4 0 .8.5 1.4 1.4 1.4.8 0 1.4-.5 1.4-1.4 0-.8-.5-1.4-1.4-1.4zm1.2 1.4c0 .7-.5 1.1-1.2 1.1s-1.1-.5-1.1-1.2.5-1.1 1.2-1.1c.6.1 1.1.5 1.1 1.2zm-.6.4c0-.3-.2-.3-.4-.3.3 0 .4-.1.4-.4 0-.3-.2-.4-.6-.4h-.6v1.4h.3v-.7l.1.1h.1c.2 0 .3 0 .3.3 0 .2.1.3.3.3.1 0 .2-.1.2-.2l-.1-.1c0 .1 0 .1 0 0zm-.6-.5h-.2v-.4H248.7c.2 0 .3.1.3.2-.1.2-.2.2-.4.2zm3.1-1.2-1.2 2.6h.4l1.2-2.6h-.4zm2.6 1.9-.1.5-.1-.5-.7-1.9h-.6V40h.4v-2.6l.1.5.8 2.1h.3l.8-2 .2-.5-.1.8v1.8h.4v-2.7h-.6l-.8 1.8zm3.4-1.9h-.9V40h.9c.9 0 1.4-.4 1.4-1.3-.1-.9-.5-1.4-1.4-1.4zm.9 1.3c0 .6-.3.9-.9.9h-.5v-2l.2.1h.4c.5.1.8.4.8 1zM93 5.6H81.5c-.9 0-1.5.6-1.5 1.5v1c0 1 .6 1.5 1.5 1.5h2.2c.8 0 1 .5.5 1.2-.1.1-5.8 8-6.3 8.7-.5-.6-6.5-8.3-6.7-8.5-.7-.9-.3-1.4.5-1.4H74c1 0 1.5-.5 1.5-1.5V7c0-.8-.6-1.5-1.5-1.5H60c-.9 0-1.5.6-1.5 1.5v1c0 1 .5 1.5 1.5 1.5 2.4 0 3.2 1 3.9 2l9.5 12.6c.7.8.8 1 1.7 1h3.3c1 0 1.2-.3 1.8-1L89 11.4c1.2-1.8 1.9-1.9 4.1-1.9 1 0 1.5-.5 1.5-1.5V7c0-.8-.7-1.4-1.6-1.4zm25.5 4c1.1 0 1.7-.5 1.7-1.5V7c0-.8-.7-1.5-1.7-1.5h-17.3c-1 0-1.7.6-1.7 1.5v1c0 1 .6 1.5 1.7 1.5 4.4.1 5.5.7 5.5 2v7.7c0 1.2-1.1 1.9-5.5 2-1.1 0-1.7.5-1.7 1.5v1c0 .8.7 1.5 1.7 1.5h17.3c1 0 1.7-.6 1.7-1.5v-1c0-1-.6-1.5-1.7-1.5-4.4-.1-5.5-.8-5.5-2v-7.7c0-1.2 1.1-1.9 5.5-1.9zm8.5 3.1h1c1 0 1.5-.5 1.5-1.5s.2-1.6 1.6-1.6h4.7c2.6 0 2.6.7 2.6 2v7.7c0 1.2 0 1.9-3.9 2-1 0-1.5.5-1.5 1.5v1c0 .8.6 1.5 1.5 1.5h14.2c.9 0 1.5-.6 1.5-1.5v-1c0-1-.6-1.5-1.5-1.5-3.9-.1-3.9-.8-3.9-2v-7.7c0-1.2.3-2 2.6-2h4.8c1.4 0 1.6.7 1.6 1.6 0 .9.6 1.5 1.5 1.5h1c.8 0 1.5-.6 1.5-1.5V7c0-.8-.6-1.5-1.5-1.5H127c-.9 0-1.5.6-1.5 1.5v4.1c0 .9.6 1.6 1.5 1.6zm71.6-3.2c3.9.1 3.4.7 3.4 2v7.7c0 1.2.5 1.9-3.4 2-1 0-1.5.5-1.5 1.5v1c0 .8.6 1.5 1.5 1.5h24.2c.9 0 1.5-.6 1.5-1.5v-4.1c0-.9-.6-1.5-1.5-1.5h-1c-1 0-1.5.5-1.5 1.5s-.2 1.6-1.6 1.6h-8.9c-1.3 0-1.6-.8-1.6-2v-7.7c0-1.2 0-1.9 3.9-2 1 0 1.5-.5 1.5-1.5V7c0-.8-.6-1.5-1.5-1.5h-13.7c-.9 0-1.5.6-1.5 1.5v1c.2 1 .7 1.5 1.7 1.5zm-6.2 14.3v-1c0-1-.6-1.5-1.5-1.5-2.4 0-3.2-1-3.9-2l-9.1-12.6c-.6-.8-.8-1.1-1.7-1.1h-3.3c-1 0-1.2.3-1.8 1.1l-8.5 12.7c-1.2 1.7-1.9 1.9-4.1 1.9-1 0-1.5.5-1.5 1.5v1c0 .8.6 1.5 1.5 1.5h12.1c.9 0 1-.6 1-1.5v-1c0-1-.5-1.5-1.5-1.5h-2.3c-.8 0-.6-.7-.3-1.2 0 0 .2-.3.4-.7h11.7c.1.2.2.3.3.4.7 1.1-.1 1.4-.7 1.4H177c-1 0-1.5.5-1.5 1.5v1c0 .8.6 1.5 1.5 1.5h14c.7 0 1.4-.6 1.4-1.4zm-22.3-8 .7-1c1-1.4 2-2.8 2.5-3.6.4.6 1.5 2 2.7 3.6l.8 1h-6.7zM65 44.1h7.4v-2.4H65v-1.9h9v-2.5H61.6v11.3h12.5v-2.5H65v-2zm9.1 2zm13.4-4.6c-2.1-.2-3.4-.3-3.4-1 0-.8 1.7-1 3-1 1.8 0 3.4.4 4.7 1.3l1.7-2c-1.6-1.1-3.9-1.7-6.4-1.7-3.7 0-6.4 1.2-6.4 3.7s3.2 3.3 6.6 3.5c2.4.2 3.3.4 3.3 1.2 0 .7-1 1.1-3 1.1-2.3 0-4.3-.6-5.7-1.8l-1.8 2c1.8 1.4 4.4 2.2 7.4 2.2 4.3 0 6.5-1.6 6.5-3.9.1-2.6-2.6-3.3-6.5-3.6zm21 0c-2.1-.2-3.4-.3-3.4-1 0-.8 1.7-1 3-1 1.8 0 3.4.4 4.7 1.3l1.7-2c-1.6-1.1-3.9-1.7-6.4-1.7-3.7 0-6.4 1.2-6.4 3.7s3.2 3.3 6.6 3.5c2.4.2 3.3.4 3.3 1.2 0 .7-1 1.1-3 1.1-2.3 0-4.3-.6-5.7-1.8l-1.8 2c1.8 1.4 4.4 2.2 7.4 2.2 4.3 0 6.5-1.6 6.5-3.9 0-2.6-2.7-3.3-6.5-3.6zm17 2.6h7.4v-2.4h-7.4v-1.9h9v-2.5h-12.3v11.3h12.5v-2.5h-9.1v-2zm9.2 2zm18.2-1.9-6.9-6.9h-3.6v11.3h3.3v-7.4l7.6 7.4h3V37.3H153v6.9zm8.8-4.2h4.8v8.7h3.4V40h4.9v-2.6h-13.1V40zm19.8 8.6h3.4V37.3h-3.4v11.3zm16.2-11.3-6.1 11.3h3.6l1.1-2.2h6.4l1.1 2.2h3.6l-6.1-11.3h-3.6zm-.2 6.8 2-4 2 4h-4zm19.8-6.8h-3.4v11.3h11.3V46h-7.9v-8.7zm20.4 4.2c-2.1-.2-3.4-.3-3.4-1 0-.8 1.7-1 3-1 1.8 0 3.4.4 4.7 1.3l1.7-2c-1.6-1.1-3.9-1.7-6.4-1.7-3.7 0-6.4 1.2-6.4 3.7s3.2 3.3 6.6 3.5c2.4.2 3.3.4 3.3 1.2 0 .7-1 1.1-3 1.1-2.3 0-4.3-.6-5.7-1.8l-1.8 2c1.8 1.4 4.4 2.2 7.4 2.2 4.3 0 6.5-1.6 6.5-3.9.1-2.6-2.6-3.3-6.5-3.6z" fill="currentColor"/></svg><g transform="translate(300.0,406.0) scale(0.4330,-0.4330) translate(-329.9,-35.0)"><path d="M17.9,0.0 Q16.8,0.0 16.6,1.1 L2.3,68.7 L2.2,69.1 Q2.2,70.0 3.3,70.0 L16.2,70.0 Q17.4,70.0 17.5,68.9 L24.4,24.9 Q24.5,24.5 24.7,24.5 Q24.9,24.5 25.0,24.9 L31.7,68.9 Q31.8,70.0 33.0,70.0 L45.5,70.0 Q46.8,70.0 46.5,68.7 L32.1,1.1 Q31.9,0.0 30.8,0.0 L17.9,0.0 Z M54.4,0.0 Q53.9,0.0 53.5,0.3 Q53.2,0.7 53.2,1.2 L53.2,68.8 Q53.2,69.3 53.5,69.6 Q53.9,70.0 54.4,70.0 L66.1,70.0 Q66.6,70.0 66.9,69.6 Q67.3,69.3 67.3,68.8 L67.3,1.2 Q67.3,0.7 66.9,0.3 Q66.6,0.0 66.1,0.0 L54.4,0.0 Z M115.0,70.0 Q115.5,70.0 115.8,69.6 Q116.2,69.3 116.2,68.8 L116.2,59.1 Q116.2,58.6 115.8,58.2 Q115.5,57.9 115.0,57.9 L102.5,57.9 Q102.0,57.9 102.0,57.4 L102.0,1.2 Q102.0,0.7 101.6,0.3 Q101.3,0.0 100.8,0.0 L89.1,0.0 Q88.6,0.0 88.2,0.3 Q87.9,0.7 87.9,1.2 L87.9,57.4 Q87.9,57.9 87.4,57.9 L75.4,57.9 Q74.9,57.9 74.5,58.2 Q74.2,58.6 74.2,59.1 L74.2,68.8 Q74.2,69.3 74.5,69.6 Q74.9,70.0 75.4,70.0 L115.0,70.0 Z M152.4,0.0 Q151.2,0.0 151.1,1.1 L149.5,10.7 Q149.5,11.2 148.9,11.2 L136.2,11.2 Q135.6,11.2 135.6,10.7 L134.0,1.1 Q133.9,0.0 132.7,0.0 L121.0,0.0 Q119.7,0.0 120.0,1.3 L134.7,68.9 Q134.9,70.0 136.0,70.0 L149.5,70.0 Q150.6,70.0 150.8,68.9 L165.4,1.3 L165.5,0.9 Q165.5,0.0 164.4,0.0 L152.4,0.0 Z M137.6,22.6 Q137.6,22.1 138.0,22.1 L147.0,22.1 Q147.5,22.1 147.4,22.6 L142.7,49.9 Q142.6,50.2 142.4,50.2 Q142.2,50.2 142.1,49.9 L137.6,22.6 Z M172.4,0.0 Q171.9,0.0 171.5,0.3 Q171.2,0.7 171.2,1.2 L171.2,68.8 Q171.2,69.3 171.5,69.6 Q171.9,70.0 172.4,70.0 L184.1,70.0 Q184.6,70.0 184.9,69.6 Q185.3,69.3 185.3,68.8 L185.3,12.6 Q185.3,12.1 185.8,12.1 L206.8,12.1 Q207.3,12.1 207.6,11.8 Q208.0,11.4 208.0,10.9 L208.0,1.2 Q208.0,0.7 207.6,0.3 Q207.3,0.0 206.8,0.0 L172.4,0.0 Z M270.5,59.1 Q270.5,58.6 270.1,58.2 Q269.8,57.9 269.3,57.9 L248.4,57.9 Q247.9,57.9 247.9,57.4 L247.9,41.6 Q247.9,41.1 248.4,41.1 L260.4,41.1 Q260.9,41.1 261.2,40.8 Q261.6,40.4 261.6,39.9 L261.6,30.2 Q261.6,29.7 261.2,29.3 Q260.9,29.0 260.4,29.0 L248.4,29.0 Q247.9,29.0 247.9,28.5 L247.9,12.6 Q247.9,12.1 248.4,12.1 L269.3,12.1 Q269.8,12.1 270.1,11.8 Q270.5,11.4 270.5,10.9 L270.5,1.2 Q270.5,0.7 270.1,0.3 Q269.8,0.0 269.3,0.0 L235.0,0.0 Q234.5,0.0 234.1,0.3 Q233.8,0.7 233.8,1.2 L233.8,68.8 Q233.8,69.3 234.1,69.6 Q234.5,70.0 235.0,70.0 L269.3,70.0 Q269.8,70.0 270.1,69.6 Q270.5,69.3 270.5,68.8 L270.5,59.1 Z M295.6,-0.8 Q289.8,-0.8 285.4,1.5 Q281.0,3.8 278.6,7.9 Q276.2,12.1 276.2,17.5 L276.2,20.4 Q276.2,20.9 276.5,21.2 Q276.9,21.6 277.4,21.6 L288.9,21.6 Q289.4,21.6 289.7,21.2 Q290.1,20.9 290.1,20.4 L290.1,18.2 Q290.1,15.1 291.7,13.2 Q293.3,11.3 295.7,11.3 Q298.1,11.3 299.7,13.1 Q301.3,14.9 301.3,17.8 Q301.3,20.8 299.3,22.9 Q297.3,25.1 291.5,29.3 Q286.5,32.9 283.4,35.7 Q280.3,38.5 278.1,42.6 Q275.9,46.7 275.9,52.1 Q275.9,60.6 281.2,65.7 Q286.5,70.8 295.2,70.8 Q304.0,70.8 309.3,65.5 Q314.7,60.2 314.7,51.6 L314.7,49.2 Q314.7,48.7 314.3,48.3 Q314.0,48.0 313.5,48.0 L302.0,48.0 Q301.5,48.0 301.1,48.3 Q300.8,48.7 300.8,49.2 L300.8,51.9 Q300.8,55.0 299.2,56.8 Q297.7,58.7 295.2,58.7 Q292.8,58.7 291.3,57.0 Q289.8,55.2 289.8,52.1 Q289.8,49.1 291.7,46.8 Q293.6,44.5 299.2,40.4 Q305.4,35.8 308.5,32.9 Q311.7,30.1 313.4,26.6 Q315.2,23.2 315.2,18.4 Q315.2,9.6 309.8,4.4 Q304.4,-0.8 295.6,-0.8 Z M340.0,-0.8 Q334.2,-0.8 329.8,1.5 Q325.4,3.8 323.0,7.9 Q320.6,12.1 320.6,17.5 L320.6,20.4 Q320.6,20.9 320.9,21.2 Q321.3,21.6 321.8,21.6 L333.3,21.6 Q333.8,21.6 334.1,21.2 Q334.5,20.9 334.5,20.4 L334.5,18.2 Q334.5,15.1 336.1,13.2 Q337.7,11.3 340.1,11.3 Q342.5,11.3 344.1,13.1 Q345.7,14.9 345.7,17.8 Q345.7,20.8 343.7,22.9 Q341.7,25.1 335.9,29.3 Q330.9,32.9 327.8,35.7 Q324.7,38.5 322.5,42.6 Q320.3,46.7 320.3,52.1 Q320.3,60.6 325.6,65.7 Q330.9,70.8 339.6,70.8 Q348.4,70.8 353.7,65.5 Q359.1,60.2 359.1,51.6 L359.1,49.2 Q359.1,48.7 358.7,48.3 Q358.4,48.0 357.9,48.0 L346.4,48.0 Q345.9,48.0 345.5,48.3 Q345.2,48.7 345.2,49.2 L345.2,51.9 Q345.2,55.0 343.6,56.8 Q342.1,58.7 339.6,58.7 Q337.2,58.7 335.7,57.0 Q334.2,55.2 334.2,52.1 Q334.2,49.1 336.1,46.8 Q338.0,44.5 343.6,40.4 Q349.8,35.8 352.9,32.9 Q356.1,30.1 357.8,26.6 Q359.6,23.2 359.6,18.4 Q359.6,9.6 354.2,4.4 Q348.8,-0.8 340.0,-0.8 Z M403.1,59.1 Q403.1,58.6 402.7,58.2 Q402.4,57.9 401.9,57.9 L381.0,57.9 Q380.5,57.9 380.5,57.4 L380.5,41.6 Q380.5,41.1 381.0,41.1 L393.0,41.1 Q393.5,41.1 393.8,40.8 Q394.2,40.4 394.2,39.9 L394.2,30.2 Q394.2,29.7 393.8,29.3 Q393.5,29.0 393.0,29.0 L381.0,29.0 Q380.5,29.0 380.5,28.5 L380.5,12.6 Q380.5,12.1 381.0,12.1 L401.9,12.1 Q402.4,12.1 402.7,11.8 Q403.1,11.4 403.1,10.9 L403.1,1.2 Q403.1,0.7 402.7,0.3 Q402.4,0.0 401.9,0.0 L367.6,0.0 Q367.1,0.0 366.7,0.3 Q366.4,0.7 366.4,1.2 L366.4,68.8 Q366.4,69.3 366.7,69.6 Q367.1,70.0 367.6,70.0 L401.9,70.0 Q402.4,70.0 402.7,69.6 Q403.1,69.3 403.1,68.8 L403.1,59.1 Z M438.8,68.8 Q438.8,69.3 439.1,69.6 Q439.5,70.0 440.0,70.0 L451.6,70.0 Q452.1,70.0 452.4,69.6 Q452.8,69.3 452.8,68.8 L452.8,1.2 Q452.8,0.7 452.4,0.3 Q452.1,0.0 451.6,0.0 L438.4,0.0 Q437.4,0.0 437.1,1.0 L424.7,39.7 Q424.6,40.0 424.3,40.0 Q424.1,39.9 424.1,39.6 L424.2,1.2 Q424.2,0.7 423.8,0.3 Q423.5,0.0 423.0,0.0 L411.4,0.0 Q410.9,0.0 410.5,0.3 Q410.2,0.7 410.2,1.2 L410.2,68.8 Q410.2,69.3 410.5,69.6 Q410.9,70.0 411.4,70.0 L424.5,70.0 Q425.5,70.0 425.8,69.0 L438.3,30.3 Q438.4,30.0 438.6,30.0 Q438.9,30.1 438.9,30.4 L438.8,68.8 Z M500.4,70.0 Q500.9,70.0 501.2,69.6 Q501.6,69.3 501.6,68.8 L501.6,59.1 Q501.6,58.6 501.2,58.2 Q500.9,57.9 500.4,57.9 L487.9,57.9 Q487.4,57.9 487.4,57.4 L487.4,1.2 Q487.4,0.7 487.0,0.3 Q486.7,0.0 486.2,0.0 L474.5,0.0 Q474.0,0.0 473.6,0.3 Q473.3,0.7 473.3,1.2 L473.3,57.4 Q473.3,57.9 472.8,57.9 L460.8,57.9 Q460.3,57.9 459.9,58.2 Q459.6,58.6 459.6,59.1 L459.6,68.8 Q459.6,69.3 459.9,69.6 Q460.3,70.0 460.8,70.0 L500.4,70.0 Z M509.6,0.0 Q509.1,0.0 508.7,0.3 Q508.4,0.7 508.4,1.2 L508.4,68.8 Q508.4,69.3 508.7,69.6 Q509.1,70.0 509.6,70.0 L521.3,70.0 Q521.8,70.0 522.1,69.6 Q522.5,69.3 522.5,68.8 L522.5,1.2 Q522.5,0.7 522.1,0.3 Q521.8,0.0 521.3,0.0 L509.6,0.0 Z M560.8,0.0 Q559.6,0.0 559.5,1.1 L557.9,10.7 Q557.9,11.2 557.3,11.2 L544.6,11.2 Q544.0,11.2 544.0,10.7 L542.4,1.1 Q542.3,0.0 541.1,0.0 L529.4,0.0 Q528.1,0.0 528.4,1.3 L543.1,68.9 Q543.3,70.0 544.4,70.0 L557.9,70.0 Q559.0,70.0 559.2,68.9 L573.8,1.3 L573.9,0.9 Q573.9,0.0 572.8,0.0 L560.8,0.0 Z M546.0,22.6 Q546.0,22.1 546.4,22.1 L555.4,22.1 Q555.9,22.1 555.8,22.6 L551.1,49.9 Q551.0,50.2 550.8,50.2 Q550.6,50.2 550.5,49.9 L546.0,22.6 Z M580.8,0.0 Q580.3,0.0 579.9,0.3 Q579.6,0.7 579.6,1.2 L579.6,68.8 Q579.6,69.3 579.9,69.6 Q580.3,70.0 580.8,70.0 L592.5,70.0 Q593.0,70.0 593.3,69.6 Q593.7,69.3 593.7,68.8 L593.7,12.6 Q593.7,12.1 594.2,12.1 L615.2,12.1 Q615.7,12.1 616.0,11.8 Q616.4,11.4 616.4,10.9 L616.4,1.2 Q616.4,0.7 616.0,0.3 Q615.7,0.0 615.2,0.0 L580.8,0.0 Z M640.2,-0.8 Q634.4,-0.8 630.0,1.5 Q625.6,3.8 623.2,7.9 Q620.8,12.1 620.8,17.5 L620.8,20.4 Q620.8,20.9 621.1,21.2 Q621.5,21.6 622.0,21.6 L633.5,21.6 Q634.0,21.6 634.3,21.2 Q634.7,20.9 634.7,20.4 L634.7,18.2 Q634.7,15.1 636.3,13.2 Q637.9,11.3 640.3,11.3 Q642.7,11.3 644.3,13.1 Q645.9,14.9 645.9,17.8 Q645.9,20.8 643.9,22.9 Q641.9,25.1 636.1,29.3 Q631.1,32.9 628.0,35.7 Q624.9,38.5 622.7,42.6 Q620.5,46.7 620.5,52.1 Q620.5,60.6 625.8,65.7 Q631.1,70.8 639.8,70.8 Q648.6,70.8 653.9,65.5 Q659.3,60.2 659.3,51.6 L659.3,49.2 Q659.3,48.7 658.9,48.3 Q658.6,48.0 658.1,48.0 L646.6,48.0 Q646.1,48.0 645.7,48.3 Q645.4,48.7 645.4,49.2 L645.4,51.9 Q645.4,55.0 643.8,56.8 Q642.3,58.7 639.8,58.7 Q637.4,58.7 635.9,57.0 Q634.4,55.2 634.4,52.1 Q634.4,49.1 636.3,46.8 Q638.2,44.5 643.8,40.4 Q650.0,35.8 653.1,32.9 Q656.3,30.1 658.0,26.6 Q659.8,23.2 659.8,18.4 Q659.8,9.6 654.4,4.4 Q649.0,-0.8 640.2,-0.8 Z" fill="#ffffff"/></g></g></svg>