<svg xmlns="http://www.w3.org/2000/svg" xmlns:xlink="http://www.w3.org/1999/xlink" viewBox="0 0 600 480" width="600" height="480"><defs><clipPath id="cc"><rect x="0" y="0" width="600" height="480" rx="24"/></clipPath></defs><g clip-path="url(#cc)"><rect width="600" height="480" fill="#502a8a"/><g transform="translate(300.0,240.0) scale(1.2545,-1.2545) translate(-193.7,-35.0)"><path d="M16.7,0.0 Q15.6,0.0 15.4,1.1 L1.8,68.7 L1.7,69.1 Q1.7,70.0 2.8,70.0 L17.5,70.0 Q18.7,70.0 18.8,68.9 L23.3,36.0 Q23.4,35.7 23.6,35.7 Q23.8,35.7 23.9,36.0 L28.4,68.9 Q28.5,70.0 29.7,70.0 L41.4,70.0 Q42.6,70.0 42.7,68.9 L47.7,36.0 Q47.8,35.7 48.0,35.7 Q48.2,35.7 48.2,36.0 L52.3,68.9 Q52.4,70.0 53.5,70.0 L67.9,70.0 Q69.2,70.0 69.0,68.7 L56.1,1.1 Q56.0,0.0 54.8,0.0 L42.0,0.0 Q40.8,0.0 40.7,1.1 L35.7,35.3 Q35.6,35.6 35.3,35.6 Q35.1,35.6 35.1,35.3 L30.7,1.1 Q30.6,0.0 29.5,0.0 L16.7,0.0 Z M112.6,57.0 Q112.6,56.5 112.2,56.1 Q111.9,55.8 111.4,55.8 L91.3,55.8 Q90.8,55.8 90.8,55.3 L90.8,42.7 Q90.8,42.2 91.3,42.2 L102.3,42.2 Q102.8,42.2 103.1,41.8 Q103.5,41.5 103.5,41.0 L103.5,29.1 Q103.5,28.6 103.1,28.2 Q102.8,27.9 102.3,27.9 L91.3,27.9 Q90.8,27.9 90.8,27.4 L90.8,14.7 Q90.8,14.2 91.3,14.2 L111.4,14.2 Q111.9,14.2 112.2,13.8 Q112.6,13.5 112.6,13.0 L112.6,1.2 Q112.6,0.7 112.2,0.3 Q111.9,0.0 111.4,0.0 L75.4,0.0 Q74.9,0.0 74.5,0.3 Q74.2,0.7 74.2,1.2 L74.2,68.8 Q74.2,69.3 74.5,69.6 Q74.9,70.0 75.4,70.0 L111.4,70.0 Q111.9,70.0 112.2,69.6 Q112.6,69.3 112.6,68.8 L112.6,57.0 Z M119.5,0.0 Q119.0,0.0 118.6,0.3 Q118.3,0.7 118.3,1.2 L118.3,68.8 Q118.3,69.3 118.6,69.6 Q119.0,70.0 119.5,70.0 L133.7,70.0 Q134.2,70.0 134.5,69.6 Q134.9,69.3 134.9,68.8 L134.9,14.7 Q134.9,14.2 135.4,14.2 L155.8,14.2 Q156.3,14.2 156.6,13.8 Q157.0,13.5 157.0,13.0 L157.0,1.2 Q157.0,0.7 156.6,0.3 Q156.3,0.0 155.8,0.0 L119.5,0.0 Z M163.2,0.0 Q162.7,0.0 162.3,0.3 Q162.0,0.7 162.0,1.2 L162.0,68.8 Q162.0,69.3 162.3,69.6 Q162.7,70.0 163.2,70.0 L177.4,70.0 Q177.9,70.0 178.2,69.6 Q178.6,69.3 178.6,68.8 L178.6,14.7 Q178.6,14.2 179.1,14.2 L199.5,14.2 Q200.0,14.2 200.3,13.8 Q200.7,13.5 200.7,13.0 L200.7,1.2 Q200.7,0.7 200.3,0.3 Q200.0,0.0 199.5,0.0 L163.2,0.0 Z M234.5,68.8 Q234.5,69.3 234.8,69.6 Q235.2,70.0 235.7,70.0 L249.7,70.0 Q250.2,70.0 250.5,69.6 Q250.9,69.3 250.9,68.8 L250.9,1.2 Q250.9,0.7 250.5,0.3 Q250.2,0.0 249.7,0.0 L233.8,0.0 Q232.7,0.0 232.4,1.0 L222.5,35.8 Q222.4,36.1 222.2,36.1 Q221.9,36.2 221.9,35.8 L222.1,1.2 Q222.1,0.7 221.7,0.3 Q221.4,0.0 220.9,0.0 L206.9,0.0 Q206.4,0.0 206.0,0.3 Q205.7,0.7 205.7,1.2 L205.7,68.8 Q205.7,69.3 206.0,69.6 Q206.4,70.0 206.9,70.0 L222.6,70.0 Q223.7,70.0 224.0,69.0 L234.0,34.0 Q234.1,33.7 234.4,33.7 Q234.6,33.7 234.6,34.1 L234.5,68.8 Z M296.3,57.0 Q296.3,56.5 295.9,56.1 Q295.6,55.8 295.1,55.8 L275.0,55.8 Q274.5,55.8 274.5,55.3 L274.5,42.7 Q274.5,42.2 275.0,42.2 L286.0,42.2 Q286.5,42.2 286.8,41.8 Q287.2,41.5 287.2,41.0 L287.2,29.1 Q287.2,28.6 286.8,28.2 Q286.5,27.9 286.0,27.9 L275.0,27.9 Q274.5,27.9 274.5,27.4 L274.5,14.7 Q274.5,14.2 275.0,14.2 L295.1,14.2 Q295.6,14.2 295.9,13.8 Q296.3,13.5 296.3,13.0 L296.3,1.2 Q296.3,0.7 295.9,0.3 Q295.6,0.0 295.1,0.0 L259.1,0.0 Q258.6,0.0 258.2,0.3 Q257.9,0.7 257.9,1.2 L257.9,68.8 Q257.9,69.3 258.2,69.6 Q258.6,70.0 259.1,70.0 L295.1,70.0 Q295.6,70.0 295.9,69.6 Q296.3,69.3 296.3,68.8 L296.3,57.0 Z M321.5,-0.8 Q315.4,-0.8 310.8,1.5 Q306.2,3.9 303.6,8.2 Q301.1,12.4 301.1,17.8 L301.1,20.9 Q301.1,21.4 301.4,21.8 Q301.8,22.1 302.3,22.1 L316.3,22.1 Q316.8,22.1 317.1,21.8 Q317.5,21.4 317.5,20.9 L317.5,18.6 Q317.5,16.2 318.6,14.8 Q319.8,13.4 321.6,13.4 Q323.4,13.4 324.5,14.8 Q325.7,16.1 325.7,18.2 Q325.7,20.5 323.9,22.3 Q322.1,24.2 316.7,28.1 Q311.7,31.7 308.5,34.5 Q305.3,37.4 303.0,41.7 Q300.7,45.9 300.7,51.5 Q300.7,57.2 303.2,61.6 Q305.8,66.0 310.4,68.4 Q315.1,70.8 321.1,70.8 Q327.2,70.8 331.8,68.3 Q336.5,65.9 339.0,61.5 Q341.6,57.0 341.6,51.2 L341.6,48.8 Q341.6,48.3 341.2,47.9 Q340.9,47.6 340.4,47.6 L326.5,47.6 Q326.0,47.6 325.6,47.9 Q325.3,48.3 325.3,48.8 L325.3,51.6 Q325.3,53.8 324.1,55.2 Q322.9,56.6 321.1,56.6 Q319.3,56.6 318.2,55.2 Q317.1,53.8 317.1,51.5 Q317.1,49.0 318.8,47.0 Q320.5,45.0 325.7,41.2 Q332.0,36.5 335.2,33.6 Q338.4,30.7 340.2,27.1 Q342.0,23.6 342.0,18.8 Q342.0,9.8 336.3,4.5 Q330.7,-0.8 321.5,-0.8 Z M366.9,-0.8 Q360.8,-0.8 356.2,1.5 Q351.6,3.9 349.0,8.2 Q346.5,12.4 346.5,17.8 L346.5,20.9 Q346.5,21.4 346.8,21.8 Q347.2,22.1 347.7,22.1 L361.7,22.1 Q362.2,22.1 362.5,21.8 Q362.9,21.4 362.9,20.9 L362.9,18.6 Q362.9,16.2 364.0,14.8 Q365.2,13.4 367.0,13.4 Q368.8,13.4 369.9,14.8 Q371.1,16.1 371.1,18.2 Q371.1,20.5 369.3,22.3 Q367.5,24.2 362.1,28.1 Q357.1,31.7 353.9,34.5 Q350.7,37.4 348.4,41.7 Q346.1,45.9 346.1,51.5 Q346.1,57.2 348.6,61.6 Q351.2,66.0 355.8,68.4 Q360.5,70.8 366.5,70.8 Q372.6,70.8 377.2,68.3 Q381.9,65.9 384.4,61.5 Q387.0,57.0 387.0,51.2 L387.0,48.8 Q387.0,48.3 386.6,47.9 Q386.3,47.6 385.8,47.6 L371.9,47.6 Q371.4,47.6 371.0,47.9 Q370.7,48.3 370.7,48.8 L370.7,51.6 Q370.7,53.8 369.5,55.2 Q368.3,56.6 366.5,56.6 Q364.7,56.6 363.6,55.2 Q362.5,53.8 362.5,51.5 Q362.5,49.0 364.2,47.0 Q365.9,45.0 371.1,41.2 Q377.4,36.5 380.6,33.6 Q383.8,30.7 385.6,27.1 Q387.4,23.6 387.4,18.8 Q387.4,9.8 381.7,4.5 Q376.1,-0.8 366.9,-0.8 Z" fill="#ffffff"/></g></g></svg>