<svg xmlns="http://www.w3.org/2000/svg" xmlns:xlink="http://www.w3.org/1999/xlink" viewBox="0 0 600 480" width="600" height="480"><defs><clipPath id="cc"><rect x="0" y="0" width="600" height="480" rx="24"/></clipPath></defs><g clip-path="url(#cc)"><rect width="600" height="480" fill="#1a1a1a"/><g transform="translate(300.0,240.0) scale(1.2083,-1.2083) translate(-201.1,-35.0)"><path d="M2.8,0.0 Q2.3,0.0 1.9,0.3 Q1.6,0.7 1.6,1.2 L1.6,13.4 Q1.6,13.9 2.0,14.9 L22.2,55.2 Q22.3,55.5 22.2,55.6 Q22.1,55.8 21.8,55.8 L2.8,55.8 Q2.3,55.8 1.9,56.1 Q1.6,56.5 1.6,57.0 L1.6,68.8 Q1.6,69.3 1.9,69.6 Q2.3,70.0 2.8,70.0 L38.8,70.0 Q39.3,70.0 39.6,69.6 Q40.0,69.3 40.0,68.8 L40.0,56.6 Q40.0,56.1 39.6,55.1 L19.2,14.8 Q19.1,14.5 19.2,14.3 Q19.3,14.2 19.6,14.2 L38.8,14.2 Q39.3,14.2 39.6,13.8 Q40.0,13.5 40.0,13.0 L40.0,1.2 Q40.0,0.7 39.6,0.3 Q39.3,0.0 38.8,0.0 L2.8,0.0 Z M46.6,0.0 Q46.1,0.0 45.7,0.3 Q45.4,0.7 45.4,1.2 L45.4,68.8 Q45.4,69.3 45.7,69.6 Q46.1,70.0 46.6,70.0 L60.8,70.0 Q61.3,70.0 61.6,69.6 Q62.0,69.3 62.0,68.8 L62.0,1.2 Q62.0,0.7 61.6,0.3 Q61.3,0.0 60.8,0.0 L46.6,0.0 Z M89.0,-0.8 Q79.5,-0.8 73.8,4.5 Q68.1,9.9 68.1,18.9 L68.1,51.2 Q68.1,60.2 73.8,65.5 Q79.5,70.8 89.0,70.8 Q98.5,70.8 104.2,65.4 Q110.0,60.0 110.0,51.0 L110.0,47.3 Q110.0,46.8 109.6,46.4 Q109.3,46.1 108.8,46.1 L94.6,46.1 Q94.1,46.1 93.7,46.4 Q93.4,46.8 93.4,47.3 L93.4,51.2 Q93.4,53.6 92.2,55.1 Q91.0,56.6 89.0,56.6 Q87.1,56.6 85.9,55.1 Q84.7,53.6 84.7,51.2 L84.7,18.8 Q84.7,16.4 85.9,14.9 Q87.1,13.4 89.0,13.4 Q91.0,13.4 92.2,14.9 Q93.4,16.4 93.4,18.8 L93.4,25.2 Q93.4,25.7 92.9,25.7 L90.3,25.7 Q89.8,25.7 89.4,26.0 Q89.1,26.4 89.1,26.9 L89.1,37.5 Q89.1,38.0 89.4,38.3 Q89.8,38.7 90.3,38.7 L108.8,38.7 Q109.3,38.7 109.6,38.3 Q110.0,38.0 110.0,37.5 L110.0,18.9 Q110.0,9.9 104.2,4.5 Q98.5,-0.8 89.0,-0.8 Z M145.0,68.8 Q145.0,69.3 145.3,69.6 Q145.7,70.0 146.2,70.0 L160.2,70.0 Q160.7,70.0 161.0,69.6 Q161.4,69.3 161.4,68.8 L161.4,1.2 Q161.4,0.7 161.0,0.3 Q160.7,0.0 160.2,0.0 L144.3,0.0 Q143.2,0.0 142.9,1.0 L133.0,35.8 Q132.9,36.1 132.7,36.1 Q132.4,36.2 132.4,35.8 L132.6,1.2 Q132.6,0.7 132.2,0.3 Q131.9,0.0 131.4,0.0 L117.4,0.0 Q116.9,0.0 116.5,0.3 Q116.2,0.7 116.2,1.2 L116.2,68.8 Q116.2,69.3 116.5,69.6 Q116.9,70.0 117.4,70.0 L133.1,70.0 Q134.2,70.0 134.5,69.0 L144.5,34.0 Q144.6,33.7 144.9,33.7 Q145.1,33.7 145.1,34.1 L145.0,68.8 Z M198.7,0.0 Q197.5,0.0 197.4,1.1 L196.1,9.8 Q196.1,10.3 195.5,10.3 L184.7,10.3 Q184.1,10.3 184.1,9.8 L182.9,1.1 Q182.8,0.0 181.6,0.0 L167.4,0.0 Q166.1,0.0 166.4,1.3 L180.9,68.9 Q181.1,70.0 182.2,70.0 L198.5,70.0 Q199.6,70.0 199.8,68.9 L214.2,1.3 L214.3,0.9 Q214.3,0.0 213.2,0.0 L198.7,0.0 Z M186.3,23.6 Q186.3,23.1 186.7,23.1 L193.4,23.1 Q193.8,23.1 193.8,23.6 L190.2,46.4 Q190.1,46.8 189.9,46.8 Q189.7,46.8 189.6,46.4 L186.3,23.6 Z M260.9,70.0 Q261.4,70.0 261.7,69.6 Q262.1,69.3 262.1,68.8 L262.1,57.0 Q262.1,56.5 261.7,56.1 Q261.4,55.8 260.9,55.8 L248.5,55.8 Q248.0,55.8 248.0,55.3 L248.0,1.2 Q248.0,0.7 247.6,0.3 Q247.3,0.0 246.8,0.0 L232.6,0.0 Q232.1,0.0 231.7,0.3 Q231.4,0.7 231.4,1.2 L231.4,55.3 Q231.4,55.8 230.9,55.8 L219.0,55.8 Q218.5,55.8 218.1,56.1 Q217.8,56.5 217.8,57.0 L217.8,68.8 Q217.8,69.3 218.1,69.6 Q218.5,70.0 219.0,70.0 L260.9,70.0 Z M288.2,-0.8 Q282.0,-0.8 277.3,1.8 Q272.6,4.5 270.0,9.3 Q267.4,14.1 267.4,20.4 L267.4,68.8 Q267.4,69.3 267.7,69.6 Q268.1,70.0 268.6,70.0 L282.8,70.0 Q283.3,70.0 283.6,69.6 Q284.0,69.3 284.0,68.8 L284.0,18.8 Q284.0,16.4 285.1,14.9 Q286.3,13.4 288.2,13.4 Q290.1,13.4 291.2,14.9 Q292.4,16.4 292.4,18.8 L292.4,68.8 Q292.4,69.3 292.7,69.6 Q293.1,70.0 293.6,70.0 L307.8,70.0 Q308.3,70.0 308.6,69.6 Q309.0,69.3 309.0,68.8 L309.0,20.4 Q309.0,14.1 306.4,9.3 Q303.8,4.5 299.1,1.8 Q294.4,-0.8 288.2,-0.8 Z M343.0,0.0 Q341.9,0.0 341.6,1.0 L334.8,27.5 Q334.7,27.9 334.3,27.9 L332.8,27.9 Q332.3,27.9 332.3,27.4 L332.3,1.2 Q332.3,0.7 331.9,0.3 Q331.6,0.0 331.1,0.0 L316.9,0.0 Q316.4,0.0 316.0,0.3 Q315.7,0.7 315.7,1.2 L315.7,68.8 Q315.7,69.3 316.0,69.6 Q316.4,70.0 316.9,70.0 L338.4,70.0 Q344.2,70.0 348.7,67.2 Q353.2,64.5 355.7,59.5 Q358.1,54.6 358.1,48.3 Q358.1,42.7 356.0,38.2 Q354.0,33.8 350.3,31.1 Q350.1,31.0 350.0,30.8 Q349.9,30.7 350.0,30.5 L358.6,1.4 L358.7,1.0 Q358.7,0.0 357.6,0.0 L343.0,0.0 Z M332.8,55.8 Q332.3,55.8 332.3,55.3 L332.3,41.1 Q332.3,40.6 332.8,40.6 L335.6,40.6 Q338.3,40.6 339.9,42.6 Q341.5,44.6 341.5,48.1 Q341.5,51.8 339.9,53.8 Q338.3,55.8 335.6,55.8 L332.8,55.8 Z M402.2,57.0 Q402.2,56.5 401.8,56.1 Q401.5,55.8 401.0,55.8 L380.9,55.8 Q380.4,55.8 380.4,55.3 L380.4,42.7 Q380.4,42.2 380.9,42.2 L391.9,42.2 Q392.4,42.2 392.7,41.8 Q393.1,41.5 393.1,41.0 L393.1,29.1 Q393.1,28.6 392.7,28.2 Q392.4,27.9 391.9,27.9 L380.9,27.9 Q380.4,27.9 380.4,27.4 L380.4,14.7 Q380.4,14.2 380.9,14.2 L401.0,14.2 Q401.5,14.2 401.8,13.8 Q402.2,13.5 402.2,13.0 L402.2,1.2 Q402.2,0.7 401.8,0.3 Q401.5,0.0 401.0,0.0 L365.0,0.0 Q364.5,0.0 364.1,0.3 Q363.8,0.7 363.8,1.2 L363.8,68.8 Q363.8,69.3 364.1,69.6 Q364.5,70.0 365.0,70.0 L401.0,70.0 Q401.5,70.0 401.8,69.6 Q402.2,69.3 402.2,68.8 L402.2,57.0 Z" fill="#f0b849"/></g></g></svg>