<svg width="18" height="23" viewBox="0 0 18 23" fill="none" xmlns="http://www.w3.org/2000/svg">
<path d="M12.9489 1.64851C12.7532 0.687428 11.9406 0 11.0002 0H8.5401C4.95117 0 0 9.22539 0 16.7992C0 18.86 0.261021 20.42 0.95837 22.239C1.01842 22.3963 1.16612 22.4985 1.32787 22.4985H5.45142C5.70712 22.2653 5.90857 21.765 5.90857 21.198C5.90857 18.0785 3.43154 14.0343 3.43154 9.57846C3.43154 4.46701 6.40786 1.28886 7.69747 1.28886C8.08149 1.28886 8.34881 1.52003 8.45244 2.03396L9.88007 9.02862C9.68975 8.98512 9.49265 8.96033 9.28975 8.96033C7.7735 8.96033 6.54442 10.2441 6.54442 11.8279C6.54442 13.4117 7.7735 14.6955 9.28975 14.6955C9.90186 14.6955 10.4651 14.4835 10.9213 14.1299L12.2927 20.8489C12.4888 21.8095 13.301 22.4959 14.2409 22.4959H16.978C17.2337 22.4959 17.4231 22.2481 17.3664 21.9876L12.9489 1.64851Z" fill="#1C4270"/>
</svg>
