<?xml version="1.0" encoding="UTF-8"?> <svg xmlns="http://www.w3.org/2000/svg" width="320" height="231" viewBox="0 0 320 231" fill="none"><path fill-rule="evenodd" clip-rule="evenodd" d="M0 230.396H319.978V0H0V230.396Z" fill="#ED3124"></path><path fill-rule="evenodd" clip-rule="evenodd" d="M79.7889 97.7586C77.9105 98.653 73.7546 100.039 68.4678 100.039C56.5684 100.039 48.8379 91.9735 48.8379 79.8378C48.8379 67.7021 57.1498 58.8247 70.0171 58.8247C74.2465 58.8247 77.9904 59.8821 79.9518 60.9426L78.3194 66.4019C76.6072 65.5043 73.9239 64.5236 70.0171 64.5236C60.9736 64.5236 56.0861 71.2862 56.0861 79.5119C56.0861 88.6353 61.9479 94.2543 69.7679 94.2543C73.8408 94.2543 76.5273 93.2768 78.559 92.3823L79.7889 97.7586Z" fill="#FEFEFE"></path><mask id="mask0_38_64391" style="mask-type:luminance" maskUnits="userSpaceOnUse" x="0" y="0" width="320" height="231"><path fill-rule="evenodd" clip-rule="evenodd" d="M0 230.396H319.978V0H0V230.396Z" fill="white"></path></mask><g mask="url(#mask0_38_64391)"><path fill-rule="evenodd" clip-rule="evenodd" d="M97.9473 99.1428H105.112V41.3105H97.9473V99.1428Z" fill="#FEFEFE"></path><path fill-rule="evenodd" clip-rule="evenodd" d="M143.07 94.6649C149.915 94.6649 155.046 88.2249 155.046 79.2677C155.046 72.5913 151.711 64.1995 143.236 64.1995C134.847 64.1995 131.18 72.0195 131.18 79.5137C131.18 88.1482 136.067 94.6649 142.993 94.6649H143.07ZM142.827 100.038C132.244 100.038 123.932 92.2212 123.932 79.7564C123.932 66.5634 132.646 58.8232 143.482 58.8232C154.803 58.8232 162.453 67.0489 162.453 79.0249C162.453 93.6874 152.276 100.038 142.913 100.038H142.827Z" fill="#FEFEFE"></path><path fill-rule="evenodd" clip-rule="evenodd" d="M214.266 88.3906C214.266 92.4635 214.34 96.0477 214.583 99.1431H208.229L207.82 92.7095H207.667C205.878 95.8848 201.635 100.038 194.624 100.038C188.442 100.038 181.031 96.5364 181.031 82.7684V59.7205H188.193V81.4682C188.193 88.9624 190.56 94.0927 196.997 94.0927C201.798 94.0927 205.14 90.7545 206.446 87.493C206.846 86.5155 207.092 85.2153 207.092 83.8289V59.7205H214.266V88.3906Z" fill="#FEFEFE"></path><path fill-rule="evenodd" clip-rule="evenodd" d="M262.8 75.7688C262.8 74.7881 262.72 73.6477 262.48 72.6734C261.426 68.1916 257.513 64.4445 252.134 64.4445C244.723 64.4445 240.327 70.9611 240.327 79.5957C240.327 87.6585 244.317 94.255 251.974 94.255C256.778 94.255 261.177 90.9999 262.48 85.7003C262.72 84.726 262.8 83.7485 262.8 82.6081V75.7688ZM269.971 41.3103V88.9618C269.971 92.4629 270.051 96.4528 270.304 99.1457H263.864L263.538 92.3032H263.375C261.177 96.6988 256.453 100.04 250.019 100.04C240.487 100.04 233.079 91.9742 233.079 80.0014C232.993 66.8084 241.218 58.8254 250.75 58.8254C256.858 58.8254 260.934 61.6717 262.64 64.7703H262.8V41.3103H269.971Z" fill="#FEFEFE"></path><path fill-rule="evenodd" clip-rule="evenodd" d="M54.3718 168.254C56.5664 169.557 60.3135 171.023 63.9009 171.023C69.0343 171.023 71.4717 168.5 71.4717 165.158C71.4717 161.737 69.4337 159.865 64.2267 157.91C57.0648 155.303 53.7202 151.473 53.7202 146.749C53.7202 140.395 58.9271 135.185 67.3253 135.185C71.3088 135.185 74.8131 136.242 76.9342 137.625L75.2252 142.759C73.6727 141.861 70.8296 140.481 67.1624 140.481C62.9266 140.481 60.6457 142.925 60.6457 145.857C60.6457 149.196 62.9266 150.659 68.0537 152.614C74.8131 155.141 78.4037 158.565 78.4037 164.503C78.4037 171.512 72.9444 176.4 63.7412 176.4C59.4318 176.4 55.4292 175.259 52.666 173.63L54.3718 168.254Z" fill="#FEFEFE"></path><path fill-rule="evenodd" clip-rule="evenodd" d="M128.816 126.635V136.081H139.083V141.537H128.816V162.799C128.816 167.683 130.203 170.453 134.196 170.453C136.148 170.453 137.288 170.293 138.352 169.964L138.684 175.424C137.288 175.909 135.09 176.401 132.324 176.401C128.982 176.401 126.296 175.257 124.584 173.382C122.629 171.188 121.808 167.683 121.808 163.042V141.537H115.703V136.081H121.808V128.833L128.816 126.635Z" fill="#FEFEFE"></path><path fill-rule="evenodd" clip-rule="evenodd" d="M200.493 155.384C192.673 155.221 183.799 156.605 183.799 164.265C183.799 168.993 186.895 171.107 190.479 171.107C195.689 171.107 199.03 167.846 200.171 164.504C200.413 163.773 200.493 162.962 200.493 162.23V155.384ZM207.499 166.057C207.499 169.478 207.665 172.816 208.074 175.503H201.637L200.985 170.532H200.739C198.621 173.631 194.312 176.401 188.687 176.401C180.707 176.401 176.631 170.782 176.631 165.079C176.631 155.547 185.099 150.337 200.33 150.417V149.602C200.33 146.344 199.442 140.396 191.376 140.482C187.636 140.482 183.799 141.536 181.033 143.408L179.394 138.607C182.662 136.572 187.466 135.183 192.431 135.183C204.563 135.183 207.499 143.408 207.499 151.308V166.057Z" fill="#FEFEFE"></path><path fill-rule="evenodd" clip-rule="evenodd" d="M251.647 148.379C251.647 143.738 251.567 139.748 251.324 136.081H257.589L257.914 143.818H258.157C259.956 138.524 264.348 135.183 269.159 135.183C269.89 135.183 270.459 135.266 271.114 135.429V142.105C270.299 142.026 269.568 141.946 268.587 141.946C263.537 141.946 259.956 145.773 258.978 151.066C258.815 152.126 258.732 153.267 258.732 154.49V175.503H251.567L251.647 148.379Z" fill="#FEFEFE"></path><path fill-rule="evenodd" clip-rule="evenodd" d="M277.346 177.795H278.528V175.53H279.904C280.317 175.53 280.598 175.718 280.62 176.105C280.598 176.52 280.598 176.974 280.62 177.258C280.626 177.443 280.681 177.619 280.77 177.795H282.038V177.581C281.911 177.501 281.818 177.43 281.818 177.111C281.818 176.82 281.792 176.063 281.767 175.83C281.703 175.309 281.32 175.169 281.131 175.038C281.511 174.808 281.757 174.629 281.901 174.131C282.038 173.632 281.93 173.22 281.847 172.974C281.684 172.351 281.096 172.083 280.527 172.061H277.346V177.795ZM278.528 173.041H280.115C280.646 173.041 280.828 173.281 280.828 173.696C280.898 174.255 280.406 174.546 280.131 174.546H278.528V173.041Z" fill="#FEFEFE"></path><path fill-rule="evenodd" clip-rule="evenodd" d="M275.7 174.986C275.7 172.833 277.451 171.079 279.62 171.079C281.77 171.079 283.52 172.833 283.52 174.986C283.52 177.145 281.77 178.896 279.62 178.896C277.451 178.896 275.7 177.145 275.7 174.986ZM279.62 179.883C282.306 179.883 284.504 177.685 284.504 174.986C284.504 172.29 282.306 170.095 279.62 170.095C276.914 170.095 274.723 172.29 274.723 174.986C274.723 177.685 276.914 179.883 279.62 179.883Z" fill="#FEFEFE"></path></g></svg> 