<?xml version="1.0" encoding="utf-8"?>
<!-- Generator: Adobe Illustrator 26.5.1, SVG Export Plug-In . SVG Version: 6.00 Build 0)  -->
<svg version="1.1" id="Layer_1" xmlns="http://www.w3.org/2000/svg" xmlns:xlink="http://www.w3.org/1999/xlink" x="0px" y="0px"
	 width="158px" height="89px" viewBox="0 0 158 89" style="enable-background:new 0 0 158 89;" xml:space="preserve">
<style type="text/css">
	.st0{fill:#FFFFFF;}
</style>
<g>
	<g>
		<path class="st0" d="M103.4,31.2c0.7,0,0.8-0.4,0.3-0.8L81.9,8.6c-0.5-0.5-1.2-0.5-1.7,0L58.5,30.3c-0.5,0.5-0.3,0.8,0.3,0.8h5
			c0.7,0,1.6-0.4,2-0.8L80.3,16c0.5-0.5,1.2-0.5,1.7,0l14.4,14.4c0.5,0.5,1.4,0.8,2,0.8C98.4,31.2,103.4,31.2,103.4,31.2z"/>
		<path class="st0" d="M82,21.6c-0.5-0.5-1.2-0.5-1.7,0l-8,8c-0.5,0.5-0.3,0.8,0.3,0.8h17c0.7,0,0.8-0.4,0.3-0.8L82,21.6z"/>
		<path class="st0" d="M58.8,57.9c-0.7,0-0.8,0.4-0.3,0.8l21.8,21.8c0.5,0.5,1.2,0.5,1.7,0l21.8-21.8c0.5-0.5,0.3-0.8-0.3-0.8h-5
			c-0.7,0-1.6,0.4-2,0.8L81.9,73.2c-0.5,0.5-1.2,0.5-1.7,0L65.9,58.8c-0.5-0.5-1.4-0.8-2-0.8L58.8,57.9L58.8,57.9z"/>
		<path class="st0" d="M80.2,67.5c0.5,0.5,1.2,0.5,1.7,0l8-8c0.5-0.5,0.3-0.8-0.3-0.8h-17c-0.7,0-0.8,0.4-0.3,0.8L80.2,67.5z"/>
		<g>
			<g>
				<path class="st0" d="M55,54.5c0,0.3,0.2,0.5,0.5,0.5h2.9c0.3,0,0.5-0.2,0.5-0.5V38.6c0-0.3-0.2-0.4-0.4-0.2l-3.1,3.1
					c-0.2,0.2-0.4,0.6-0.4,0.9V54.5z"/>
			</g>
			<g>
				<path class="st0" d="M58.9,35.1c0-0.3-0.2-0.5-0.5-0.5h-2.9c-0.3,0-0.5,0.2-0.5,0.5v3.7c0,0.3,0.2,0.4,0.4,0.2l3.1-3.1
					C58.9,35.5,58.9,35.4,58.9,35.1L58.9,35.1z"/>
			</g>
			<path class="st0" d="M53.8,32.3c0-0.3-0.2-0.7-0.5-0.8l-4.1-4.3c-0.2-0.2-0.7-0.1-0.9,0l-8,8.2c-0.2,0.2-0.4,0.5-0.4,0.8V40
				c0,0.3,0.2,0.4,0.4,0.2l3.2-3.2c0.2-0.2,0.4-0.1,0.4,0.2v17.1c0,0.3,0.2,0.5,0.5,0.5h5.2c0.3,0,0.7-0.2,0.9-0.4l2.8-2.8
				c0.2-0.2,0.4-0.6,0.4-0.9L53.8,32.3L53.8,32.3z M47.6,47.9v-14c2.5,0.2,2.6,1.9,2.6,2.1v14C47.7,49.8,47.6,48.1,47.6,47.9z"/>
			<path class="st0" d="M68.8,37.8l-3.2-3.2c-0.3-0.1-0.7-0.1-0.9,0L60.4,39c-0.2,0.2-0.4,0.5-0.4,0.8l0.1,4c0,0.3,0.2,0.4,0.5,0.3
				l2.8-2.8c0.2-0.2,0.5-0.5,0.5-0.8v-0.3c0,0,0,0,0-0.1v-0.7c1,0.3,1.4,1.6,1.5,1.9v0.5l-5,5c-0.2,0.2-0.5,0.5-0.5,0.7V50
				c0,0.3,0.3,0.7,0.4,0.8l3.9,3.9c0.2,0.2,0.6,0.2,0.9,0l3.7-3.7c0.2-0.2,0.5-0.5,0.5-0.8V38.3C69.3,38.3,69,38.1,68.8,37.8z
				 M63.8,48.1V47l1.4-1.4V50C64.3,49.7,63.9,48.4,63.8,48.1z"/>
			<path class="st0" d="M85.1,37.3l-2.6-2.7c-0.3-0.1-0.7-0.1-0.9,0.1l-1.9,2c-0.2,0.2-0.6,0.2-0.9,0.1l-1.9-1.9
				c-0.3-0.1-0.7-0.1-0.9,0.1l-1.4,1.6c-0.2,0.2-0.6,0.1-0.8-0.1l-0.2-0.2c-0.2-0.2-0.6-0.2-0.8-0.1l-1.7,1.2
				c-0.2,0.2-0.4,0.5-0.4,0.8v16.3c0,0.3,0.2,0.5,0.5,0.5h2.9c0.3,0,0.5-0.2,0.5-0.5V41.4l0,0v-1.8c1,0.3,1.4,1.6,1.5,1.9v13.2
				c0,0.2,0.3,0.4,0.5,0.4h3c0.3,0,0.5-0.3,0.5-0.5V39.7c1,0.3,1.4,1.6,1.5,1.9v13.2c0,0.2,0.3,0.4,0.5,0.4h3c0.3,0,0.5-0.3,0.5-0.5
				V38.3C85.6,37.8,85.3,37.6,85.1,37.3z"/>
			<path class="st0" d="M106.8,36.9l-2.3-2.3c-0.3-0.1-0.7-0.1-0.9,0.1l-1.9,1.9c-0.3,0.3-1,0.3-1.2,0.1l-0.6-0.6
				c-0.2-0.2-0.6-0.2-0.8-0.1l-1,1c-0.2,0.2-0.4,0.5-0.4,0.8v16.6c0,0.3,0.2,0.5,0.5,0.5h3c0.3,0,0.5-0.2,0.5-0.5v-15
				c1,0.3,1.4,1.6,1.5,1.9v13.3c0.1,0.2,0.3,0.3,0.5,0.3h3c0.3,0,0.5-0.2,0.5-0.5V37.6C107.3,37.4,107,37.1,106.8,36.9z"/>
			<path class="st0" d="M95.9,38l-3.3-3.4c-0.3-0.1-0.7-0.1-0.9,0l-4.5,4.6c-0.2,0.2-0.5,0.5-0.5,0.8v10.2c0,0.3,0.2,0.7,0.4,0.9
				l3.7,3.8c0.2,0.2,0.6,0.2,0.9,0.1l4.1-4.1c0.2-0.2,0.5-0.5,0.5-0.9V38.8C96.4,38.5,96.1,38.2,95.9,38z M92.4,50
				c-1.6-0.2-1.7-2.1-1.7-2.2v-8.2c1.6,0.2,1.7,2.1,1.7,2.2V50z"/>
			<path class="st0" d="M117.7,34.2l-7-7c-0.2-0.2-0.6-0.1-0.7,0.2l-2.2,2.1c-0.2,0.2-0.1,0.6,0.1,0.8c0,0,4.4,4.4,4.6,4.5
				c0.8,0.6,0.3,1,0.1,1.3l-3.5,3.6c-0.2,0.2-0.5,0.5-0.5,0.8v10.2c0,0.3,0.2,0.7,0.4,0.9l3.5,3.5c0.2,0.2,0.6,0.2,0.9,0.1l4.3-4.3
				c0.2-0.2,0.5-0.5,0.5-0.8V35.2C118.2,34.7,117.9,34.5,117.7,34.2z M114.3,50c-1.6-0.2-1.7-2.1-1.7-2.2v-8.3
				c1.6,0.2,1.7,2.1,1.7,2.2V50z"/>
		</g>
	</g>
	<g>
		<path class="st0" d="M106.4,25.1c0,0.6-0.5,1.1-1.1,1.1s-1.2-0.5-1.2-1.1s0.5-1.1,1.2-1.1C105.9,24,106.4,24.5,106.4,25.1z
			 M104.4,25.1c0,0.5,0.4,0.9,0.9,0.9s0.9-0.4,0.9-0.9s-0.4-0.9-0.9-0.9C104.7,24.2,104.4,24.6,104.4,25.1z M105,25.7h-0.3v-1.1
			c0.1,0,0.2,0,0.4,0c0.2,0,0.3,0,0.4,0.1c0.1,0,0.1,0.1,0.1,0.2s-0.1,0.2-0.2,0.3l0,0c0.1,0,0.2,0.1,0.2,0.3c0,0.2,0.1,0.2,0.1,0.3
			h-0.3c0,0-0.1-0.1-0.1-0.3c0-0.1-0.1-0.2-0.2-0.2H105V25.7z M105,25.1L105,25.1c0.2,0,0.4,0,0.4-0.2c0-0.1-0.1-0.2-0.2-0.2
			s-0.1,0-0.1,0v0.4H105z"/>
	</g>
</g>
</svg>
