<?xml version="1.0" encoding="utf-8"?>
<!-- Generator: Adobe Illustrator 24.3.0, SVG Export Plug-In . SVG Version: 6.00 Build 0)  -->
<svg version="1.1" id="earth-animal-logo" xmlns="http://www.w3.org/2000/svg" xmlns:xlink="http://www.w3.org/1999/xlink" x="0px"
	 y="0px" viewBox="0 0 182.5 36" style="enable-background:new 0 0 182.5 36;" xml:space="preserve">
<style type="text/css">
	.st0{fill-rule:evenodd;clip-rule:evenodd;fill:#779803;}
	.st1{fill-rule:evenodd;clip-rule:evenodd;fill:#503529;}
</style>
<path id="Green-florishes" class="st0" d="M28.8,22.5c-0.2-0.1-0.3-0.2-0.1,0.1c-0.3,0-0.1,0.1-0.2,0.3c-0.3,0.4-0.6,0.8-0.9,1.1
	c-0.4,0.2-1.6,1.4-1.8,1.5c-0.7,0.3-1.2,1-1.3,1.7c-0.1,0.4-0.2,0.7-0.2,1.1c0,0.5,0,1.1-0.1,1.6c-0.1,0.3-0.2,0.9-0.2,0.9
	c0.1,0.2,0.4,1.2,0.7,1.2c0.7,0.1,1.2,0,1.1,0.9c0,0.4-0.7,0.2-0.9,0.3c-0.1,0.1,0,0.3-0.2,0.4c-0.3,0.2-1.5,0.2-1.8,0.1
	c-0.5-0.1-0.2-0.6-0.6-0.8c0.1-0.2-0.1,0,0-0.2c-0.3,0.1-0.3,0.2-0.1,0c-0.3,0.1,0.1-0.1-0.2-0.1c0-0.2,0-0.4,0-0.7
	c0-0.2-0.2,0-0.4,0.1S21.1,32,21.1,32s0.2-0.1,0.3-0.1c-0.7,0,0.4-0.4-0.3-0.3l0.2-0.2c-0.4,0.1-0.6,0.1-0.6-0.4
	c0.2-0.1,0.3-0.2,0.4-0.4c0.1-0.3-0.1-0.2-0.3,0s-0.2,0.3-0.2,0c-0.1-0.2,0-0.2,0.2-0.5c0.2-0.4,0-0.5,0-0.5c-0.3-0.1-0.5,0-0.5,0.3
	c0-0.2,0-0.3,0-0.5c0.2-0.4-0.1-0.1-0.2,0.2s0.6-2.7-0.2-2.5c-0.1,0-0.3,0-0.4,0c0.2,0.3-0.4-0.2-0.3,0.1c-0.3-0.2-0.5-0.3-0.8-0.4
	c-0.6-0.1-1.2-0.3-1.8-0.5c0.3,0.4-0.1,0-0.3-0.1c0.3,0.6-0.2-0.3-0.3,0c-0.4-0.3-0.9-0.5-1.5-0.6c-0.5,0-1,0.2-1.4,0.5
	c-0.2,0.3-0.2,0.4-0.3,0.4c-0.2,0.1-0.3,0.3-0.4,0.5c-0.3-0.2-0.1,0,0,0.2c-0.3-0.2-0.2-0.2-0.1,0.1L12,27.3c0,0-0.7,0.4-1.3,0.7
	c-0.7,0.4-1.2,1-1.6,1.7C9,30.3,9.1,31,9.3,31.6c0,0.1,0.5,0,0.8,0.2c0.2,0.2,0.7,0.6,0.2,0.7c-0.2,0.1-0.4,0.1-0.6,0.1
	c-0.8-0.1-1.2,0.3-1.4-0.9C8,31,7.9,30.2,7.9,29.5c0.1-0.8-1.1,0.3-0.8,1.9c0.1,0.4,0.1,0.7,0,1.1c0.3,0,0.6,0.2,0.9,0.4
	c0.2,0.4,0.4,0.5-0.1,0.6c-0.5,0.1-1,0.1-1.5,0c-0.5-0.1-0.5-0.9-0.5-1.6c0-0.6,0-1.1,0-1.3c0-0.2,0-1,0-1.5c0-0.6,0.1-0.6,0.5-0.9
	l0.6-0.4c0-0.6,0-1.2,0-1.7c0.1-0.3,0.2-0.6,0.3-0.9c-0.2,0-0.2,0-0.1-0.2c-0.3,0.2,0.1-0.1-0.2-0.3c0.2-0.5-0.3-1.1-0.1-1.6
	c0.2-0.8,0.4-1.6,0.7-2.3c0,0-0.9,0-1.2,0.6c-0.2,0.6-0.7,1.1-1.4,1.4c0.1,0,0.2-0.1,0.2-0.2c0-0.2-0.3,0.1-0.5,0.2s-0.3,0-0.3,0
	s0.4,0,0.5-0.2s-0.3-0.1-0.5,0c-0.2,0-0.7,0-0.5-0.2c-0.2,0-0.4,0.2-0.4-0.1c-0.3-0.1-0.5-0.2-0.8-0.3c-0.2-0.2-0.4-0.4-0.6-0.6
	c0,0,0,0.1-0.1,0.1c-0.1-0.2-0.3-0.7-0.3-0.2c0,0-0.1-0.2-0.1-0.4c0-0.2-0.2,0.2-0.2-0.1c-0.2-0.3-0.3-0.6-0.4-0.9
	c-0.1-0.4-0.1-0.5-0.1-0.5c-0.4,0.1-0.4-0.6-0.6-0.2c0,0-0.4,0.2-0.2-0.3c0.5-1.4,2.5-1.2,3.6-0.8c0.9,0.4,0.9,0.1,1.3,0.2
	c0.4,0.2,0.9,0.4,1.4,0.4c0.3,0,1.2,0.2,1.7,0.1c0.5-0.1,2.2-0.7,2.8-0.8c1.1-0.1,2.3-0.1,3.4,0c1.1,0.1,1,0.3,1.2,0.1
	c0.4-0.2,0.8-0.2,1.3-0.2c0.5,0.1,1.1,0,1.6-0.1c0.7-0.2,1.4-0.3,2.1-0.4c0.6,0.1,1.3-0.7,1.9-0.9c0.2,0,0.3-0.2,0.4-0.3
	c0.7-0.3,1.2-0.9,1.5-1.6c0.2-0.4,0.4-0.7,0.7-1c0.8-0.6,0.7-1.8,1.5-2.4c0.3-0.2,0.6-0.4,0.9-0.6c0.4-0.2,0.9-0.3,1.4-0.3
	c0.6,0,1.2,0.4,1.8,0.3c0.3,0,2-0.5,2,0c0,0.3,0.3,0.6,0.3,1c0,0.2,0.1,0.6,0,0.6c-0.9,0.9-2.6,1.7-2.9,3.1
	c-0.3,1.2-1.1,2.2-1.3,3.4c-0.1,0.7,0,1.1-0.1,1.5s-0.3,1.3-0.2,1.5c0.1,0.2,0.3,0.2,0.1,0.2c0.3,0.2-0.2-0.1,0.1,0.3
	C28.5,22.3,28.7,22.4,28.8,22.5z M140.3,7.2c-0.1-0.2,0.4-0.9,0.5-1c0.4-0.4,1-0.5,1.5-0.4c0.5,0,1.3,0,1.3,0
	c-0.4,0.4-0.5,0.8-1,1.2c-0.1,0.1-0.2,0.2-0.4,0.3C141.7,7.6,140.5,7.6,140.3,7.2z M140.5,6.1c-0.3,0.7-0.8,0.8-0.8,0.8
	c-0.2-0.2-0.3-0.3-0.5-0.5c-0.3-0.5-0.3-1.1,0-1.6c0.2-0.4,0.5-0.7,0.9-1c0.1,0.1,0.1,0.2,0.2,0.3c0.1,0.1,0.2,0.3,0.2,0.5
	C140.7,5,140.7,5.6,140.5,6.1L140.5,6.1z M137.6,5.7c0.8,0.2,1.5,0.8,1.6,1.6c0,0-0.5,0.2-0.5,0.2c-0.2,0.1-0.5,0.1-0.7,0
	c-0.8-0.2-1.4-0.8-1.6-1.6C136.5,5.7,137.5,5.7,137.6,5.7L137.6,5.7z M139.5,7.7c0.2,0.1,0.3,0.8,0.3,1c0,0.5-0.2,0.9-0.6,1.2
	c-0.4,0.2-0.8,0.6-1.1,1c0.1-0.1,0-0.5,0-0.7c0-0.2,0-0.4,0-0.6c0-0.4,0.1-0.8,0.3-1.2C138.6,8,139.1,7.7,139.5,7.7L139.5,7.7z
	 M141,7.7c0.4,0.1,0.8,0.8,1,1.3c0.1,0.5,0.2,0.9,0.1,1.4c0-0.1-0.4-0.3-0.4-0.3c-0.2-0.1-0.4-0.2-0.6-0.3c-0.4-0.2-0.7-0.4-0.9-0.7
	c-0.1-0.2-0.4-0.9-0.2-1.1c0.1-0.1,0.1-0.1,0.1-0.1C140.4,7.7,140.8,7.7,141,7.7L141,7.7z M139.5,7.6c-0.1-0.1-0.1-0.4,0-0.5
	c0.1-0.1,0.4-0.1,0.5,0c0.1,0.1,0.1,0.4,0,0.5C139.9,7.7,139.7,7.7,139.5,7.6L139.5,7.6z M43.2,18c1.6-3.8,4.4-7,9.6-6
	c-1.8,1-2.2,3.3-3.7,5c-1.1,1.3-2.7,2.1-5.5,1.4c-1.3,1.1-2.4,2.5-3.3,4c-0.4,0.7-0.7,1.5-1,2.3c-0.7,2.2-0.5,4.4-1,6.6
	c-0.1,0.7-0.5,1.4-0.9,2c-0.8,0.9-2.1,1.3-3.2,0.9c-0.8-0.2-1.5-0.9-1.7-1.7c-0.3-1.1,0.3-2.3,1.4-2.6c0.4-0.1,0.8-0.1,1.2,0
	c0.7,0.2,1.2,0.9,1.2,1.6c0,0.5-0.3,0.9-0.7,1.2c-0.5,0.2-1,0.1-1.4-0.2c-0.1-0.1-0.1-0.2-0.1-0.3c-0.1-0.3,0.1-0.3,0.1,0
	c0,0.1,0.1,0.2,0.1,0.2c0.3,0.2,0.7,0.2,1,0c0.3-0.2,0.5-0.5,0.6-0.9c0.1-0.5-0.2-1.1-0.7-1.3c-0.1,0-0.1,0-0.2,0
	c-0.3,0-0.6,0-0.9,0.1c-0.8,0.3-1.3,1.2-1.1,2.1c0.1,0.8,0.7,1.4,1.4,1.6c0.9,0.3,1.9-0.2,2.4-1c0.3-0.6,0.5-1.2,0.5-1.9
	c0.3-2.4,0.3-4.3,1.4-6.6c0.4-0.8,0.8-1.5,1.2-2.2c0.9-1.5,2.2-2.8,3.6-3.8c1.1-1.2,4.2-2.7,5.2-4.2C47.4,15.4,44.3,16.9,43.2,18z
	 M38.3,22.5c-2.4-0.1-3.4-1.2-3.9-2.4c-0.7-1.6-0.4-3.4-1.5-4.6c4.1,0.5,5.4,3.6,5.6,6.7c-0.5-1.1-2.4-2.9-3.1-4.1
	C35.8,19.5,37.7,21.4,38.3,22.5z M32.4,22.1c3.5,0.9,4.2,3.7,4.1,6.5c-0.3-1-1.7-2.8-2.1-4c0.2,1.2,1.6,3.1,1.9,4.2
	c-2-0.4-2.8-1.4-3.1-2.6C32.8,24.7,33.2,23.2,32.4,22.1L32.4,22.1z M41.2,14.2c-0.5,1.1-0.2,3.5-0.5,4.6c-1.5-1.4-1.7-2.6-1.4-3.8
	c0.4-1.5,1.6-2.6,1.5-4c2.5,2.6,1.7,5.4,0.2,7.7C41.3,17.7,41,15.4,41.2,14.2z M39.1,29.4c1.3-2.9,3.5-5.4,7.6-4.5
	c-1.4,0.7-1.8,2.6-2.9,3.8c-0.9,1-2.2,1.6-4.5,1c0.9-0.9,3.3-2.1,4.1-3.2C42.3,27.5,40,28.6,39.1,29.4L39.1,29.4z M41,22.8
	c1.3-2.1,3.2-3.8,6.2-2.8c-1.1,0.4-1.6,1.8-2.6,2.7c-1,0.9-2.4,1-3.5,0.4c0.7-0.6,2.7-1.3,3.4-2.1C43.6,21.6,41.7,22.2,41,22.8z
	 M155.8,22.7c0-0.3,0.2-0.3,0.1-0.5l0-0.2c0.2-0.8,0.4-1.7,0.6-2.5c-0.4,0.1-0.9,0-1.3-0.3c-0.3-0.3-0.6-0.6-0.9-1
	c-0.4-0.6-0.7-1.2-1-1.8c-0.1-0.2-0.3-0.4-0.3-0.7c0.5,0.1,0.8,0.5,1.3,0.6c0.3,0.2,0.7,0.4,1,0.6c0.4,0.3,0.8,0.7,1.1,1.1
	c0.1,0.1,0.2,0.2,0.2,0.4c0.3-0.5,0.5-1,0.5-1.6c-1.2,0.1-2.4-0.5-2.9-1.7c-0.2-0.5-0.4-1-0.6-1.5c-0.1-0.3-0.5-0.5-0.5-0.8
	c1.5,0.4,3.1,0.7,4,2.1c0,0,0.1,0.1,0.1,0.1c0,0.2,0.2,0.3,0.1,0.4c0.1,0,0.1-0.1,0.1,0.1c0.2-0.2,0.2-0.5,0.3-0.7
	c-0.1-0.1-0.2-0.1-0.3-0.2c-0.1-0.2-0.3-0.3-0.4-0.4c-0.6-0.6-1.1-1.4-1.4-2.2c-0.1-0.4-0.2-0.7-0.3-1.1c-0.1-0.6-0.1-1.3,0-1.9
	c0-0.1-0.1-0.2,0-0.3c0.1,0,0.2,0,0.2,0.2c0.9,0.8,2.3,1.2,2.7,2.6c0.1,0.6,0.2,1.3,0.1,2c0.2-0.3,0.3-0.6,0.4-0.9
	c0-0.6,0.2-1.1,0.1-1.6c0.2-0.2,0.3-0.4,0.3-0.6c0.2-0.3,0.3-0.6,0.5-1c0.2-0.1,0.3-0.3,0.4-0.5c0.4-0.3,0.8-0.7,1.3-1
	c0.1-0.1,0.1-0.1,0.2-0.2c0.1,0.1,0.3,0,0.3-0.1c0.3,0.1,0.7-0.4,1-0.4c-0.1,0.4-0.2,0.9-0.2,1.3c-0.2,0.4-0.3,0.8-0.4,1.2
	c0,0.1-0.1,0.2-0.1,0.3c-0.1,0.2-0.2,0.3-0.2,0.5c-0.2,0.1-0.2,0.4-0.4,0.5c-0.1,0.1-0.2,0.2-0.3,0.3s-0.2,0.2-0.3,0.3
	c-0.4,0.2-0.7,0.4-1.1,0.6c-0.2,0.1-0.3,0.3-0.5,0.4c-0.2,0.3-0.3,0.5-0.4,0.8c0.1,0,0.1-0.1,0.1-0.2c0.1,0,0.2-0.1,0.2-0.2
	c0.2,0,0.3-0.1,0.3-0.3c0.2,0,0.4-0.2,0.7-0.3c0.4-0.2,0.9-0.2,1.3-0.4c0.1,0,0,0,0-0.1c0,0,0,0.1,0.1,0c0.6-0.3,1.4-0.6,1.7-1.1
	c0,0.4-0.1,0.7-0.3,1.1c-0.3,0.6-0.7,1.1-1.1,1.6c-0.2,0.2-0.4,0.4-0.5,0.5c-0.3,0.2-0.6,0.4-0.9,0.6c-0.2,0-0.4,0.2-0.5,0.3
	c-0.7,0.3-1.4,0.4-2.1,0.3c-0.2,0.4-0.4,0.8-0.4,1.2c0.3-0.2,0.7-0.3,1-0.4c0.1,0,0.1-0.1,0.1-0.1c0.1,0,0.1,0.1,0.2,0.1
	c0.6-0.1,1.2-0.1,1.7-0.2c0.1,0,0.2,0,0.2-0.1c1-0.1,2-0.6,2.7-1.3c0.3,0.6-0.2,1.1-0.5,1.6c-0.7,0.9-1.6,1.5-2.6,1.9
	c-0.6,0.1-1.2,0.2-1.8,0.1c-0.1-0.1-0.3-0.1-0.5-0.1c-0.3-0.2-0.6-0.4-0.9-0.5c-0.1,0.3-0.2,0.7-0.3,1c0.3,0,0.5-0.1,0.8-0.2
	c0.1,0,0-0.1,0-0.1c0.2,0,0.4,0,0.6,0c0.1,0.2,0.3,0,0.5,0.1c0.2,0.1,0.4,0.2,0.5,0.2c0.4,0.2,0.8,0.6,1.2,0.8
	c0.6,0.4,1.2,0.5,1.9,0.5c0.1,0,0.2-0.1,0.3-0.1c0.1,0.2-0.2,0.3-0.4,0.4c-0.6,0.3-1.2,0.5-1.9,0.6c-0.9,0.1-1.8-0.1-2.6-0.7
	c-0.4-0.3-0.7-0.7-1.1-0.9c-0.1,0.3-0.2,0.6-0.3,1c-0.1,0.2-0.3,0.7-0.3,0.9l-0.1,0.6C156.1,23,155.9,22.9,155.8,22.7z M179.6,13.5
	c0.7-0.7,1.8-0.7,2.7-0.2c0.5,0.6,0.2,0.8-0.4,0.8c-2.1,0-1.9,1.2-1.9,2.8c0.1,1.5-0.2,3.1-0.7,4.5c-0.3,0.8-0.3,1.7,0,2.4
	c0.3,0.6,0.3,1.3,0.2,2c0.1,1.2,0.7,2.4,1.6,3.2c0.5,0.3,0.7,0.9,0.7,1.4c0.1,0.9,0.2,1.7,0.3,2.6c0,0.7-0.3,0.9-0.7,0.9
	c-0.3,0.1-0.6,0-0.9-0.1c-0.3-0.1-0.4-0.4-0.3-0.7c0-0.1,0.1-0.1,0.1-0.2c0.1-0.1,0.3-0.2,0.2-0.3v-0.9c0.1-0.5-0.1-1-0.5-1.2
	c-1-0.5-2-1.1-3-1.7c0.2,0.3,0.4,0.6,0.5,0.8c0.3,0.5,0.3,1.1,0,1.6c-0.3,0.4-0.6,0.9-0.9,1.3c-0.4,0.6-0.8,1.2-1.6,1.1
	c-0.7,0.2-1,0-1.2-0.3c0.1-0.6,0.2-1,1-0.7c0.2,0,0.4-0.1,0.5-0.3c0.2-0.2,0.3-0.4,0.5-0.6c0.2-0.4,0.2-0.9,0-1.3
	c-0.5-0.3-1-0.6-1.4-1c-0.9,0.2-1.8,0.2-2.8,0.1c-0.3,1.4-0.6,2.9-0.8,4.3c-0.1,0.7-0.7,1.2-1.5,1.1c0,0-0.1,0-0.1,0
	c-0.3,0.1-0.7,0-1-0.2c-0.2-0.7-0.1-1.1,0.9-1c0.3,0,0.4-0.2,0.4-0.6c-0.1-1-0.1-2-0.2-3c0-1-0.5-1.3-1.1-1
	c-0.2,0.2-0.4,0.4-0.5,0.7c-0.6,1.3-1.2,2.7-1.7,4c-0.4,0.7-1.3,1.1-2.1,0.8c-0.6,0.1-0.6-0.5-0.3-0.9c0.1-0.1,0.3-0.2,0.7-0.3
	c0.4,0.2,0.6-0.2,0.7-0.8c0.1-0.9,0.3-1.8,0.4-2.7c0.2-1,0.1-2-0.3-2.9c-0.4-1.1-0.4-2.3-0.1-3.5c0-0.6,0.1-1.1,0.1-1.7
	c-0.2-0.7-0.2-1.4,0-2.2c-0.1-0.7-0.1-1.4,0-2.1c0.1-1,0.5-1,1.2-0.3c0.3,0.4,0.5,0.8,0.7,1.3c0.6-0.1,1.1,0,1.6,0.2
	c0.2-0.4,0.6-0.8,0.9-1.1c0.5-0.5,0.8-0.4,0.8,0.3c0,0.8-0.2,1.5-0.6,2.2c0.2,0.5,0.2,1.1-0.1,1.6c0.2,0.4,0.2,0.9,0.9,0.8
	c1.1,0,2.3-0.2,3.3-0.7c1-0.4,2-0.6,3-0.7c0.8,0,1.1-1.3,1.3-3.3C178.7,16.4,178.3,14.6,179.6,13.5z M54.8,4.7
	c-0.1,0.1-0.1,0.1-0.2,0.2c-0.3,0.2-0.6,0.3-0.9,0.5c-0.1,0.1-0.1,0.1-0.2,0.1c-0.1,0.1-0.1,0.3-0.2,0.3c-0.1,0-0.1,0.1-0.2,0.1
	C53,6.1,53,6.2,52.9,6.3s-0.1,0-0.1,0.1l0,0c-0.2,0.2-0.5-0.1-0.7-0.3c0.1,0.1,0.1,0.3,0.2,0.5c0,0,0,0.1,0,0.1c0,0.3-0.5,0.7-1,1
	c-0.1,0.1-0.2,0.2-0.2,0.2s-0.2,0-0.3,0c-0.1,0-0.2,0.1-0.3,0.2c-0.1,0-0.2,0-0.3,0S50,8,49.9,8c-0.1,0-0.2-0.4-0.2-0.5l0,0
	c0-0.2,0-0.6,0-1c0-0.1,0-0.3-0.1-0.4c0,0,0,0,0,0c0-0.2,0.1-0.4,0.1-0.5c0,0.1-0.1,0.1-0.2,0.2c0,0-0.3,0.3-0.3,0.2
	c-0.1-0.1,0.1-0.5,0.2-0.5c0.1-0.1,0.1-0.2,0.2-0.2l0,0c-0.1,0-0.5,0.3-0.6,0.4c0,0,0,0,0,0c-0.1,0-0.3,0-0.4,0
	c-0.3,0.1-0.7,0.2-0.9,0.3h0h0c-0.2,0-0.3,0-0.5,0c0-0.1,0-0.2-0.1-0.2c-0.1-0.1-0.1-0.2-0.1-0.2c0-0.1,0-0.2,0-0.3
	c0-0.1-0.1-0.2-0.1-0.3s0.1-0.2,0.1-0.3C47,4,47.2,3.4,47.5,3.3l0,0c0.2,0,0.4-0.1,0.6,0c-0.2-0.1-0.6-0.3-0.5-0.5l0,0
	c0-0.1,0-0.1,0-0.2s0.1-0.1,0.2-0.2c0-0.1,0-0.2,0-0.2c0-0.1,0.2-0.2,0.2-0.3c0-0.1,0-0.2,0.1-0.2c0.1-0.3,0.2-0.7,0.2-1
	c0-0.1,0.1-0.2,0.1-0.3C48.5,0.1,48.6,0,48.7,0c0.4,0.1,1,1.1,1.1,1.3c0.1,0.3,0.2,0.7,0.2,1.1C50,2.9,50,3.4,50,3.8
	c0,0.2,0,0.5,0,0.7c0,0,0.1-0.1,0.1-0.1c0,0,0,0,0,0s0,0,0-0.1c0-0.1,0.1-0.1,0.1-0.1c0-0.1,0-0.2,0-0.2c0-0.1,0-0.1,0-0.2
	c0-0.2,0-0.4,0-0.5c0,0,0,0-0.1-0.1c0,0,0.1,0.1,0.1,0.1c0,0.1,0,0.1,0,0.2c0,0.2,0,0.4,0,0.6c0,0,0,0,0,0c0,0,0,0,0,0
	c0.2-0.1,0.3-0.2,0.5-0.3C50.9,4,51,3.9,51,3.9c0,0,0.2,0,0.2,0c0,0-0.1,0-0.1,0c-0.2,0-0.4,0.1-0.5,0.2c-0.1,0-0.1,0.1-0.2,0.1
	l-0.1,0c0,0,0,0.1,0,0.2c0,0,0,0,0,0c0,0,0,0-0.1,0c0,0.1,0,0.1-0.1,0.2c0.2-0.1,0.4-0.2,0.7-0.2c0.4-0.1,0.9-0.3,1.3-0.4
	c0.4-0.1,0.7-0.1,1.1-0.2c0.6,0,1.1,0.2,1.6,0.5C55,4.4,54.9,4.6,54.8,4.7z M42.7,7.7c0,0.1-0.1,0.1-0.1,0.2c-0.1,0.1-0.3,0.1-0.5,0
	l-0.3-0.1c-0.2-0.1-0.3-0.4-0.2-0.6c0.1-0.2,0.4-0.3,0.6-0.2c0,0,0,0,0,0l0.3,0.1C42.8,7.2,42.8,7.5,42.7,7.7
	C42.7,7.7,42.7,7.7,42.7,7.7z M37.5,8.3c0,0.1-0.1,0.2-0.1,0.2c-0.1,0.2-0.4,0.3-0.6,0.2c-0.2-0.1-0.3-0.3-0.2-0.6
	c0-0.1,0.1-0.2,0.1-0.3c0.1-0.2,0.4-0.3,0.6-0.2C37.5,7.8,37.6,8.1,37.5,8.3L37.5,8.3z M36.8,10.2c0,0.1-0.1,0.2-0.1,0.3
	c0,0.1-0.1,0.2-0.2,0.2c-0.2,0.1-0.5,0.1-0.6-0.1c-0.1-0.1-0.1-0.3,0-0.4c0-0.1,0.1-0.2,0.1-0.3c0.1-0.2,0.3-0.4,0.6-0.3
	C36.7,9.7,36.9,9.9,36.8,10.2C36.8,10.2,36.8,10.2,36.8,10.2L36.8,10.2z M35.6,12.1c-0.1,0.1-0.2,0.2-0.2,0.2c0,0,0,0-0.1,0
	c-0.2,0.1-0.5,0.1-0.6-0.1c-0.1-0.2-0.1-0.4,0.1-0.6c0.1-0.1,0.1-0.1,0.2-0.2c0.2-0.2,0.5-0.2,0.6,0S35.8,11.9,35.6,12.1L35.6,12.1z
	 M38.7,7L38.7,7L38.7,7c-0.1,0.1-0.2,0.1-0.3,0.1c-0.2,0.1-0.5,0-0.6-0.2c-0.1-0.2,0-0.4,0.1-0.6h0c0.1-0.1,0.2-0.1,0.3-0.1l0,0
	c0.2-0.1,0.5,0,0.6,0.2C39,6.7,38.9,6.9,38.7,7L38.7,7z M44.5,8.7c-0.1,0.1-0.2,0.1-0.3,0.1c-0.1,0-0.2-0.1-0.3-0.1
	c-0.2-0.1-0.4-0.3-0.3-0.6c0.1-0.2,0.3-0.4,0.6-0.3c0.1,0,0.2,0.1,0.3,0.1c0.2,0.1,0.4,0.3,0.3,0.5c0,0,0,0,0,0
	C44.6,8.5,44.6,8.6,44.5,8.7L44.5,8.7z M48.3,6.9c0.2,0.2,0.1,0.5-0.1,0.6c-0.1,0.1-0.2,0.1-0.2,0.2c0,0,0,0,0,0
	c-0.2,0.1-0.5,0.1-0.6-0.2c-0.1-0.2-0.1-0.4,0.1-0.6c0.1-0.1,0.1-0.1,0.2-0.2C47.9,6.6,48.2,6.7,48.3,6.9L48.3,6.9z M40.1,6.9
	c-0.2,0-0.4-0.3-0.4-0.5C39.8,6.1,40,6,40.3,6c0,0,0,0,0,0c0.1,0,0.2,0.1,0.3,0.1c0.2,0.1,0.4,0.3,0.3,0.6c0,0,0,0,0,0
	c0,0.1-0.1,0.2-0.2,0.2C40.6,7,40.5,7,40.4,7C40.3,6.9,40.2,6.9,40.1,6.9L40.1,6.9z M46.5,8.6C46.5,8.6,46.4,8.6,46.5,8.6
	c-0.2,0.1-0.3,0.1-0.4,0.1c-0.2,0.1-0.5-0.1-0.5-0.3s0.1-0.5,0.3-0.5c0.1,0,0.2,0,0.2-0.1c0.2-0.1,0.5,0,0.6,0.3
	C46.7,8.2,46.7,8.5,46.5,8.6L46.5,8.6z M146.8,16.9c0.1,1.1-0.4,2.2-1.3,3c-0.8,0.5-1.6,0.8-2.5,1.1c0-0.2-0.1-0.5-0.1-0.7
	c0-0.3-0.1-0.7,0-1c0.1-1.1,0.6-2.1,1.4-2.9c0.5-0.6,1.3-0.9,2.1-0.8C146.6,16,146.8,16.4,146.8,16.9L146.8,16.9z M145.5,14.5
	c0,0.5-1.5,1.2-1.8,1.4c-1.1,0.5-2.1-0.1-3.1-0.5c-0.9-0.4-2.3-1-2.3-1c1.1-0.5,1.6-0.9,2.8-1.4c0.3-0.1,0.6-0.2,0.9-0.2
	C143.3,12.6,145.5,13.6,145.5,14.5L145.5,14.5z M149.7,15.6c1.3,0.9,1.9,2.7,1.4,4.2c-0.1,0.2-2-0.6-2.2-0.6
	c-1.4-0.6-1.8-2.8-1.6-4.2c0,0,1,0.1,1.1,0.1C148.8,15.2,149.3,15.4,149.7,15.6L149.7,15.6z M150,14c-0.8,0.5-1.7,0.6-2.6,0.2
	c-0.3-0.3,0.1-1.7,0.3-2c0.4-0.8,1.1-1.4,2-1.6c1-0.1,1.9-0.4,2.7-0.8c-0.3,0.2-0.5,0.9-0.6,1.2c-0.1,0.4-0.3,0.8-0.4,1.1
	C151.1,12.8,150.6,13.5,150,14L150,14z M144.7,12.9c-0.7-0.6-0.9-2.1-0.7-3.1c0.2-0.9,0.5-1.8,0.9-2.6c-0.1,0.1,0.4,0.8,0.5,1
	c0.2,0.4,0.6,0.7,0.8,1c0.5,0.6,0.8,1.3,1,2.1c0.1,0.5-0.1,1.9-0.7,2.2c-0.1,0-0.2,0.1-0.3,0C145.7,13.5,145.2,13.3,144.7,12.9
	L144.7,12.9z M146.3,13.9c0.4-0.1,0.7,0.1,0.8,0.4c0.1,0.3-0.1,0.7-0.4,0.8c-0.3,0.1-0.7,0-0.9-0.4C145.7,14.4,145.9,14,146.3,13.9
	C146.3,13.9,146.3,13.9,146.3,13.9z M155.9,24.2c2.6,0.4,4.4,2.7,4,5.3c-0.1,0.4-0.2,0.8-0.3,1.1c-0.8,1.9-2.5,3.3-4.5,3.7
	c-2.6,0.4-5.2-0.9-6.3-3.3c-0.6-1.5-0.8-3.2-0.8-4.8c0-0.9-0.4-1.7-1.1-2.2c-0.7-0.5-1.7-0.3-2.2,0.3c-0.4,0.6-0.4,1.4,0.1,2
	c0.4,0.5,1,0.6,1.6,0.3c0.1-0.1,0.3-0.2,0.3-0.4c0.2-0.5,0-1-0.5-1.2c0,0-0.1,0-0.1,0c-0.2,0-0.4,0-0.5,0.1
	c-0.1,0.1-0.1,0.1-0.1,0.2c0,0.1,0.1,0.1,0.1,0.2c0.1,0.1-0.2,0.2-0.2,0.1c0-0.1,0-0.1,0-0.2c0-0.1,0.1-0.2,0.1-0.3
	c0.1-0.2,0.4-0.3,0.6-0.3c0.6,0,1,0.4,1,1c0,0.2-0.1,0.4-0.2,0.6c-0.5,0.7-1.4,1-2.2,0.5c-0.1-0.1-0.2-0.1-0.2-0.2
	c-0.6-0.7-0.6-1.7,0-2.4c0.6-0.8,1.7-1.1,2.6-0.7c0.3,0.2,0.6,0.4,0.8,0.7c-0.1-1.9-0.4-3.8-0.9-5.6c3.3,4.7,0.1,8.9,3.5,13.1
	c1.4,1.6,3.7,2.2,5.7,1.4c2.2-1,3.2-3.6,2.2-5.9c-0.5-1.2-1.5-2-2.7-2.4c-1.4-0.4-2.9,0.3-3.4,1.6c-0.4,1.3,0.4,2.7,1.7,3.1
	c0.1,0,0.3,0.1,0.4,0.1c0.5,0,1-0.1,1.3-0.5c0.2-0.2,0.3-0.3,0.1-0.5c-0.1-0.1-0.2-0.3-0.3-0.4c-0.2-0.3,0.4-0.6,0.6-0.3
	c0.1,0.2,0.1,0.3,0.1,0.5c0,0.3-0.1,0.5-0.3,0.7c-0.3,0.6-0.9,1-1.6,1.1c-2.2,0.3-3.5-2.1-2.7-3.9C152.4,24.8,154.1,23.9,155.9,24.2
	z M22.6,13.5c-0.6,1.3-3.1,2.2-4.6,2.5c0.8-1.1,0.2-2.2,0.1-3.8c-0.2-1.8,2.5-2.7,2.8-0.5C22.1,10.8,23.2,12.3,22.6,13.5z
	 M17.7,31.3c0.9,0,1.8,0.4,1.4,1.7c-0.2,0.5-1.1,0.5-1.4,0.4c-0.6-0.3-1.2-0.7-1.7-1.2C15.7,31.9,16.7,31.3,17.7,31.3L17.7,31.3z
	 M15.3,33.1c0.2-0.6,1.2-0.2,1.7,0.5c0.5,0.7,0.5,1.7-0.9,2.3c-0.6,0.3-1-0.4-1.1-0.8C15,34.4,15.1,33.7,15.3,33.1z M14.5,32.3
	c0.6,0.2,0.4,1.2-0.3,1.8c-0.6,0.5-1.5,0.7-2.2-0.7c-0.3-0.5,0.3-1,0.6-1.2C13.2,32.1,13.9,32.1,14.5,32.3L14.5,32.3z M15,31.3
	c0.1,0.6-0.9,0.8-1.7,0.5c-0.7-0.3-1.2-1.1-0.4-2.3c0.3-0.5,1-0.2,1.3,0C14.6,30.1,14.9,30.7,15,31.3L15,31.3z M16.1,31.5
	c-0.6,0.3-1.1-0.7-1-1.5c0.1-0.8,0.7-1.5,2.1-1c0.6,0.2,0.5,0.9,0.3,1.2C17.2,30.7,16.6,31.2,16.1,31.5L16.1,31.5z M144.1,33
	c-0.1,0-0.1,0-0.2,0h-0.1v0.3h0.1c0.1,0,0.1,0,0.2,0c0,0,0.1-0.1,0.1-0.1C144.1,33.1,144.1,33.1,144.1,33L144.1,33z M143.5,33.9
	v-1.1h0.5c0.1,0,0.1,0,0.2,0.1c0.1,0,0.1,0.1,0.1,0.3c0,0.1,0,0.1-0.1,0.2c-0.1,0-0.1,0.1-0.2,0.1c0.1,0,0.1,0,0.2,0.1
	c0.1,0.1,0.1,0.1,0.1,0.2v0.1c0,0,0,0,0,0c0,0,0,0,0,0l0,0h-0.3c0,0,0-0.1,0-0.1c0,0,0-0.1,0-0.1c0,0,0-0.1-0.1-0.1c0,0-0.1,0-0.1,0
	h-0.1v0.4L143.5,33.9z M143.4,32.8c-0.3,0.3-0.3,0.8,0,1.1c0.3,0.3,0.8,0.3,1.1,0c0,0,0,0,0,0c0.2-0.1,0.2-0.4,0.2-0.6
	c0-0.2-0.1-0.4-0.2-0.6c-0.1-0.2-0.3-0.2-0.6-0.2C143.8,32.6,143.5,32.7,143.4,32.8L143.4,32.8z M144.6,34c-0.4,0.4-1,0.4-1.3,0
	c-0.2-0.2-0.3-0.4-0.3-0.7c0-0.3,0.1-0.5,0.3-0.7c0.4-0.4,1-0.4,1.4,0C145,33.1,145,33.7,144.6,34L144.6,34z M166.8,11.6V9.8h1.9
	v0.4h-1.2v0.3h1.2v0.4h-1.2v0.3h1.3v0.4L166.8,11.6z M169.8,11.1c0,0.2,0.3,0.2,0.4,0.2c0.2,0,0.3-0.1,0.3-0.2
	c0-0.1-0.1-0.1-0.2-0.2l-0.4-0.1c-0.4-0.1-0.6-0.2-0.6-0.5c0-0.1,0-0.2,0.1-0.3c0.2-0.2,0.5-0.3,0.8-0.3c0.2,0,0.4,0,0.6,0.1
	c0.2,0.1,0.4,0.2,0.4,0.4l-0.6,0c0-0.2-0.2-0.2-0.3-0.2c-0.1,0-0.3,0-0.3,0.1c0,0.1,0.1,0.1,0.4,0.2l0.2,0c0.2,0,0.7,0.1,0.7,0.5
	c0,0.1,0,0.2-0.1,0.3c-0.2,0.2-0.6,0.3-0.9,0.3c-0.3,0-0.9,0-0.9-0.6C169.2,11.1,169.8,11.1,169.8,11.1L169.8,11.1z M172.8,10.2v1.4
	h-0.6v-1.4h-0.6V9.8h1.9v0.4L172.8,10.2z M173.5,11.6v-0.5h0.6v0.5H173.5z M167.3,14.6v-1.3c-0.1,0.1-0.3,0.1-0.5,0.1v-0.4
	c0.1,0,0.2,0,0.3-0.1c0.1,0,0.2-0.1,0.3-0.2h0.5v1.9L167.3,14.6z M169.8,13.1c-0.1,0-0.4,0-0.4,0.2s0.2,0.2,0.4,0.2
	c0.1,0,0.4,0,0.4-0.2S170,13.1,169.8,13.1L169.8,13.1z M169.6,13.9c-0.3,0-0.8-0.1-0.8-0.6c0-0.3,0.2-0.7,1.1-0.7
	c0.8,0,1.1,0.4,1.1,0.9c0,0.6-0.3,1-1.2,1c-0.4,0-0.9-0.1-1-0.5c0.1,0,0.7,0,0.7,0c0.1,0.1,0.2,0.1,0.3,0.1c0.2,0,0.5-0.2,0.5-0.4
	c0,0,0,0,0-0.1v0C170.1,13.9,169.9,14,169.6,13.9L169.6,13.9z M173.6,12.7l0,0.2c0,0.1-0.1,0.3-0.2,0.4c-0.1,0.1-0.2,0.2-0.3,0.3
	c-0.2,0.1-0.3,0.3-0.5,0.5c-0.1,0.2-0.2,0.3-0.2,0.5h-0.7c0-0.1,0-0.2,0.1-0.3c0.1-0.2,0.2-0.4,0.3-0.5c0.1-0.1,0.2-0.2,0.3-0.3
	c0,0,0.1-0.1,0.3-0.2c0.1,0,0.1-0.1,0.1-0.2h-1.3v-0.4L173.6,12.7z M175,13.1c-0.1,0-0.4,0-0.4,0.2s0.2,0.2,0.4,0.2
	c0.1,0,0.4,0,0.4-0.2S175.2,13.1,175,13.1L175,13.1z M174.8,13.9c-0.3,0-0.8-0.1-0.8-0.6c0-0.3,0.2-0.7,1.1-0.7
	c0.8,0,1.1,0.4,1.1,0.9c0,0.6-0.3,1-1.2,1c-0.4,0-0.9-0.1-1-0.5c0.1,0,0.7,0,0.7,0c0.1,0.1,0.2,0.1,0.3,0.1c0.2,0,0.5-0.2,0.5-0.4
	c0,0,0,0,0-0.1v0C175.3,13.9,175.1,14,174.8,13.9L174.8,13.9z M176.4,18.9c-0.4,0.9-2.3,1.6-3.5,1.9c0.6-0.8,0.2-1.6,0.1-2.8
	c-0.1-1.4,1.9-2,2.1-0.4C176.1,16.8,176.9,17.9,176.4,18.9L176.4,18.9z"/>
<path id="Earth-Animal-Brown" class="st1" d="M130.3,34.1h-7.5v-0.4c0.5-0.1,0.9-0.2,1.3-0.4c0.2-0.1,0.4-0.4,0.4-0.7
	c0-0.4-0.1-0.8-0.3-1.1l-0.9-2.2h-5.5l-0.8,1.9c-0.2,0.4-0.3,0.8-0.3,1.2c0,0.6,0.5,1.1,1.5,1.4v0.4h-5v-0.4h0h0v0.4h-7.6v-0.4
	c0.5-0.1,1-0.3,1.4-0.7c0.3-0.4,0.4-0.9,0.4-1.4c0-0.4,0-0.7-0.1-1.1l-1.3-8.3l-5.1,12h-0.5l-5-12l-1.3,8.6c0,0.3-0.1,0.6-0.1,0.9
	c-0.1,1,0.6,1.9,1.6,2c0.1,0,0.2,0,0.3,0v0.4h-5.6v-0.4c0.7,0,1.4-0.3,1.8-0.8c0.5-0.7,0.8-1.6,0.9-2.4l1.5-9.5
	c-0.6-0.6-1.4-1-2.2-1v-0.4h5.6l4,9.6l4.1-9.6h5.2v0.4c-0.5,0.1-1,0.2-1.4,0.6c-0.3,0.3-0.5,0.7-0.4,1.2c0,0.2,0,0.4,0,0.6l1.4,9.1
	c0.1,0.6,0.3,1.1,0.7,1.5c0.5,0.4,1,0.7,1.6,0.7c0.6-0.1,1.1-0.4,1.5-0.9c0.6-0.7,1-1.6,1.3-2.4l4.4-11.3h2.1l4.7,11.7
	c0.3,0.8,0.7,1.5,1.3,2.2c0.4,0.4,1,0.7,1.6,0.7c0.6-0.1,1.1-0.3,1.6-0.7c0.3-0.5,0.4-1.1,0.4-1.7v-9.3c0.1-0.5-0.1-1-0.4-1.4
	c-0.4-0.4-1-0.6-1.5-0.7v-0.4h7.3v0.4c-0.6,0.1-1.1,0.3-1.6,0.7c-0.3,0.4-0.4,0.8-0.4,1.3v9.9c-0.1,0.5,0.1,0.9,0.5,1.2
	c0.6,0.3,1.3,0.4,1.9,0.3c0.8,0.1,1.6-0.2,2.3-0.6c0.7-0.7,1.3-1.5,1.7-2.3h0.4l-0.4,3.8L130.3,34.1L130.3,34.1z M86.2,15.7
	c1.3-0.1,1.9-0.7,1.9-1.9V3.9c0.1-0.5-0.1-1-0.4-1.4c-0.5-0.3-1-0.5-1.5-0.6V1.5h7.3c1.5-0.1,3.1,0.2,4.4,1c1,0.5,1.6,1.6,1.5,2.7
	c0,0.8-0.3,1.6-0.8,2.2c-0.6,0.7-1.4,1.1-2.3,1.3v0c0.5,0.2,0.9,0.5,1.2,0.9c0.9,1,1.9,3.1,3.2,4.6c1.4,1.7,1.8,2.5,3.2,3.3
	c0.4,0.3,0.9,0.6,1.5,0.7v0.4c-3.9,0-5.5-0.9-6.7-2.6c-1.6-2.3-3.9-5.4-4.2-5.7c-0.2-0.3-0.6-0.6-0.9-0.8c-0.6-0.2-1.3-0.3-2-0.2
	v4.5c0,0.5,0.1,1,0.4,1.4c0.4,0.4,1,0.6,1.5,0.6v0.4H78.6v-0.4c0.5-0.1,0.9-0.2,1.3-0.4c0.2-0.1,0.4-0.4,0.4-0.7
	c0-0.4-0.1-0.8-0.3-1.1l-0.9-2.2h-5.5l-0.8,1.9c-0.2,0.4-0.3,0.8-0.3,1.2c0,0.6,0.5,1.1,1.5,1.4v0.4h-5v-0.4
	c0.6-0.1,1.2-0.4,1.6-0.9c0.6-0.7,1-1.6,1.3-2.4l4.4-11.3h2.1l4.7,11.7c0.3,0.8,0.7,1.5,1.3,2.2C85,15.4,85.6,15.6,86.2,15.7
	L86.2,15.7z M66.5,6.5H67V11h-0.5c0-1.1-0.9-1.9-2-1.9c0,0-0.1,0-0.1,0h-2.7v4.3c-0.1,0.5,0.1,1,0.5,1.4c0.5,0.3,1.1,0.5,1.6,0.4
	h0.9c1.5,0,2.6-0.9,3.2-2.7h0.4l-0.3,3.6H56.4v-0.4c0.6-0.1,1.1-0.3,1.5-0.7c0.3-0.5,0.4-1.1,0.4-1.7V3.9c0.1-0.5-0.1-1-0.4-1.4
	c-0.4-0.3-1-0.5-1.5-0.6V1.5h11.5v3.2h-0.4c-0.1-0.7-0.5-1.4-1-1.9c-0.5-0.4-1.2-0.6-1.8-0.5h-3v6h2.7c0.5,0,1-0.1,1.4-0.4
	C66.2,7.5,66.5,7,66.5,6.5z M74.2,10.1h4.6l-2.3-5.9L74.2,10.1z M92.5,2.3h-1v6c0.3,0,0.5,0,0.7,0c1,0.1,1.9-0.2,2.7-0.8
	c0.6-0.6,0.9-1.5,0.8-2.4C95.7,3.3,94.7,2.3,92.5,2.3L92.5,2.3z M111.8,15.7v0.4h-7.2v-0.4c0.6-0.1,1.1-0.3,1.5-0.6
	c0.3-0.5,0.5-1,0.4-1.6V2.3H105c-0.8,0-1.5,0.2-2.2,0.6c-0.6,0.5-1,1.1-1.2,1.8h-0.4l0.2-3.5h0.5c0.5,0.2,1,0.3,1.5,0.3h9.9
	c0.5,0,1-0.1,1.5-0.3h0.5l0.2,3.5h-0.4c-0.2-0.7-0.6-1.4-1.2-1.8c-0.7-0.4-1.4-0.6-2.2-0.6h-1.5v11.2c-0.1,0.5,0.1,1.1,0.4,1.5
	C110.7,15.4,111.3,15.6,111.8,15.7L111.8,15.7z M129.2,13.3V9h-7.4v4.6c-0.1,0.5,0.1,1,0.4,1.4c0.4,0.4,1,0.6,1.5,0.7v0.4h-7.2v-0.4
	c0.4-0.1,0.8-0.2,1.2-0.4c0.2-0.1,0.4-0.3,0.6-0.6c0.1-0.4,0.2-0.9,0.2-1.4V3.9c0.1-0.5-0.1-1-0.4-1.4c-0.5-0.4-1-0.6-1.6-0.7V1.5
	h7.2v0.4c-0.6,0.1-1.1,0.3-1.5,0.7c-0.3,0.4-0.4,0.8-0.4,1.3v4.1h7.4v-4c0.1-0.5-0.1-1-0.4-1.4c-0.4-0.4-1-0.6-1.5-0.7V1.5h7.3v0.4
	c-0.6,0.1-1.1,0.3-1.6,0.7c-0.3,0.5-0.4,1.1-0.4,1.7v9.4c0,0.5,0.1,1,0.4,1.4c0.5,0.4,1,0.6,1.6,0.7v0.4h-7.3v-0.4
	c0.6-0.1,1.1-0.3,1.5-0.7C129.1,14.5,129.3,13.9,129.2,13.3L129.2,13.3z M51.8,28.1h4.6l-2.3-5.9L51.8,28.1z M56.3,34.1v-0.4
	c0.5-0.1,0.9-0.2,1.3-0.4c0.2-0.1,0.4-0.4,0.4-0.7c0-0.4-0.1-0.8-0.3-1.1l-0.9-2.2h-5.5l-0.8,1.9c-0.2,0.4-0.3,0.8-0.3,1.2
	c0,0.6,0.5,1.1,1.5,1.4v0.4h-5v-0.4c0.6-0.1,1.2-0.4,1.6-0.9c0.6-0.7,1-1.6,1.3-2.4l4.4-11.3h2.1l4.7,11.7c0.3,0.8,0.7,1.5,1.3,2.2
	c0.4,0.4,1,0.7,1.6,0.7v0.4L56.3,34.1z M75.4,19.9v-0.4h5.2v0.4c-1.2-0.1-2.2,0.8-2.2,2c0,0.1,0,0.3,0,0.4v12h-0.5l-11-11.9v8.9
	c-0.1,0.6,0.1,1.2,0.4,1.6c0.5,0.4,1.2,0.6,1.8,0.7v0.4h-5.3v-0.4c0.6,0,1.1-0.3,1.5-0.7c0.4-0.5,0.5-1.1,0.5-1.7v-9.9
	c-0.4-0.4-0.8-0.8-1.2-1.1c-0.2-0.2-0.5-0.3-0.8-0.3v-0.4h4.6l9,9.8v-6.6c0.1-0.7-0.1-1.4-0.4-2C76.6,20.2,76,20,75.4,19.9
	L75.4,19.9z M89.4,19.5v0.4c-0.6,0.1-1.1,0.3-1.5,0.7c-0.3,0.5-0.5,1.1-0.4,1.7v9.4c-0.1,0.5,0.1,1,0.4,1.4c0.4,0.4,1,0.6,1.6,0.7
	v0.4h-7.3v-0.4c0.4-0.1,0.8-0.2,1.2-0.4c0.2-0.1,0.4-0.3,0.6-0.6c0.1-0.4,0.2-0.9,0.2-1.4v-9.3c0.1-0.5-0.1-1-0.4-1.4
	c-0.5-0.4-1-0.6-1.6-0.7v-0.4L89.4,19.5z M118.3,28.1h4.6l-2.3-5.9L118.3,28.1z"/>
</svg>
