<svg xmlns:xlink="http://www.w3.org/1999/xlink" xmlns="http://www.w3.org/2000/svg" fill="none" viewBox="0 0 80 32" width="80"  height="32" ><path fill="#286140" fill-rule="evenodd" d="M49.36 8.412c-5.583-1.18-9.34-.448-11.931.17-.862.205-.707.716.054.673 1.584-.088 6.395.036 11.25.888 4.613.808 8.382 2.24 10.267 3.14.26.136.459-.146.233-.363-1.476-1.391-4.979-3.475-9.873-4.508m-43.95 1.71c1.223-.258 2.615.04 3.521.931.215.211.415.555.224.788-.108.134-.317.164-.473.11-.248-.084-.476-.213-.705-.34a8 8 0 0 0-.39-.21 2.11 2.11 0 0 0-2.375.382c-.3.292-.501.67-.639 1.063-.348.993-.283 3.71-.283 3.71h1.733c.666 0 1.206.542 1.206 1.21H4.314l.005 9.894h-2.43l.002-9.894H0v-1.224h1.85c.021-.3.039-.694.057-1.099.027-.588.054-1.202.097-1.599.212-1.944 1.408-3.299 3.261-3.702a1 1 0 0 1 .144-.02M32.516 20.55c.524.177 1.056.358 1.512.676.518.36.943.856 1.223 1.411.444.882.536 1.922.087 2.852-.59 1.216-1.89 1.965-3.192 2.22-1.545.301-3.29-.076-4.433-1.184-.273-.265-.529-.697-.286-.99.324-.391.877-.036 1.25.204q.088.058.16.1a4.26 4.26 0 0 0 2.09.586c.64.011 1.402-.09 1.876-.557.726-.715.356-1.84-.376-2.393-.533-.402-1.144-.675-1.753-.949a28 28 0 0 1-.59-.27c-.528-.252-1.047-.555-1.451-.98-.633-.666-.777-1.646-.565-2.511.312-1.278 1.406-2.174 2.682-2.45 1.248-.27 2.677.026 3.605.925.218.211.42.555.228.788-.111.133-.322.163-.48.11a4 4 0 0 1-.684-.329c-.267-.149-.534-.298-.836-.372-.795-.193-2.099-.234-2.515.65-.149.316-.114.708.04 1.019.384.776 1.361 1.098 2.161 1.362l.232.077zm-21.124-1.38v-1.49c0-.722-.535-1.275-1.358-1.275H9l-.005 1.33.005 9.9h2.392l.001-6.363c0-2.023 1.344-3.088 2.777-2.976 1.08.083 2.095.12 2.61-2.043-2.872-.264-4.728 1.043-5.387 2.917m8.265-.56c-.299.459-.478.98-.592 1.516l2.339.003 2.537.002c.059-.697-.15-1.424-.614-1.953s-1.187-.838-1.89-.758c-.735.085-1.378.575-1.78 1.19m-1.223-1.087a5.44 5.44 0 0 1 3.928-1.288c1.153.089 2.298.581 3.044 1.457.848.998 1.102 2.376 1.053 3.68H18.9c-.047.816.032 1.639.346 2.389a4.03 4.03 0 0 0 2.395 2.245c1.073.36 2.314.215 3.254-.412l.09-.06v-.001c.135-.092.27-.186.425-.234.19-.06.424-.036.55.117.212.257-.011.636-.251.87a5.3 5.3 0 0 1-1.899 1.179c-1.336.484-2.94.468-4.242-.12a5.1 5.1 0 0 1-1.84-1.412c-.942-1.151-1.365-2.675-1.286-4.155.087-1.604.772-3.199 1.994-4.255m28.267 2.48.002 7.46h-2.359l.006-7.342a2.437 2.437 0 0 0-2.442-2.472c-1.113 0-2.693.948-2.693 2.793l-.004 7.02H36.85l-.005-16.95h1.025c.813 0 1.34.556 1.34 1.27v5.828c.773-1.042 2.168-1.548 3.435-1.548 2.056 0 4.057 1.444 4.057 3.94" clip-rule="evenodd"></path><path fill="#FFD300" fill-rule="evenodd" d="M26.472 4.77a.57.57 0 0 0-.793.173.583.583 0 0 0 .171.8.57.57 0 0 0 .792-.172.583.583 0 0 0-.17-.8m.203-1.99a.57.57 0 0 0-.793.173.58.58 0 0 0 .171.8c.266.173.62.097.792-.172a.58.58 0 0 0-.17-.8m7.338-.183a.579.579 0 0 0 .242 1.132.58.58 0 0 0 .439-.688.573.573 0 0 0-.68-.444m-1.508 2.165q.339-.048.673-.088.002-.052 0-.104c-.066-1.589-1.4-2.827-2.973-2.76s-2.799 1.415-2.732 3.005c.017.421.126.816.302 1.17a22.2 22.2 0 0 1 4.73-1.223m-4.72-3.604a.57.57 0 0 0-.791.172.583.583 0 0 0 .17.8.57.57 0 0 0 .793-.172.58.58 0 0 0-.171-.8m5.54-.124a.57.57 0 0 0-.792.172.583.583 0 0 0 .17.8.57.57 0 0 0 .793-.172.583.583 0 0 0-.171-.8M29.708.973a.57.57 0 0 1-.792.172.583.583 0 0 1-.17-.8.57.57 0 0 1 .791-.173.583.583 0 0 1 .171.8M31.57.164a.57.57 0 0 0-.792.172.583.583 0 0 0 .171.8.57.57 0 0 0 .792-.172.58.58 0 0 0-.17-.8" clip-rule="evenodd"></path><path fill="#56AA46" fill-rule="evenodd" d="M32.259 4.641c8.536-1.22 14.003 1.455 14.632 1.78.559.277.287.575.078.517 0 0-6.698-1.583-14.022-.52-6.716.974-10.837 3.532-12.757 4.929-.321.218-.7-.111-.295-.509.255-.328 4.557-5.08 12.364-6.197m46.34 20.868c.226-.072.4-.009.502.12.45.569-.453 1.226-.872 1.507-1.185.796-2.93 1.054-4.105.098-.49-.4-.769-.962-.878-1.57-.06-.329-.056-.657-.052-.987l.001-.237.008-6.653h-1.764v-.796c1.81-.384 2.6-1.558 2.919-3.33l.011-.068.008-.047a.78.78 0 0 1 .713-.573h.52v3.652h3.263v1.162H75.61l-.01 7.323c0 .2.02.403.078.596.22.73 1.15.907 1.779.581.175-.09.327-.22.48-.35.202-.173.405-.346.662-.428m-23.503-9.25c-1.614 0-2.821.629-3.616 1.624v-.092c0-.713-.52-1.259-1.334-1.259h-1.018L49.125 32h.802c.86 0 1.558-.695 1.558-1.552l-.005-9.415c0-1.968 1.27-3.142 2.825-3.142 1.561 0 2.826 1.172 2.826 3.983 0 2.806-1.453 4.774-3.344 4.774-.352 0-.992.057-.992.575 0 .526.521.56.588.564h.007c.237.036.475.036.828.036h.013c3.174 0 5.619-2.823 5.619-6.305 0-2.905-2.128-5.259-4.754-5.259m8.598 3.907c.114-.536.293-1.057.592-1.515.401-.616 1.045-1.106 1.78-1.19.702-.081 1.426.229 1.89.757.464.529.672 1.256.614 1.954l-2.188-.003h-.013zm3.297-3.89a5.44 5.44 0 0 0-3.928 1.287c-1.222 1.056-1.907 2.651-1.993 4.255-.08 1.48.344 3.004 1.285 4.155a5.1 5.1 0 0 0 1.84 1.412c1.302.588 2.907.604 4.243.12a5.3 5.3 0 0 0 1.899-1.18c.24-.232.463-.612.25-.869-.126-.153-.36-.176-.55-.117-.153.048-.288.14-.421.233l-.093.063c-.94.626-2.182.772-3.255.412a4.03 4.03 0 0 1-2.394-2.246c-.314-.75-.394-1.573-.346-2.389h7.56c.05-1.304-.205-2.682-1.054-3.68-.745-.876-1.89-1.368-3.043-1.457m11.352-1.734c.28 0 .365-.13.365-.319 0-.188-.086-.342-.365-.342h-.146v.66zm.538.437h-.195l-.226-.312a1 1 0 0 1-.108.011h-.155v.3h-.166v-1.23h.321c.37 0 .529.214.529.476 0 .175-.09.323-.259.4zm.444-.605c0-.551-.388-.926-.92-.926-.528 0-.91.375-.91.926 0 .542.382.922.91.922.532 0 .92-.38.92-.922m-2.002 0c0-.616.489-1.072 1.082-1.072.597 0 1.093.456 1.093 1.072 0 .608-.496 1.066-1.094 1.066a1.065 1.065 0 0 1-1.081-1.066" clip-rule="evenodd"></path></svg>