<svg viewBox="0 0 120.371 160.498" xmlns="http://www.w3.org/2000/svg"><g data-name="Group 374"><path d="M59.038 156.91c-1.12-.5-27.6-12.443-42.675-27.51C3.811 116.858 2.843 98.757 2.808 97.992V22.027l.567-.751c.57-.754 14.433-18.469 56.812-18.469s56.24 17.713 56.81 18.467l.567.751v75.966c-.035.764-1 18.866-13.555 31.408-15.082 15.067-41.559 27.009-42.682 27.511l-1.147.513Z" data-name="Path 19809" fill="#001689"></path><path d="M60.185 5.612c41.471 0 54.573 17.353 54.573 17.353v74.9s-.807 17.634-12.734 29.553c-14.884 14.872-41.839 26.931-41.839 26.931s-26.954-12.059-41.838-26.932C6.42 115.5 5.612 97.865 5.612 97.865v-74.9S18.714 5.612 60.185 5.612m0-5.612c-18.1 0-33.373 3.126-45.4 9.3-9.333 4.782-13.237 9.734-13.652 10.284L0 21.085v76.909l.007.129c.037.809 1.06 19.961 14.373 33.264 15.438 15.428 42.376 27.577 43.514 28.087l2.292 1.025 2.292-1.025c1.139-.51 28.076-12.659 43.512-28.087 13.314-13.3 14.338-32.455 14.374-33.264l.007-.129V21.085l-1.133-1.5c-.415-.55-4.32-5.5-13.652-10.288C93.558 3.126 78.283 0 60.185 0" data-name="Path 19810" fill="#001689"></path><path d="M60.185 5.612c41.471 0 54.573 17.353 54.573 17.353v74.9s-.807 17.634-12.734 29.553c-14.884 14.872-41.839 26.931-41.839 26.931S33.23 142.29 18.346 127.418C6.419 115.502 5.612 98.654 5.612 98.654v-74.9S18.714 5.612 60.185 5.612m0-3.118c-42.534 0-56.489 17.833-57.061 18.592l-.63.834v76.086c.035.771 1.008 18.988 13.645 31.616 6.371 6.366 15.511 12.943 27.167 19.55 8.628 4.892 15.322 7.9 15.6 8.023l1.274.568 1.274-.568c.281-.125 6.973-3.131 15.6-8.023 11.656-6.607 20.8-13.184 27.167-19.55 12.636-12.627 13.61-30.845 13.645-31.616V21.921l-.63-.834c-.573-.759-14.526-18.592-57.061-18.592" data-name="Path 19811" fill="#fff"></path><path d="M21.209 95.145a9.784 9.784 0 0 1-1.62-.164v-5.316h-3.224v5.32a9.971 9.971 0 0 1-1.6.164 9.8 9.8 0 0 1-1.623-.164v-13q.492-.073.893-.11c.267-.025.5-.037.711-.037s.465.012.737.037.567.062.883.11v4.825h3.223v-4.825q.492-.073.883-.11c.261-.025.5-.037.719-.037s.465.012.739.037.567.062.881.11v13a9.953 9.953 0 0 1-1.6.164" data-name="Path 19812" fill="#fff"></path><path d="M26.617 95.145a9.767 9.767 0 0 1-1.62-.164v-13c.328-.048.625-.085.891-.11s.5-.037.711-.037.465.012.737.037.568.062.883.11v13a9.953 9.953 0 0 1-1.6.164" data-name="Path 19813" fill="#fff"></path><path d="M30.786 81.985c.254-.037.532-.07.829-.1a8.261 8.261 0 0 1 .828-.045 7.606 7.606 0 0 1 .792.045c.284.03.55.064.792.1l2.585 6.774 2.677-6.774c.242-.037.49-.07.739-.1a6.1 6.1 0 0 1 .737-.045 7 7 0 0 1 .782.045q.4.045.782.1l.62 13c-.2.035-.411.072-.647.109a6.413 6.413 0 0 1-.938.053 8.4 8.4 0 0 1-1.505-.162l-.254-7.54-2 4.972c-.217.037-.436.067-.655.09a5.26 5.26 0 0 1-.6.037c-.182 0-.369-.008-.565-.027a4.451 4.451 0 0 1-.6-.1l-1.785-4.9-.2 7.466a7 7 0 0 1-1.458.162 7.83 7.83 0 0 1-1.483-.16Z" data-name="Path 19814" fill="#fff"></path><path d="M47.137 95c-.279.048-.535.084-.764.109a6.7 6.7 0 0 1-.674.037 7.275 7.275 0 0 1-.756-.045q-.429-.045-.956-.137l4.079-13c.314-.035.61-.065.883-.09s.548-.037.828-.037c.231 0 .483.012.756.037s.587.055.938.09l4.023 13.021a11.919 11.919 0 0 1-1.818.16c-.242 0-.485-.013-.727-.037s-.5-.06-.784-.109l-.692-2.531a8.15 8.15 0 0 1-.973.219 5.955 5.955 0 0 1-.919.072 5.772 5.772 0 0 1-.856-.064 7.352 7.352 0 0 1-.911-.192Zm2.549-9.615-1.22 4.679c.207.062.4.109.583.145a2.837 2.837 0 0 0 .563.055 4.1 4.1 0 0 0 .61-.045 5.088 5.088 0 0 0 .629-.137Z" data-name="Path 19815" fill="#fff"></path><path d="M56.677 81.985c.328-.048.625-.085.893-.109s.5-.037.709-.037.465.012.739.037.567.06.883.109v10.2h4.206a7.181 7.181 0 0 1 .117.792c.018.224.028.428.028.61 0 .207-.01.421-.028.647a7.78 7.78 0 0 1-.117.809h-7.43Z" data-name="Path 19816" fill="#fff"></path><path d="M67.767 95c-.279.048-.535.084-.764.109a6.7 6.7 0 0 1-.674.037 7.331 7.331 0 0 1-.757-.045c-.284-.03-.6-.075-.955-.137l4.079-13q.471-.053.883-.09a8.322 8.322 0 0 1 1.584 0c.273.025.587.055.938.09l4.025 13.021a11.919 11.919 0 0 1-1.821.164c-.242 0-.485-.013-.727-.037s-.5-.06-.784-.109l-.692-2.531a8.149 8.149 0 0 1-.973.219 5.955 5.955 0 0 1-.92.072 5.771 5.771 0 0 1-.856-.064 7.351 7.351 0 0 1-.911-.192Zm2.55-9.615-1.22 4.679c.206.062.4.109.583.145a2.824 2.824 0 0 0 .563.055 4.1 4.1 0 0 0 .61-.045 5.089 5.089 0 0 0 .629-.137Z" data-name="Path 19817" fill="#fff"></path><path d="M82.462 81.985c.279-.048.57-.085.874-.109s.612-.037.928-.037c.207 0 .475.015.8.045s.607.064.839.1l-4.061 8.357v4.644a9.959 9.959 0 0 1-1.6.162 9.743 9.743 0 0 1-1.62-.162v-4.647q-.474-.983-.993-2.048t-1.037-2.13q-.522-1.066-1.03-2.132t-.984-2.043q.308-.055.838-.1t1-.045q.381 0 .848.045c.309.03.578.064.809.1l2.24 5.062Z" data-name="Path 19818" fill="#fff"></path><path d="M87.415 95c-.279.048-.533.084-.764.109a6.677 6.677 0 0 1-.674.037 7.275 7.275 0 0 1-.756-.045c-.286-.03-.6-.075-.956-.137l4.079-13q.471-.053.883-.09a8.305 8.305 0 0 1 1.584 0c.273.025.587.055.938.09l4.023 13.021a11.919 11.919 0 0 1-1.821.164c-.242 0-.485-.013-.727-.037s-.5-.06-.784-.109l-.692-2.531a8.1 8.1 0 0 1-.975.219 5.917 5.917 0 0 1-.918.072 5.771 5.771 0 0 1-.856-.064 7.352 7.352 0 0 1-.911-.192Zm2.547-9.615-1.22 4.679c.207.062.4.109.583.145a2.837 2.837 0 0 0 .563.055 4.1 4.1 0 0 0 .61-.045 5.088 5.088 0 0 0 .629-.137Z" data-name="Path 19819" fill="#fff"></path><path d="M96.957 81.985c.266-.048.51-.085.729-.109a5.553 5.553 0 0 1 .637-.037 5.408 5.408 0 0 1 .682.045c.237.03.44.064.61.1l4.225 7.139v-7.138c.314-.048.6-.085.856-.109s.485-.037.692-.037a6.078 6.078 0 0 1 .655.037c.231.023.473.06.727.109l-.018 13a4.564 4.564 0 0 1-.527.109 4.761 4.761 0 0 1-.747.053 4.687 4.687 0 0 1-.816-.062 11.827 11.827 0 0 1-.528-.1l-4.246-7.1v7.1a7.339 7.339 0 0 1-1.456.162 7.634 7.634 0 0 1-1.475-.162Z" data-name="Path 19820" fill="#fff"></path><path d="M12.846 98.533q.416-.053 1.277-.154a19.7 19.7 0 0 1 2.163-.1 10.664 10.664 0 0 1 1.938.181 4.967 4.967 0 0 1 1.765.679 3.7 3.7 0 0 1 1.276 1.4 4.927 4.927 0 0 1 .49 2.354 5.157 5.157 0 0 1-.39 2.138 3.583 3.583 0 0 1-1.033 1.363 3.984 3.984 0 0 1-1.465.724 6.59 6.59 0 0 1-1.694.217c-.229 0-.461-.008-.7-.027a3.578 3.578 0 0 1-.5-.064v4.218c-.314.06-.6.1-.851.127s-.488.037-.706.037a9.56 9.56 0 0 1-1.577-.164Zm3.133 6.121a1.13 1.13 0 0 0 .308.054c.145.013.3.018.453.018a1.634 1.634 0 0 0 1.755-1.832 2.4 2.4 0 0 0-.152-.913 1.547 1.547 0 0 0-.426-.6 1.572 1.572 0 0 0-.634-.316 3.139 3.139 0 0 0-.761-.09h-.252a2.4 2.4 0 0 0-.291.017Z" data-name="Path 19821" fill="#fff"></path><path d="M30.302 104.727a6.951 6.951 0 0 1-.162 1.413h-3.5v2.571h4.546a6.62 6.62 0 0 1 .162 1.376 6.827 6.827 0 0 1-.162 1.429h-7.747V98.498h7.642c.048.266.084.513.109.742a6.5 6.5 0 0 1 .037.652 8.494 8.494 0 0 1-.145 1.431h-4.438v1.991h3.5a7.149 7.149 0 0 1 .162 1.413" data-name="Path 19822" fill="#fff"></path><path d="M35.352 101.324h-3.026a6.226 6.226 0 0 1 0-2.824h9.252q.073.4.11.742a6.419 6.419 0 0 1 .035.65 8.494 8.494 0 0 1-.145 1.431h-3.021v10.14a9.879 9.879 0 0 1-1.593.164 9.659 9.659 0 0 1-1.612-.164Z" data-name="Path 19823" fill="#fff"></path><path d="M52.138 103.569c.507.206.963.413 1.368.625a4.139 4.139 0 0 1 1.042.759 3.043 3.043 0 0 1 .669 1.068 4.787 4.787 0 0 1-.1 3.242 3.608 3.608 0 0 1-.986 1.322 4.569 4.569 0 0 1-1.6.851 7.287 7.287 0 0 1-2.182.3 9.72 9.72 0 0 1-1.983-.181 12.293 12.293 0 0 1-1.856-.562 10.427 10.427 0 0 1 .252-1.349 19 19 0 0 1 .436-1.456 7.482 7.482 0 0 0 2.9.724 3.037 3.037 0 0 0 1.439-.281 1.01 1.01 0 0 0 .517-.97 1.067 1.067 0 0 0-.109-.5 1.1 1.1 0 0 0-.289-.353 1.877 1.877 0 0 0-.408-.246c-.15-.065-.3-.129-.461-.189l-1.022-.378a6.526 6.526 0 0 1-1.185-.562 3.768 3.768 0 0 1-.914-.769 3.229 3.229 0 0 1-.588-1.023 4.015 4.015 0 0 1-.209-1.358 4.166 4.166 0 0 1 .328-1.7 3.541 3.541 0 0 1 .913-1.259 3.938 3.938 0 0 1 1.421-.779 6.243 6.243 0 0 1 1.866-.261 8.666 8.666 0 0 1 1.784.181 14.674 14.674 0 0 1 1.837.525 9.233 9.233 0 0 1-.262 1.276 8.131 8.131 0 0 1-.48 1.312q-.471-.2-1.1-.416a4.954 4.954 0 0 0-1.577-.217 2.673 2.673 0 0 0-.552.055 1.6 1.6 0 0 0-.47.172.9.9 0 0 0-.336.326.984.984 0 0 0-.127.515.9.9 0 0 0 .344.779 3.467 3.467 0 0 0 .814.435Z" data-name="Path 19824" fill="#fff"></path><path d="M62.188 111.716a6.477 6.477 0 0 1-2.436-.4 3.54 3.54 0 0 1-1.53-1.15 4.574 4.574 0 0 1-.787-1.819 11.7 11.7 0 0 1-.227-2.409v-7.405c.351-.047.654-.08.906-.1a9.145 9.145 0 0 1 1.403 0c.248.019.547.052.9.1v7.027a13.738 13.738 0 0 0 .074 1.538 3.291 3.291 0 0 0 .262 1.033 1.185 1.185 0 0 0 .533.57 2.054 2.054 0 0 0 .906.172 2.109 2.109 0 0 0 .914-.172 1.173 1.173 0 0 0 .543-.57 3.134 3.134 0 0 0 .252-1.033c.043-.421.064-.935.064-1.538v-7.027q.544-.07.914-.1c.247-.018.475-.027.679-.027s.453.008.707.027.555.052.9.1v7.406a11.711 11.711 0 0 1-.226 2.409 4.622 4.622 0 0 1-.787 1.819 3.535 3.535 0 0 1-1.531 1.15 6.462 6.462 0 0 1-2.434.4" data-name="Path 19825" fill="#fff"></path><path d="M69.267 98.533q.416-.053 1.276-.154a19.717 19.717 0 0 1 2.163-.1 10.65 10.65 0 0 1 1.938.181 4.967 4.967 0 0 1 1.765.679 3.7 3.7 0 0 1 1.276 1.4 4.947 4.947 0 0 1 .49 2.354 5.156 5.156 0 0 1-.39 2.138 3.6 3.6 0 0 1-1.032 1.363 3.991 3.991 0 0 1-1.466.724 6.59 6.59 0 0 1-1.694.217 8.76 8.76 0 0 1-.7-.027 3.579 3.579 0 0 1-.5-.064v4.218c-.314.06-.6.1-.851.127s-.488.037-.707.037a9.525 9.525 0 0 1-1.573-.164Zm3.131 6.121a1.144 1.144 0 0 0 .308.054c.145.013.3.018.453.018a1.634 1.634 0 0 0 1.755-1.832 2.435 2.435 0 0 0-.152-.913 1.547 1.547 0 0 0-.426-.6 1.572 1.572 0 0 0-.634-.316 3.139 3.139 0 0 0-.761-.09h-.254a2.417 2.417 0 0 0-.289.017Z" data-name="Path 19826" fill="#fff"></path><path d="M79.858 98.533q.416-.053 1.276-.154a19.717 19.717 0 0 1 2.163-.1 10.65 10.65 0 0 1 1.938.181 4.967 4.967 0 0 1 1.765.679 3.7 3.7 0 0 1 1.276 1.4 4.947 4.947 0 0 1 .49 2.354 5.156 5.156 0 0 1-.39 2.138 3.6 3.6 0 0 1-1.032 1.363 4 4 0 0 1-1.466.724 6.59 6.59 0 0 1-1.694.217 8.76 8.76 0 0 1-.7-.027 3.542 3.542 0 0 1-.5-.064v4.218c-.314.06-.6.1-.851.127s-.488.037-.707.037a9.525 9.525 0 0 1-1.573-.164Zm3.133 6.121a1.144 1.144 0 0 0 .308.054c.145.013.3.018.453.018a1.634 1.634 0 0 0 1.753-1.832 2.4 2.4 0 0 0-.154-.913 1.526 1.526 0 0 0-.425-.6 1.572 1.572 0 0 0-.634-.316 3.139 3.139 0 0 0-.761-.09h-.254a2.4 2.4 0 0 0-.289.017Z" data-name="Path 19827" fill="#fff"></path><path d="M90.447 98.538c.326-.048.622-.084.888-.109s.5-.037.706-.037.461.012.734.037.563.06.878.109v10.14h4.184a7.051 7.051 0 0 1 .117.787 7.517 7.517 0 0 1 0 1.249 7.666 7.666 0 0 1-.117.806h-7.39Z" data-name="Path 19828" fill="#fff"></path><path d="M104.103 98.538c.278-.048.567-.084.869-.109s.609-.037.923-.037c.206 0 .471.017.8.045s.6.064.833.1l-4.045 8.309v4.618a9.851 9.851 0 0 1-1.593.162 9.637 9.637 0 0 1-1.612-.162v-4.618q-.471-.978-.986-2.036l-1.029-2.118q-.517-1.061-1.023-2.118t-.978-2.036c.206-.037.483-.069.834-.1s.68-.045.995-.045c.254 0 .535.017.843.045s.577.064.806.1l2.227 5.034Z" data-name="Path 19829" fill="#fff"></path><path d="M22.006 116.78h76.357v2.807H22.006z" data-name="Rectangle 195" fill="#fff"></path><path d="m85.274 45.635-6.58 4.633-3.267.008-5.582-1.943-2.722-4.124.436-1.834-.528-3.873-12.654-9.63-3.965 9.812-7.266 9.382-2.732-.2-4.492-2.412L9.984 76.776h99.528Z" data-name="Path 19830" fill="#fff"></path><path d="m36.253 46.874 4.286 2.212 2.9.2 1.629-2.113-.1 3.954.09 1.413 1.245 1.543 2.277 1.6 3.062 2.753 2.988 6.831v5.084l-.662 4.061-8.006-2-2.946.074-2.66.08-1.235-.637 2.666-2.393.562-5.278-2.681-3.05-.117-3.372-1.8-4.716v-2.884Z" data-name="Path 19831" fill="#001689"></path><path d="m80.916 66.634-2.66-3.815-11.1-12.425-.968-1.622.035-4.455.211-1.816-.159-2.889-2.431-1.936.44 3.411-1.752-1.739h-2.2l-.809.809-3.584-1.966-.578.578-.346 2.2v.925l4.164 3.466.809 8.672-.692 1.734 1.155 5.9.232 3.7 2.984 8.887 3.335.042-1.8-6.488 6.895 4.892.849 1.635 8.493.047h3.125l-1.347-4.18Z" data-name="Path 19832" fill="#001689"></path><path d="m50.856 55.627-.2-1.312 2.7 2.262 1.08 2.745 1.764 2.869.171 3.9.777 4.263-1.423 4.023-1.757.033.626-11.783-2.182-4.8-.674-1.349Z" data-name="Path 19833" fill="#001689"></path><path d="m84.734 55.144-.289-7.831 14.162 17.26-7.02-4.021-.542 5.661-3.428-10.6Z" data-name="Path 19834" fill="#001689"></path><path d="M29.956 54.373 14.898 72.19l3.482-1.393.874 2.075 2.961-3.742 4.755-.466-.627-7.59Z" data-name="Path 19835" fill="#001689"></path><path d="m60.128 35.074-5.036-4.333 1.047 2.946-1.03 1.742 3.9 2.529-.394-2.357Z" data-name="Path 19836" fill="#001689"></path></g></svg>