<svg aria-hidden="true" class="icon--logo" focusable="false" role="presentation" viewBox="0 0 46 50" xmlns="http://www.w3.org/2000/svg"> <title id="icon-title--logo">Open Farm Pet</title> <path d="M45.931 23.122c.013 8.773.01 26.863.01 26.863H0s-.002-18.09.01-26.863c0-.347.08-.724.227-1.037 2.369-5.002 4.75-9.997 7.146-14.986.107-.223.336-.446.561-.545 4.892-2.149 9.79-4.283 14.694-6.402a.852.852 0 0 1 .333-.06c.12 0 .238.019.333.06 4.904 2.119 9.802 4.253 14.693 6.402.226.1.455.322.562.545 2.395 4.99 4.777 9.984 7.145 14.986.148.313.227.69.227 1.037zm-3.688 14.293a.934.934 0 0 0-.306-1.813.934.934 0 0 0 0 1.866.922.922 0 0 0 .306-.053zm-.073-.42h.173l-.218-.374a.303.303 0 0 0 .1-.498.292.292 0 0 0-.217-.09h-.384v.963h.158v-.351h.186l.202.35zm-.233-1.247c.331 0 .628.212.738.527a.784.784 0 0 1-.739 1.046.788.788 0 1 1 0-1.573zm.07.433c.084 0 .151.071.151.16 0 .09-.067.162-.15.162h-.226v-.322h.226zm-1.735-3.645v-8.664h-1.18V29.1l-4.34-5.228h-1.905v8.651h1.193v-6.525l5.458 6.538h.774zm0 11.747v-8.65h-2.286l-2.311 5.672-2.238-5.673H30.93v8.65h1.192V37.35l2.754 6.945h.676l2.803-6.945v6.933h1.917zm-9.465-11.76v-1.014H26.21v-2.953h3.16v-1.014h-3.16v-2.657h4.376v-1.013h-6.343v8.65h6.564zm-3.82 11.76H29.2a5.163 5.163 0 0 1-.799-1.458l-.405-1.125c-.357-1.001-1.02-1.458-2.09-1.545v-.025c1.389-.037 2.692-.704 2.692-2.162 0-1.68-1.488-2.336-3.258-2.336h-3.97v8.65h1.967v-3.694h1.118c.86 0 1.205.272 1.475 1.05l.48 1.36c.16.444.32.852.578 1.285zm-.454-6.192c0 1.063-.689 1.533-1.893 1.533h-1.303v-3.028h1.303c1.229 0 1.893.52 1.893 1.495zm-8.51 6.192h2.041l-3.884-8.676h-.738l-3.835 8.676h1.143l.934-2.15h3.368l.972 2.15zm-3.958-3.053l1.266-2.916 1.316 2.916h-2.582zm-3.007-.84v-1.013h-3.16v-2.732h4.23v-1.013H5.931v8.65h1.967V40.39h3.159zM9.417 23.748c-2.496 0-4.487 1.879-4.487 4.45 0 2.57 1.991 4.448 4.487 4.448 2.495 0 4.487-1.878 4.487-4.449 0-2.57-1.992-4.449-4.487-4.449zm0 8.008c-1.561 0-2.286-1.297-2.286-3.559 0-2.261.725-3.559 2.286-3.559s2.286 1.298 2.286 3.56c0 2.261-.725 3.558-2.286 3.558zm6.14-7.884v8.65h1.968V29.31h1.696c2.004 0 3.442-.915 3.442-2.72 0-1.803-1.438-2.718-3.442-2.718h-3.663zm5.078 2.719c0 1.223-.615 1.755-2.09 1.755h-1.02v-3.51h1.02c1.475 0 2.09.519 2.09 1.755z" fill="#fff" fill-rule="evenodd"></path> </svg>