<?xml version="1.0" encoding="UTF-8"?>
<svg id="Layer_2" data-name="Layer 2" xmlns="http://www.w3.org/2000/svg" viewBox="0 0 2046.44 493.06">
  <defs>
    <style>
      .cls-1 {
        fill: #231f20;
      }
    </style>
  </defs>
  <g id="Layer_1-2" data-name="Layer 1">
    <g>
      <path class="cls-1" d="M253.61,8.77H0v475.52h190.21v-190.21h63.4c78.79,0,142.66-63.87,142.66-142.66h0c0-78.79-63.87-142.66-142.66-142.66ZM206.06,198.98c-26.26,0-47.55-21.29-47.55-47.55s21.29-47.55,47.55-47.55,47.55,21.29,47.55,47.55-21.29,47.55-47.55,47.55Z"/>
      <polygon class="cls-1" points="618.18 8.77 427.97 8.77 427.97 484.29 570.63 484.29 618.18 484.29 713.28 484.29 713.28 357.49 618.18 357.49 618.18 8.77"/>
      <path class="cls-1" d="M903.49,8.77l-23.78,71.33-134.73,404.19h126.81l31.7-95.1h79.25l31.7,95.1h206.05L1062.01,8.77h-158.52ZM935.19,246.53c0-26.26,21.29-47.55,47.55-47.55s47.55,21.29,47.55,47.55-21.29,47.55-47.55,47.55-47.55-21.29-47.55-47.55Z"/>
      <polygon class="cls-1" points="1268.06 8.77 1188.81 8.77 1188.81 135.58 1268.06 135.58 1268.06 484.29 1458.27 484.29 1458.27 135.58 1537.52 135.58 1537.52 8.77 1458.27 8.77 1268.06 8.77"/>
      <path class="cls-1" d="M1799.9,0c-136.16,0-246.53,110.38-246.53,246.53s110.38,246.53,246.53,246.53,246.53-110.38,246.53-246.53S1936.06,0,1799.9,0ZM1799.9,316.72c-38.76,0-70.19-31.42-70.19-70.19s31.42-70.19,70.19-70.19,70.19,31.42,70.19,70.19-31.42,70.19-70.19,70.19Z"/>
    </g>
  </g>
</svg>