<svg xmlns="http://www.w3.org/2000/svg" xml:space="preserve" style="enable-background:new 0 0 259 49" viewBox="0 0 259 49"><path d="m35.1 1.7-7.3 13.9c-.8.9-1 1.2-1.9 1.2h-7.2c-1 0-1.2-.3-1.9-1.2L9.4 1.7C8.9.6 7.8 0 6.6 0H0v23.6c0 .9.8 1.7 1.7 1.7 2.7 0 3.7 1.1 4.5 2.2l10.5 19.9c.8.9 1 1.2 1.9 1.2h7.2c1 0 1.2-.3 1.9-1.2l10.5-19.9c.8-1.1 1.7-2.2 4.5-2.2 1 0 1.7-.8 1.7-1.7V0h-6.6c-1 0-2.1.6-2.7 1.7zm213.5 35.5c-.8 0-1.4.5-1.4 1.4 0 .8.5 1.4 1.4 1.4.8 0 1.4-.5 1.4-1.4 0-.8-.5-1.4-1.4-1.4zm1.2 1.4c0 .7-.5 1.1-1.2 1.1s-1.1-.5-1.1-1.2.5-1.1 1.2-1.1c.6.1 1.1.5 1.1 1.2zm-.6.4c0-.3-.2-.3-.4-.3.3 0 .4-.1.4-.4 0-.3-.2-.4-.6-.4h-.6v1.4h.3v-.7l.1.1h.1c.2 0 .3 0 .3.3 0 .2.1.3.3.3.1 0 .2-.1.2-.2l-.1-.1c0 .1 0 .1 0 0zm-.6-.5h-.2v-.4H248.7c.2 0 .3.1.3.2-.1.2-.2.2-.4.2zm3.1-1.2-1.2 2.6h.4l1.2-2.6h-.4zm2.6 1.9-.1.5-.1-.5-.7-1.9h-.6V40h.4v-2.6l.1.5.8 2.1h.3l.8-2 .2-.5-.1.8v1.8h.4v-2.7h-.6l-.8 1.8zm3.4-1.9h-.9V40h.9c.9 0 1.4-.4 1.4-1.3-.1-.9-.5-1.4-1.4-1.4zm.9 1.3c0 .6-.3.9-.9.9h-.5v-2l.2.1h.4c.5.1.8.4.8 1zM93 5.6H81.5c-.9 0-1.5.6-1.5 1.5v1c0 1 .6 1.5 1.5 1.5h2.2c.8 0 1 .5.5 1.2-.1.1-5.8 8-6.3 8.7-.5-.6-6.5-8.3-6.7-8.5-.7-.9-.3-1.4.5-1.4H74c1 0 1.5-.5 1.5-1.5V7c0-.8-.6-1.5-1.5-1.5H60c-.9 0-1.5.6-1.5 1.5v1c0 1 .5 1.5 1.5 1.5 2.4 0 3.2 1 3.9 2l9.5 12.6c.7.8.8 1 1.7 1h3.3c1 0 1.2-.3 1.8-1L89 11.4c1.2-1.8 1.9-1.9 4.1-1.9 1 0 1.5-.5 1.5-1.5V7c0-.8-.7-1.4-1.6-1.4zm25.5 4c1.1 0 1.7-.5 1.7-1.5V7c0-.8-.7-1.5-1.7-1.5h-17.3c-1 0-1.7.6-1.7 1.5v1c0 1 .6 1.5 1.7 1.5 4.4.1 5.5.7 5.5 2v7.7c0 1.2-1.1 1.9-5.5 2-1.1 0-1.7.5-1.7 1.5v1c0 .8.7 1.5 1.7 1.5h17.3c1 0 1.7-.6 1.7-1.5v-1c0-1-.6-1.5-1.7-1.5-4.4-.1-5.5-.8-5.5-2v-7.7c0-1.2 1.1-1.9 5.5-1.9zm8.5 3.1h1c1 0 1.5-.5 1.5-1.5s.2-1.6 1.6-1.6h4.7c2.6 0 2.6.7 2.6 2v7.7c0 1.2 0 1.9-3.9 2-1 0-1.5.5-1.5 1.5v1c0 .8.6 1.5 1.5 1.5h14.2c.9 0 1.5-.6 1.5-1.5v-1c0-1-.6-1.5-1.5-1.5-3.9-.1-3.9-.8-3.9-2v-7.7c0-1.2.3-2 2.6-2h4.8c1.4 0 1.6.7 1.6 1.6 0 .9.6 1.5 1.5 1.5h1c.8 0 1.5-.6 1.5-1.5V7c0-.8-.6-1.5-1.5-1.5H127c-.9 0-1.5.6-1.5 1.5v4.1c0 .9.6 1.6 1.5 1.6zm71.6-3.2c3.9.1 3.4.7 3.4 2v7.7c0 1.2.5 1.9-3.4 2-1 0-1.5.5-1.5 1.5v1c0 .8.6 1.5 1.5 1.5h24.2c.9 0 1.5-.6 1.5-1.5v-4.1c0-.9-.6-1.5-1.5-1.5h-1c-1 0-1.5.5-1.5 1.5s-.2 1.6-1.6 1.6h-8.9c-1.3 0-1.6-.8-1.6-2v-7.7c0-1.2 0-1.9 3.9-2 1 0 1.5-.5 1.5-1.5V7c0-.8-.6-1.5-1.5-1.5h-13.7c-.9 0-1.5.6-1.5 1.5v1c.2 1 .7 1.5 1.7 1.5zm-6.2 14.3v-1c0-1-.6-1.5-1.5-1.5-2.4 0-3.2-1-3.9-2l-9.1-12.6c-.6-.8-.8-1.1-1.7-1.1h-3.3c-1 0-1.2.3-1.8 1.1l-8.5 12.7c-1.2 1.7-1.9 1.9-4.1 1.9-1 0-1.5.5-1.5 1.5v1c0 .8.6 1.5 1.5 1.5h12.1c.9 0 1-.6 1-1.5v-1c0-1-.5-1.5-1.5-1.5h-2.3c-.8 0-.6-.7-.3-1.2 0 0 .2-.3.4-.7h11.7c.1.2.2.3.3.4.7 1.1-.1 1.4-.7 1.4H177c-1 0-1.5.5-1.5 1.5v1c0 .8.6 1.5 1.5 1.5h14c.7 0 1.4-.6 1.4-1.4zm-22.3-8 .7-1c1-1.4 2-2.8 2.5-3.6.4.6 1.5 2 2.7 3.6l.8 1h-6.7zM65 44.1h7.4v-2.4H65v-1.9h9v-2.5H61.6v11.3h12.5v-2.5H65v-2zm9.1 2zm13.4-4.6c-2.1-.2-3.4-.3-3.4-1 0-.8 1.7-1 3-1 1.8 0 3.4.4 4.7 1.3l1.7-2c-1.6-1.1-3.9-1.7-6.4-1.7-3.7 0-6.4 1.2-6.4 3.7s3.2 3.3 6.6 3.5c2.4.2 3.3.4 3.3 1.2 0 .7-1 1.1-3 1.1-2.3 0-4.3-.6-5.7-1.8l-1.8 2c1.8 1.4 4.4 2.2 7.4 2.2 4.3 0 6.5-1.6 6.5-3.9.1-2.6-2.6-3.3-6.5-3.6zm21 0c-2.1-.2-3.4-.3-3.4-1 0-.8 1.7-1 3-1 1.8 0 3.4.4 4.7 1.3l1.7-2c-1.6-1.1-3.9-1.7-6.4-1.7-3.7 0-6.4 1.2-6.4 3.7s3.2 3.3 6.6 3.5c2.4.2 3.3.4 3.3 1.2 0 .7-1 1.1-3 1.1-2.3 0-4.3-.6-5.7-1.8l-1.8 2c1.8 1.4 4.4 2.2 7.4 2.2 4.3 0 6.5-1.6 6.5-3.9 0-2.6-2.7-3.3-6.5-3.6zm17 2.6h7.4v-2.4h-7.4v-1.9h9v-2.5h-12.3v11.3h12.5v-2.5h-9.1v-2zm9.2 2zm18.2-1.9-6.9-6.9h-3.6v11.3h3.3v-7.4l7.6 7.4h3V37.3H153v6.9zm8.8-4.2h4.8v8.7h3.4V40h4.9v-2.6h-13.1V40zm19.8 8.6h3.4V37.3h-3.4v11.3zm16.2-11.3-6.1 11.3h3.6l1.1-2.2h6.4l1.1 2.2h3.6l-6.1-11.3h-3.6zm-.2 6.8 2-4 2 4h-4zm19.8-6.8h-3.4v11.3h11.3V46h-7.9v-8.7zm20.4 4.2c-2.1-.2-3.4-.3-3.4-1 0-.8 1.7-1 3-1 1.8 0 3.4.4 4.7 1.3l1.7-2c-1.6-1.1-3.9-1.7-6.4-1.7-3.7 0-6.4 1.2-6.4 3.7s3.2 3.3 6.6 3.5c2.4.2 3.3.4 3.3 1.2 0 .7-1 1.1-3 1.1-2.3 0-4.3-.6-5.7-1.8l-1.8 2c1.8 1.4 4.4 2.2 7.4 2.2 4.3 0 6.5-1.6 6.5-3.9.1-2.6-2.6-3.3-6.5-3.6z" fill="currentColor"/></svg>
