<svg xmlns="http://www.w3.org/2000/svg" width="617.6" height="107" viewBox="0 0 617.6 107">
  <path d="M15.1 99V8H56.7Q69.2 8 78.2 12Q87.2 16.1 92.2 23.7Q97.1 31.3 97.1 41.7Q97.1 51.9 92.2 59.5Q87.2 67 78.2 71.1Q69.2 75.2 56.7 75.2H29.4L40.8 64V99ZM40.8 66.8 29.4 54.9H55.1Q63.2 54.9 67.2 51.4Q71.1 47.9 71.1 41.7Q71.1 35.3 67.2 31.8Q63.2 28.3 55.1 28.3H29.4L40.8 16.5ZM110.9 99V8H182.3V27.9H136.4V79.1H184V99ZM134.6 62.5V43.2H176.8V62.5ZM187.4 99 227.5 8H252.9L293.2 99H266.4L234.9 20.6H245.1L213.6 99ZM209.3 81.3 216 62.3H260.4L267 81.3ZM323.5 78.8 322 50 361.2 8H389.5L350.5 50.2L336.2 65.2ZM300.5 99V8H325.9V99ZM361.6 99 331.9 61.4 348.7 43.5 391.5 99Z" fill="#F8F8F8"/>
  <path d="M427.9 46.7V14.5H440.5Q444.7 14.5 447.7 15.9Q450.7 17.2 452.3 19.7Q453.9 22.3 453.9 25.8Q453.9 29.3 452.3 31.8Q450.7 34.3 447.7 35.6Q444.7 37 440.5 37H430.5L432.5 34.8V46.7ZM432.5 35.3 430.5 33H440.4Q444.8 33 447.1 31.1Q449.3 29.2 449.3 25.8Q449.3 22.3 447.1 20.4Q444.8 18.5 440.4 18.5H430.5L432.5 16.2ZM461.2 46.7V14.5H483.9V18.5H465.8V42.7H484.5V46.7ZM465.3 32.3V28.4H481.9V32.3ZM498.4 46.7V18.5H487.3V14.5H514V18.5H502.9V46.7Z" fill="#F8F8F8"/>
  <path d="M437.3 92.8Q433.6 92.8 430.3 91.7Q426.9 90.6 425 88.8L426.7 85.2Q428.5 86.8 431.4 87.9Q434.2 88.9 437.3 88.9Q440.1 88.9 441.9 88.3Q443.6 87.6 444.5 86.5Q445.3 85.4 445.3 84Q445.3 82.3 444.2 81.3Q443.1 80.3 441.4 79.7Q439.7 79 437.6 78.6Q435.5 78.1 433.4 77.5Q431.3 76.9 429.6 75.9Q427.9 74.9 426.8 73.3Q425.8 71.7 425.8 69.1Q425.8 66.6 427.1 64.5Q428.4 62.4 431.1 61.2Q433.9 59.9 438.1 59.9Q440.9 59.9 443.7 60.6Q446.4 61.4 448.5 62.7L446.9 66.4Q444.9 65 442.6 64.4Q440.3 63.8 438.1 63.8Q435.4 63.8 433.6 64.5Q431.9 65.2 431.1 66.3Q430.3 67.5 430.3 68.9Q430.3 70.6 431.4 71.6Q432.4 72.6 434.2 73.2Q435.9 73.8 438 74.3Q440 74.8 442.1 75.4Q444.2 76 445.9 77Q447.7 77.9 448.7 79.5Q449.8 81.1 449.8 83.7Q449.8 86.1 448.5 88.2Q447.1 90.3 444.3 91.6Q441.6 92.8 437.3 92.8ZM469.8 92.8Q463.5 92.8 459.9 89.2Q456.2 85.6 456.2 78.6V60.3H460.8V78.4Q460.8 83.8 463.2 86.3Q465.6 88.7 469.9 88.7Q474.3 88.7 476.6 86.3Q479 83.8 479 78.4V60.3H483.5V78.6Q483.5 85.6 479.9 89.2Q476.2 92.8 469.8 92.8ZM492.9 92.5V60.3H505.4Q509.7 60.3 512.7 61.6Q515.7 62.9 517.3 65.5Q518.9 68 518.9 71.5Q518.9 75 517.3 77.5Q515.7 80 512.7 81.4Q509.7 82.7 505.4 82.7H495.4L497.5 80.5V92.5ZM497.5 81 495.4 78.7H505.3Q509.7 78.7 512 76.8Q514.3 74.9 514.3 71.5Q514.3 68 512 66.1Q509.7 64.3 505.3 64.3H495.4L497.5 62ZM526.1 92.5V60.3H538.7Q542.9 60.3 545.9 61.6Q548.9 62.9 550.5 65.5Q552.1 68 552.1 71.5Q552.1 75 550.5 77.5Q548.9 80 545.9 81.4Q542.9 82.7 538.7 82.7H528.6L530.7 80.5V92.5ZM530.7 81 528.6 78.7H538.5Q542.9 78.7 545.2 76.8Q547.5 74.9 547.5 71.5Q547.5 68 545.2 66.1Q542.9 64.3 538.5 64.3H528.6L530.7 62ZM559.3 92.5V60.3H563.9V88.5H581.4V92.5ZM594.4 92.5V80.1L595.5 83L581.6 60.3H586.5L598.2 79.4H595.5L607.2 60.3H611.8L598 83L599 80.1V92.5Z" fill="#F8F8F8"/>
</svg>
